<?xml version="1.0" encoding="utf-8"?>
<!-- Generator: Adobe Illustrator 27.5.0, SVG Export Plug-In . SVG Version: 6.00 Build 0)  -->
<svg version="1.1" id="Layer_1" xmlns="http://www.w3.org/2000/svg" xmlns:xlink="http://www.w3.org/1999/xlink" x="0px" y="0px"
	 viewBox="0 0 500 200" style="enable-background:new 0 0 500 200;" xml:space="preserve">
<style type="text/css">
	.st0{fill:#FF6D2D;}
	.st1{fill:#FFFFFF;}
	.st2{fill:#7C7D7F;}
</style>
<g id="Arrow_4">
</g>
<g>
	<path class="st0" d="M115.3,60.4L84.6,42.7c-5.7-3.3-6.5-3.3-12.3,0L41.7,60.4c-3.4,1.9-6.1,6.7-6.1,10.6v35.4
		c0,3.9,2.8,8.7,6.1,10.6l30.6,17.7c5.7,3.3,6.5,3.3,12.3,0l30.6-17.7c3.4-1.9,6.1-6.7,6.1-10.6V71
		C121.4,67.1,118.7,62.3,115.3,60.4z"/>
	<path class="st1" d="M77.2,99.2L77.2,99.2l-7.1,0c-1.9,0-3.8,0.1-5.4-0.1c-4.6-0.8-7.9-2.9-10.6-6.8c-2.5-3.6-3.4-8-2.4-12.4
		c1.1-4.9,4.3-9.3,8.6-11.8l8-4.6c1.2-0.7,7.9-4.6,9.1-5.3c0.6-0.4,1.1,0,1.1,0.9c0,0.6,0,6.1,0,6.7c0,0.8-0.5,1.8-1.1,2.2
		c-1.2,0.7-3.7,2.1-4.9,2.8l-8,4.6c-2.3,1.3-4,3.7-4.6,6.2c-0.3,1.5-0.4,3.7,1.1,5.7c1.6,2.3,3.1,3.7,6.6,3.6c3.5,0,17.6,0,21.3-0.1
		c2.3,0,4.2,1.5,4.2,3.7c0,1.5-0.8,2.9-2.2,3.7l-11.9,6.9c-0.1,0.1-0.3,0-0.4-0.1c0,0,0-0.1,0-0.1v-4.4
		C78.4,99.7,77.9,99.2,77.2,99.2z"/>
	<path class="st1" d="M105.3,97.6c-1.1,4.9-4.3,9.2-8.6,11.8l-8,4.6c-1.2,0.7-7.9,4.6-9.1,5.3c-0.6,0.4-1.1,0-1.1-0.9
		c0-0.6,0-6.1,0-6.7c0-0.8,0.5-1.8,1.1-2.2c1.2-0.7,3.7-2.1,4.9-2.8l8-4.6c2.3-1.3,4-3.7,4.6-6.2c0.3-1.5,0.4-3.7-1.1-5.7
		c-1.6-2.3-3.1-3.7-6.6-3.6c-3.5,0-17.6,0-21.3,0.1c-2.3,0-4.2-1.5-4.2-3.7c0-1.5,0.8-2.9,2.2-3.7l11.9-6.9c0.1-0.1,0.3,0,0.4,0.1
		c0,0,0,0.1,0,0.1V77c0,0.7,0.6,1.3,1.2,1.3l0,0l7.1,0c1.9,0,3.8-0.1,5.4,0.2c4.6,0.8,7.9,2.9,10.6,6.8
		C105.4,88.7,106.3,93.1,105.3,97.6z"/>
	<g>
		<path class="st1" d="M154.8,95.9V74.5h12.3v2.3h-9.8v6.9h7.2V86h-7.2v9.8H154.8z M169.6,77.5v-3.1h2.7v3.1H169.6z M169.7,95.9V81
			h2.4v14.9H169.7z M181.5,80.7c1,0,2.5,0.2,3.8,0.6v-7.7h2.4v22.3h-1.9l-0.2-1h0c-1.2,0.7-2.7,1.4-4.4,1.4c-3.9,0-5.6-2.3-5.6-7.6
			C175.6,83,177.3,80.7,181.5,80.7z M181.5,94.1c1.4,0,2.9-0.7,3.8-1.3v-9.2c-1-0.5-2.3-0.8-3.5-0.8c-2.7,0-3.8,1.3-3.8,5.7
			C178.1,92.7,179,94.1,181.5,94.1z M202.6,88.7h-8.9c0,4.4,1.7,5.2,4.1,5.2c1.3,0,2.8-0.2,4.2-0.5l0.1,2.2
			c-1.1,0.3-2.9,0.5-4.2,0.5c-4.4,0-6.7-1.8-6.7-7.9c0-5.4,1.9-7.6,6.2-7.6c4.2,0,5.2,2.5,5.2,6.2V88.7z M200.2,86.8
			c0-2.3-0.2-4-2.8-4c-2.3,0-3.4,0.9-3.6,4H200.2z M205.9,77.5v-3.1h2.7v3.1H205.9z M206.1,95.9V81h2.4v14.9H206.1z M218.6,80.7
			c1.1,0,2.2,0.1,3.4,0.3l-0.1,2.2c-1-0.2-2.4-0.3-3.3-0.3c-3.7,0-4.2,3.1-4.2,5.6c0,4.4,1.6,5.5,4.1,5.5c1.1,0,2.3-0.2,3.6-0.3
			l0.1,2.2c-1.1,0.3-2.5,0.4-3.5,0.4c-4.4,0-6.7-2-6.7-7.7C211.9,82.7,214.2,80.7,218.6,80.7z M230.9,96.2c-4.2,0-6.4-2.2-6.4-7.7
			c0-5.6,2.2-7.7,6.4-7.7c4.2,0,6.4,2.2,6.4,7.7C237.3,94,235.2,96.2,230.9,96.2z M230.9,82.9c-2.4,0-4,1.1-4,5.6
			c0,4.5,1.6,5.5,4,5.5c2.4,0,4-1.1,4-5.5C234.9,84,233.3,82.9,230.9,82.9z M259.4,95.9H257V84.8c0-1.4-0.7-2-1.7-2
			c-1.5,0-2.9,0.6-4,1.3v11.7h-2.4V84.8c0-1.4-0.7-2-1.7-2c-1.5,0-2.9,0.6-4,1.3v11.7h-2.4V81h1.9l0.2,1h0c1.4-0.9,2.9-1.4,4.6-1.4
			c1.5,0,2.6,0.5,3.3,1.5h0c1.4-0.9,3-1.5,4.9-1.5c2.3,0,3.9,1.3,3.9,3.7V95.9z M263.2,77.5v-3.1h2.7v3.1H263.2z M263.3,95.9V81h2.4
			v14.9H263.3z M273.5,96.2c-1,0-2.9-0.1-4-0.3l0.1-2.2c0.8,0.1,2.3,0.3,3.8,0.3c1.7,0,3.3-0.4,3.3-1.8c0-0.9-0.7-1.3-1.4-1.7
			l-3.4-2.2c-1.3-0.8-2.7-1.8-2.7-4c0-2.6,2-3.7,5.1-3.7c1,0,2.8,0.1,3.9,0.3l-0.1,2.1c-0.7-0.1-2-0.3-3.3-0.3
			c-1.6,0-3.1,0.2-3.1,1.5c0,0.9,0.6,1.4,1.2,1.7l3.5,2.2c1.7,1.1,2.7,1.9,2.7,4C279.1,95,276.5,96.2,273.5,96.2z M288,96.2
			c-4.2,0-6.4-2.2-6.4-7.7c0-5.6,2.2-7.7,6.4-7.7c4.2,0,6.4,2.2,6.4,7.7C294.4,94,292.2,96.2,288,96.2z M288,82.9
			c-2.4,0-3.9,1.1-3.9,5.6c0,4.5,1.6,5.5,3.9,5.5c2.4,0,3.9-1.1,3.9-5.5C291.9,84,290.4,82.9,288,82.9z M310.1,96.2
			c-1,0-2.5-0.2-3.8-0.6v6.8h-2.4V81h1.9l0.2,1h0c1.2-0.7,2.7-1.4,4.4-1.4c3.9,0,5.6,2.3,5.6,7.6C316,93.9,314.3,96.2,310.1,96.2z
			 M310.2,82.8c-1.4,0-2.9,0.7-3.8,1.3v9.2c1,0.5,2.3,0.8,3.5,0.8c2.7,0,3.8-1.3,3.8-5.7C313.6,84.2,312.6,82.8,310.2,82.8z
			 M327.5,95.9l-0.2-0.9h0c-1.2,0.7-2.7,1.1-4.2,1.1c-2.4,0-4.7-1.2-4.7-4.3c0-0.9,0.2-2.1,1.1-3c1.6-1.6,5.1-1.6,7.5-1.6v-2.3
			c0-1.6-0.9-2-2.6-2c-1.6,0-3.6,0.3-4.7,0.6l-0.1-2.1c1.1-0.3,3.3-0.6,4.8-0.6c2.7,0,5,0.8,5,3.7v11.5H327.5z M327,89.1
			c-1.5,0-4.6,0-5.6,1c-0.5,0.5-0.5,1.1-0.5,1.6c0,1.7,1.1,2.2,2.4,2.2c1.4,0,2.9-0.5,3.8-1.1V89.1z M340.5,83.1
			c-0.3,0-0.7-0.1-1-0.1c-1.6,0-2.9,0.6-4,2v10.9h-2.4V81h1.8l0.3,1.5h0.1c1.1-1.2,2.2-1.8,4-1.8c0.3,0,0.9,0,1.2,0.1L340.5,83.1z
			 M350.7,95.9l-0.2-0.9h0c-1.2,0.7-2.7,1.1-4.2,1.1c-2.4,0-4.7-1.2-4.7-4.3c0-0.9,0.2-2.1,1.1-3c1.6-1.6,5.1-1.6,7.5-1.6v-2.3
			c0-1.6-0.9-2-2.6-2c-1.6,0-3.6,0.3-4.7,0.6l-0.1-2.1c1.1-0.3,3.3-0.6,4.8-0.6c2.7,0,5,0.8,5,3.7v11.5H350.7z M350.2,89.1
			c-1.5,0-4.6,0-5.6,1c-0.5,0.5-0.5,1.1-0.5,1.6c0,1.7,1.1,2.2,2.4,2.2c1.5,0,2.9-0.5,3.8-1.1V89.1z M371,74.2
			c1.4,0,2.8,0.1,4.4,0.4l-0.1,2.4c-1.5-0.3-3.2-0.4-4.5-0.4c-4,0-5.8,1.6-5.8,8.6c0,6.9,2.1,8.5,6,8.5c1.3,0,2.8-0.2,4.5-0.4
			l0.1,2.4c-1.6,0.3-3.1,0.5-4.4,0.5c-5.8,0-8.9-2.7-8.9-11C362.3,76.8,365.2,74.2,371,74.2z M378.6,77.5v-3.1h2.7v3.1H378.6z
			 M378.7,95.9V81h2.4v14.9H378.7z M396,88.7h-8.9c0,4.4,1.7,5.2,4.1,5.2c1.3,0,2.8-0.2,4.2-0.5l0.1,2.2c-1.1,0.3-2.9,0.5-4.2,0.5
			c-4.4,0-6.7-1.8-6.7-7.9c0-5.4,1.9-7.6,6.2-7.6c4.2,0,5.2,2.5,5.2,6.2V88.7z M393.6,86.8c0-2.3-0.2-4-2.8-4c-2.3,0-3.4,0.9-3.6,4
			H393.6z M410.8,95.9h-2.4V84.8c0-1.4-0.8-2-2.1-2c-1.7,0-3.3,0.6-4.6,1.3v11.7h-2.4V81h1.9l0.2,1h0c1.6-0.9,3.3-1.4,5.1-1.4
			c2.5,0,4.2,1.3,4.2,3.7V95.9z M420.7,80.7c1.1,0,2.2,0.1,3.4,0.3l-0.1,2.2c-1-0.2-2.4-0.3-3.3-0.3c-3.7,0-4.2,3.1-4.2,5.6
			c0,4.4,1.6,5.5,4.1,5.5c1.1,0,2.3-0.2,3.6-0.3l0.1,2.2c-1.1,0.3-2.5,0.4-3.5,0.4c-4.4,0-6.7-2-6.7-7.7
			C414,82.7,416.3,80.7,420.7,80.7z M427.2,77.5v-3.1h2.7v3.1H427.2z M427.4,95.9V81h2.4v14.9H427.4z M442,95.9l-0.2-0.9h0
			c-1.2,0.7-2.7,1.1-4.2,1.1c-2.4,0-4.7-1.2-4.7-4.3c0-0.9,0.2-2.1,1.1-3c1.6-1.6,5.1-1.6,7.5-1.6v-2.3c0-1.6-0.9-2-2.6-2
			c-1.6,0-3.6,0.3-4.7,0.6l-0.1-2.1c1.1-0.3,3.3-0.6,4.8-0.6c2.7,0,5,0.8,5,3.7v11.5H442z M441.5,89.1c-1.5,0-4.6,0-5.6,1
			c-0.5,0.5-0.5,1.1-0.5,1.6c0,1.7,1.1,2.2,2.4,2.2c1.5,0,2.9-0.5,3.8-1.1V89.1z M451.4,95.5c-0.5,1.4-1.5,3.3-2.1,4.4h-2
			c0.4-1,1.1-3.5,1.4-4.4l-0.1-3h2.9L451.4,95.5z M161.1,108.7v19h-2.5v-19h-5.7v-2.3h13.8v2.3H161.1z M177.7,120.6h-8.9
			c0,4.4,1.7,5.2,4.1,5.2c1.3,0,2.8-0.2,4.2-0.5l0.1,2.2c-1.1,0.3-2.9,0.5-4.2,0.5c-4.4,0-6.7-1.8-6.7-7.9c0-5.4,1.9-7.6,6.2-7.6
			c4.2,0,5.2,2.5,5.2,6.2V120.6z M175.3,118.6c0-2.3-0.2-4-2.8-4c-2.3,0-3.4,0.9-3.6,4H175.3z M187.1,112.5c1.1,0,2.2,0.1,3.4,0.3
			l-0.1,2.1c-1-0.2-2.4-0.3-3.3-0.3c-3.7,0-4.2,3.1-4.2,5.6c0,4.4,1.6,5.5,4.1,5.5c1.1,0,2.3-0.2,3.6-0.3l0.1,2.2
			c-1.1,0.3-2.5,0.4-3.5,0.4c-4.4,0-6.7-2-6.7-7.7C180.4,114.6,182.7,112.5,187.1,112.5z M205.1,127.7h-2.4v-11.1c0-1.4-0.8-2-2.1-2
			c-1.7,0-3.3,0.6-4.6,1.3v11.7h-2.4v-14.9h1.9l0.2,1h0c1.6-0.9,3.3-1.4,5.2-1.4c2.5,0,4.2,1.3,4.2,3.7V127.7z M214.7,128
			c-4.2,0-6.4-2.2-6.4-7.7c0-5.6,2.2-7.7,6.4-7.7c4.2,0,6.4,2.2,6.4,7.7C221.1,125.8,218.9,128,214.7,128z M214.7,114.7
			c-2.4,0-3.9,1.1-3.9,5.6c0,4.5,1.6,5.5,3.9,5.5c2.4,0,3.9-1.1,3.9-5.5C218.7,115.8,217.1,114.7,214.7,114.7z M224.6,127.7v-22.3
			h2.4v22.3H224.6z M237,128c-4.2,0-6.4-2.2-6.4-7.7c0-5.6,2.2-7.7,6.4-7.7c4.2,0,6.4,2.2,6.4,7.7C243.4,125.8,241.2,128,237,128z
			 M237,114.7c-2.4,0-4,1.1-4,5.6c0,4.5,1.6,5.5,4,5.5c2.4,0,3.9-1.1,3.9-5.5C240.9,115.8,239.4,114.7,237,114.7z M259.8,114.8
			c-0.9,0.2-2.2,0.3-3.2,0.4v0.1c0.4,0.7,0.8,1.7,0.8,2.8c0,4.1-2.2,5.7-5.7,5.7c-0.4,0-1,0-1.5-0.1l-0.7,0.9
			c-0.2,0.3-0.4,0.7-0.4,1c0,0.3,0.2,0.5,0.8,0.5h4.6c3.1,0,4.2,1.6,4.2,3.7c0,1.4-0.4,2.4-1.2,3.1c-1.4,1.4-3.9,1.7-6,1.7
			c-1.7,0-3.6-0.3-4.6-1.3c-0.6-0.6-1-1.4-1-2.4c0-1.1,0.6-2.2,1.6-3.1v0c-0.4-0.3-0.9-0.9-0.9-1.8c0-0.8,0.4-1.4,0.8-1.9l0.9-1.1v0
			c-1.2-0.8-2-2.3-2-4.8c0-4,2.3-5.5,5.6-5.5c1.5,0,2.7,0.5,4.3,0.5c1.1,0,2.7-0.2,3.6-0.4L259.8,114.8z M254.4,128.1h-4.6
			c-0.9,0.8-1.6,1.5-1.6,2.3c0,0.5,0.1,0.9,0.4,1.2c0.7,0.6,2,0.7,3.1,0.7c1,0,2.8-0.1,3.9-1c0.4-0.4,0.7-0.9,0.7-1.7
			C256.4,129,255.9,128.1,254.4,128.1z M251.8,114.7c-1.8,0-3.3,0.7-3.3,3.3c0,2.8,1.4,3.5,3.3,3.5c1.9,0,3.3-0.7,3.3-3.5
			C255.1,115.4,253.6,114.7,251.8,114.7z M262.2,127.7v-14.9h2.4v14.9H262.2z M264.2,110.6h-1.9l1.8-4.6h2.9L264.2,110.6z
			 M276.8,127.7l-0.2-0.9h0c-1.2,0.7-2.7,1.1-4.2,1.1c-2.4,0-4.7-1.2-4.7-4.3c0-0.9,0.2-2.1,1.1-3c1.6-1.6,5.1-1.6,7.5-1.6v-2.3
			c0-1.6-0.9-2-2.6-2c-1.6,0-3.6,0.3-4.7,0.6l-0.1-2.1c1.1-0.3,3.3-0.6,4.8-0.6c2.7,0,5,0.8,5,3.7v11.5H276.8z M276.3,120.9
			c-1.5,0-4.6,0-5.6,1c-0.5,0.5-0.5,1.1-0.5,1.6c0,1.7,1.1,2.2,2.4,2.2c1.5,0,2.9-0.5,3.8-1.1V120.9z M299.5,120.6h-8.9
			c0,4.4,1.7,5.2,4.1,5.2c1.3,0,2.8-0.2,4.2-0.5l0.1,2.2c-1.1,0.3-2.9,0.5-4.2,0.5c-4.4,0-6.7-1.8-6.7-7.9c0-5.4,1.9-7.6,6.2-7.6
			c4.2,0,5.2,2.5,5.2,6.2V120.6z M297.1,118.6c0-2.3-0.2-4-2.8-4c-2.3,0-3.4,0.9-3.6,4H297.1z M309.5,127.7v-21.3h2.5v21.3H309.5z
			 M327.9,127.7h-2.4v-11.1c0-1.4-0.8-2-2.1-2c-1.7,0-3.3,0.6-4.6,1.3v11.7h-2.4v-14.9h1.9l0.2,1h0c1.6-0.9,3.3-1.4,5.2-1.4
			c2.5,0,4.2,1.3,4.2,3.7V127.7z M340.8,112.8h2.5l-5,14.9h-3.1l-5-14.9h2.6l3.4,10.4c0.2,0.6,0.4,1.3,0.6,2.2h0.1
			c0.2-1,0.4-1.7,0.6-2.2L340.8,112.8z M356.2,120.6h-8.9c0,4.4,1.7,5.2,4.1,5.2c1.3,0,2.8-0.2,4.2-0.5l0.1,2.2
			c-1.1,0.3-2.9,0.5-4.2,0.5c-4.4,0-6.7-1.8-6.7-7.9c0-5.4,1.9-7.6,6.2-7.6c4.2,0,5.2,2.5,5.2,6.2V120.6z M353.8,118.6
			c0-2.3-0.2-4-2.8-4c-2.3,0-3.4,0.9-3.6,4H353.8z M363.3,128c-1,0-2.9-0.1-4-0.3l0.1-2.2c0.8,0.1,2.3,0.3,3.8,0.3
			c1.7,0,3.3-0.4,3.3-1.8c0-0.9-0.7-1.3-1.4-1.7l-3.4-2.1c-1.3-0.8-2.7-1.8-2.7-4c0-2.6,2-3.7,5.1-3.7c1,0,2.8,0.1,3.9,0.3l-0.1,2.1
			c-0.7-0.1-2-0.3-3.3-0.3c-1.6,0-3.1,0.2-3.1,1.5c0,0.9,0.6,1.4,1.2,1.7l3.5,2.2c1.7,1.1,2.7,1.9,2.7,3.9
			C368.8,126.9,366.3,128,363.3,128z M375.1,115v9.3c0,0.8,0.3,1.5,1.5,1.5c0.7,0,2-0.1,3-0.4l0.1,2.1c-1.2,0.3-2.2,0.4-3.3,0.4
			c-2.9,0-3.7-1.5-3.7-3.3V115h-2.3v-1.9l2.3-0.3l0.1-4h2.3v4h4.5v2.2H375.1z M382.4,109.3v-3.1h2.7v3.1H382.4z M382.6,127.7v-14.9
			h2.4v14.9H382.6z M402.1,114.8c-0.9,0.2-2.1,0.3-3.2,0.4v0.1c0.4,0.7,0.8,1.7,0.8,2.8c0,4.1-2.2,5.7-5.7,5.7c-0.4,0-1,0-1.5-0.1
			l-0.7,0.9c-0.2,0.3-0.4,0.7-0.4,1c0,0.3,0.2,0.5,0.8,0.5h4.6c3.1,0,4.2,1.6,4.2,3.7c0,1.4-0.4,2.4-1.2,3.1c-1.4,1.4-3.9,1.7-6,1.7
			c-1.7,0-3.6-0.3-4.6-1.3c-0.6-0.6-0.9-1.4-0.9-2.4c0-1.1,0.6-2.2,1.5-3.1v0c-0.4-0.3-0.9-0.9-0.9-1.8c0-0.8,0.4-1.4,0.8-1.9
			l0.9-1.1v0c-1.2-0.8-2-2.3-2-4.8c0-4,2.3-5.5,5.6-5.5c1.5,0,2.7,0.5,4.3,0.5c1.1,0,2.7-0.2,3.6-0.4L402.1,114.8z M396.7,128.1
			h-4.6c-1,0.8-1.6,1.5-1.6,2.3c0,0.5,0.1,0.9,0.4,1.2c0.7,0.6,2,0.7,3.1,0.7c0.9,0,2.8-0.1,3.9-1c0.4-0.4,0.7-0.9,0.7-1.7
			C398.7,129,398.3,128.1,396.7,128.1z M394.2,114.7c-1.8,0-3.3,0.7-3.3,3.3c0,2.8,1.4,3.5,3.3,3.5c1.9,0,3.3-0.7,3.3-3.5
			C397.4,115.4,396,114.7,394.2,114.7z M412.5,127.7l-0.2-0.9h0c-1.2,0.7-2.7,1.1-4.2,1.1c-2.4,0-4.7-1.2-4.7-4.3
			c0-0.9,0.2-2.1,1.1-3c1.6-1.6,5.1-1.6,7.5-1.6v-2.3c0-1.6-0.9-2-2.6-2c-1.6,0-3.6,0.3-4.7,0.6l-0.1-2.1c1.1-0.3,3.3-0.6,4.8-0.6
			c2.7,0,5,0.8,5,3.7v11.5H412.5z M412,120.9c-1.6,0-4.6,0-5.6,1c-0.5,0.5-0.5,1.1-0.5,1.6c0,1.7,1.1,2.2,2.4,2.2
			c1.5,0,2.9-0.5,3.8-1.1V120.9z M424.2,112.5c1.1,0,2.2,0.1,3.4,0.3l-0.1,2.1c-1-0.2-2.4-0.3-3.3-0.3c-3.7,0-4.2,3.1-4.2,5.6
			c0,4.4,1.6,5.5,4.1,5.5c1.1,0,2.3-0.2,3.6-0.3l0.1,2.2c-1.1,0.3-2.5,0.4-3.5,0.4c-4.4,0-6.7-2-6.7-7.7
			C417.6,114.6,419.8,112.5,424.2,112.5z M430.8,109.3v-3.1h2.7v3.1H430.8z M430.9,127.7v-14.9h2.4v14.9H430.9z M443.2,128
			c-4.2,0-6.4-2.2-6.4-7.7c0-5.6,2.2-7.7,6.4-7.7c4.2,0,6.4,2.2,6.4,7.7C449.6,125.8,447.4,128,443.2,128z M443.2,114.7
			c-2.4,0-3.9,1.1-3.9,5.6c0,4.5,1.6,5.5,3.9,5.5c2.4,0,4-1.1,4-5.5C447.2,115.8,445.6,114.7,443.2,114.7z M444.2,110.6h-1.9
			l1.8-4.6h2.9L444.2,110.6z M464.4,127.7H462v-11.1c0-1.4-0.8-2-2.1-2c-1.7,0-3.3,0.6-4.6,1.3v11.7h-2.4v-14.9h1.9l0.2,1h0
			c1.6-0.9,3.3-1.4,5.1-1.4c2.5,0,4.2,1.3,4.2,3.7V127.7z M159.6,144.3c1,0,2.5,0.2,3.8,0.6v-7.7h2.4v22.3h-1.9l-0.2-1h0
			c-1.2,0.7-2.7,1.4-4.4,1.4c-3.9,0-5.6-2.3-5.6-7.6C153.7,146.6,155.4,144.3,159.6,144.3z M159.5,157.7c1.4,0,2.9-0.7,3.8-1.3v-9.2
			c-1-0.5-2.3-0.8-3.5-0.8c-2.7,0-3.8,1.3-3.8,5.7C156.1,156.3,157.1,157.7,159.5,157.7z M180.7,152.4h-8.9c0,4.4,1.7,5.2,4.1,5.2
			c1.3,0,2.8-0.2,4.2-0.5l0.1,2.2c-1.1,0.3-2.9,0.5-4.2,0.5c-4.4,0-6.7-1.8-6.7-7.9c0-5.4,1.9-7.6,6.2-7.6c4.2,0,5.2,2.5,5.2,6.2
			V152.4z M178.3,150.4c0-2.3-0.2-4-2.8-4c-2.3,0-3.4,0.9-3.6,4H178.3z M198.5,151.3h-5.3v8.2h-2.5v-21.3h7.9c3.9,0,5.2,2.9,5.2,6.6
			C203.7,148.4,202.5,151.3,198.5,151.3z M198.2,140.5h-5v8.4h5c2.3,0,3-1.7,3-4.2C201.2,142.2,200.5,140.5,198.2,140.5z
			 M206.4,144.7h2.4v11.1c0,1.4,0.8,2,2.1,2c1.7,0,3.3-0.6,4.6-1.3v-11.7h2.4v14.9H216l-0.2-1h0c-1.6,0.9-3.3,1.4-5.2,1.4
			c-2.5,0-4.2-1.3-4.2-3.7V144.7z M232.6,152.4h-8.9c0,4.4,1.7,5.2,4.1,5.2c1.3,0,2.8-0.2,4.2-0.5l0.1,2.2c-1.1,0.3-2.9,0.5-4.2,0.5
			c-4.4,0-6.7-1.8-6.7-7.9c0-5.4,1.9-7.6,6.2-7.6c4.2,0,5.2,2.5,5.2,6.2V152.4z M230.2,150.4c0-2.3-0.2-4-2.8-4
			c-2.3,0-3.4,0.9-3.6,4H230.2z M243.3,146.7c-0.3,0-0.7-0.1-0.9-0.1c-1.6,0-2.9,0.6-3.9,2v10.9H236v-14.9h1.8l0.3,1.5h0.1
			c1.1-1.2,2.2-1.8,4-1.8c0.3,0,0.9,0,1.2,0.1L243.3,146.7z M249.8,146.9v9.3c0,0.8,0.3,1.5,1.5,1.5c0.7,0,2-0.1,3-0.3l0.1,2.1
			c-1.2,0.3-2.2,0.4-3.3,0.4c-2.9,0-3.7-1.5-3.7-3.3v-9.6h-2.3V145l2.3-0.4l0.1-4h2.3v4h4.5v2.2H249.8z M262.6,159.8
			c-4.2,0-6.4-2.2-6.4-7.7c0-5.6,2.2-7.7,6.4-7.7c4.2,0,6.4,2.2,6.4,7.7C269,157.6,266.8,159.8,262.6,159.8z M262.6,146.5
			c-2.4,0-3.9,1.1-3.9,5.6c0,4.5,1.6,5.5,3.9,5.5c2.4,0,4-1.1,4-5.5C266.5,147.6,265,146.5,262.6,146.5z M287.7,150.6l4.5,8.9h-2.8
			l-4.4-8.8h-3.6v8.8H279v-21.3h7.9c3.9,0,5.2,2.8,5.2,6.3C292,147.7,290.9,150.2,287.7,150.6z M286.5,140.5h-5v7.8h5
			c2.3,0,3-1.5,3-3.9C289.5,142.1,288.8,140.5,286.5,140.5z M295.3,141.1V138h2.7v3.1H295.3z M295.5,159.5v-14.9h2.4v14.9H295.5z
			 M308,144.3c1.1,0,2.2,0.1,3.4,0.3l-0.1,2.1c-1-0.2-2.4-0.3-3.3-0.3c-3.7,0-4.2,3.1-4.2,5.6c0,4.4,1.6,5.5,4.1,5.5
			c1.1,0,2.3-0.2,3.6-0.3l0.1,2.2c-1.1,0.2-2.5,0.4-3.5,0.4c-4.4,0-6.7-2-6.7-7.7C301.3,146.4,303.6,144.3,308,144.3z M320.3,159.8
			c-4.2,0-6.4-2.2-6.4-7.7c0-5.6,2.2-7.7,6.4-7.7c4.2,0,6.4,2.2,6.4,7.7C326.7,157.6,324.6,159.8,320.3,159.8z M320.3,146.5
			c-2.4,0-4,1.1-4,5.6c0,4.5,1.6,5.5,4,5.5c2.4,0,4-1.1,4-5.5C324.3,147.6,322.7,146.5,320.3,146.5z"/>
	</g>
</g>
</svg>
