%TF.GenerationSoftware,KiCad,Pcbnew,7.0.9*%
%TF.CreationDate,2023-12-28T12:29:42-06:00*%
%TF.ProjectId,bsidesPR,62736964-6573-4505-922e-6b696361645f,rev?*%
%TF.SameCoordinates,Original*%
%TF.FileFunction,Paste,Top*%
%TF.FilePolarity,Positive*%
%FSLAX46Y46*%
G04 Gerber Fmt 4.6, Leading zero omitted, Abs format (unit mm)*
G04 Created by KiCad (PCBNEW 7.0.9) date 2023-12-28 12:29:42*
%MOMM*%
%LPD*%
G01*
G04 APERTURE LIST*
%ADD10R,1.500000X0.900000*%
G04 APERTURE END LIST*
D10*
%TO.C,D4*%
X47400000Y-74500000D03*
X47400000Y-77800000D03*
X52300000Y-77800000D03*
X52300000Y-74500000D03*
%TD*%
%TO.C,D5*%
X74600000Y-76600000D03*
X74600000Y-79900000D03*
X79500000Y-79900000D03*
X79500000Y-76600000D03*
%TD*%
%TO.C,D35*%
X145300000Y-63750000D03*
X145300000Y-67050000D03*
X150200000Y-67050000D03*
X150200000Y-63750000D03*
%TD*%
%TO.C,D44*%
X125820000Y-116968000D03*
X125820000Y-120268000D03*
X130720000Y-120268000D03*
X130720000Y-116968000D03*
%TD*%
%TO.C,D27*%
X90250000Y-157650000D03*
X90250000Y-160950000D03*
X95150000Y-160950000D03*
X95150000Y-157650000D03*
%TD*%
%TO.C,D33*%
X144050000Y-95850000D03*
X144050000Y-99150000D03*
X148950000Y-99150000D03*
X148950000Y-95850000D03*
%TD*%
%TO.C,D26*%
X80100000Y-141250000D03*
X80100000Y-144550000D03*
X85000000Y-144550000D03*
X85000000Y-141250000D03*
%TD*%
%TO.C,D49*%
X124200000Y-134450000D03*
X124200000Y-131150000D03*
X119300000Y-131150000D03*
X119300000Y-134450000D03*
%TD*%
%TO.C,D9*%
X71350000Y-119050000D03*
X71350000Y-122350000D03*
X76250000Y-122350000D03*
X76250000Y-119050000D03*
%TD*%
%TO.C,D2*%
X37650000Y-65350000D03*
X37650000Y-68650000D03*
X42550000Y-68650000D03*
X42550000Y-65350000D03*
%TD*%
%TO.C,D25*%
X90050000Y-127350000D03*
X90050000Y-130650000D03*
X94950000Y-130650000D03*
X94950000Y-127350000D03*
%TD*%
%TO.C,D12*%
X56050000Y-144750000D03*
X56050000Y-148050000D03*
X60950000Y-148050000D03*
X60950000Y-144750000D03*
%TD*%
%TO.C,D13*%
X47250000Y-134950000D03*
X47250000Y-138250000D03*
X52150000Y-138250000D03*
X52150000Y-134950000D03*
%TD*%
%TO.C,D32*%
X122800000Y-95550000D03*
X122800000Y-98850000D03*
X127700000Y-98850000D03*
X127700000Y-95550000D03*
%TD*%
%TO.C,D23*%
X90150000Y-111050000D03*
X90150000Y-114350000D03*
X95050000Y-114350000D03*
X95050000Y-111050000D03*
%TD*%
%TO.C,D43*%
X108950000Y-119500000D03*
X108950000Y-122800000D03*
X113850000Y-122800000D03*
X113850000Y-119500000D03*
%TD*%
%TO.C,D11*%
X35550000Y-142550000D03*
X35550000Y-145850000D03*
X40450000Y-145850000D03*
X40450000Y-142550000D03*
%TD*%
%TO.C,D31*%
X115300000Y-82500000D03*
X115300000Y-85800000D03*
X120200000Y-85800000D03*
X120200000Y-82500000D03*
%TD*%
%TO.C,D10*%
X36850000Y-124050000D03*
X36850000Y-127350000D03*
X41750000Y-127350000D03*
X41750000Y-124050000D03*
%TD*%
%TO.C,D14*%
X63850000Y-131950000D03*
X63850000Y-135250000D03*
X68750000Y-135250000D03*
X68750000Y-131950000D03*
%TD*%
%TO.C,D47*%
X136850000Y-133000000D03*
X136850000Y-136300000D03*
X141750000Y-136300000D03*
X141750000Y-133000000D03*
%TD*%
%TO.C,D40*%
X164850000Y-63950000D03*
X164850000Y-67250000D03*
X169750000Y-67250000D03*
X169750000Y-63950000D03*
%TD*%
%TO.C,D8*%
X54600000Y-114450000D03*
X54600000Y-117750000D03*
X59500000Y-117750000D03*
X59500000Y-114450000D03*
%TD*%
%TO.C,D21*%
X104950000Y-96450000D03*
X104950000Y-99750000D03*
X109850000Y-99750000D03*
X109850000Y-96450000D03*
%TD*%
%TO.C,D16*%
X93650000Y-43950000D03*
X93650000Y-47250000D03*
X98550000Y-47250000D03*
X98550000Y-43950000D03*
%TD*%
%TO.C,D17*%
X107000000Y-59300000D03*
X107000000Y-62600000D03*
X111900000Y-62600000D03*
X111900000Y-59300000D03*
%TD*%
%TO.C,D24*%
X90050000Y-119350000D03*
X90050000Y-122650000D03*
X94950000Y-122650000D03*
X94950000Y-119350000D03*
%TD*%
%TO.C,D28*%
X76150000Y-160350000D03*
X76150000Y-163650000D03*
X81050000Y-163650000D03*
X81050000Y-160350000D03*
%TD*%
%TO.C,D42*%
X110750000Y-107150000D03*
X110750000Y-110450000D03*
X115650000Y-110450000D03*
X115650000Y-107150000D03*
%TD*%
%TO.C,D1*%
X39050000Y-87050000D03*
X39050000Y-90350000D03*
X43950000Y-90350000D03*
X43950000Y-87050000D03*
%TD*%
%TO.C,D34*%
X152550000Y-81750000D03*
X152550000Y-85050000D03*
X157450000Y-85050000D03*
X157450000Y-81750000D03*
%TD*%
%TO.C,D48*%
X149850000Y-136450000D03*
X149850000Y-139750000D03*
X154750000Y-139750000D03*
X154750000Y-136450000D03*
%TD*%
%TO.C,D7*%
X68600000Y-106500000D03*
X68600000Y-109800000D03*
X73500000Y-109800000D03*
X73500000Y-106500000D03*
%TD*%
%TO.C,D50*%
X138650000Y-151000000D03*
X138650000Y-147700000D03*
X133750000Y-147700000D03*
X133750000Y-151000000D03*
%TD*%
%TO.C,D37*%
X173550000Y-48750000D03*
X173550000Y-52050000D03*
X178450000Y-52050000D03*
X178450000Y-48750000D03*
%TD*%
%TO.C,D6*%
X54650000Y-96050000D03*
X54650000Y-99350000D03*
X59550000Y-99350000D03*
X59550000Y-96050000D03*
%TD*%
%TO.C,D41*%
X133550000Y-82650000D03*
X133550000Y-85950000D03*
X138450000Y-85950000D03*
X138450000Y-82650000D03*
%TD*%
%TO.C,D18*%
X93850000Y-58550000D03*
X93850000Y-61850000D03*
X98750000Y-61850000D03*
X98750000Y-58550000D03*
%TD*%
%TO.C,D30*%
X102050000Y-160450000D03*
X102050000Y-163750000D03*
X106950000Y-163750000D03*
X106950000Y-160450000D03*
%TD*%
%TO.C,D46*%
X102850000Y-141650000D03*
X102850000Y-144950000D03*
X107750000Y-144950000D03*
X107750000Y-141650000D03*
%TD*%
%TO.C,D29*%
X89350000Y-173150000D03*
X89350000Y-176450000D03*
X94250000Y-176450000D03*
X94250000Y-173150000D03*
%TD*%
%TO.C,D15*%
X81250000Y-58550000D03*
X81250000Y-61850000D03*
X86150000Y-61850000D03*
X86150000Y-58550000D03*
%TD*%
%TO.C,D38*%
X183550000Y-62050000D03*
X183550000Y-65350000D03*
X188450000Y-65350000D03*
X188450000Y-62050000D03*
%TD*%
%TO.C,D19*%
X92550000Y-75150000D03*
X92550000Y-78450000D03*
X97450000Y-78450000D03*
X97450000Y-75150000D03*
%TD*%
%TO.C,D39*%
X188050000Y-35200000D03*
X188050000Y-38500000D03*
X192950000Y-38500000D03*
X192950000Y-35200000D03*
%TD*%
%TO.C,D45*%
X143100000Y-120000000D03*
X143100000Y-123300000D03*
X148000000Y-123300000D03*
X148000000Y-120000000D03*
%TD*%
%TO.C,D22*%
X89950000Y-105250000D03*
X89950000Y-108550000D03*
X94850000Y-108550000D03*
X94850000Y-105250000D03*
%TD*%
%TO.C,D20*%
X75950000Y-95250000D03*
X75950000Y-98550000D03*
X80850000Y-98550000D03*
X80850000Y-95250000D03*
%TD*%
%TO.C,D36*%
X156300000Y-49100000D03*
X156300000Y-52400000D03*
X161200000Y-52400000D03*
X161200000Y-49100000D03*
%TD*%
%TO.C,D3*%
X56700000Y-64600000D03*
X56700000Y-67900000D03*
X61600000Y-67900000D03*
X61600000Y-64600000D03*
%TD*%
M02*
