%TF.GenerationSoftware,KiCad,Pcbnew,7.0.9*%
%TF.CreationDate,2023-12-28T12:29:43-06:00*%
%TF.ProjectId,bsidesPR,62736964-6573-4505-922e-6b696361645f,rev?*%
%TF.SameCoordinates,Original*%
%TF.FileFunction,Legend,Bot*%
%TF.FilePolarity,Positive*%
%FSLAX46Y46*%
G04 Gerber Fmt 4.6, Leading zero omitted, Abs format (unit mm)*
G04 Created by KiCad (PCBNEW 7.0.9) date 2023-12-28 12:29:43*
%MOMM*%
%LPD*%
G01*
G04 APERTURE LIST*
G04 Aperture macros list*
%AMRoundRect*
0 Rectangle with rounded corners*
0 $1 Rounding radius*
0 $2 $3 $4 $5 $6 $7 $8 $9 X,Y pos of 4 corners*
0 Add a 4 corners polygon primitive as box body*
4,1,4,$2,$3,$4,$5,$6,$7,$8,$9,$2,$3,0*
0 Add four circle primitives for the rounded corners*
1,1,$1+$1,$2,$3*
1,1,$1+$1,$4,$5*
1,1,$1+$1,$6,$7*
1,1,$1+$1,$8,$9*
0 Add four rect primitives between the rounded corners*
20,1,$1+$1,$2,$3,$4,$5,0*
20,1,$1+$1,$4,$5,$6,$7,0*
20,1,$1+$1,$6,$7,$8,$9,0*
20,1,$1+$1,$8,$9,$2,$3,0*%
G04 Aperture macros list end*
%ADD10C,0.100000*%
%ADD11C,0.150000*%
%ADD12C,0.120000*%
%ADD13C,0.127000*%
%ADD14RoundRect,0.250000X0.475000X-0.337500X0.475000X0.337500X-0.475000X0.337500X-0.475000X-0.337500X0*%
%ADD15RoundRect,0.237500X-0.250000X-0.237500X0.250000X-0.237500X0.250000X0.237500X-0.250000X0.237500X0*%
%ADD16RoundRect,0.250000X-0.337500X-0.475000X0.337500X-0.475000X0.337500X0.475000X-0.337500X0.475000X0*%
%ADD17R,1.700000X1.700000*%
%ADD18O,1.700000X1.700000*%
%ADD19R,3.500000X1.700000*%
%ADD20R,1.700000X3.500000*%
%ADD21O,1.800000X1.800000*%
%ADD22O,1.500000X1.500000*%
%ADD23RoundRect,0.225000X-0.225000X-0.375000X0.225000X-0.375000X0.225000X0.375000X-0.225000X0.375000X0*%
%ADD24RoundRect,0.150000X0.150000X-0.587500X0.150000X0.587500X-0.150000X0.587500X-0.150000X-0.587500X0*%
%ADD25RoundRect,0.150000X-0.150000X0.587500X-0.150000X-0.587500X0.150000X-0.587500X0.150000X0.587500X0*%
%ADD26C,2.374900*%
%ADD27C,0.990600*%
%ADD28C,0.787400*%
%ADD29RoundRect,0.237500X-0.237500X0.250000X-0.237500X-0.250000X0.237500X-0.250000X0.237500X0.250000X0*%
%ADD30C,1.734000*%
%ADD31R,2.750000X1.000000*%
%ADD32RoundRect,0.237500X0.250000X0.237500X-0.250000X0.237500X-0.250000X-0.237500X0.250000X-0.237500X0*%
%ADD33RoundRect,0.237500X-0.300000X-0.237500X0.300000X-0.237500X0.300000X0.237500X-0.300000X0.237500X0*%
%ADD34RoundRect,0.250001X0.462499X0.849999X-0.462499X0.849999X-0.462499X-0.849999X0.462499X-0.849999X0*%
%ADD35RoundRect,0.237500X0.237500X-0.250000X0.237500X0.250000X-0.237500X0.250000X-0.237500X-0.250000X0*%
%ADD36RoundRect,0.150000X-0.512500X-0.150000X0.512500X-0.150000X0.512500X0.150000X-0.512500X0.150000X0*%
G04 APERTURE END LIST*
D10*
X77288728Y-150637217D02*
X77253014Y-150565789D01*
X77253014Y-150565789D02*
X77253014Y-150458646D01*
X77253014Y-150458646D02*
X77288728Y-150351503D01*
X77288728Y-150351503D02*
X77360157Y-150280074D01*
X77360157Y-150280074D02*
X77431585Y-150244360D01*
X77431585Y-150244360D02*
X77574442Y-150208646D01*
X77574442Y-150208646D02*
X77681585Y-150208646D01*
X77681585Y-150208646D02*
X77824442Y-150244360D01*
X77824442Y-150244360D02*
X77895871Y-150280074D01*
X77895871Y-150280074D02*
X77967300Y-150351503D01*
X77967300Y-150351503D02*
X78003014Y-150458646D01*
X78003014Y-150458646D02*
X78003014Y-150530074D01*
X78003014Y-150530074D02*
X77967300Y-150637217D01*
X77967300Y-150637217D02*
X77931585Y-150672931D01*
X77931585Y-150672931D02*
X77681585Y-150672931D01*
X77681585Y-150672931D02*
X77681585Y-150530074D01*
X78003014Y-150994360D02*
X77253014Y-150994360D01*
X77253014Y-150994360D02*
X78003014Y-151422931D01*
X78003014Y-151422931D02*
X77253014Y-151422931D01*
X78003014Y-151780074D02*
X77253014Y-151780074D01*
X77253014Y-151780074D02*
X77253014Y-151958645D01*
X77253014Y-151958645D02*
X77288728Y-152065788D01*
X77288728Y-152065788D02*
X77360157Y-152137217D01*
X77360157Y-152137217D02*
X77431585Y-152172931D01*
X77431585Y-152172931D02*
X77574442Y-152208645D01*
X77574442Y-152208645D02*
X77681585Y-152208645D01*
X77681585Y-152208645D02*
X77824442Y-152172931D01*
X77824442Y-152172931D02*
X77895871Y-152137217D01*
X77895871Y-152137217D02*
X77967300Y-152065788D01*
X77967300Y-152065788D02*
X78003014Y-151958645D01*
X78003014Y-151958645D02*
X78003014Y-151780074D01*
X77253014Y-152994360D02*
X78003014Y-153244360D01*
X78003014Y-153244360D02*
X77253014Y-153494360D01*
X78003014Y-154101503D02*
X78003014Y-153744360D01*
X78003014Y-153744360D02*
X77253014Y-153744360D01*
X77610157Y-154351503D02*
X77610157Y-154601503D01*
X78003014Y-154708646D02*
X78003014Y-154351503D01*
X78003014Y-154351503D02*
X77253014Y-154351503D01*
X77253014Y-154351503D02*
X77253014Y-154708646D01*
X78003014Y-155030074D02*
X77253014Y-155030074D01*
X77253014Y-155030074D02*
X77253014Y-155208645D01*
X77253014Y-155208645D02*
X77288728Y-155315788D01*
X77288728Y-155315788D02*
X77360157Y-155387217D01*
X77360157Y-155387217D02*
X77431585Y-155422931D01*
X77431585Y-155422931D02*
X77574442Y-155458645D01*
X77574442Y-155458645D02*
X77681585Y-155458645D01*
X77681585Y-155458645D02*
X77824442Y-155422931D01*
X77824442Y-155422931D02*
X77895871Y-155387217D01*
X77895871Y-155387217D02*
X77967300Y-155315788D01*
X77967300Y-155315788D02*
X78003014Y-155208645D01*
X78003014Y-155208645D02*
X78003014Y-155030074D01*
X77253014Y-156708646D02*
X77253014Y-156351503D01*
X77253014Y-156351503D02*
X77610157Y-156315789D01*
X77610157Y-156315789D02*
X77574442Y-156351503D01*
X77574442Y-156351503D02*
X77538728Y-156422932D01*
X77538728Y-156422932D02*
X77538728Y-156601503D01*
X77538728Y-156601503D02*
X77574442Y-156672932D01*
X77574442Y-156672932D02*
X77610157Y-156708646D01*
X77610157Y-156708646D02*
X77681585Y-156744360D01*
X77681585Y-156744360D02*
X77860157Y-156744360D01*
X77860157Y-156744360D02*
X77931585Y-156708646D01*
X77931585Y-156708646D02*
X77967300Y-156672932D01*
X77967300Y-156672932D02*
X78003014Y-156601503D01*
X78003014Y-156601503D02*
X78003014Y-156422932D01*
X78003014Y-156422932D02*
X77967300Y-156351503D01*
X77967300Y-156351503D02*
X77931585Y-156315789D01*
X77253014Y-156958646D02*
X78003014Y-157208646D01*
X78003014Y-157208646D02*
X77253014Y-157458646D01*
X90405925Y-76834419D02*
X90882115Y-76834419D01*
X90882115Y-76834419D02*
X90882115Y-75834419D01*
X90072591Y-76310609D02*
X89739258Y-76310609D01*
X89596401Y-76834419D02*
X90072591Y-76834419D01*
X90072591Y-76834419D02*
X90072591Y-75834419D01*
X90072591Y-75834419D02*
X89596401Y-75834419D01*
X89167829Y-76834419D02*
X89167829Y-75834419D01*
X89167829Y-75834419D02*
X88929734Y-75834419D01*
X88929734Y-75834419D02*
X88786877Y-75882038D01*
X88786877Y-75882038D02*
X88691639Y-75977276D01*
X88691639Y-75977276D02*
X88644020Y-76072514D01*
X88644020Y-76072514D02*
X88596401Y-76262990D01*
X88596401Y-76262990D02*
X88596401Y-76405847D01*
X88596401Y-76405847D02*
X88644020Y-76596323D01*
X88644020Y-76596323D02*
X88691639Y-76691561D01*
X88691639Y-76691561D02*
X88786877Y-76786800D01*
X88786877Y-76786800D02*
X88929734Y-76834419D01*
X88929734Y-76834419D02*
X89167829Y-76834419D01*
X87120210Y-75834419D02*
X87120210Y-76548704D01*
X87120210Y-76548704D02*
X87167829Y-76691561D01*
X87167829Y-76691561D02*
X87263067Y-76786800D01*
X87263067Y-76786800D02*
X87405924Y-76834419D01*
X87405924Y-76834419D02*
X87501162Y-76834419D01*
X86215448Y-76167752D02*
X86215448Y-76834419D01*
X86644019Y-76167752D02*
X86644019Y-76691561D01*
X86644019Y-76691561D02*
X86596400Y-76786800D01*
X86596400Y-76786800D02*
X86501162Y-76834419D01*
X86501162Y-76834419D02*
X86358305Y-76834419D01*
X86358305Y-76834419D02*
X86263067Y-76786800D01*
X86263067Y-76786800D02*
X86215448Y-76739180D01*
X85739257Y-76834419D02*
X85739257Y-76167752D01*
X85739257Y-76262990D02*
X85691638Y-76215371D01*
X85691638Y-76215371D02*
X85596400Y-76167752D01*
X85596400Y-76167752D02*
X85453543Y-76167752D01*
X85453543Y-76167752D02*
X85358305Y-76215371D01*
X85358305Y-76215371D02*
X85310686Y-76310609D01*
X85310686Y-76310609D02*
X85310686Y-76834419D01*
X85310686Y-76310609D02*
X85263067Y-76215371D01*
X85263067Y-76215371D02*
X85167829Y-76167752D01*
X85167829Y-76167752D02*
X85024972Y-76167752D01*
X85024972Y-76167752D02*
X84929733Y-76215371D01*
X84929733Y-76215371D02*
X84882114Y-76310609D01*
X84882114Y-76310609D02*
X84882114Y-76834419D01*
X84405924Y-76167752D02*
X84405924Y-77167752D01*
X84405924Y-76215371D02*
X84310686Y-76167752D01*
X84310686Y-76167752D02*
X84120210Y-76167752D01*
X84120210Y-76167752D02*
X84024972Y-76215371D01*
X84024972Y-76215371D02*
X83977353Y-76262990D01*
X83977353Y-76262990D02*
X83929734Y-76358228D01*
X83929734Y-76358228D02*
X83929734Y-76643942D01*
X83929734Y-76643942D02*
X83977353Y-76739180D01*
X83977353Y-76739180D02*
X84024972Y-76786800D01*
X84024972Y-76786800D02*
X84120210Y-76834419D01*
X84120210Y-76834419D02*
X84310686Y-76834419D01*
X84310686Y-76834419D02*
X84405924Y-76786800D01*
X83120210Y-76786800D02*
X83215448Y-76834419D01*
X83215448Y-76834419D02*
X83405924Y-76834419D01*
X83405924Y-76834419D02*
X83501162Y-76786800D01*
X83501162Y-76786800D02*
X83548781Y-76691561D01*
X83548781Y-76691561D02*
X83548781Y-76310609D01*
X83548781Y-76310609D02*
X83501162Y-76215371D01*
X83501162Y-76215371D02*
X83405924Y-76167752D01*
X83405924Y-76167752D02*
X83215448Y-76167752D01*
X83215448Y-76167752D02*
X83120210Y-76215371D01*
X83120210Y-76215371D02*
X83072591Y-76310609D01*
X83072591Y-76310609D02*
X83072591Y-76405847D01*
X83072591Y-76405847D02*
X83548781Y-76501085D01*
X82644019Y-76834419D02*
X82644019Y-76167752D01*
X82644019Y-76358228D02*
X82596400Y-76262990D01*
X82596400Y-76262990D02*
X82548781Y-76215371D01*
X82548781Y-76215371D02*
X82453543Y-76167752D01*
X82453543Y-76167752D02*
X82358305Y-76167752D01*
X82072590Y-76786800D02*
X81977352Y-76834419D01*
X81977352Y-76834419D02*
X81786876Y-76834419D01*
X81786876Y-76834419D02*
X81691638Y-76786800D01*
X81691638Y-76786800D02*
X81644019Y-76691561D01*
X81644019Y-76691561D02*
X81644019Y-76643942D01*
X81644019Y-76643942D02*
X81691638Y-76548704D01*
X81691638Y-76548704D02*
X81786876Y-76501085D01*
X81786876Y-76501085D02*
X81929733Y-76501085D01*
X81929733Y-76501085D02*
X82024971Y-76453466D01*
X82024971Y-76453466D02*
X82072590Y-76358228D01*
X82072590Y-76358228D02*
X82072590Y-76310609D01*
X82072590Y-76310609D02*
X82024971Y-76215371D01*
X82024971Y-76215371D02*
X81929733Y-76167752D01*
X81929733Y-76167752D02*
X81786876Y-76167752D01*
X81786876Y-76167752D02*
X81691638Y-76215371D01*
D11*
X90862686Y-168380864D02*
X90910305Y-168428484D01*
X90910305Y-168428484D02*
X91053162Y-168476103D01*
X91053162Y-168476103D02*
X91148400Y-168476103D01*
X91148400Y-168476103D02*
X91291257Y-168428484D01*
X91291257Y-168428484D02*
X91386495Y-168333245D01*
X91386495Y-168333245D02*
X91434114Y-168238007D01*
X91434114Y-168238007D02*
X91481733Y-168047531D01*
X91481733Y-168047531D02*
X91481733Y-167904674D01*
X91481733Y-167904674D02*
X91434114Y-167714198D01*
X91434114Y-167714198D02*
X91386495Y-167618960D01*
X91386495Y-167618960D02*
X91291257Y-167523722D01*
X91291257Y-167523722D02*
X91148400Y-167476103D01*
X91148400Y-167476103D02*
X91053162Y-167476103D01*
X91053162Y-167476103D02*
X90910305Y-167523722D01*
X90910305Y-167523722D02*
X90862686Y-167571341D01*
X90481733Y-167571341D02*
X90434114Y-167523722D01*
X90434114Y-167523722D02*
X90338876Y-167476103D01*
X90338876Y-167476103D02*
X90100781Y-167476103D01*
X90100781Y-167476103D02*
X90005543Y-167523722D01*
X90005543Y-167523722D02*
X89957924Y-167571341D01*
X89957924Y-167571341D02*
X89910305Y-167666579D01*
X89910305Y-167666579D02*
X89910305Y-167761817D01*
X89910305Y-167761817D02*
X89957924Y-167904674D01*
X89957924Y-167904674D02*
X90529352Y-168476103D01*
X90529352Y-168476103D02*
X89910305Y-168476103D01*
X85150839Y-162854617D02*
X84674648Y-162521284D01*
X85150839Y-162283189D02*
X84150839Y-162283189D01*
X84150839Y-162283189D02*
X84150839Y-162664141D01*
X84150839Y-162664141D02*
X84198458Y-162759379D01*
X84198458Y-162759379D02*
X84246077Y-162806998D01*
X84246077Y-162806998D02*
X84341315Y-162854617D01*
X84341315Y-162854617D02*
X84484172Y-162854617D01*
X84484172Y-162854617D02*
X84579410Y-162806998D01*
X84579410Y-162806998D02*
X84627029Y-162759379D01*
X84627029Y-162759379D02*
X84674648Y-162664141D01*
X84674648Y-162664141D02*
X84674648Y-162283189D01*
X84150839Y-163187951D02*
X84150839Y-163806998D01*
X84150839Y-163806998D02*
X84531791Y-163473665D01*
X84531791Y-163473665D02*
X84531791Y-163616522D01*
X84531791Y-163616522D02*
X84579410Y-163711760D01*
X84579410Y-163711760D02*
X84627029Y-163759379D01*
X84627029Y-163759379D02*
X84722267Y-163806998D01*
X84722267Y-163806998D02*
X84960362Y-163806998D01*
X84960362Y-163806998D02*
X85055600Y-163759379D01*
X85055600Y-163759379D02*
X85103220Y-163711760D01*
X85103220Y-163711760D02*
X85150839Y-163616522D01*
X85150839Y-163616522D02*
X85150839Y-163330808D01*
X85150839Y-163330808D02*
X85103220Y-163235570D01*
X85103220Y-163235570D02*
X85055600Y-163187951D01*
X79555600Y-166354617D02*
X79603220Y-166306998D01*
X79603220Y-166306998D02*
X79650839Y-166164141D01*
X79650839Y-166164141D02*
X79650839Y-166068903D01*
X79650839Y-166068903D02*
X79603220Y-165926046D01*
X79603220Y-165926046D02*
X79507981Y-165830808D01*
X79507981Y-165830808D02*
X79412743Y-165783189D01*
X79412743Y-165783189D02*
X79222267Y-165735570D01*
X79222267Y-165735570D02*
X79079410Y-165735570D01*
X79079410Y-165735570D02*
X78888934Y-165783189D01*
X78888934Y-165783189D02*
X78793696Y-165830808D01*
X78793696Y-165830808D02*
X78698458Y-165926046D01*
X78698458Y-165926046D02*
X78650839Y-166068903D01*
X78650839Y-166068903D02*
X78650839Y-166164141D01*
X78650839Y-166164141D02*
X78698458Y-166306998D01*
X78698458Y-166306998D02*
X78746077Y-166354617D01*
X78984172Y-167211760D02*
X79650839Y-167211760D01*
X78603220Y-166973665D02*
X79317505Y-166735570D01*
X79317505Y-166735570D02*
X79317505Y-167354617D01*
X79833333Y-158284819D02*
X79833333Y-158999104D01*
X79833333Y-158999104D02*
X79880952Y-159141961D01*
X79880952Y-159141961D02*
X79976190Y-159237200D01*
X79976190Y-159237200D02*
X80119047Y-159284819D01*
X80119047Y-159284819D02*
X80214285Y-159284819D01*
X79452380Y-158284819D02*
X78833333Y-158284819D01*
X78833333Y-158284819D02*
X79166666Y-158665771D01*
X79166666Y-158665771D02*
X79023809Y-158665771D01*
X79023809Y-158665771D02*
X78928571Y-158713390D01*
X78928571Y-158713390D02*
X78880952Y-158761009D01*
X78880952Y-158761009D02*
X78833333Y-158856247D01*
X78833333Y-158856247D02*
X78833333Y-159094342D01*
X78833333Y-159094342D02*
X78880952Y-159189580D01*
X78880952Y-159189580D02*
X78928571Y-159237200D01*
X78928571Y-159237200D02*
X79023809Y-159284819D01*
X79023809Y-159284819D02*
X79309523Y-159284819D01*
X79309523Y-159284819D02*
X79404761Y-159237200D01*
X79404761Y-159237200D02*
X79452380Y-159189580D01*
X82650839Y-161354617D02*
X82174648Y-161021284D01*
X82650839Y-160783189D02*
X81650839Y-160783189D01*
X81650839Y-160783189D02*
X81650839Y-161164141D01*
X81650839Y-161164141D02*
X81698458Y-161259379D01*
X81698458Y-161259379D02*
X81746077Y-161306998D01*
X81746077Y-161306998D02*
X81841315Y-161354617D01*
X81841315Y-161354617D02*
X81984172Y-161354617D01*
X81984172Y-161354617D02*
X82079410Y-161306998D01*
X82079410Y-161306998D02*
X82127029Y-161259379D01*
X82127029Y-161259379D02*
X82174648Y-161164141D01*
X82174648Y-161164141D02*
X82174648Y-160783189D01*
X81746077Y-161735570D02*
X81698458Y-161783189D01*
X81698458Y-161783189D02*
X81650839Y-161878427D01*
X81650839Y-161878427D02*
X81650839Y-162116522D01*
X81650839Y-162116522D02*
X81698458Y-162211760D01*
X81698458Y-162211760D02*
X81746077Y-162259379D01*
X81746077Y-162259379D02*
X81841315Y-162306998D01*
X81841315Y-162306998D02*
X81936553Y-162306998D01*
X81936553Y-162306998D02*
X82079410Y-162259379D01*
X82079410Y-162259379D02*
X82650839Y-161687951D01*
X82650839Y-161687951D02*
X82650839Y-162306998D01*
X80517904Y-122390819D02*
X80517904Y-123200342D01*
X80517904Y-123200342D02*
X80470285Y-123295580D01*
X80470285Y-123295580D02*
X80422666Y-123343200D01*
X80422666Y-123343200D02*
X80327428Y-123390819D01*
X80327428Y-123390819D02*
X80136952Y-123390819D01*
X80136952Y-123390819D02*
X80041714Y-123343200D01*
X80041714Y-123343200D02*
X79994095Y-123295580D01*
X79994095Y-123295580D02*
X79946476Y-123200342D01*
X79946476Y-123200342D02*
X79946476Y-122390819D01*
X78946476Y-123390819D02*
X79517904Y-123390819D01*
X79232190Y-123390819D02*
X79232190Y-122390819D01*
X79232190Y-122390819D02*
X79327428Y-122533676D01*
X79327428Y-122533676D02*
X79422666Y-122628914D01*
X79422666Y-122628914D02*
X79517904Y-122676533D01*
X80469200Y-103604761D02*
X80507295Y-103719047D01*
X80507295Y-103719047D02*
X80507295Y-103909523D01*
X80507295Y-103909523D02*
X80469200Y-103985714D01*
X80469200Y-103985714D02*
X80431104Y-104023809D01*
X80431104Y-104023809D02*
X80354914Y-104061904D01*
X80354914Y-104061904D02*
X80278723Y-104061904D01*
X80278723Y-104061904D02*
X80202533Y-104023809D01*
X80202533Y-104023809D02*
X80164438Y-103985714D01*
X80164438Y-103985714D02*
X80126342Y-103909523D01*
X80126342Y-103909523D02*
X80088247Y-103757142D01*
X80088247Y-103757142D02*
X80050152Y-103680952D01*
X80050152Y-103680952D02*
X80012057Y-103642857D01*
X80012057Y-103642857D02*
X79935866Y-103604761D01*
X79935866Y-103604761D02*
X79859676Y-103604761D01*
X79859676Y-103604761D02*
X79783485Y-103642857D01*
X79783485Y-103642857D02*
X79745390Y-103680952D01*
X79745390Y-103680952D02*
X79707295Y-103757142D01*
X79707295Y-103757142D02*
X79707295Y-103947619D01*
X79707295Y-103947619D02*
X79745390Y-104061904D01*
X79707295Y-104328571D02*
X80507295Y-104519047D01*
X80507295Y-104519047D02*
X79935866Y-104671428D01*
X79935866Y-104671428D02*
X80507295Y-104823809D01*
X80507295Y-104823809D02*
X79707295Y-105014286D01*
X80507295Y-105319048D02*
X79707295Y-105319048D01*
X79707295Y-105319048D02*
X79707295Y-105509524D01*
X79707295Y-105509524D02*
X79745390Y-105623810D01*
X79745390Y-105623810D02*
X79821580Y-105700000D01*
X79821580Y-105700000D02*
X79897771Y-105738095D01*
X79897771Y-105738095D02*
X80050152Y-105776191D01*
X80050152Y-105776191D02*
X80164438Y-105776191D01*
X80164438Y-105776191D02*
X80316819Y-105738095D01*
X80316819Y-105738095D02*
X80393009Y-105700000D01*
X80393009Y-105700000D02*
X80469200Y-105623810D01*
X80469200Y-105623810D02*
X80507295Y-105509524D01*
X80507295Y-105509524D02*
X80507295Y-105319048D01*
X80507295Y-106119048D02*
X79707295Y-106119048D01*
X79707295Y-106652381D02*
X79707295Y-106804762D01*
X79707295Y-106804762D02*
X79745390Y-106880952D01*
X79745390Y-106880952D02*
X79821580Y-106957143D01*
X79821580Y-106957143D02*
X79973961Y-106995238D01*
X79973961Y-106995238D02*
X80240628Y-106995238D01*
X80240628Y-106995238D02*
X80393009Y-106957143D01*
X80393009Y-106957143D02*
X80469200Y-106880952D01*
X80469200Y-106880952D02*
X80507295Y-106804762D01*
X80507295Y-106804762D02*
X80507295Y-106652381D01*
X80507295Y-106652381D02*
X80469200Y-106576190D01*
X80469200Y-106576190D02*
X80393009Y-106500000D01*
X80393009Y-106500000D02*
X80240628Y-106461904D01*
X80240628Y-106461904D02*
X79973961Y-106461904D01*
X79973961Y-106461904D02*
X79821580Y-106500000D01*
X79821580Y-106500000D02*
X79745390Y-106576190D01*
X79745390Y-106576190D02*
X79707295Y-106652381D01*
X102925868Y-96889998D02*
X102952805Y-96809185D01*
X102952805Y-96809185D02*
X103033618Y-96728373D01*
X103033618Y-96728373D02*
X103141367Y-96674498D01*
X103141367Y-96674498D02*
X103249117Y-96674498D01*
X103249117Y-96674498D02*
X103329929Y-96701436D01*
X103329929Y-96701436D02*
X103464616Y-96782248D01*
X103464616Y-96782248D02*
X103545428Y-96863060D01*
X103545428Y-96863060D02*
X103626241Y-96997747D01*
X103626241Y-96997747D02*
X103653178Y-97078560D01*
X103653178Y-97078560D02*
X103653178Y-97186309D01*
X103653178Y-97186309D02*
X103599303Y-97294059D01*
X103599303Y-97294059D02*
X103545428Y-97347934D01*
X103545428Y-97347934D02*
X103437679Y-97401808D01*
X103437679Y-97401808D02*
X103383804Y-97401808D01*
X103383804Y-97401808D02*
X103195242Y-97213247D01*
X103195242Y-97213247D02*
X103302992Y-97105497D01*
X103195242Y-97698120D02*
X102629557Y-97132434D01*
X102629557Y-97132434D02*
X102414057Y-97347934D01*
X102414057Y-97347934D02*
X102387120Y-97428746D01*
X102387120Y-97428746D02*
X102387120Y-97482621D01*
X102387120Y-97482621D02*
X102414057Y-97563433D01*
X102414057Y-97563433D02*
X102494870Y-97644245D01*
X102494870Y-97644245D02*
X102575682Y-97671182D01*
X102575682Y-97671182D02*
X102629557Y-97671182D01*
X102629557Y-97671182D02*
X102710369Y-97644245D01*
X102710369Y-97644245D02*
X102925868Y-97428746D01*
X102144683Y-97725057D02*
X102090809Y-97725057D01*
X102090809Y-97725057D02*
X102009996Y-97751995D01*
X102009996Y-97751995D02*
X101875309Y-97886682D01*
X101875309Y-97886682D02*
X101848372Y-97967494D01*
X101848372Y-97967494D02*
X101848372Y-98021369D01*
X101848372Y-98021369D02*
X101875309Y-98102181D01*
X101875309Y-98102181D02*
X101929184Y-98156056D01*
X101929184Y-98156056D02*
X102036934Y-98209930D01*
X102036934Y-98209930D02*
X102683431Y-98209930D01*
X102683431Y-98209930D02*
X102333245Y-98560117D01*
X101605935Y-98263805D02*
X101552060Y-98263805D01*
X101552060Y-98263805D02*
X101471248Y-98290743D01*
X101471248Y-98290743D02*
X101336561Y-98425430D01*
X101336561Y-98425430D02*
X101309624Y-98506242D01*
X101309624Y-98506242D02*
X101309624Y-98560117D01*
X101309624Y-98560117D02*
X101336561Y-98640929D01*
X101336561Y-98640929D02*
X101390436Y-98694804D01*
X101390436Y-98694804D02*
X101498186Y-98748679D01*
X101498186Y-98748679D02*
X102144683Y-98748679D01*
X102144683Y-98748679D02*
X101794497Y-99098865D01*
X85145868Y-123043998D02*
X85172805Y-122963185D01*
X85172805Y-122963185D02*
X85253618Y-122882373D01*
X85253618Y-122882373D02*
X85361367Y-122828498D01*
X85361367Y-122828498D02*
X85469117Y-122828498D01*
X85469117Y-122828498D02*
X85549929Y-122855436D01*
X85549929Y-122855436D02*
X85684616Y-122936248D01*
X85684616Y-122936248D02*
X85765428Y-123017060D01*
X85765428Y-123017060D02*
X85846241Y-123151747D01*
X85846241Y-123151747D02*
X85873178Y-123232560D01*
X85873178Y-123232560D02*
X85873178Y-123340309D01*
X85873178Y-123340309D02*
X85819303Y-123448059D01*
X85819303Y-123448059D02*
X85765428Y-123501934D01*
X85765428Y-123501934D02*
X85657679Y-123555808D01*
X85657679Y-123555808D02*
X85603804Y-123555808D01*
X85603804Y-123555808D02*
X85415242Y-123367247D01*
X85415242Y-123367247D02*
X85522992Y-123259497D01*
X85415242Y-123852120D02*
X84849557Y-123286434D01*
X84849557Y-123286434D02*
X84634057Y-123501934D01*
X84634057Y-123501934D02*
X84607120Y-123582746D01*
X84607120Y-123582746D02*
X84607120Y-123636621D01*
X84607120Y-123636621D02*
X84634057Y-123717433D01*
X84634057Y-123717433D02*
X84714870Y-123798245D01*
X84714870Y-123798245D02*
X84795682Y-123825182D01*
X84795682Y-123825182D02*
X84849557Y-123825182D01*
X84849557Y-123825182D02*
X84930369Y-123798245D01*
X84930369Y-123798245D02*
X85145868Y-123582746D01*
X84553245Y-124714117D02*
X84876494Y-124390868D01*
X84714870Y-124552492D02*
X84149184Y-123986807D01*
X84149184Y-123986807D02*
X84283871Y-124013744D01*
X84283871Y-124013744D02*
X84391621Y-124013744D01*
X84391621Y-124013744D02*
X84472433Y-123986807D01*
X83691248Y-124821866D02*
X84068372Y-125198990D01*
X83610436Y-124471680D02*
X84149184Y-124741054D01*
X84149184Y-124741054D02*
X83798998Y-125091240D01*
X105748710Y-97738651D02*
X105667898Y-97280716D01*
X106071959Y-97415403D02*
X105506274Y-96849717D01*
X105506274Y-96849717D02*
X105290775Y-97065216D01*
X105290775Y-97065216D02*
X105263837Y-97146029D01*
X105263837Y-97146029D02*
X105263837Y-97199903D01*
X105263837Y-97199903D02*
X105290775Y-97280716D01*
X105290775Y-97280716D02*
X105371587Y-97361528D01*
X105371587Y-97361528D02*
X105452399Y-97388465D01*
X105452399Y-97388465D02*
X105506274Y-97388465D01*
X105506274Y-97388465D02*
X105587086Y-97361528D01*
X105587086Y-97361528D02*
X105802585Y-97146029D01*
X104940588Y-97415403D02*
X105398524Y-97873338D01*
X105398524Y-97873338D02*
X105425462Y-97954151D01*
X105425462Y-97954151D02*
X105425462Y-98008025D01*
X105425462Y-98008025D02*
X105398524Y-98088838D01*
X105398524Y-98088838D02*
X105290775Y-98196587D01*
X105290775Y-98196587D02*
X105209962Y-98223525D01*
X105209962Y-98223525D02*
X105156088Y-98223525D01*
X105156088Y-98223525D02*
X105075275Y-98196587D01*
X105075275Y-98196587D02*
X104617340Y-97738651D01*
X104913651Y-98573711D02*
X104347966Y-98008025D01*
X104347966Y-98008025D02*
X104590402Y-98896959D01*
X104590402Y-98896959D02*
X104024717Y-98331274D01*
X128066494Y-123113372D02*
X128093431Y-123032560D01*
X128093431Y-123032560D02*
X128174243Y-122951748D01*
X128174243Y-122951748D02*
X128281993Y-122897873D01*
X128281993Y-122897873D02*
X128389742Y-122897873D01*
X128389742Y-122897873D02*
X128470555Y-122924810D01*
X128470555Y-122924810D02*
X128605242Y-123005623D01*
X128605242Y-123005623D02*
X128686054Y-123086435D01*
X128686054Y-123086435D02*
X128766866Y-123221122D01*
X128766866Y-123221122D02*
X128793803Y-123301934D01*
X128793803Y-123301934D02*
X128793803Y-123409684D01*
X128793803Y-123409684D02*
X128739929Y-123517433D01*
X128739929Y-123517433D02*
X128686054Y-123571308D01*
X128686054Y-123571308D02*
X128578304Y-123625183D01*
X128578304Y-123625183D02*
X128524429Y-123625183D01*
X128524429Y-123625183D02*
X128335868Y-123436621D01*
X128335868Y-123436621D02*
X128443617Y-123328871D01*
X128335868Y-123921494D02*
X127770182Y-123355809D01*
X127770182Y-123355809D02*
X127554683Y-123571308D01*
X127554683Y-123571308D02*
X127527746Y-123652120D01*
X127527746Y-123652120D02*
X127527746Y-123705995D01*
X127527746Y-123705995D02*
X127554683Y-123786807D01*
X127554683Y-123786807D02*
X127635495Y-123867619D01*
X127635495Y-123867619D02*
X127716307Y-123894557D01*
X127716307Y-123894557D02*
X127770182Y-123894557D01*
X127770182Y-123894557D02*
X127850994Y-123867619D01*
X127850994Y-123867619D02*
X128066494Y-123652120D01*
X127473871Y-124783491D02*
X127797120Y-124460242D01*
X127635495Y-124621867D02*
X127069810Y-124056181D01*
X127069810Y-124056181D02*
X127204497Y-124083119D01*
X127204497Y-124083119D02*
X127312246Y-124083119D01*
X127312246Y-124083119D02*
X127393059Y-124056181D01*
X100143431Y-97386435D02*
X100170368Y-97305623D01*
X100170368Y-97305623D02*
X100251180Y-97224811D01*
X100251180Y-97224811D02*
X100358930Y-97170936D01*
X100358930Y-97170936D02*
X100466680Y-97170936D01*
X100466680Y-97170936D02*
X100547492Y-97197873D01*
X100547492Y-97197873D02*
X100682179Y-97278685D01*
X100682179Y-97278685D02*
X100762991Y-97359498D01*
X100762991Y-97359498D02*
X100843803Y-97494185D01*
X100843803Y-97494185D02*
X100870741Y-97574997D01*
X100870741Y-97574997D02*
X100870741Y-97682746D01*
X100870741Y-97682746D02*
X100816866Y-97790496D01*
X100816866Y-97790496D02*
X100762991Y-97844371D01*
X100762991Y-97844371D02*
X100655241Y-97898246D01*
X100655241Y-97898246D02*
X100601367Y-97898246D01*
X100601367Y-97898246D02*
X100412805Y-97709684D01*
X100412805Y-97709684D02*
X100520554Y-97601934D01*
X100412805Y-98194557D02*
X99847119Y-97628872D01*
X99847119Y-97628872D02*
X100089556Y-98517806D01*
X100089556Y-98517806D02*
X99523871Y-97952120D01*
X99820182Y-98787180D02*
X99254497Y-98221494D01*
X99254497Y-98221494D02*
X99119810Y-98356181D01*
X99119810Y-98356181D02*
X99065935Y-98463931D01*
X99065935Y-98463931D02*
X99065935Y-98571680D01*
X99065935Y-98571680D02*
X99092872Y-98652493D01*
X99092872Y-98652493D02*
X99173685Y-98787180D01*
X99173685Y-98787180D02*
X99254497Y-98867992D01*
X99254497Y-98867992D02*
X99389184Y-98948804D01*
X99389184Y-98948804D02*
X99469996Y-98975741D01*
X99469996Y-98975741D02*
X99577746Y-98975741D01*
X99577746Y-98975741D02*
X99685495Y-98921867D01*
X99685495Y-98921867D02*
X99820182Y-98787180D01*
X87443431Y-97386435D02*
X87470368Y-97305623D01*
X87470368Y-97305623D02*
X87551180Y-97224811D01*
X87551180Y-97224811D02*
X87658930Y-97170936D01*
X87658930Y-97170936D02*
X87766680Y-97170936D01*
X87766680Y-97170936D02*
X87847492Y-97197873D01*
X87847492Y-97197873D02*
X87982179Y-97278685D01*
X87982179Y-97278685D02*
X88062991Y-97359498D01*
X88062991Y-97359498D02*
X88143803Y-97494185D01*
X88143803Y-97494185D02*
X88170741Y-97574997D01*
X88170741Y-97574997D02*
X88170741Y-97682746D01*
X88170741Y-97682746D02*
X88116866Y-97790496D01*
X88116866Y-97790496D02*
X88062991Y-97844371D01*
X88062991Y-97844371D02*
X87955241Y-97898246D01*
X87955241Y-97898246D02*
X87901367Y-97898246D01*
X87901367Y-97898246D02*
X87712805Y-97709684D01*
X87712805Y-97709684D02*
X87820554Y-97601934D01*
X87712805Y-98194557D02*
X87147119Y-97628872D01*
X87147119Y-97628872D02*
X87389556Y-98517806D01*
X87389556Y-98517806D02*
X86823871Y-97952120D01*
X87120182Y-98787180D02*
X86554497Y-98221494D01*
X86554497Y-98221494D02*
X86419810Y-98356181D01*
X86419810Y-98356181D02*
X86365935Y-98463931D01*
X86365935Y-98463931D02*
X86365935Y-98571680D01*
X86365935Y-98571680D02*
X86392872Y-98652493D01*
X86392872Y-98652493D02*
X86473685Y-98787180D01*
X86473685Y-98787180D02*
X86554497Y-98867992D01*
X86554497Y-98867992D02*
X86689184Y-98948804D01*
X86689184Y-98948804D02*
X86769996Y-98975741D01*
X86769996Y-98975741D02*
X86877746Y-98975741D01*
X86877746Y-98975741D02*
X86985495Y-98921867D01*
X86985495Y-98921867D02*
X87120182Y-98787180D01*
X112843431Y-122986435D02*
X112870368Y-122905623D01*
X112870368Y-122905623D02*
X112951180Y-122824811D01*
X112951180Y-122824811D02*
X113058930Y-122770936D01*
X113058930Y-122770936D02*
X113166680Y-122770936D01*
X113166680Y-122770936D02*
X113247492Y-122797873D01*
X113247492Y-122797873D02*
X113382179Y-122878685D01*
X113382179Y-122878685D02*
X113462991Y-122959498D01*
X113462991Y-122959498D02*
X113543803Y-123094185D01*
X113543803Y-123094185D02*
X113570741Y-123174997D01*
X113570741Y-123174997D02*
X113570741Y-123282746D01*
X113570741Y-123282746D02*
X113516866Y-123390496D01*
X113516866Y-123390496D02*
X113462991Y-123444371D01*
X113462991Y-123444371D02*
X113355241Y-123498246D01*
X113355241Y-123498246D02*
X113301367Y-123498246D01*
X113301367Y-123498246D02*
X113112805Y-123309684D01*
X113112805Y-123309684D02*
X113220554Y-123201934D01*
X113112805Y-123794557D02*
X112547119Y-123228872D01*
X112547119Y-123228872D02*
X112789556Y-124117806D01*
X112789556Y-124117806D02*
X112223871Y-123552120D01*
X112520182Y-124387180D02*
X111954497Y-123821494D01*
X111954497Y-123821494D02*
X111819810Y-123956181D01*
X111819810Y-123956181D02*
X111765935Y-124063931D01*
X111765935Y-124063931D02*
X111765935Y-124171680D01*
X111765935Y-124171680D02*
X111792872Y-124252493D01*
X111792872Y-124252493D02*
X111873685Y-124387180D01*
X111873685Y-124387180D02*
X111954497Y-124467992D01*
X111954497Y-124467992D02*
X112089184Y-124548804D01*
X112089184Y-124548804D02*
X112169996Y-124575741D01*
X112169996Y-124575741D02*
X112277746Y-124575741D01*
X112277746Y-124575741D02*
X112385495Y-124521867D01*
X112385495Y-124521867D02*
X112520182Y-124387180D01*
X122976494Y-123113372D02*
X123003431Y-123032560D01*
X123003431Y-123032560D02*
X123084243Y-122951748D01*
X123084243Y-122951748D02*
X123191993Y-122897873D01*
X123191993Y-122897873D02*
X123299742Y-122897873D01*
X123299742Y-122897873D02*
X123380555Y-122924810D01*
X123380555Y-122924810D02*
X123515242Y-123005623D01*
X123515242Y-123005623D02*
X123596054Y-123086435D01*
X123596054Y-123086435D02*
X123676866Y-123221122D01*
X123676866Y-123221122D02*
X123703803Y-123301934D01*
X123703803Y-123301934D02*
X123703803Y-123409684D01*
X123703803Y-123409684D02*
X123649929Y-123517433D01*
X123649929Y-123517433D02*
X123596054Y-123571308D01*
X123596054Y-123571308D02*
X123488304Y-123625183D01*
X123488304Y-123625183D02*
X123434429Y-123625183D01*
X123434429Y-123625183D02*
X123245868Y-123436621D01*
X123245868Y-123436621D02*
X123353617Y-123328871D01*
X123245868Y-123921494D02*
X122680182Y-123355809D01*
X122680182Y-123355809D02*
X122464683Y-123571308D01*
X122464683Y-123571308D02*
X122437746Y-123652120D01*
X122437746Y-123652120D02*
X122437746Y-123705995D01*
X122437746Y-123705995D02*
X122464683Y-123786807D01*
X122464683Y-123786807D02*
X122545495Y-123867619D01*
X122545495Y-123867619D02*
X122626307Y-123894557D01*
X122626307Y-123894557D02*
X122680182Y-123894557D01*
X122680182Y-123894557D02*
X122760994Y-123867619D01*
X122760994Y-123867619D02*
X122976494Y-123652120D01*
X122195309Y-123948432D02*
X122141434Y-123948432D01*
X122141434Y-123948432D02*
X122060622Y-123975369D01*
X122060622Y-123975369D02*
X121925935Y-124110056D01*
X121925935Y-124110056D02*
X121898998Y-124190868D01*
X121898998Y-124190868D02*
X121898998Y-124244743D01*
X121898998Y-124244743D02*
X121925935Y-124325555D01*
X121925935Y-124325555D02*
X121979810Y-124379430D01*
X121979810Y-124379430D02*
X122087559Y-124433305D01*
X122087559Y-124433305D02*
X122734057Y-124433305D01*
X122734057Y-124433305D02*
X122383871Y-124783491D01*
X108005868Y-96889998D02*
X108032805Y-96809185D01*
X108032805Y-96809185D02*
X108113618Y-96728373D01*
X108113618Y-96728373D02*
X108221367Y-96674498D01*
X108221367Y-96674498D02*
X108329117Y-96674498D01*
X108329117Y-96674498D02*
X108409929Y-96701436D01*
X108409929Y-96701436D02*
X108544616Y-96782248D01*
X108544616Y-96782248D02*
X108625428Y-96863060D01*
X108625428Y-96863060D02*
X108706241Y-96997747D01*
X108706241Y-96997747D02*
X108733178Y-97078560D01*
X108733178Y-97078560D02*
X108733178Y-97186309D01*
X108733178Y-97186309D02*
X108679303Y-97294059D01*
X108679303Y-97294059D02*
X108625428Y-97347934D01*
X108625428Y-97347934D02*
X108517679Y-97401808D01*
X108517679Y-97401808D02*
X108463804Y-97401808D01*
X108463804Y-97401808D02*
X108275242Y-97213247D01*
X108275242Y-97213247D02*
X108382992Y-97105497D01*
X108275242Y-97698120D02*
X107709557Y-97132434D01*
X107709557Y-97132434D02*
X107494057Y-97347934D01*
X107494057Y-97347934D02*
X107467120Y-97428746D01*
X107467120Y-97428746D02*
X107467120Y-97482621D01*
X107467120Y-97482621D02*
X107494057Y-97563433D01*
X107494057Y-97563433D02*
X107574870Y-97644245D01*
X107574870Y-97644245D02*
X107655682Y-97671182D01*
X107655682Y-97671182D02*
X107709557Y-97671182D01*
X107709557Y-97671182D02*
X107790369Y-97644245D01*
X107790369Y-97644245D02*
X108005868Y-97428746D01*
X107224683Y-97725057D02*
X107170809Y-97725057D01*
X107170809Y-97725057D02*
X107089996Y-97751995D01*
X107089996Y-97751995D02*
X106955309Y-97886682D01*
X106955309Y-97886682D02*
X106928372Y-97967494D01*
X106928372Y-97967494D02*
X106928372Y-98021369D01*
X106928372Y-98021369D02*
X106955309Y-98102181D01*
X106955309Y-98102181D02*
X107009184Y-98156056D01*
X107009184Y-98156056D02*
X107116934Y-98209930D01*
X107116934Y-98209930D02*
X107763431Y-98209930D01*
X107763431Y-98209930D02*
X107413245Y-98560117D01*
X106362686Y-98479305D02*
X106470436Y-98371555D01*
X106470436Y-98371555D02*
X106551248Y-98344618D01*
X106551248Y-98344618D02*
X106605123Y-98344618D01*
X106605123Y-98344618D02*
X106739810Y-98371555D01*
X106739810Y-98371555D02*
X106874497Y-98452367D01*
X106874497Y-98452367D02*
X107089996Y-98667866D01*
X107089996Y-98667866D02*
X107116934Y-98748679D01*
X107116934Y-98748679D02*
X107116934Y-98802553D01*
X107116934Y-98802553D02*
X107089996Y-98883366D01*
X107089996Y-98883366D02*
X106982247Y-98991115D01*
X106982247Y-98991115D02*
X106901434Y-99018053D01*
X106901434Y-99018053D02*
X106847560Y-99018053D01*
X106847560Y-99018053D02*
X106766747Y-98991115D01*
X106766747Y-98991115D02*
X106632060Y-98856428D01*
X106632060Y-98856428D02*
X106605123Y-98775616D01*
X106605123Y-98775616D02*
X106605123Y-98721741D01*
X106605123Y-98721741D02*
X106632060Y-98640929D01*
X106632060Y-98640929D02*
X106739810Y-98533179D01*
X106739810Y-98533179D02*
X106820622Y-98506242D01*
X106820622Y-98506242D02*
X106874497Y-98506242D01*
X106874497Y-98506242D02*
X106955309Y-98533179D01*
X97845868Y-122997998D02*
X97872805Y-122917185D01*
X97872805Y-122917185D02*
X97953618Y-122836373D01*
X97953618Y-122836373D02*
X98061367Y-122782498D01*
X98061367Y-122782498D02*
X98169117Y-122782498D01*
X98169117Y-122782498D02*
X98249929Y-122809436D01*
X98249929Y-122809436D02*
X98384616Y-122890248D01*
X98384616Y-122890248D02*
X98465428Y-122971060D01*
X98465428Y-122971060D02*
X98546241Y-123105747D01*
X98546241Y-123105747D02*
X98573178Y-123186560D01*
X98573178Y-123186560D02*
X98573178Y-123294309D01*
X98573178Y-123294309D02*
X98519303Y-123402059D01*
X98519303Y-123402059D02*
X98465428Y-123455934D01*
X98465428Y-123455934D02*
X98357679Y-123509808D01*
X98357679Y-123509808D02*
X98303804Y-123509808D01*
X98303804Y-123509808D02*
X98115242Y-123321247D01*
X98115242Y-123321247D02*
X98222992Y-123213497D01*
X98115242Y-123806120D02*
X97549557Y-123240434D01*
X97549557Y-123240434D02*
X97334057Y-123455934D01*
X97334057Y-123455934D02*
X97307120Y-123536746D01*
X97307120Y-123536746D02*
X97307120Y-123590621D01*
X97307120Y-123590621D02*
X97334057Y-123671433D01*
X97334057Y-123671433D02*
X97414870Y-123752245D01*
X97414870Y-123752245D02*
X97495682Y-123779182D01*
X97495682Y-123779182D02*
X97549557Y-123779182D01*
X97549557Y-123779182D02*
X97630369Y-123752245D01*
X97630369Y-123752245D02*
X97845868Y-123536746D01*
X97253245Y-124668117D02*
X97576494Y-124344868D01*
X97414870Y-124506492D02*
X96849184Y-123940807D01*
X96849184Y-123940807D02*
X96983871Y-123967744D01*
X96983871Y-123967744D02*
X97091621Y-123967744D01*
X97091621Y-123967744D02*
X97172433Y-123940807D01*
X96337373Y-124452618D02*
X96283499Y-124506492D01*
X96283499Y-124506492D02*
X96256561Y-124587305D01*
X96256561Y-124587305D02*
X96256561Y-124641179D01*
X96256561Y-124641179D02*
X96283499Y-124721992D01*
X96283499Y-124721992D02*
X96364311Y-124856679D01*
X96364311Y-124856679D02*
X96498998Y-124991366D01*
X96498998Y-124991366D02*
X96633685Y-125072178D01*
X96633685Y-125072178D02*
X96714497Y-125099115D01*
X96714497Y-125099115D02*
X96768372Y-125099115D01*
X96768372Y-125099115D02*
X96849184Y-125072178D01*
X96849184Y-125072178D02*
X96903059Y-125018303D01*
X96903059Y-125018303D02*
X96929996Y-124937491D01*
X96929996Y-124937491D02*
X96929996Y-124883616D01*
X96929996Y-124883616D02*
X96903059Y-124802804D01*
X96903059Y-124802804D02*
X96822247Y-124668117D01*
X96822247Y-124668117D02*
X96687560Y-124533430D01*
X96687560Y-124533430D02*
X96552873Y-124452618D01*
X96552873Y-124452618D02*
X96472060Y-124425680D01*
X96472060Y-124425680D02*
X96418186Y-124425680D01*
X96418186Y-124425680D02*
X96337373Y-124452618D01*
X125543431Y-122986435D02*
X125570368Y-122905623D01*
X125570368Y-122905623D02*
X125651180Y-122824811D01*
X125651180Y-122824811D02*
X125758930Y-122770936D01*
X125758930Y-122770936D02*
X125866680Y-122770936D01*
X125866680Y-122770936D02*
X125947492Y-122797873D01*
X125947492Y-122797873D02*
X126082179Y-122878685D01*
X126082179Y-122878685D02*
X126162991Y-122959498D01*
X126162991Y-122959498D02*
X126243803Y-123094185D01*
X126243803Y-123094185D02*
X126270741Y-123174997D01*
X126270741Y-123174997D02*
X126270741Y-123282746D01*
X126270741Y-123282746D02*
X126216866Y-123390496D01*
X126216866Y-123390496D02*
X126162991Y-123444371D01*
X126162991Y-123444371D02*
X126055241Y-123498246D01*
X126055241Y-123498246D02*
X126001367Y-123498246D01*
X126001367Y-123498246D02*
X125812805Y-123309684D01*
X125812805Y-123309684D02*
X125920554Y-123201934D01*
X125812805Y-123794557D02*
X125247119Y-123228872D01*
X125247119Y-123228872D02*
X125489556Y-124117806D01*
X125489556Y-124117806D02*
X124923871Y-123552120D01*
X125220182Y-124387180D02*
X124654497Y-123821494D01*
X124654497Y-123821494D02*
X124519810Y-123956181D01*
X124519810Y-123956181D02*
X124465935Y-124063931D01*
X124465935Y-124063931D02*
X124465935Y-124171680D01*
X124465935Y-124171680D02*
X124492872Y-124252493D01*
X124492872Y-124252493D02*
X124573685Y-124387180D01*
X124573685Y-124387180D02*
X124654497Y-124467992D01*
X124654497Y-124467992D02*
X124789184Y-124548804D01*
X124789184Y-124548804D02*
X124869996Y-124575741D01*
X124869996Y-124575741D02*
X124977746Y-124575741D01*
X124977746Y-124575741D02*
X125085495Y-124521867D01*
X125085495Y-124521867D02*
X125220182Y-124387180D01*
X85145868Y-96889998D02*
X85172805Y-96809185D01*
X85172805Y-96809185D02*
X85253618Y-96728373D01*
X85253618Y-96728373D02*
X85361367Y-96674498D01*
X85361367Y-96674498D02*
X85469117Y-96674498D01*
X85469117Y-96674498D02*
X85549929Y-96701436D01*
X85549929Y-96701436D02*
X85684616Y-96782248D01*
X85684616Y-96782248D02*
X85765428Y-96863060D01*
X85765428Y-96863060D02*
X85846241Y-96997747D01*
X85846241Y-96997747D02*
X85873178Y-97078560D01*
X85873178Y-97078560D02*
X85873178Y-97186309D01*
X85873178Y-97186309D02*
X85819303Y-97294059D01*
X85819303Y-97294059D02*
X85765428Y-97347934D01*
X85765428Y-97347934D02*
X85657679Y-97401808D01*
X85657679Y-97401808D02*
X85603804Y-97401808D01*
X85603804Y-97401808D02*
X85415242Y-97213247D01*
X85415242Y-97213247D02*
X85522992Y-97105497D01*
X85415242Y-97698120D02*
X84849557Y-97132434D01*
X84849557Y-97132434D02*
X84634057Y-97347934D01*
X84634057Y-97347934D02*
X84607120Y-97428746D01*
X84607120Y-97428746D02*
X84607120Y-97482621D01*
X84607120Y-97482621D02*
X84634057Y-97563433D01*
X84634057Y-97563433D02*
X84714870Y-97644245D01*
X84714870Y-97644245D02*
X84795682Y-97671182D01*
X84795682Y-97671182D02*
X84849557Y-97671182D01*
X84849557Y-97671182D02*
X84930369Y-97644245D01*
X84930369Y-97644245D02*
X85145868Y-97428746D01*
X84553245Y-98560117D02*
X84876494Y-98236868D01*
X84714870Y-98398492D02*
X84149184Y-97832807D01*
X84149184Y-97832807D02*
X84283871Y-97859744D01*
X84283871Y-97859744D02*
X84391621Y-97859744D01*
X84391621Y-97859744D02*
X84472433Y-97832807D01*
X83798998Y-98182993D02*
X83421874Y-98560117D01*
X83421874Y-98560117D02*
X84229996Y-98883366D01*
X113786240Y-96943873D02*
X113516866Y-97213247D01*
X114001739Y-97051623D02*
X113247492Y-96674499D01*
X113247492Y-96674499D02*
X113624615Y-97428746D01*
X112600994Y-97374871D02*
X112627932Y-97294059D01*
X112627932Y-97294059D02*
X112708744Y-97213247D01*
X112708744Y-97213247D02*
X112816494Y-97159372D01*
X112816494Y-97159372D02*
X112924243Y-97159372D01*
X112924243Y-97159372D02*
X113005055Y-97186310D01*
X113005055Y-97186310D02*
X113139742Y-97267122D01*
X113139742Y-97267122D02*
X113220555Y-97347934D01*
X113220555Y-97347934D02*
X113301367Y-97482621D01*
X113301367Y-97482621D02*
X113328304Y-97563433D01*
X113328304Y-97563433D02*
X113328304Y-97671183D01*
X113328304Y-97671183D02*
X113274429Y-97778932D01*
X113274429Y-97778932D02*
X113220555Y-97832807D01*
X113220555Y-97832807D02*
X113112805Y-97886682D01*
X113112805Y-97886682D02*
X113058930Y-97886682D01*
X113058930Y-97886682D02*
X112870368Y-97698120D01*
X112870368Y-97698120D02*
X112978118Y-97590371D01*
X112870368Y-98182993D02*
X112304683Y-97617308D01*
X112304683Y-97617308D02*
X112547120Y-98506242D01*
X112547120Y-98506242D02*
X111981434Y-97940557D01*
X112277746Y-98775616D02*
X111712060Y-98209931D01*
X111712060Y-98209931D02*
X111577373Y-98344618D01*
X111577373Y-98344618D02*
X111523498Y-98452367D01*
X111523498Y-98452367D02*
X111523498Y-98560117D01*
X111523498Y-98560117D02*
X111550436Y-98640929D01*
X111550436Y-98640929D02*
X111631248Y-98775616D01*
X111631248Y-98775616D02*
X111712060Y-98856428D01*
X111712060Y-98856428D02*
X111846747Y-98937241D01*
X111846747Y-98937241D02*
X111927560Y-98964178D01*
X111927560Y-98964178D02*
X112035309Y-98964178D01*
X112035309Y-98964178D02*
X112143059Y-98910303D01*
X112143059Y-98910303D02*
X112277746Y-98775616D01*
X87443431Y-122986435D02*
X87470368Y-122905623D01*
X87470368Y-122905623D02*
X87551180Y-122824811D01*
X87551180Y-122824811D02*
X87658930Y-122770936D01*
X87658930Y-122770936D02*
X87766680Y-122770936D01*
X87766680Y-122770936D02*
X87847492Y-122797873D01*
X87847492Y-122797873D02*
X87982179Y-122878685D01*
X87982179Y-122878685D02*
X88062991Y-122959498D01*
X88062991Y-122959498D02*
X88143803Y-123094185D01*
X88143803Y-123094185D02*
X88170741Y-123174997D01*
X88170741Y-123174997D02*
X88170741Y-123282746D01*
X88170741Y-123282746D02*
X88116866Y-123390496D01*
X88116866Y-123390496D02*
X88062991Y-123444371D01*
X88062991Y-123444371D02*
X87955241Y-123498246D01*
X87955241Y-123498246D02*
X87901367Y-123498246D01*
X87901367Y-123498246D02*
X87712805Y-123309684D01*
X87712805Y-123309684D02*
X87820554Y-123201934D01*
X87712805Y-123794557D02*
X87147119Y-123228872D01*
X87147119Y-123228872D02*
X87389556Y-124117806D01*
X87389556Y-124117806D02*
X86823871Y-123552120D01*
X87120182Y-124387180D02*
X86554497Y-123821494D01*
X86554497Y-123821494D02*
X86419810Y-123956181D01*
X86419810Y-123956181D02*
X86365935Y-124063931D01*
X86365935Y-124063931D02*
X86365935Y-124171680D01*
X86365935Y-124171680D02*
X86392872Y-124252493D01*
X86392872Y-124252493D02*
X86473685Y-124387180D01*
X86473685Y-124387180D02*
X86554497Y-124467992D01*
X86554497Y-124467992D02*
X86689184Y-124548804D01*
X86689184Y-124548804D02*
X86769996Y-124575741D01*
X86769996Y-124575741D02*
X86877746Y-124575741D01*
X86877746Y-124575741D02*
X86985495Y-124521867D01*
X86985495Y-124521867D02*
X87120182Y-124387180D01*
X120635868Y-96990123D02*
X120285682Y-97340309D01*
X120285682Y-97340309D02*
X120689743Y-97367247D01*
X120689743Y-97367247D02*
X120608931Y-97448059D01*
X120608931Y-97448059D02*
X120581993Y-97528871D01*
X120581993Y-97528871D02*
X120581993Y-97582746D01*
X120581993Y-97582746D02*
X120608931Y-97663558D01*
X120608931Y-97663558D02*
X120743618Y-97798245D01*
X120743618Y-97798245D02*
X120824430Y-97825182D01*
X120824430Y-97825182D02*
X120878305Y-97825182D01*
X120878305Y-97825182D02*
X120959117Y-97798245D01*
X120959117Y-97798245D02*
X121120741Y-97636621D01*
X121120741Y-97636621D02*
X121147679Y-97555808D01*
X121147679Y-97555808D02*
X121147679Y-97501934D01*
X120124057Y-97501934D02*
X120501181Y-98256181D01*
X120501181Y-98256181D02*
X119746934Y-97879057D01*
X119612247Y-98013744D02*
X119262061Y-98363930D01*
X119262061Y-98363930D02*
X119666122Y-98390868D01*
X119666122Y-98390868D02*
X119585309Y-98471680D01*
X119585309Y-98471680D02*
X119558372Y-98552492D01*
X119558372Y-98552492D02*
X119558372Y-98606367D01*
X119558372Y-98606367D02*
X119585309Y-98687179D01*
X119585309Y-98687179D02*
X119719996Y-98821866D01*
X119719996Y-98821866D02*
X119800809Y-98848804D01*
X119800809Y-98848804D02*
X119854683Y-98848804D01*
X119854683Y-98848804D02*
X119935496Y-98821866D01*
X119935496Y-98821866D02*
X120097120Y-98660242D01*
X120097120Y-98660242D02*
X120124057Y-98579430D01*
X120124057Y-98579430D02*
X120124057Y-98525555D01*
X117896494Y-123013372D02*
X117923431Y-122932560D01*
X117923431Y-122932560D02*
X118004243Y-122851748D01*
X118004243Y-122851748D02*
X118111993Y-122797873D01*
X118111993Y-122797873D02*
X118219742Y-122797873D01*
X118219742Y-122797873D02*
X118300555Y-122824810D01*
X118300555Y-122824810D02*
X118435242Y-122905623D01*
X118435242Y-122905623D02*
X118516054Y-122986435D01*
X118516054Y-122986435D02*
X118596866Y-123121122D01*
X118596866Y-123121122D02*
X118623803Y-123201934D01*
X118623803Y-123201934D02*
X118623803Y-123309684D01*
X118623803Y-123309684D02*
X118569929Y-123417433D01*
X118569929Y-123417433D02*
X118516054Y-123471308D01*
X118516054Y-123471308D02*
X118408304Y-123525183D01*
X118408304Y-123525183D02*
X118354429Y-123525183D01*
X118354429Y-123525183D02*
X118165868Y-123336621D01*
X118165868Y-123336621D02*
X118273617Y-123228871D01*
X118165868Y-123821494D02*
X117600182Y-123255809D01*
X117600182Y-123255809D02*
X117384683Y-123471308D01*
X117384683Y-123471308D02*
X117357746Y-123552120D01*
X117357746Y-123552120D02*
X117357746Y-123605995D01*
X117357746Y-123605995D02*
X117384683Y-123686807D01*
X117384683Y-123686807D02*
X117465495Y-123767619D01*
X117465495Y-123767619D02*
X117546307Y-123794557D01*
X117546307Y-123794557D02*
X117600182Y-123794557D01*
X117600182Y-123794557D02*
X117680994Y-123767619D01*
X117680994Y-123767619D02*
X117896494Y-123552120D01*
X116980622Y-124252493D02*
X117357746Y-124629616D01*
X116899810Y-123902306D02*
X117438558Y-124171680D01*
X117438558Y-124171680D02*
X117088372Y-124521867D01*
X110276494Y-123013372D02*
X110303431Y-122932560D01*
X110303431Y-122932560D02*
X110384243Y-122851748D01*
X110384243Y-122851748D02*
X110491993Y-122797873D01*
X110491993Y-122797873D02*
X110599742Y-122797873D01*
X110599742Y-122797873D02*
X110680555Y-122824810D01*
X110680555Y-122824810D02*
X110815242Y-122905623D01*
X110815242Y-122905623D02*
X110896054Y-122986435D01*
X110896054Y-122986435D02*
X110976866Y-123121122D01*
X110976866Y-123121122D02*
X111003803Y-123201934D01*
X111003803Y-123201934D02*
X111003803Y-123309684D01*
X111003803Y-123309684D02*
X110949929Y-123417433D01*
X110949929Y-123417433D02*
X110896054Y-123471308D01*
X110896054Y-123471308D02*
X110788304Y-123525183D01*
X110788304Y-123525183D02*
X110734429Y-123525183D01*
X110734429Y-123525183D02*
X110545868Y-123336621D01*
X110545868Y-123336621D02*
X110653617Y-123228871D01*
X110545868Y-123821494D02*
X109980182Y-123255809D01*
X109980182Y-123255809D02*
X109764683Y-123471308D01*
X109764683Y-123471308D02*
X109737746Y-123552120D01*
X109737746Y-123552120D02*
X109737746Y-123605995D01*
X109737746Y-123605995D02*
X109764683Y-123686807D01*
X109764683Y-123686807D02*
X109845495Y-123767619D01*
X109845495Y-123767619D02*
X109926307Y-123794557D01*
X109926307Y-123794557D02*
X109980182Y-123794557D01*
X109980182Y-123794557D02*
X110060994Y-123767619D01*
X110060994Y-123767619D02*
X110276494Y-123552120D01*
X109172060Y-124063931D02*
X109279810Y-123956181D01*
X109279810Y-123956181D02*
X109360622Y-123929244D01*
X109360622Y-123929244D02*
X109414497Y-123929244D01*
X109414497Y-123929244D02*
X109549184Y-123956181D01*
X109549184Y-123956181D02*
X109683871Y-124036993D01*
X109683871Y-124036993D02*
X109899370Y-124252493D01*
X109899370Y-124252493D02*
X109926307Y-124333305D01*
X109926307Y-124333305D02*
X109926307Y-124387180D01*
X109926307Y-124387180D02*
X109899370Y-124467992D01*
X109899370Y-124467992D02*
X109791620Y-124575741D01*
X109791620Y-124575741D02*
X109710808Y-124602679D01*
X109710808Y-124602679D02*
X109656933Y-124602679D01*
X109656933Y-124602679D02*
X109576121Y-124575741D01*
X109576121Y-124575741D02*
X109441434Y-124441054D01*
X109441434Y-124441054D02*
X109414497Y-124360242D01*
X109414497Y-124360242D02*
X109414497Y-124306367D01*
X109414497Y-124306367D02*
X109441434Y-124225555D01*
X109441434Y-124225555D02*
X109549184Y-124117806D01*
X109549184Y-124117806D02*
X109629996Y-124090868D01*
X109629996Y-124090868D02*
X109683871Y-124090868D01*
X109683871Y-124090868D02*
X109764683Y-124117806D01*
X105196494Y-123013372D02*
X105223431Y-122932560D01*
X105223431Y-122932560D02*
X105304243Y-122851748D01*
X105304243Y-122851748D02*
X105411993Y-122797873D01*
X105411993Y-122797873D02*
X105519742Y-122797873D01*
X105519742Y-122797873D02*
X105600555Y-122824810D01*
X105600555Y-122824810D02*
X105735242Y-122905623D01*
X105735242Y-122905623D02*
X105816054Y-122986435D01*
X105816054Y-122986435D02*
X105896866Y-123121122D01*
X105896866Y-123121122D02*
X105923803Y-123201934D01*
X105923803Y-123201934D02*
X105923803Y-123309684D01*
X105923803Y-123309684D02*
X105869929Y-123417433D01*
X105869929Y-123417433D02*
X105816054Y-123471308D01*
X105816054Y-123471308D02*
X105708304Y-123525183D01*
X105708304Y-123525183D02*
X105654429Y-123525183D01*
X105654429Y-123525183D02*
X105465868Y-123336621D01*
X105465868Y-123336621D02*
X105573617Y-123228871D01*
X105465868Y-123821494D02*
X104900182Y-123255809D01*
X104900182Y-123255809D02*
X104684683Y-123471308D01*
X104684683Y-123471308D02*
X104657746Y-123552120D01*
X104657746Y-123552120D02*
X104657746Y-123605995D01*
X104657746Y-123605995D02*
X104684683Y-123686807D01*
X104684683Y-123686807D02*
X104765495Y-123767619D01*
X104765495Y-123767619D02*
X104846307Y-123794557D01*
X104846307Y-123794557D02*
X104900182Y-123794557D01*
X104900182Y-123794557D02*
X104980994Y-123767619D01*
X104980994Y-123767619D02*
X105196494Y-123552120D01*
X104496121Y-124144743D02*
X104523059Y-124063931D01*
X104523059Y-124063931D02*
X104523059Y-124010056D01*
X104523059Y-124010056D02*
X104496121Y-123929244D01*
X104496121Y-123929244D02*
X104469184Y-123902306D01*
X104469184Y-123902306D02*
X104388372Y-123875369D01*
X104388372Y-123875369D02*
X104334497Y-123875369D01*
X104334497Y-123875369D02*
X104253685Y-123902306D01*
X104253685Y-123902306D02*
X104145935Y-124010056D01*
X104145935Y-124010056D02*
X104118998Y-124090868D01*
X104118998Y-124090868D02*
X104118998Y-124144743D01*
X104118998Y-124144743D02*
X104145935Y-124225555D01*
X104145935Y-124225555D02*
X104172872Y-124252493D01*
X104172872Y-124252493D02*
X104253685Y-124279430D01*
X104253685Y-124279430D02*
X104307559Y-124279430D01*
X104307559Y-124279430D02*
X104388372Y-124252493D01*
X104388372Y-124252493D02*
X104496121Y-124144743D01*
X104496121Y-124144743D02*
X104576933Y-124117806D01*
X104576933Y-124117806D02*
X104630808Y-124117806D01*
X104630808Y-124117806D02*
X104711620Y-124144743D01*
X104711620Y-124144743D02*
X104819370Y-124252493D01*
X104819370Y-124252493D02*
X104846307Y-124333305D01*
X104846307Y-124333305D02*
X104846307Y-124387180D01*
X104846307Y-124387180D02*
X104819370Y-124467992D01*
X104819370Y-124467992D02*
X104711620Y-124575741D01*
X104711620Y-124575741D02*
X104630808Y-124602679D01*
X104630808Y-124602679D02*
X104576933Y-124602679D01*
X104576933Y-124602679D02*
X104496121Y-124575741D01*
X104496121Y-124575741D02*
X104388372Y-124467992D01*
X104388372Y-124467992D02*
X104361434Y-124387180D01*
X104361434Y-124387180D02*
X104361434Y-124333305D01*
X104361434Y-124333305D02*
X104388372Y-124252493D01*
X130596494Y-123013372D02*
X130623431Y-122932560D01*
X130623431Y-122932560D02*
X130704243Y-122851748D01*
X130704243Y-122851748D02*
X130811993Y-122797873D01*
X130811993Y-122797873D02*
X130919742Y-122797873D01*
X130919742Y-122797873D02*
X131000555Y-122824810D01*
X131000555Y-122824810D02*
X131135242Y-122905623D01*
X131135242Y-122905623D02*
X131216054Y-122986435D01*
X131216054Y-122986435D02*
X131296866Y-123121122D01*
X131296866Y-123121122D02*
X131323803Y-123201934D01*
X131323803Y-123201934D02*
X131323803Y-123309684D01*
X131323803Y-123309684D02*
X131269929Y-123417433D01*
X131269929Y-123417433D02*
X131216054Y-123471308D01*
X131216054Y-123471308D02*
X131108304Y-123525183D01*
X131108304Y-123525183D02*
X131054429Y-123525183D01*
X131054429Y-123525183D02*
X130865868Y-123336621D01*
X130865868Y-123336621D02*
X130973617Y-123228871D01*
X130865868Y-123821494D02*
X130300182Y-123255809D01*
X130300182Y-123255809D02*
X130084683Y-123471308D01*
X130084683Y-123471308D02*
X130057746Y-123552120D01*
X130057746Y-123552120D02*
X130057746Y-123605995D01*
X130057746Y-123605995D02*
X130084683Y-123686807D01*
X130084683Y-123686807D02*
X130165495Y-123767619D01*
X130165495Y-123767619D02*
X130246307Y-123794557D01*
X130246307Y-123794557D02*
X130300182Y-123794557D01*
X130300182Y-123794557D02*
X130380994Y-123767619D01*
X130380994Y-123767619D02*
X130596494Y-123552120D01*
X129626747Y-123929244D02*
X129572872Y-123983119D01*
X129572872Y-123983119D02*
X129545935Y-124063931D01*
X129545935Y-124063931D02*
X129545935Y-124117806D01*
X129545935Y-124117806D02*
X129572872Y-124198618D01*
X129572872Y-124198618D02*
X129653685Y-124333305D01*
X129653685Y-124333305D02*
X129788372Y-124467992D01*
X129788372Y-124467992D02*
X129923059Y-124548804D01*
X129923059Y-124548804D02*
X130003871Y-124575741D01*
X130003871Y-124575741D02*
X130057746Y-124575741D01*
X130057746Y-124575741D02*
X130138558Y-124548804D01*
X130138558Y-124548804D02*
X130192433Y-124494929D01*
X130192433Y-124494929D02*
X130219370Y-124414117D01*
X130219370Y-124414117D02*
X130219370Y-124360242D01*
X130219370Y-124360242D02*
X130192433Y-124279430D01*
X130192433Y-124279430D02*
X130111620Y-124144743D01*
X130111620Y-124144743D02*
X129976933Y-124010056D01*
X129976933Y-124010056D02*
X129842246Y-123929244D01*
X129842246Y-123929244D02*
X129761434Y-123902306D01*
X129761434Y-123902306D02*
X129707559Y-123902306D01*
X129707559Y-123902306D02*
X129626747Y-123929244D01*
X100143431Y-122986435D02*
X100170368Y-122905623D01*
X100170368Y-122905623D02*
X100251180Y-122824811D01*
X100251180Y-122824811D02*
X100358930Y-122770936D01*
X100358930Y-122770936D02*
X100466680Y-122770936D01*
X100466680Y-122770936D02*
X100547492Y-122797873D01*
X100547492Y-122797873D02*
X100682179Y-122878685D01*
X100682179Y-122878685D02*
X100762991Y-122959498D01*
X100762991Y-122959498D02*
X100843803Y-123094185D01*
X100843803Y-123094185D02*
X100870741Y-123174997D01*
X100870741Y-123174997D02*
X100870741Y-123282746D01*
X100870741Y-123282746D02*
X100816866Y-123390496D01*
X100816866Y-123390496D02*
X100762991Y-123444371D01*
X100762991Y-123444371D02*
X100655241Y-123498246D01*
X100655241Y-123498246D02*
X100601367Y-123498246D01*
X100601367Y-123498246D02*
X100412805Y-123309684D01*
X100412805Y-123309684D02*
X100520554Y-123201934D01*
X100412805Y-123794557D02*
X99847119Y-123228872D01*
X99847119Y-123228872D02*
X100089556Y-124117806D01*
X100089556Y-124117806D02*
X99523871Y-123552120D01*
X99820182Y-124387180D02*
X99254497Y-123821494D01*
X99254497Y-123821494D02*
X99119810Y-123956181D01*
X99119810Y-123956181D02*
X99065935Y-124063931D01*
X99065935Y-124063931D02*
X99065935Y-124171680D01*
X99065935Y-124171680D02*
X99092872Y-124252493D01*
X99092872Y-124252493D02*
X99173685Y-124387180D01*
X99173685Y-124387180D02*
X99254497Y-124467992D01*
X99254497Y-124467992D02*
X99389184Y-124548804D01*
X99389184Y-124548804D02*
X99469996Y-124575741D01*
X99469996Y-124575741D02*
X99577746Y-124575741D01*
X99577746Y-124575741D02*
X99685495Y-124521867D01*
X99685495Y-124521867D02*
X99820182Y-124387180D01*
X102656494Y-123013372D02*
X102683431Y-122932560D01*
X102683431Y-122932560D02*
X102764243Y-122851748D01*
X102764243Y-122851748D02*
X102871993Y-122797873D01*
X102871993Y-122797873D02*
X102979742Y-122797873D01*
X102979742Y-122797873D02*
X103060555Y-122824810D01*
X103060555Y-122824810D02*
X103195242Y-122905623D01*
X103195242Y-122905623D02*
X103276054Y-122986435D01*
X103276054Y-122986435D02*
X103356866Y-123121122D01*
X103356866Y-123121122D02*
X103383803Y-123201934D01*
X103383803Y-123201934D02*
X103383803Y-123309684D01*
X103383803Y-123309684D02*
X103329929Y-123417433D01*
X103329929Y-123417433D02*
X103276054Y-123471308D01*
X103276054Y-123471308D02*
X103168304Y-123525183D01*
X103168304Y-123525183D02*
X103114429Y-123525183D01*
X103114429Y-123525183D02*
X102925868Y-123336621D01*
X102925868Y-123336621D02*
X103033617Y-123228871D01*
X102925868Y-123821494D02*
X102360182Y-123255809D01*
X102360182Y-123255809D02*
X102144683Y-123471308D01*
X102144683Y-123471308D02*
X102117746Y-123552120D01*
X102117746Y-123552120D02*
X102117746Y-123605995D01*
X102117746Y-123605995D02*
X102144683Y-123686807D01*
X102144683Y-123686807D02*
X102225495Y-123767619D01*
X102225495Y-123767619D02*
X102306307Y-123794557D01*
X102306307Y-123794557D02*
X102360182Y-123794557D01*
X102360182Y-123794557D02*
X102440994Y-123767619D01*
X102440994Y-123767619D02*
X102656494Y-123552120D01*
X102333245Y-124414117D02*
X102225495Y-124521867D01*
X102225495Y-124521867D02*
X102144683Y-124548804D01*
X102144683Y-124548804D02*
X102090808Y-124548804D01*
X102090808Y-124548804D02*
X101956121Y-124521867D01*
X101956121Y-124521867D02*
X101821434Y-124441054D01*
X101821434Y-124441054D02*
X101605935Y-124225555D01*
X101605935Y-124225555D02*
X101578998Y-124144743D01*
X101578998Y-124144743D02*
X101578998Y-124090868D01*
X101578998Y-124090868D02*
X101605935Y-124010056D01*
X101605935Y-124010056D02*
X101713685Y-123902306D01*
X101713685Y-123902306D02*
X101794497Y-123875369D01*
X101794497Y-123875369D02*
X101848372Y-123875369D01*
X101848372Y-123875369D02*
X101929184Y-123902306D01*
X101929184Y-123902306D02*
X102063871Y-124036993D01*
X102063871Y-124036993D02*
X102090808Y-124117806D01*
X102090808Y-124117806D02*
X102090808Y-124171680D01*
X102090808Y-124171680D02*
X102063871Y-124252493D01*
X102063871Y-124252493D02*
X101956121Y-124360242D01*
X101956121Y-124360242D02*
X101875309Y-124387180D01*
X101875309Y-124387180D02*
X101821434Y-124387180D01*
X101821434Y-124387180D02*
X101740622Y-124360242D01*
X97835868Y-96889998D02*
X97862805Y-96809185D01*
X97862805Y-96809185D02*
X97943618Y-96728373D01*
X97943618Y-96728373D02*
X98051367Y-96674498D01*
X98051367Y-96674498D02*
X98159117Y-96674498D01*
X98159117Y-96674498D02*
X98239929Y-96701436D01*
X98239929Y-96701436D02*
X98374616Y-96782248D01*
X98374616Y-96782248D02*
X98455428Y-96863060D01*
X98455428Y-96863060D02*
X98536241Y-96997747D01*
X98536241Y-96997747D02*
X98563178Y-97078560D01*
X98563178Y-97078560D02*
X98563178Y-97186309D01*
X98563178Y-97186309D02*
X98509303Y-97294059D01*
X98509303Y-97294059D02*
X98455428Y-97347934D01*
X98455428Y-97347934D02*
X98347679Y-97401808D01*
X98347679Y-97401808D02*
X98293804Y-97401808D01*
X98293804Y-97401808D02*
X98105242Y-97213247D01*
X98105242Y-97213247D02*
X98212992Y-97105497D01*
X98105242Y-97698120D02*
X97539557Y-97132434D01*
X97539557Y-97132434D02*
X97324057Y-97347934D01*
X97324057Y-97347934D02*
X97297120Y-97428746D01*
X97297120Y-97428746D02*
X97297120Y-97482621D01*
X97297120Y-97482621D02*
X97324057Y-97563433D01*
X97324057Y-97563433D02*
X97404870Y-97644245D01*
X97404870Y-97644245D02*
X97485682Y-97671182D01*
X97485682Y-97671182D02*
X97539557Y-97671182D01*
X97539557Y-97671182D02*
X97620369Y-97644245D01*
X97620369Y-97644245D02*
X97835868Y-97428746D01*
X97054683Y-97725057D02*
X97000809Y-97725057D01*
X97000809Y-97725057D02*
X96919996Y-97751995D01*
X96919996Y-97751995D02*
X96785309Y-97886682D01*
X96785309Y-97886682D02*
X96758372Y-97967494D01*
X96758372Y-97967494D02*
X96758372Y-98021369D01*
X96758372Y-98021369D02*
X96785309Y-98102181D01*
X96785309Y-98102181D02*
X96839184Y-98156056D01*
X96839184Y-98156056D02*
X96946934Y-98209930D01*
X96946934Y-98209930D02*
X97593431Y-98209930D01*
X97593431Y-98209930D02*
X97243245Y-98560117D01*
X96704497Y-99098865D02*
X97027746Y-98775616D01*
X96866121Y-98937240D02*
X96300436Y-98371555D01*
X96300436Y-98371555D02*
X96435123Y-98398492D01*
X96435123Y-98398492D02*
X96542873Y-98398492D01*
X96542873Y-98398492D02*
X96623685Y-98371555D01*
X124703584Y-95422407D02*
X124353398Y-95772593D01*
X124353398Y-95772593D02*
X124757459Y-95799531D01*
X124757459Y-95799531D02*
X124676646Y-95880343D01*
X124676646Y-95880343D02*
X124649709Y-95961155D01*
X124649709Y-95961155D02*
X124649709Y-96015030D01*
X124649709Y-96015030D02*
X124676646Y-96095842D01*
X124676646Y-96095842D02*
X124811333Y-96230529D01*
X124811333Y-96230529D02*
X124892146Y-96257467D01*
X124892146Y-96257467D02*
X124946020Y-96257467D01*
X124946020Y-96257467D02*
X125026833Y-96230529D01*
X125026833Y-96230529D02*
X125188457Y-96068905D01*
X125188457Y-96068905D02*
X125215394Y-95988093D01*
X125215394Y-95988093D02*
X125215394Y-95934218D01*
X124191773Y-95934218D02*
X124568897Y-96688465D01*
X124568897Y-96688465D02*
X123814649Y-96311342D01*
X123679963Y-96446028D02*
X123329776Y-96796215D01*
X123329776Y-96796215D02*
X123733837Y-96823152D01*
X123733837Y-96823152D02*
X123653025Y-96903964D01*
X123653025Y-96903964D02*
X123626088Y-96984776D01*
X123626088Y-96984776D02*
X123626088Y-97038651D01*
X123626088Y-97038651D02*
X123653025Y-97119464D01*
X123653025Y-97119464D02*
X123787712Y-97254151D01*
X123787712Y-97254151D02*
X123868524Y-97281088D01*
X123868524Y-97281088D02*
X123922399Y-97281088D01*
X123922399Y-97281088D02*
X124003211Y-97254151D01*
X124003211Y-97254151D02*
X124164836Y-97092526D01*
X124164836Y-97092526D02*
X124191773Y-97011714D01*
X124191773Y-97011714D02*
X124191773Y-96957839D01*
X123841587Y-97523525D02*
X123410588Y-97954523D01*
X122925715Y-97739024D02*
X122737153Y-97927586D01*
X122952652Y-98304709D02*
X123222026Y-98035335D01*
X123222026Y-98035335D02*
X122656341Y-97469650D01*
X122656341Y-97469650D02*
X122386967Y-97739024D01*
X122710215Y-98547146D02*
X122144530Y-97981461D01*
X122144530Y-97981461D02*
X122386967Y-98870395D01*
X122386967Y-98870395D02*
X121821281Y-98304710D01*
X80469200Y-114790475D02*
X80507295Y-114904761D01*
X80507295Y-114904761D02*
X80507295Y-115095237D01*
X80507295Y-115095237D02*
X80469200Y-115171428D01*
X80469200Y-115171428D02*
X80431104Y-115209523D01*
X80431104Y-115209523D02*
X80354914Y-115247618D01*
X80354914Y-115247618D02*
X80278723Y-115247618D01*
X80278723Y-115247618D02*
X80202533Y-115209523D01*
X80202533Y-115209523D02*
X80164438Y-115171428D01*
X80164438Y-115171428D02*
X80126342Y-115095237D01*
X80126342Y-115095237D02*
X80088247Y-114942856D01*
X80088247Y-114942856D02*
X80050152Y-114866666D01*
X80050152Y-114866666D02*
X80012057Y-114828571D01*
X80012057Y-114828571D02*
X79935866Y-114790475D01*
X79935866Y-114790475D02*
X79859676Y-114790475D01*
X79859676Y-114790475D02*
X79783485Y-114828571D01*
X79783485Y-114828571D02*
X79745390Y-114866666D01*
X79745390Y-114866666D02*
X79707295Y-114942856D01*
X79707295Y-114942856D02*
X79707295Y-115133333D01*
X79707295Y-115133333D02*
X79745390Y-115247618D01*
X79707295Y-115514285D02*
X80507295Y-115704761D01*
X80507295Y-115704761D02*
X79935866Y-115857142D01*
X79935866Y-115857142D02*
X80507295Y-116009523D01*
X80507295Y-116009523D02*
X79707295Y-116200000D01*
X80431104Y-116961905D02*
X80469200Y-116923809D01*
X80469200Y-116923809D02*
X80507295Y-116809524D01*
X80507295Y-116809524D02*
X80507295Y-116733333D01*
X80507295Y-116733333D02*
X80469200Y-116619047D01*
X80469200Y-116619047D02*
X80393009Y-116542857D01*
X80393009Y-116542857D02*
X80316819Y-116504762D01*
X80316819Y-116504762D02*
X80164438Y-116466666D01*
X80164438Y-116466666D02*
X80050152Y-116466666D01*
X80050152Y-116466666D02*
X79897771Y-116504762D01*
X79897771Y-116504762D02*
X79821580Y-116542857D01*
X79821580Y-116542857D02*
X79745390Y-116619047D01*
X79745390Y-116619047D02*
X79707295Y-116733333D01*
X79707295Y-116733333D02*
X79707295Y-116809524D01*
X79707295Y-116809524D02*
X79745390Y-116923809D01*
X79745390Y-116923809D02*
X79783485Y-116961905D01*
X80507295Y-117685714D02*
X80507295Y-117304762D01*
X80507295Y-117304762D02*
X79707295Y-117304762D01*
X80507295Y-117952381D02*
X79707295Y-117952381D01*
X80507295Y-118409524D02*
X80050152Y-118066666D01*
X79707295Y-118409524D02*
X80164438Y-117952381D01*
X128595242Y-96420749D02*
X128972366Y-97174996D01*
X128972366Y-97174996D02*
X128218118Y-96797873D01*
X128595242Y-97498245D02*
X128541367Y-97605995D01*
X128541367Y-97605995D02*
X128406680Y-97740682D01*
X128406680Y-97740682D02*
X128325868Y-97767619D01*
X128325868Y-97767619D02*
X128271993Y-97767619D01*
X128271993Y-97767619D02*
X128191181Y-97740682D01*
X128191181Y-97740682D02*
X128137306Y-97686807D01*
X128137306Y-97686807D02*
X128110369Y-97605995D01*
X128110369Y-97605995D02*
X128110369Y-97552120D01*
X128110369Y-97552120D02*
X128137306Y-97471308D01*
X128137306Y-97471308D02*
X128218118Y-97336621D01*
X128218118Y-97336621D02*
X128245056Y-97255808D01*
X128245056Y-97255808D02*
X128245056Y-97201934D01*
X128245056Y-97201934D02*
X128218118Y-97121121D01*
X128218118Y-97121121D02*
X128164244Y-97067247D01*
X128164244Y-97067247D02*
X128083431Y-97040309D01*
X128083431Y-97040309D02*
X128029557Y-97040309D01*
X128029557Y-97040309D02*
X127948744Y-97067247D01*
X127948744Y-97067247D02*
X127814057Y-97201934D01*
X127814057Y-97201934D02*
X127760183Y-97309683D01*
X127679370Y-97929244D02*
X127948744Y-98198618D01*
X127571621Y-97444370D02*
X127679370Y-97929244D01*
X127679370Y-97929244D02*
X127194497Y-97821494D01*
X127571621Y-98521866D02*
X127517746Y-98629616D01*
X127517746Y-98629616D02*
X127383059Y-98764303D01*
X127383059Y-98764303D02*
X127302247Y-98791240D01*
X127302247Y-98791240D02*
X127248372Y-98791240D01*
X127248372Y-98791240D02*
X127167560Y-98764303D01*
X127167560Y-98764303D02*
X127113685Y-98710428D01*
X127113685Y-98710428D02*
X127086748Y-98629616D01*
X127086748Y-98629616D02*
X127086748Y-98575741D01*
X127086748Y-98575741D02*
X127113685Y-98494929D01*
X127113685Y-98494929D02*
X127194497Y-98360242D01*
X127194497Y-98360242D02*
X127221435Y-98279430D01*
X127221435Y-98279430D02*
X127221435Y-98225555D01*
X127221435Y-98225555D02*
X127194497Y-98144743D01*
X127194497Y-98144743D02*
X127140622Y-98090868D01*
X127140622Y-98090868D02*
X127059810Y-98063930D01*
X127059810Y-98063930D02*
X127005935Y-98063930D01*
X127005935Y-98063930D02*
X126925123Y-98090868D01*
X126925123Y-98090868D02*
X126790436Y-98225555D01*
X126790436Y-98225555D02*
X126736561Y-98333304D01*
X95305868Y-123143998D02*
X95332805Y-123063185D01*
X95332805Y-123063185D02*
X95413618Y-122982373D01*
X95413618Y-122982373D02*
X95521367Y-122928498D01*
X95521367Y-122928498D02*
X95629117Y-122928498D01*
X95629117Y-122928498D02*
X95709929Y-122955436D01*
X95709929Y-122955436D02*
X95844616Y-123036248D01*
X95844616Y-123036248D02*
X95925428Y-123117060D01*
X95925428Y-123117060D02*
X96006241Y-123251747D01*
X96006241Y-123251747D02*
X96033178Y-123332560D01*
X96033178Y-123332560D02*
X96033178Y-123440309D01*
X96033178Y-123440309D02*
X95979303Y-123548059D01*
X95979303Y-123548059D02*
X95925428Y-123601934D01*
X95925428Y-123601934D02*
X95817679Y-123655808D01*
X95817679Y-123655808D02*
X95763804Y-123655808D01*
X95763804Y-123655808D02*
X95575242Y-123467247D01*
X95575242Y-123467247D02*
X95682992Y-123359497D01*
X95575242Y-123952120D02*
X95009557Y-123386434D01*
X95009557Y-123386434D02*
X94794057Y-123601934D01*
X94794057Y-123601934D02*
X94767120Y-123682746D01*
X94767120Y-123682746D02*
X94767120Y-123736621D01*
X94767120Y-123736621D02*
X94794057Y-123817433D01*
X94794057Y-123817433D02*
X94874870Y-123898245D01*
X94874870Y-123898245D02*
X94955682Y-123925182D01*
X94955682Y-123925182D02*
X95009557Y-123925182D01*
X95009557Y-123925182D02*
X95090369Y-123898245D01*
X95090369Y-123898245D02*
X95305868Y-123682746D01*
X94713245Y-124814117D02*
X95036494Y-124490868D01*
X94874870Y-124652492D02*
X94309184Y-124086807D01*
X94309184Y-124086807D02*
X94443871Y-124113744D01*
X94443871Y-124113744D02*
X94551621Y-124113744D01*
X94551621Y-124113744D02*
X94632433Y-124086807D01*
X94174497Y-125352865D02*
X94497746Y-125029616D01*
X94336121Y-125191240D02*
X93770436Y-124625555D01*
X93770436Y-124625555D02*
X93905123Y-124652492D01*
X93905123Y-124652492D02*
X94012873Y-124652492D01*
X94012873Y-124652492D02*
X94093685Y-124625555D01*
X92765868Y-123143998D02*
X92792805Y-123063185D01*
X92792805Y-123063185D02*
X92873618Y-122982373D01*
X92873618Y-122982373D02*
X92981367Y-122928498D01*
X92981367Y-122928498D02*
X93089117Y-122928498D01*
X93089117Y-122928498D02*
X93169929Y-122955436D01*
X93169929Y-122955436D02*
X93304616Y-123036248D01*
X93304616Y-123036248D02*
X93385428Y-123117060D01*
X93385428Y-123117060D02*
X93466241Y-123251747D01*
X93466241Y-123251747D02*
X93493178Y-123332560D01*
X93493178Y-123332560D02*
X93493178Y-123440309D01*
X93493178Y-123440309D02*
X93439303Y-123548059D01*
X93439303Y-123548059D02*
X93385428Y-123601934D01*
X93385428Y-123601934D02*
X93277679Y-123655808D01*
X93277679Y-123655808D02*
X93223804Y-123655808D01*
X93223804Y-123655808D02*
X93035242Y-123467247D01*
X93035242Y-123467247D02*
X93142992Y-123359497D01*
X93035242Y-123952120D02*
X92469557Y-123386434D01*
X92469557Y-123386434D02*
X92254057Y-123601934D01*
X92254057Y-123601934D02*
X92227120Y-123682746D01*
X92227120Y-123682746D02*
X92227120Y-123736621D01*
X92227120Y-123736621D02*
X92254057Y-123817433D01*
X92254057Y-123817433D02*
X92334870Y-123898245D01*
X92334870Y-123898245D02*
X92415682Y-123925182D01*
X92415682Y-123925182D02*
X92469557Y-123925182D01*
X92469557Y-123925182D02*
X92550369Y-123898245D01*
X92550369Y-123898245D02*
X92765868Y-123682746D01*
X92173245Y-124814117D02*
X92496494Y-124490868D01*
X92334870Y-124652492D02*
X91769184Y-124086807D01*
X91769184Y-124086807D02*
X91903871Y-124113744D01*
X91903871Y-124113744D02*
X92011621Y-124113744D01*
X92011621Y-124113744D02*
X92092433Y-124086807D01*
X91445935Y-124517805D02*
X91392060Y-124517805D01*
X91392060Y-124517805D02*
X91311248Y-124544743D01*
X91311248Y-124544743D02*
X91176561Y-124679430D01*
X91176561Y-124679430D02*
X91149624Y-124760242D01*
X91149624Y-124760242D02*
X91149624Y-124814117D01*
X91149624Y-124814117D02*
X91176561Y-124894929D01*
X91176561Y-124894929D02*
X91230436Y-124948804D01*
X91230436Y-124948804D02*
X91338186Y-125002679D01*
X91338186Y-125002679D02*
X91984683Y-125002679D01*
X91984683Y-125002679D02*
X91634497Y-125352865D01*
X90225868Y-122997998D02*
X90252805Y-122917185D01*
X90252805Y-122917185D02*
X90333618Y-122836373D01*
X90333618Y-122836373D02*
X90441367Y-122782498D01*
X90441367Y-122782498D02*
X90549117Y-122782498D01*
X90549117Y-122782498D02*
X90629929Y-122809436D01*
X90629929Y-122809436D02*
X90764616Y-122890248D01*
X90764616Y-122890248D02*
X90845428Y-122971060D01*
X90845428Y-122971060D02*
X90926241Y-123105747D01*
X90926241Y-123105747D02*
X90953178Y-123186560D01*
X90953178Y-123186560D02*
X90953178Y-123294309D01*
X90953178Y-123294309D02*
X90899303Y-123402059D01*
X90899303Y-123402059D02*
X90845428Y-123455934D01*
X90845428Y-123455934D02*
X90737679Y-123509808D01*
X90737679Y-123509808D02*
X90683804Y-123509808D01*
X90683804Y-123509808D02*
X90495242Y-123321247D01*
X90495242Y-123321247D02*
X90602992Y-123213497D01*
X90495242Y-123806120D02*
X89929557Y-123240434D01*
X89929557Y-123240434D02*
X89714057Y-123455934D01*
X89714057Y-123455934D02*
X89687120Y-123536746D01*
X89687120Y-123536746D02*
X89687120Y-123590621D01*
X89687120Y-123590621D02*
X89714057Y-123671433D01*
X89714057Y-123671433D02*
X89794870Y-123752245D01*
X89794870Y-123752245D02*
X89875682Y-123779182D01*
X89875682Y-123779182D02*
X89929557Y-123779182D01*
X89929557Y-123779182D02*
X90010369Y-123752245D01*
X90010369Y-123752245D02*
X90225868Y-123536746D01*
X89633245Y-124668117D02*
X89956494Y-124344868D01*
X89794870Y-124506492D02*
X89229184Y-123940807D01*
X89229184Y-123940807D02*
X89363871Y-123967744D01*
X89363871Y-123967744D02*
X89471621Y-123967744D01*
X89471621Y-123967744D02*
X89552433Y-123940807D01*
X88878998Y-124290993D02*
X88528812Y-124641179D01*
X88528812Y-124641179D02*
X88932873Y-124668117D01*
X88932873Y-124668117D02*
X88852060Y-124748929D01*
X88852060Y-124748929D02*
X88825123Y-124829741D01*
X88825123Y-124829741D02*
X88825123Y-124883616D01*
X88825123Y-124883616D02*
X88852060Y-124964428D01*
X88852060Y-124964428D02*
X88986747Y-125099115D01*
X88986747Y-125099115D02*
X89067560Y-125126053D01*
X89067560Y-125126053D02*
X89121434Y-125126053D01*
X89121434Y-125126053D02*
X89202247Y-125099115D01*
X89202247Y-125099115D02*
X89363871Y-124937491D01*
X89363871Y-124937491D02*
X89390808Y-124856679D01*
X89390808Y-124856679D02*
X89390808Y-124802804D01*
X90225868Y-96889998D02*
X90252805Y-96809185D01*
X90252805Y-96809185D02*
X90333618Y-96728373D01*
X90333618Y-96728373D02*
X90441367Y-96674498D01*
X90441367Y-96674498D02*
X90549117Y-96674498D01*
X90549117Y-96674498D02*
X90629929Y-96701436D01*
X90629929Y-96701436D02*
X90764616Y-96782248D01*
X90764616Y-96782248D02*
X90845428Y-96863060D01*
X90845428Y-96863060D02*
X90926241Y-96997747D01*
X90926241Y-96997747D02*
X90953178Y-97078560D01*
X90953178Y-97078560D02*
X90953178Y-97186309D01*
X90953178Y-97186309D02*
X90899303Y-97294059D01*
X90899303Y-97294059D02*
X90845428Y-97347934D01*
X90845428Y-97347934D02*
X90737679Y-97401808D01*
X90737679Y-97401808D02*
X90683804Y-97401808D01*
X90683804Y-97401808D02*
X90495242Y-97213247D01*
X90495242Y-97213247D02*
X90602992Y-97105497D01*
X90495242Y-97698120D02*
X89929557Y-97132434D01*
X89929557Y-97132434D02*
X89714057Y-97347934D01*
X89714057Y-97347934D02*
X89687120Y-97428746D01*
X89687120Y-97428746D02*
X89687120Y-97482621D01*
X89687120Y-97482621D02*
X89714057Y-97563433D01*
X89714057Y-97563433D02*
X89794870Y-97644245D01*
X89794870Y-97644245D02*
X89875682Y-97671182D01*
X89875682Y-97671182D02*
X89929557Y-97671182D01*
X89929557Y-97671182D02*
X90010369Y-97644245D01*
X90010369Y-97644245D02*
X90225868Y-97428746D01*
X89633245Y-98560117D02*
X89956494Y-98236868D01*
X89794870Y-98398492D02*
X89229184Y-97832807D01*
X89229184Y-97832807D02*
X89363871Y-97859744D01*
X89363871Y-97859744D02*
X89471621Y-97859744D01*
X89471621Y-97859744D02*
X89552433Y-97832807D01*
X88986747Y-98560117D02*
X89013685Y-98479305D01*
X89013685Y-98479305D02*
X89013685Y-98425430D01*
X89013685Y-98425430D02*
X88986747Y-98344618D01*
X88986747Y-98344618D02*
X88959810Y-98317680D01*
X88959810Y-98317680D02*
X88878998Y-98290743D01*
X88878998Y-98290743D02*
X88825123Y-98290743D01*
X88825123Y-98290743D02*
X88744311Y-98317680D01*
X88744311Y-98317680D02*
X88636561Y-98425430D01*
X88636561Y-98425430D02*
X88609624Y-98506242D01*
X88609624Y-98506242D02*
X88609624Y-98560117D01*
X88609624Y-98560117D02*
X88636561Y-98640929D01*
X88636561Y-98640929D02*
X88663499Y-98667866D01*
X88663499Y-98667866D02*
X88744311Y-98694804D01*
X88744311Y-98694804D02*
X88798186Y-98694804D01*
X88798186Y-98694804D02*
X88878998Y-98667866D01*
X88878998Y-98667866D02*
X88986747Y-98560117D01*
X88986747Y-98560117D02*
X89067560Y-98533179D01*
X89067560Y-98533179D02*
X89121434Y-98533179D01*
X89121434Y-98533179D02*
X89202247Y-98560117D01*
X89202247Y-98560117D02*
X89309996Y-98667866D01*
X89309996Y-98667866D02*
X89336934Y-98748679D01*
X89336934Y-98748679D02*
X89336934Y-98802553D01*
X89336934Y-98802553D02*
X89309996Y-98883366D01*
X89309996Y-98883366D02*
X89202247Y-98991115D01*
X89202247Y-98991115D02*
X89121434Y-99018053D01*
X89121434Y-99018053D02*
X89067560Y-99018053D01*
X89067560Y-99018053D02*
X88986747Y-98991115D01*
X88986747Y-98991115D02*
X88878998Y-98883366D01*
X88878998Y-98883366D02*
X88852060Y-98802553D01*
X88852060Y-98802553D02*
X88852060Y-98748679D01*
X88852060Y-98748679D02*
X88878998Y-98667866D01*
X115356494Y-123013372D02*
X115383431Y-122932560D01*
X115383431Y-122932560D02*
X115464243Y-122851748D01*
X115464243Y-122851748D02*
X115571993Y-122797873D01*
X115571993Y-122797873D02*
X115679742Y-122797873D01*
X115679742Y-122797873D02*
X115760555Y-122824810D01*
X115760555Y-122824810D02*
X115895242Y-122905623D01*
X115895242Y-122905623D02*
X115976054Y-122986435D01*
X115976054Y-122986435D02*
X116056866Y-123121122D01*
X116056866Y-123121122D02*
X116083803Y-123201934D01*
X116083803Y-123201934D02*
X116083803Y-123309684D01*
X116083803Y-123309684D02*
X116029929Y-123417433D01*
X116029929Y-123417433D02*
X115976054Y-123471308D01*
X115976054Y-123471308D02*
X115868304Y-123525183D01*
X115868304Y-123525183D02*
X115814429Y-123525183D01*
X115814429Y-123525183D02*
X115625868Y-123336621D01*
X115625868Y-123336621D02*
X115733617Y-123228871D01*
X115625868Y-123821494D02*
X115060182Y-123255809D01*
X115060182Y-123255809D02*
X114844683Y-123471308D01*
X114844683Y-123471308D02*
X114817746Y-123552120D01*
X114817746Y-123552120D02*
X114817746Y-123605995D01*
X114817746Y-123605995D02*
X114844683Y-123686807D01*
X114844683Y-123686807D02*
X114925495Y-123767619D01*
X114925495Y-123767619D02*
X115006307Y-123794557D01*
X115006307Y-123794557D02*
X115060182Y-123794557D01*
X115060182Y-123794557D02*
X115140994Y-123767619D01*
X115140994Y-123767619D02*
X115356494Y-123552120D01*
X114225123Y-124090868D02*
X114494497Y-123821494D01*
X114494497Y-123821494D02*
X114790808Y-124063931D01*
X114790808Y-124063931D02*
X114736933Y-124063931D01*
X114736933Y-124063931D02*
X114656121Y-124090868D01*
X114656121Y-124090868D02*
X114521434Y-124225555D01*
X114521434Y-124225555D02*
X114494497Y-124306367D01*
X114494497Y-124306367D02*
X114494497Y-124360242D01*
X114494497Y-124360242D02*
X114521434Y-124441054D01*
X114521434Y-124441054D02*
X114656121Y-124575741D01*
X114656121Y-124575741D02*
X114736933Y-124602679D01*
X114736933Y-124602679D02*
X114790808Y-124602679D01*
X114790808Y-124602679D02*
X114871620Y-124575741D01*
X114871620Y-124575741D02*
X115006307Y-124441054D01*
X115006307Y-124441054D02*
X115033245Y-124360242D01*
X115033245Y-124360242D02*
X115033245Y-124306367D01*
X131272585Y-96253406D02*
X131649709Y-97007653D01*
X131649709Y-97007653D02*
X130895462Y-96630529D01*
X130787712Y-97277027D02*
X130733838Y-97384776D01*
X130733838Y-97384776D02*
X130733838Y-97438651D01*
X130733838Y-97438651D02*
X130760775Y-97519463D01*
X130760775Y-97519463D02*
X130841587Y-97600276D01*
X130841587Y-97600276D02*
X130922399Y-97627213D01*
X130922399Y-97627213D02*
X130976274Y-97627213D01*
X130976274Y-97627213D02*
X131057086Y-97600276D01*
X131057086Y-97600276D02*
X131272586Y-97384776D01*
X131272586Y-97384776D02*
X130706900Y-96819091D01*
X130706900Y-96819091D02*
X130518338Y-97007653D01*
X130518338Y-97007653D02*
X130491401Y-97088465D01*
X130491401Y-97088465D02*
X130491401Y-97142340D01*
X130491401Y-97142340D02*
X130518338Y-97223152D01*
X130518338Y-97223152D02*
X130572213Y-97277027D01*
X130572213Y-97277027D02*
X130653025Y-97303964D01*
X130653025Y-97303964D02*
X130706900Y-97303964D01*
X130706900Y-97303964D02*
X130787712Y-97277027D01*
X130787712Y-97277027D02*
X130976274Y-97088465D01*
X130141215Y-97384776D02*
X130599151Y-97842712D01*
X130599151Y-97842712D02*
X130626088Y-97923524D01*
X130626088Y-97923524D02*
X130626088Y-97977399D01*
X130626088Y-97977399D02*
X130599151Y-98058211D01*
X130599151Y-98058211D02*
X130491401Y-98165961D01*
X130491401Y-98165961D02*
X130410589Y-98192898D01*
X130410589Y-98192898D02*
X130356714Y-98192898D01*
X130356714Y-98192898D02*
X130275902Y-98165961D01*
X130275902Y-98165961D02*
X129817966Y-97708025D01*
X130114277Y-98489210D02*
X130060403Y-98596959D01*
X130060403Y-98596959D02*
X129925716Y-98731646D01*
X129925716Y-98731646D02*
X129844903Y-98758584D01*
X129844903Y-98758584D02*
X129791029Y-98758584D01*
X129791029Y-98758584D02*
X129710216Y-98731646D01*
X129710216Y-98731646D02*
X129656342Y-98677771D01*
X129656342Y-98677771D02*
X129629404Y-98596959D01*
X129629404Y-98596959D02*
X129629404Y-98543084D01*
X129629404Y-98543084D02*
X129656342Y-98462272D01*
X129656342Y-98462272D02*
X129737154Y-98327585D01*
X129737154Y-98327585D02*
X129764091Y-98246773D01*
X129764091Y-98246773D02*
X129764091Y-98192898D01*
X129764091Y-98192898D02*
X129737154Y-98112086D01*
X129737154Y-98112086D02*
X129683279Y-98058211D01*
X129683279Y-98058211D02*
X129602467Y-98031274D01*
X129602467Y-98031274D02*
X129548592Y-98031274D01*
X129548592Y-98031274D02*
X129467780Y-98058211D01*
X129467780Y-98058211D02*
X129333093Y-98192898D01*
X129333093Y-98192898D02*
X129279218Y-98300648D01*
X95305868Y-96889998D02*
X95332805Y-96809185D01*
X95332805Y-96809185D02*
X95413618Y-96728373D01*
X95413618Y-96728373D02*
X95521367Y-96674498D01*
X95521367Y-96674498D02*
X95629117Y-96674498D01*
X95629117Y-96674498D02*
X95709929Y-96701436D01*
X95709929Y-96701436D02*
X95844616Y-96782248D01*
X95844616Y-96782248D02*
X95925428Y-96863060D01*
X95925428Y-96863060D02*
X96006241Y-96997747D01*
X96006241Y-96997747D02*
X96033178Y-97078560D01*
X96033178Y-97078560D02*
X96033178Y-97186309D01*
X96033178Y-97186309D02*
X95979303Y-97294059D01*
X95979303Y-97294059D02*
X95925428Y-97347934D01*
X95925428Y-97347934D02*
X95817679Y-97401808D01*
X95817679Y-97401808D02*
X95763804Y-97401808D01*
X95763804Y-97401808D02*
X95575242Y-97213247D01*
X95575242Y-97213247D02*
X95682992Y-97105497D01*
X95575242Y-97698120D02*
X95009557Y-97132434D01*
X95009557Y-97132434D02*
X94794057Y-97347934D01*
X94794057Y-97347934D02*
X94767120Y-97428746D01*
X94767120Y-97428746D02*
X94767120Y-97482621D01*
X94767120Y-97482621D02*
X94794057Y-97563433D01*
X94794057Y-97563433D02*
X94874870Y-97644245D01*
X94874870Y-97644245D02*
X94955682Y-97671182D01*
X94955682Y-97671182D02*
X95009557Y-97671182D01*
X95009557Y-97671182D02*
X95090369Y-97644245D01*
X95090369Y-97644245D02*
X95305868Y-97428746D01*
X94524683Y-97725057D02*
X94470809Y-97725057D01*
X94470809Y-97725057D02*
X94389996Y-97751995D01*
X94389996Y-97751995D02*
X94255309Y-97886682D01*
X94255309Y-97886682D02*
X94228372Y-97967494D01*
X94228372Y-97967494D02*
X94228372Y-98021369D01*
X94228372Y-98021369D02*
X94255309Y-98102181D01*
X94255309Y-98102181D02*
X94309184Y-98156056D01*
X94309184Y-98156056D02*
X94416934Y-98209930D01*
X94416934Y-98209930D02*
X95063431Y-98209930D01*
X95063431Y-98209930D02*
X94713245Y-98560117D01*
X93797373Y-98344618D02*
X93743499Y-98398492D01*
X93743499Y-98398492D02*
X93716561Y-98479305D01*
X93716561Y-98479305D02*
X93716561Y-98533179D01*
X93716561Y-98533179D02*
X93743499Y-98613992D01*
X93743499Y-98613992D02*
X93824311Y-98748679D01*
X93824311Y-98748679D02*
X93958998Y-98883366D01*
X93958998Y-98883366D02*
X94093685Y-98964178D01*
X94093685Y-98964178D02*
X94174497Y-98991115D01*
X94174497Y-98991115D02*
X94228372Y-98991115D01*
X94228372Y-98991115D02*
X94309184Y-98964178D01*
X94309184Y-98964178D02*
X94363059Y-98910303D01*
X94363059Y-98910303D02*
X94389996Y-98829491D01*
X94389996Y-98829491D02*
X94389996Y-98775616D01*
X94389996Y-98775616D02*
X94363059Y-98694804D01*
X94363059Y-98694804D02*
X94282247Y-98560117D01*
X94282247Y-98560117D02*
X94147560Y-98425430D01*
X94147560Y-98425430D02*
X94012873Y-98344618D01*
X94012873Y-98344618D02*
X93932060Y-98317680D01*
X93932060Y-98317680D02*
X93878186Y-98317680D01*
X93878186Y-98317680D02*
X93797373Y-98344618D01*
X115879868Y-96889998D02*
X115906805Y-96809185D01*
X115906805Y-96809185D02*
X115987618Y-96728373D01*
X115987618Y-96728373D02*
X116095367Y-96674498D01*
X116095367Y-96674498D02*
X116203117Y-96674498D01*
X116203117Y-96674498D02*
X116283929Y-96701436D01*
X116283929Y-96701436D02*
X116418616Y-96782248D01*
X116418616Y-96782248D02*
X116499428Y-96863060D01*
X116499428Y-96863060D02*
X116580241Y-96997747D01*
X116580241Y-96997747D02*
X116607178Y-97078560D01*
X116607178Y-97078560D02*
X116607178Y-97186309D01*
X116607178Y-97186309D02*
X116553303Y-97294059D01*
X116553303Y-97294059D02*
X116499428Y-97347934D01*
X116499428Y-97347934D02*
X116391679Y-97401808D01*
X116391679Y-97401808D02*
X116337804Y-97401808D01*
X116337804Y-97401808D02*
X116149242Y-97213247D01*
X116149242Y-97213247D02*
X116256992Y-97105497D01*
X116149242Y-97698120D02*
X115583557Y-97132434D01*
X115583557Y-97132434D02*
X115368057Y-97347934D01*
X115368057Y-97347934D02*
X115341120Y-97428746D01*
X115341120Y-97428746D02*
X115341120Y-97482621D01*
X115341120Y-97482621D02*
X115368057Y-97563433D01*
X115368057Y-97563433D02*
X115448870Y-97644245D01*
X115448870Y-97644245D02*
X115529682Y-97671182D01*
X115529682Y-97671182D02*
X115583557Y-97671182D01*
X115583557Y-97671182D02*
X115664369Y-97644245D01*
X115664369Y-97644245D02*
X115879868Y-97428746D01*
X115098683Y-97725057D02*
X115044809Y-97725057D01*
X115044809Y-97725057D02*
X114963996Y-97751995D01*
X114963996Y-97751995D02*
X114829309Y-97886682D01*
X114829309Y-97886682D02*
X114802372Y-97967494D01*
X114802372Y-97967494D02*
X114802372Y-98021369D01*
X114802372Y-98021369D02*
X114829309Y-98102181D01*
X114829309Y-98102181D02*
X114883184Y-98156056D01*
X114883184Y-98156056D02*
X114990934Y-98209930D01*
X114990934Y-98209930D02*
X115637431Y-98209930D01*
X115637431Y-98209930D02*
X115287245Y-98560117D01*
X114640747Y-98560117D02*
X114667685Y-98479305D01*
X114667685Y-98479305D02*
X114667685Y-98425430D01*
X114667685Y-98425430D02*
X114640747Y-98344618D01*
X114640747Y-98344618D02*
X114613810Y-98317680D01*
X114613810Y-98317680D02*
X114532998Y-98290743D01*
X114532998Y-98290743D02*
X114479123Y-98290743D01*
X114479123Y-98290743D02*
X114398311Y-98317680D01*
X114398311Y-98317680D02*
X114290561Y-98425430D01*
X114290561Y-98425430D02*
X114263624Y-98506242D01*
X114263624Y-98506242D02*
X114263624Y-98560117D01*
X114263624Y-98560117D02*
X114290561Y-98640929D01*
X114290561Y-98640929D02*
X114317499Y-98667866D01*
X114317499Y-98667866D02*
X114398311Y-98694804D01*
X114398311Y-98694804D02*
X114452186Y-98694804D01*
X114452186Y-98694804D02*
X114532998Y-98667866D01*
X114532998Y-98667866D02*
X114640747Y-98560117D01*
X114640747Y-98560117D02*
X114721560Y-98533179D01*
X114721560Y-98533179D02*
X114775434Y-98533179D01*
X114775434Y-98533179D02*
X114856247Y-98560117D01*
X114856247Y-98560117D02*
X114963996Y-98667866D01*
X114963996Y-98667866D02*
X114990934Y-98748679D01*
X114990934Y-98748679D02*
X114990934Y-98802553D01*
X114990934Y-98802553D02*
X114963996Y-98883366D01*
X114963996Y-98883366D02*
X114856247Y-98991115D01*
X114856247Y-98991115D02*
X114775434Y-99018053D01*
X114775434Y-99018053D02*
X114721560Y-99018053D01*
X114721560Y-99018053D02*
X114640747Y-98991115D01*
X114640747Y-98991115D02*
X114532998Y-98883366D01*
X114532998Y-98883366D02*
X114506060Y-98802553D01*
X114506060Y-98802553D02*
X114506060Y-98748679D01*
X114506060Y-98748679D02*
X114532998Y-98667866D01*
X120436494Y-123013372D02*
X120463431Y-122932560D01*
X120463431Y-122932560D02*
X120544243Y-122851748D01*
X120544243Y-122851748D02*
X120651993Y-122797873D01*
X120651993Y-122797873D02*
X120759742Y-122797873D01*
X120759742Y-122797873D02*
X120840555Y-122824810D01*
X120840555Y-122824810D02*
X120975242Y-122905623D01*
X120975242Y-122905623D02*
X121056054Y-122986435D01*
X121056054Y-122986435D02*
X121136866Y-123121122D01*
X121136866Y-123121122D02*
X121163803Y-123201934D01*
X121163803Y-123201934D02*
X121163803Y-123309684D01*
X121163803Y-123309684D02*
X121109929Y-123417433D01*
X121109929Y-123417433D02*
X121056054Y-123471308D01*
X121056054Y-123471308D02*
X120948304Y-123525183D01*
X120948304Y-123525183D02*
X120894429Y-123525183D01*
X120894429Y-123525183D02*
X120705868Y-123336621D01*
X120705868Y-123336621D02*
X120813617Y-123228871D01*
X120705868Y-123821494D02*
X120140182Y-123255809D01*
X120140182Y-123255809D02*
X119924683Y-123471308D01*
X119924683Y-123471308D02*
X119897746Y-123552120D01*
X119897746Y-123552120D02*
X119897746Y-123605995D01*
X119897746Y-123605995D02*
X119924683Y-123686807D01*
X119924683Y-123686807D02*
X120005495Y-123767619D01*
X120005495Y-123767619D02*
X120086307Y-123794557D01*
X120086307Y-123794557D02*
X120140182Y-123794557D01*
X120140182Y-123794557D02*
X120220994Y-123767619D01*
X120220994Y-123767619D02*
X120436494Y-123552120D01*
X119628372Y-123767619D02*
X119278185Y-124117806D01*
X119278185Y-124117806D02*
X119682246Y-124144743D01*
X119682246Y-124144743D02*
X119601434Y-124225555D01*
X119601434Y-124225555D02*
X119574497Y-124306367D01*
X119574497Y-124306367D02*
X119574497Y-124360242D01*
X119574497Y-124360242D02*
X119601434Y-124441054D01*
X119601434Y-124441054D02*
X119736121Y-124575741D01*
X119736121Y-124575741D02*
X119816933Y-124602679D01*
X119816933Y-124602679D02*
X119870808Y-124602679D01*
X119870808Y-124602679D02*
X119951620Y-124575741D01*
X119951620Y-124575741D02*
X120113245Y-124414117D01*
X120113245Y-124414117D02*
X120140182Y-124333305D01*
X120140182Y-124333305D02*
X120140182Y-124279430D01*
X82605868Y-96889998D02*
X82632805Y-96809185D01*
X82632805Y-96809185D02*
X82713618Y-96728373D01*
X82713618Y-96728373D02*
X82821367Y-96674498D01*
X82821367Y-96674498D02*
X82929117Y-96674498D01*
X82929117Y-96674498D02*
X83009929Y-96701436D01*
X83009929Y-96701436D02*
X83144616Y-96782248D01*
X83144616Y-96782248D02*
X83225428Y-96863060D01*
X83225428Y-96863060D02*
X83306241Y-96997747D01*
X83306241Y-96997747D02*
X83333178Y-97078560D01*
X83333178Y-97078560D02*
X83333178Y-97186309D01*
X83333178Y-97186309D02*
X83279303Y-97294059D01*
X83279303Y-97294059D02*
X83225428Y-97347934D01*
X83225428Y-97347934D02*
X83117679Y-97401808D01*
X83117679Y-97401808D02*
X83063804Y-97401808D01*
X83063804Y-97401808D02*
X82875242Y-97213247D01*
X82875242Y-97213247D02*
X82982992Y-97105497D01*
X82875242Y-97698120D02*
X82309557Y-97132434D01*
X82309557Y-97132434D02*
X82094057Y-97347934D01*
X82094057Y-97347934D02*
X82067120Y-97428746D01*
X82067120Y-97428746D02*
X82067120Y-97482621D01*
X82067120Y-97482621D02*
X82094057Y-97563433D01*
X82094057Y-97563433D02*
X82174870Y-97644245D01*
X82174870Y-97644245D02*
X82255682Y-97671182D01*
X82255682Y-97671182D02*
X82309557Y-97671182D01*
X82309557Y-97671182D02*
X82390369Y-97644245D01*
X82390369Y-97644245D02*
X82605868Y-97428746D01*
X82013245Y-98560117D02*
X82336494Y-98236868D01*
X82174870Y-98398492D02*
X81609184Y-97832807D01*
X81609184Y-97832807D02*
X81743871Y-97859744D01*
X81743871Y-97859744D02*
X81851621Y-97859744D01*
X81851621Y-97859744D02*
X81932433Y-97832807D01*
X80962686Y-98479305D02*
X81070436Y-98371555D01*
X81070436Y-98371555D02*
X81151248Y-98344618D01*
X81151248Y-98344618D02*
X81205123Y-98344618D01*
X81205123Y-98344618D02*
X81339810Y-98371555D01*
X81339810Y-98371555D02*
X81474497Y-98452367D01*
X81474497Y-98452367D02*
X81689996Y-98667866D01*
X81689996Y-98667866D02*
X81716934Y-98748679D01*
X81716934Y-98748679D02*
X81716934Y-98802553D01*
X81716934Y-98802553D02*
X81689996Y-98883366D01*
X81689996Y-98883366D02*
X81582247Y-98991115D01*
X81582247Y-98991115D02*
X81501434Y-99018053D01*
X81501434Y-99018053D02*
X81447560Y-99018053D01*
X81447560Y-99018053D02*
X81366747Y-98991115D01*
X81366747Y-98991115D02*
X81232060Y-98856428D01*
X81232060Y-98856428D02*
X81205123Y-98775616D01*
X81205123Y-98775616D02*
X81205123Y-98721741D01*
X81205123Y-98721741D02*
X81232060Y-98640929D01*
X81232060Y-98640929D02*
X81339810Y-98533179D01*
X81339810Y-98533179D02*
X81420622Y-98506242D01*
X81420622Y-98506242D02*
X81474497Y-98506242D01*
X81474497Y-98506242D02*
X81555309Y-98533179D01*
X110535868Y-96889998D02*
X110562805Y-96809185D01*
X110562805Y-96809185D02*
X110643618Y-96728373D01*
X110643618Y-96728373D02*
X110751367Y-96674498D01*
X110751367Y-96674498D02*
X110859117Y-96674498D01*
X110859117Y-96674498D02*
X110939929Y-96701436D01*
X110939929Y-96701436D02*
X111074616Y-96782248D01*
X111074616Y-96782248D02*
X111155428Y-96863060D01*
X111155428Y-96863060D02*
X111236241Y-96997747D01*
X111236241Y-96997747D02*
X111263178Y-97078560D01*
X111263178Y-97078560D02*
X111263178Y-97186309D01*
X111263178Y-97186309D02*
X111209303Y-97294059D01*
X111209303Y-97294059D02*
X111155428Y-97347934D01*
X111155428Y-97347934D02*
X111047679Y-97401808D01*
X111047679Y-97401808D02*
X110993804Y-97401808D01*
X110993804Y-97401808D02*
X110805242Y-97213247D01*
X110805242Y-97213247D02*
X110912992Y-97105497D01*
X110805242Y-97698120D02*
X110239557Y-97132434D01*
X110239557Y-97132434D02*
X110024057Y-97347934D01*
X110024057Y-97347934D02*
X109997120Y-97428746D01*
X109997120Y-97428746D02*
X109997120Y-97482621D01*
X109997120Y-97482621D02*
X110024057Y-97563433D01*
X110024057Y-97563433D02*
X110104870Y-97644245D01*
X110104870Y-97644245D02*
X110185682Y-97671182D01*
X110185682Y-97671182D02*
X110239557Y-97671182D01*
X110239557Y-97671182D02*
X110320369Y-97644245D01*
X110320369Y-97644245D02*
X110535868Y-97428746D01*
X109754683Y-97725057D02*
X109700809Y-97725057D01*
X109700809Y-97725057D02*
X109619996Y-97751995D01*
X109619996Y-97751995D02*
X109485309Y-97886682D01*
X109485309Y-97886682D02*
X109458372Y-97967494D01*
X109458372Y-97967494D02*
X109458372Y-98021369D01*
X109458372Y-98021369D02*
X109485309Y-98102181D01*
X109485309Y-98102181D02*
X109539184Y-98156056D01*
X109539184Y-98156056D02*
X109646934Y-98209930D01*
X109646934Y-98209930D02*
X110293431Y-98209930D01*
X110293431Y-98209930D02*
X109943245Y-98560117D01*
X109188998Y-98182993D02*
X108811874Y-98560117D01*
X108811874Y-98560117D02*
X109619996Y-98883366D01*
X107766494Y-122913372D02*
X107793431Y-122832560D01*
X107793431Y-122832560D02*
X107874243Y-122751748D01*
X107874243Y-122751748D02*
X107981993Y-122697873D01*
X107981993Y-122697873D02*
X108089742Y-122697873D01*
X108089742Y-122697873D02*
X108170555Y-122724810D01*
X108170555Y-122724810D02*
X108305242Y-122805623D01*
X108305242Y-122805623D02*
X108386054Y-122886435D01*
X108386054Y-122886435D02*
X108466866Y-123021122D01*
X108466866Y-123021122D02*
X108493803Y-123101934D01*
X108493803Y-123101934D02*
X108493803Y-123209684D01*
X108493803Y-123209684D02*
X108439929Y-123317433D01*
X108439929Y-123317433D02*
X108386054Y-123371308D01*
X108386054Y-123371308D02*
X108278304Y-123425183D01*
X108278304Y-123425183D02*
X108224429Y-123425183D01*
X108224429Y-123425183D02*
X108035868Y-123236621D01*
X108035868Y-123236621D02*
X108143617Y-123128871D01*
X108035868Y-123721494D02*
X107470182Y-123155809D01*
X107470182Y-123155809D02*
X107254683Y-123371308D01*
X107254683Y-123371308D02*
X107227746Y-123452120D01*
X107227746Y-123452120D02*
X107227746Y-123505995D01*
X107227746Y-123505995D02*
X107254683Y-123586807D01*
X107254683Y-123586807D02*
X107335495Y-123667619D01*
X107335495Y-123667619D02*
X107416307Y-123694557D01*
X107416307Y-123694557D02*
X107470182Y-123694557D01*
X107470182Y-123694557D02*
X107550994Y-123667619D01*
X107550994Y-123667619D02*
X107766494Y-123452120D01*
X106958372Y-123667619D02*
X106581248Y-124044743D01*
X106581248Y-124044743D02*
X107389370Y-124367992D01*
X82605868Y-122997998D02*
X82632805Y-122917185D01*
X82632805Y-122917185D02*
X82713618Y-122836373D01*
X82713618Y-122836373D02*
X82821367Y-122782498D01*
X82821367Y-122782498D02*
X82929117Y-122782498D01*
X82929117Y-122782498D02*
X83009929Y-122809436D01*
X83009929Y-122809436D02*
X83144616Y-122890248D01*
X83144616Y-122890248D02*
X83225428Y-122971060D01*
X83225428Y-122971060D02*
X83306241Y-123105747D01*
X83306241Y-123105747D02*
X83333178Y-123186560D01*
X83333178Y-123186560D02*
X83333178Y-123294309D01*
X83333178Y-123294309D02*
X83279303Y-123402059D01*
X83279303Y-123402059D02*
X83225428Y-123455934D01*
X83225428Y-123455934D02*
X83117679Y-123509808D01*
X83117679Y-123509808D02*
X83063804Y-123509808D01*
X83063804Y-123509808D02*
X82875242Y-123321247D01*
X82875242Y-123321247D02*
X82982992Y-123213497D01*
X82875242Y-123806120D02*
X82309557Y-123240434D01*
X82309557Y-123240434D02*
X82094057Y-123455934D01*
X82094057Y-123455934D02*
X82067120Y-123536746D01*
X82067120Y-123536746D02*
X82067120Y-123590621D01*
X82067120Y-123590621D02*
X82094057Y-123671433D01*
X82094057Y-123671433D02*
X82174870Y-123752245D01*
X82174870Y-123752245D02*
X82255682Y-123779182D01*
X82255682Y-123779182D02*
X82309557Y-123779182D01*
X82309557Y-123779182D02*
X82390369Y-123752245D01*
X82390369Y-123752245D02*
X82605868Y-123536746D01*
X82013245Y-124668117D02*
X82336494Y-124344868D01*
X82174870Y-124506492D02*
X81609184Y-123940807D01*
X81609184Y-123940807D02*
X81743871Y-123967744D01*
X81743871Y-123967744D02*
X81851621Y-123967744D01*
X81851621Y-123967744D02*
X81932433Y-123940807D01*
X80935749Y-124614242D02*
X81205123Y-124344868D01*
X81205123Y-124344868D02*
X81501434Y-124587305D01*
X81501434Y-124587305D02*
X81447560Y-124587305D01*
X81447560Y-124587305D02*
X81366747Y-124614242D01*
X81366747Y-124614242D02*
X81232060Y-124748929D01*
X81232060Y-124748929D02*
X81205123Y-124829741D01*
X81205123Y-124829741D02*
X81205123Y-124883616D01*
X81205123Y-124883616D02*
X81232060Y-124964428D01*
X81232060Y-124964428D02*
X81366747Y-125099115D01*
X81366747Y-125099115D02*
X81447560Y-125126053D01*
X81447560Y-125126053D02*
X81501434Y-125126053D01*
X81501434Y-125126053D02*
X81582247Y-125099115D01*
X81582247Y-125099115D02*
X81716934Y-124964428D01*
X81716934Y-124964428D02*
X81743871Y-124883616D01*
X81743871Y-124883616D02*
X81743871Y-124829741D01*
X120879049Y-95055064D02*
X120609675Y-95324438D01*
X121094549Y-95162813D02*
X120340301Y-94785690D01*
X120340301Y-94785690D02*
X120717425Y-95539937D01*
X120528863Y-95728499D02*
X119963178Y-95162813D01*
X119963178Y-95162813D02*
X119828491Y-95297500D01*
X119828491Y-95297500D02*
X119774616Y-95405250D01*
X119774616Y-95405250D02*
X119774616Y-95512999D01*
X119774616Y-95512999D02*
X119801553Y-95593812D01*
X119801553Y-95593812D02*
X119882366Y-95728499D01*
X119882366Y-95728499D02*
X119963178Y-95809311D01*
X119963178Y-95809311D02*
X120097865Y-95890123D01*
X120097865Y-95890123D02*
X120178677Y-95917060D01*
X120178677Y-95917060D02*
X120286427Y-95917060D01*
X120286427Y-95917060D02*
X120394176Y-95863186D01*
X120394176Y-95863186D02*
X120528863Y-95728499D01*
X119586054Y-96563558D02*
X119639929Y-96563558D01*
X119639929Y-96563558D02*
X119747679Y-96509683D01*
X119747679Y-96509683D02*
X119801553Y-96455808D01*
X119801553Y-96455808D02*
X119855428Y-96348059D01*
X119855428Y-96348059D02*
X119855428Y-96240309D01*
X119855428Y-96240309D02*
X119828491Y-96159497D01*
X119828491Y-96159497D02*
X119747679Y-96024810D01*
X119747679Y-96024810D02*
X119666866Y-95943998D01*
X119666866Y-95943998D02*
X119532179Y-95863186D01*
X119532179Y-95863186D02*
X119451367Y-95836248D01*
X119451367Y-95836248D02*
X119343618Y-95836248D01*
X119343618Y-95836248D02*
X119235868Y-95890123D01*
X119235868Y-95890123D02*
X119181993Y-95943998D01*
X119181993Y-95943998D02*
X119128118Y-96051747D01*
X119128118Y-96051747D02*
X119128118Y-96105622D01*
X119586054Y-96779057D02*
X119155056Y-97210056D01*
X118481621Y-96644370D02*
X118858744Y-97398618D01*
X118858744Y-97398618D02*
X118104497Y-97021494D01*
X118158372Y-98098990D02*
X118077560Y-97641054D01*
X118481621Y-97775741D02*
X117915935Y-97210056D01*
X117915935Y-97210056D02*
X117700436Y-97425555D01*
X117700436Y-97425555D02*
X117673499Y-97506367D01*
X117673499Y-97506367D02*
X117673499Y-97560242D01*
X117673499Y-97560242D02*
X117700436Y-97641054D01*
X117700436Y-97641054D02*
X117781248Y-97721866D01*
X117781248Y-97721866D02*
X117862061Y-97748804D01*
X117862061Y-97748804D02*
X117915935Y-97748804D01*
X117915935Y-97748804D02*
X117996748Y-97721866D01*
X117996748Y-97721866D02*
X118212247Y-97506367D01*
X117619624Y-98045115D02*
X117431062Y-98233677D01*
X117646561Y-98610800D02*
X117915935Y-98341426D01*
X117915935Y-98341426D02*
X117350250Y-97775741D01*
X117350250Y-97775741D02*
X117080876Y-98045115D01*
X116919251Y-98745488D02*
X117107813Y-98556926D01*
X117404125Y-98853237D02*
X116838439Y-98287552D01*
X116838439Y-98287552D02*
X116569065Y-98556926D01*
X92765868Y-96889998D02*
X92792805Y-96809185D01*
X92792805Y-96809185D02*
X92873618Y-96728373D01*
X92873618Y-96728373D02*
X92981367Y-96674498D01*
X92981367Y-96674498D02*
X93089117Y-96674498D01*
X93089117Y-96674498D02*
X93169929Y-96701436D01*
X93169929Y-96701436D02*
X93304616Y-96782248D01*
X93304616Y-96782248D02*
X93385428Y-96863060D01*
X93385428Y-96863060D02*
X93466241Y-96997747D01*
X93466241Y-96997747D02*
X93493178Y-97078560D01*
X93493178Y-97078560D02*
X93493178Y-97186309D01*
X93493178Y-97186309D02*
X93439303Y-97294059D01*
X93439303Y-97294059D02*
X93385428Y-97347934D01*
X93385428Y-97347934D02*
X93277679Y-97401808D01*
X93277679Y-97401808D02*
X93223804Y-97401808D01*
X93223804Y-97401808D02*
X93035242Y-97213247D01*
X93035242Y-97213247D02*
X93142992Y-97105497D01*
X93035242Y-97698120D02*
X92469557Y-97132434D01*
X92469557Y-97132434D02*
X92254057Y-97347934D01*
X92254057Y-97347934D02*
X92227120Y-97428746D01*
X92227120Y-97428746D02*
X92227120Y-97482621D01*
X92227120Y-97482621D02*
X92254057Y-97563433D01*
X92254057Y-97563433D02*
X92334870Y-97644245D01*
X92334870Y-97644245D02*
X92415682Y-97671182D01*
X92415682Y-97671182D02*
X92469557Y-97671182D01*
X92469557Y-97671182D02*
X92550369Y-97644245D01*
X92550369Y-97644245D02*
X92765868Y-97428746D01*
X92173245Y-98560117D02*
X92496494Y-98236868D01*
X92334870Y-98398492D02*
X91769184Y-97832807D01*
X91769184Y-97832807D02*
X91903871Y-97859744D01*
X91903871Y-97859744D02*
X92011621Y-97859744D01*
X92011621Y-97859744D02*
X92092433Y-97832807D01*
X91903871Y-98829491D02*
X91796121Y-98937240D01*
X91796121Y-98937240D02*
X91715309Y-98964178D01*
X91715309Y-98964178D02*
X91661434Y-98964178D01*
X91661434Y-98964178D02*
X91526747Y-98937240D01*
X91526747Y-98937240D02*
X91392060Y-98856428D01*
X91392060Y-98856428D02*
X91176561Y-98640929D01*
X91176561Y-98640929D02*
X91149624Y-98560117D01*
X91149624Y-98560117D02*
X91149624Y-98506242D01*
X91149624Y-98506242D02*
X91176561Y-98425430D01*
X91176561Y-98425430D02*
X91284311Y-98317680D01*
X91284311Y-98317680D02*
X91365123Y-98290743D01*
X91365123Y-98290743D02*
X91418998Y-98290743D01*
X91418998Y-98290743D02*
X91499810Y-98317680D01*
X91499810Y-98317680D02*
X91634497Y-98452367D01*
X91634497Y-98452367D02*
X91661434Y-98533179D01*
X91661434Y-98533179D02*
X91661434Y-98587054D01*
X91661434Y-98587054D02*
X91634497Y-98667866D01*
X91634497Y-98667866D02*
X91526747Y-98775616D01*
X91526747Y-98775616D02*
X91445935Y-98802553D01*
X91445935Y-98802553D02*
X91392060Y-98802553D01*
X91392060Y-98802553D02*
X91311248Y-98775616D01*
X125543431Y-97386435D02*
X125570368Y-97305623D01*
X125570368Y-97305623D02*
X125651180Y-97224811D01*
X125651180Y-97224811D02*
X125758930Y-97170936D01*
X125758930Y-97170936D02*
X125866680Y-97170936D01*
X125866680Y-97170936D02*
X125947492Y-97197873D01*
X125947492Y-97197873D02*
X126082179Y-97278685D01*
X126082179Y-97278685D02*
X126162991Y-97359498D01*
X126162991Y-97359498D02*
X126243803Y-97494185D01*
X126243803Y-97494185D02*
X126270741Y-97574997D01*
X126270741Y-97574997D02*
X126270741Y-97682746D01*
X126270741Y-97682746D02*
X126216866Y-97790496D01*
X126216866Y-97790496D02*
X126162991Y-97844371D01*
X126162991Y-97844371D02*
X126055241Y-97898246D01*
X126055241Y-97898246D02*
X126001367Y-97898246D01*
X126001367Y-97898246D02*
X125812805Y-97709684D01*
X125812805Y-97709684D02*
X125920554Y-97601934D01*
X125812805Y-98194557D02*
X125247119Y-97628872D01*
X125247119Y-97628872D02*
X125489556Y-98517806D01*
X125489556Y-98517806D02*
X124923871Y-97952120D01*
X125220182Y-98787180D02*
X124654497Y-98221494D01*
X124654497Y-98221494D02*
X124519810Y-98356181D01*
X124519810Y-98356181D02*
X124465935Y-98463931D01*
X124465935Y-98463931D02*
X124465935Y-98571680D01*
X124465935Y-98571680D02*
X124492872Y-98652493D01*
X124492872Y-98652493D02*
X124573685Y-98787180D01*
X124573685Y-98787180D02*
X124654497Y-98867992D01*
X124654497Y-98867992D02*
X124789184Y-98948804D01*
X124789184Y-98948804D02*
X124869996Y-98975741D01*
X124869996Y-98975741D02*
X124977746Y-98975741D01*
X124977746Y-98975741D02*
X125085495Y-98921867D01*
X125085495Y-98921867D02*
X125220182Y-98787180D01*
X79650839Y-167806998D02*
X78650839Y-167806998D01*
X78650839Y-167806998D02*
X78650839Y-168045093D01*
X78650839Y-168045093D02*
X78698458Y-168187950D01*
X78698458Y-168187950D02*
X78793696Y-168283188D01*
X78793696Y-168283188D02*
X78888934Y-168330807D01*
X78888934Y-168330807D02*
X79079410Y-168378426D01*
X79079410Y-168378426D02*
X79222267Y-168378426D01*
X79222267Y-168378426D02*
X79412743Y-168330807D01*
X79412743Y-168330807D02*
X79507981Y-168283188D01*
X79507981Y-168283188D02*
X79603220Y-168187950D01*
X79603220Y-168187950D02*
X79650839Y-168045093D01*
X79650839Y-168045093D02*
X79650839Y-167806998D01*
X78650839Y-169283188D02*
X78650839Y-168806998D01*
X78650839Y-168806998D02*
X79127029Y-168759379D01*
X79127029Y-168759379D02*
X79079410Y-168806998D01*
X79079410Y-168806998D02*
X79031791Y-168902236D01*
X79031791Y-168902236D02*
X79031791Y-169140331D01*
X79031791Y-169140331D02*
X79079410Y-169235569D01*
X79079410Y-169235569D02*
X79127029Y-169283188D01*
X79127029Y-169283188D02*
X79222267Y-169330807D01*
X79222267Y-169330807D02*
X79460362Y-169330807D01*
X79460362Y-169330807D02*
X79555600Y-169283188D01*
X79555600Y-169283188D02*
X79603220Y-169235569D01*
X79603220Y-169235569D02*
X79650839Y-169140331D01*
X79650839Y-169140331D02*
X79650839Y-168902236D01*
X79650839Y-168902236D02*
X79603220Y-168806998D01*
X79603220Y-168806998D02*
X79555600Y-168759379D01*
X78746077Y-169711760D02*
X78698458Y-169759379D01*
X78698458Y-169759379D02*
X78650839Y-169854617D01*
X78650839Y-169854617D02*
X78650839Y-170092712D01*
X78650839Y-170092712D02*
X78698458Y-170187950D01*
X78698458Y-170187950D02*
X78746077Y-170235569D01*
X78746077Y-170235569D02*
X78841315Y-170283188D01*
X78841315Y-170283188D02*
X78936553Y-170283188D01*
X78936553Y-170283188D02*
X79079410Y-170235569D01*
X79079410Y-170235569D02*
X79650839Y-169664141D01*
X79650839Y-169664141D02*
X79650839Y-170283188D01*
X84595238Y-152987557D02*
X84690476Y-152939938D01*
X84690476Y-152939938D02*
X84785714Y-152844700D01*
X84785714Y-152844700D02*
X84928571Y-152701842D01*
X84928571Y-152701842D02*
X85023809Y-152654223D01*
X85023809Y-152654223D02*
X85119047Y-152654223D01*
X85071428Y-152892319D02*
X85166666Y-152844700D01*
X85166666Y-152844700D02*
X85261904Y-152749461D01*
X85261904Y-152749461D02*
X85309523Y-152558985D01*
X85309523Y-152558985D02*
X85309523Y-152225652D01*
X85309523Y-152225652D02*
X85261904Y-152035176D01*
X85261904Y-152035176D02*
X85166666Y-151939938D01*
X85166666Y-151939938D02*
X85071428Y-151892319D01*
X85071428Y-151892319D02*
X84880952Y-151892319D01*
X84880952Y-151892319D02*
X84785714Y-151939938D01*
X84785714Y-151939938D02*
X84690476Y-152035176D01*
X84690476Y-152035176D02*
X84642857Y-152225652D01*
X84642857Y-152225652D02*
X84642857Y-152558985D01*
X84642857Y-152558985D02*
X84690476Y-152749461D01*
X84690476Y-152749461D02*
X84785714Y-152844700D01*
X84785714Y-152844700D02*
X84880952Y-152892319D01*
X84880952Y-152892319D02*
X85071428Y-152892319D01*
X84261904Y-151987557D02*
X84214285Y-151939938D01*
X84214285Y-151939938D02*
X84119047Y-151892319D01*
X84119047Y-151892319D02*
X83880952Y-151892319D01*
X83880952Y-151892319D02*
X83785714Y-151939938D01*
X83785714Y-151939938D02*
X83738095Y-151987557D01*
X83738095Y-151987557D02*
X83690476Y-152082795D01*
X83690476Y-152082795D02*
X83690476Y-152178033D01*
X83690476Y-152178033D02*
X83738095Y-152320890D01*
X83738095Y-152320890D02*
X84309523Y-152892319D01*
X84309523Y-152892319D02*
X83690476Y-152892319D01*
X87216666Y-158392319D02*
X87549999Y-157916128D01*
X87788094Y-158392319D02*
X87788094Y-157392319D01*
X87788094Y-157392319D02*
X87407142Y-157392319D01*
X87407142Y-157392319D02*
X87311904Y-157439938D01*
X87311904Y-157439938D02*
X87264285Y-157487557D01*
X87264285Y-157487557D02*
X87216666Y-157582795D01*
X87216666Y-157582795D02*
X87216666Y-157725652D01*
X87216666Y-157725652D02*
X87264285Y-157820890D01*
X87264285Y-157820890D02*
X87311904Y-157868509D01*
X87311904Y-157868509D02*
X87407142Y-157916128D01*
X87407142Y-157916128D02*
X87788094Y-157916128D01*
X86359523Y-157725652D02*
X86359523Y-158392319D01*
X86597618Y-157344700D02*
X86835713Y-158058985D01*
X86835713Y-158058985D02*
X86216666Y-158058985D01*
X90695238Y-152987557D02*
X90790476Y-152939938D01*
X90790476Y-152939938D02*
X90885714Y-152844700D01*
X90885714Y-152844700D02*
X91028571Y-152701842D01*
X91028571Y-152701842D02*
X91123809Y-152654223D01*
X91123809Y-152654223D02*
X91219047Y-152654223D01*
X91171428Y-152892319D02*
X91266666Y-152844700D01*
X91266666Y-152844700D02*
X91361904Y-152749461D01*
X91361904Y-152749461D02*
X91409523Y-152558985D01*
X91409523Y-152558985D02*
X91409523Y-152225652D01*
X91409523Y-152225652D02*
X91361904Y-152035176D01*
X91361904Y-152035176D02*
X91266666Y-151939938D01*
X91266666Y-151939938D02*
X91171428Y-151892319D01*
X91171428Y-151892319D02*
X90980952Y-151892319D01*
X90980952Y-151892319D02*
X90885714Y-151939938D01*
X90885714Y-151939938D02*
X90790476Y-152035176D01*
X90790476Y-152035176D02*
X90742857Y-152225652D01*
X90742857Y-152225652D02*
X90742857Y-152558985D01*
X90742857Y-152558985D02*
X90790476Y-152749461D01*
X90790476Y-152749461D02*
X90885714Y-152844700D01*
X90885714Y-152844700D02*
X90980952Y-152892319D01*
X90980952Y-152892319D02*
X91171428Y-152892319D01*
X89790476Y-152892319D02*
X90361904Y-152892319D01*
X90076190Y-152892319D02*
X90076190Y-151892319D01*
X90076190Y-151892319D02*
X90171428Y-152035176D01*
X90171428Y-152035176D02*
X90266666Y-152130414D01*
X90266666Y-152130414D02*
X90361904Y-152178033D01*
X85329166Y-55596819D02*
X85662499Y-55120628D01*
X85900594Y-55596819D02*
X85900594Y-54596819D01*
X85900594Y-54596819D02*
X85519642Y-54596819D01*
X85519642Y-54596819D02*
X85424404Y-54644438D01*
X85424404Y-54644438D02*
X85376785Y-54692057D01*
X85376785Y-54692057D02*
X85329166Y-54787295D01*
X85329166Y-54787295D02*
X85329166Y-54930152D01*
X85329166Y-54930152D02*
X85376785Y-55025390D01*
X85376785Y-55025390D02*
X85424404Y-55073009D01*
X85424404Y-55073009D02*
X85519642Y-55120628D01*
X85519642Y-55120628D02*
X85900594Y-55120628D01*
X84995832Y-54596819D02*
X84329166Y-54596819D01*
X84329166Y-54596819D02*
X84757737Y-55596819D01*
X43767333Y-118834819D02*
X43767333Y-119549104D01*
X43767333Y-119549104D02*
X43814952Y-119691961D01*
X43814952Y-119691961D02*
X43910190Y-119787200D01*
X43910190Y-119787200D02*
X44053047Y-119834819D01*
X44053047Y-119834819D02*
X44148285Y-119834819D01*
X43338761Y-118930057D02*
X43291142Y-118882438D01*
X43291142Y-118882438D02*
X43195904Y-118834819D01*
X43195904Y-118834819D02*
X42957809Y-118834819D01*
X42957809Y-118834819D02*
X42862571Y-118882438D01*
X42862571Y-118882438D02*
X42814952Y-118930057D01*
X42814952Y-118930057D02*
X42767333Y-119025295D01*
X42767333Y-119025295D02*
X42767333Y-119120533D01*
X42767333Y-119120533D02*
X42814952Y-119263390D01*
X42814952Y-119263390D02*
X43386380Y-119834819D01*
X43386380Y-119834819D02*
X42767333Y-119834819D01*
X98666666Y-175454819D02*
X98999999Y-174978628D01*
X99238094Y-175454819D02*
X99238094Y-174454819D01*
X99238094Y-174454819D02*
X98857142Y-174454819D01*
X98857142Y-174454819D02*
X98761904Y-174502438D01*
X98761904Y-174502438D02*
X98714285Y-174550057D01*
X98714285Y-174550057D02*
X98666666Y-174645295D01*
X98666666Y-174645295D02*
X98666666Y-174788152D01*
X98666666Y-174788152D02*
X98714285Y-174883390D01*
X98714285Y-174883390D02*
X98761904Y-174931009D01*
X98761904Y-174931009D02*
X98857142Y-174978628D01*
X98857142Y-174978628D02*
X99238094Y-174978628D01*
X97714285Y-175454819D02*
X98285713Y-175454819D01*
X97999999Y-175454819D02*
X97999999Y-174454819D01*
X97999999Y-174454819D02*
X98095237Y-174597676D01*
X98095237Y-174597676D02*
X98190475Y-174692914D01*
X98190475Y-174692914D02*
X98285713Y-174740533D01*
X60101009Y-86109285D02*
X60148628Y-86252142D01*
X60148628Y-86252142D02*
X60196247Y-86299761D01*
X60196247Y-86299761D02*
X60291485Y-86347380D01*
X60291485Y-86347380D02*
X60434342Y-86347380D01*
X60434342Y-86347380D02*
X60529580Y-86299761D01*
X60529580Y-86299761D02*
X60577200Y-86252142D01*
X60577200Y-86252142D02*
X60624819Y-86156904D01*
X60624819Y-86156904D02*
X60624819Y-85775952D01*
X60624819Y-85775952D02*
X59624819Y-85775952D01*
X59624819Y-85775952D02*
X59624819Y-86109285D01*
X59624819Y-86109285D02*
X59672438Y-86204523D01*
X59672438Y-86204523D02*
X59720057Y-86252142D01*
X59720057Y-86252142D02*
X59815295Y-86299761D01*
X59815295Y-86299761D02*
X59910533Y-86299761D01*
X59910533Y-86299761D02*
X60005771Y-86252142D01*
X60005771Y-86252142D02*
X60053390Y-86204523D01*
X60053390Y-86204523D02*
X60101009Y-86109285D01*
X60101009Y-86109285D02*
X60101009Y-85775952D01*
X59624819Y-86633095D02*
X59624819Y-87204523D01*
X60624819Y-86918809D02*
X59624819Y-86918809D01*
X59720057Y-87490238D02*
X59672438Y-87537857D01*
X59672438Y-87537857D02*
X59624819Y-87633095D01*
X59624819Y-87633095D02*
X59624819Y-87871190D01*
X59624819Y-87871190D02*
X59672438Y-87966428D01*
X59672438Y-87966428D02*
X59720057Y-88014047D01*
X59720057Y-88014047D02*
X59815295Y-88061666D01*
X59815295Y-88061666D02*
X59910533Y-88061666D01*
X59910533Y-88061666D02*
X60053390Y-88014047D01*
X60053390Y-88014047D02*
X60624819Y-87442619D01*
X60624819Y-87442619D02*
X60624819Y-88061666D01*
X119329166Y-77954819D02*
X119662499Y-77478628D01*
X119900594Y-77954819D02*
X119900594Y-76954819D01*
X119900594Y-76954819D02*
X119519642Y-76954819D01*
X119519642Y-76954819D02*
X119424404Y-77002438D01*
X119424404Y-77002438D02*
X119376785Y-77050057D01*
X119376785Y-77050057D02*
X119329166Y-77145295D01*
X119329166Y-77145295D02*
X119329166Y-77288152D01*
X119329166Y-77288152D02*
X119376785Y-77383390D01*
X119376785Y-77383390D02*
X119424404Y-77431009D01*
X119424404Y-77431009D02*
X119519642Y-77478628D01*
X119519642Y-77478628D02*
X119900594Y-77478628D01*
X118757737Y-77383390D02*
X118852975Y-77335771D01*
X118852975Y-77335771D02*
X118900594Y-77288152D01*
X118900594Y-77288152D02*
X118948213Y-77192914D01*
X118948213Y-77192914D02*
X118948213Y-77145295D01*
X118948213Y-77145295D02*
X118900594Y-77050057D01*
X118900594Y-77050057D02*
X118852975Y-77002438D01*
X118852975Y-77002438D02*
X118757737Y-76954819D01*
X118757737Y-76954819D02*
X118567261Y-76954819D01*
X118567261Y-76954819D02*
X118472023Y-77002438D01*
X118472023Y-77002438D02*
X118424404Y-77050057D01*
X118424404Y-77050057D02*
X118376785Y-77145295D01*
X118376785Y-77145295D02*
X118376785Y-77192914D01*
X118376785Y-77192914D02*
X118424404Y-77288152D01*
X118424404Y-77288152D02*
X118472023Y-77335771D01*
X118472023Y-77335771D02*
X118567261Y-77383390D01*
X118567261Y-77383390D02*
X118757737Y-77383390D01*
X118757737Y-77383390D02*
X118852975Y-77431009D01*
X118852975Y-77431009D02*
X118900594Y-77478628D01*
X118900594Y-77478628D02*
X118948213Y-77573866D01*
X118948213Y-77573866D02*
X118948213Y-77764342D01*
X118948213Y-77764342D02*
X118900594Y-77859580D01*
X118900594Y-77859580D02*
X118852975Y-77907200D01*
X118852975Y-77907200D02*
X118757737Y-77954819D01*
X118757737Y-77954819D02*
X118567261Y-77954819D01*
X118567261Y-77954819D02*
X118472023Y-77907200D01*
X118472023Y-77907200D02*
X118424404Y-77859580D01*
X118424404Y-77859580D02*
X118376785Y-77764342D01*
X118376785Y-77764342D02*
X118376785Y-77573866D01*
X118376785Y-77573866D02*
X118424404Y-77478628D01*
X118424404Y-77478628D02*
X118472023Y-77431009D01*
X118472023Y-77431009D02*
X118567261Y-77383390D01*
X87407200Y-173166667D02*
X87454819Y-173309524D01*
X87454819Y-173309524D02*
X87454819Y-173547619D01*
X87454819Y-173547619D02*
X87407200Y-173642857D01*
X87407200Y-173642857D02*
X87359580Y-173690476D01*
X87359580Y-173690476D02*
X87264342Y-173738095D01*
X87264342Y-173738095D02*
X87169104Y-173738095D01*
X87169104Y-173738095D02*
X87073866Y-173690476D01*
X87073866Y-173690476D02*
X87026247Y-173642857D01*
X87026247Y-173642857D02*
X86978628Y-173547619D01*
X86978628Y-173547619D02*
X86931009Y-173357143D01*
X86931009Y-173357143D02*
X86883390Y-173261905D01*
X86883390Y-173261905D02*
X86835771Y-173214286D01*
X86835771Y-173214286D02*
X86740533Y-173166667D01*
X86740533Y-173166667D02*
X86645295Y-173166667D01*
X86645295Y-173166667D02*
X86550057Y-173214286D01*
X86550057Y-173214286D02*
X86502438Y-173261905D01*
X86502438Y-173261905D02*
X86454819Y-173357143D01*
X86454819Y-173357143D02*
X86454819Y-173595238D01*
X86454819Y-173595238D02*
X86502438Y-173738095D01*
X86454819Y-174071429D02*
X87454819Y-174309524D01*
X87454819Y-174309524D02*
X86740533Y-174500000D01*
X86740533Y-174500000D02*
X87454819Y-174690476D01*
X87454819Y-174690476D02*
X86454819Y-174928572D01*
X87454819Y-175833333D02*
X87454819Y-175261905D01*
X87454819Y-175547619D02*
X86454819Y-175547619D01*
X86454819Y-175547619D02*
X86597676Y-175452381D01*
X86597676Y-175452381D02*
X86692914Y-175357143D01*
X86692914Y-175357143D02*
X86740533Y-175261905D01*
X44966666Y-81924819D02*
X45299999Y-81448628D01*
X45538094Y-81924819D02*
X45538094Y-80924819D01*
X45538094Y-80924819D02*
X45157142Y-80924819D01*
X45157142Y-80924819D02*
X45061904Y-80972438D01*
X45061904Y-80972438D02*
X45014285Y-81020057D01*
X45014285Y-81020057D02*
X44966666Y-81115295D01*
X44966666Y-81115295D02*
X44966666Y-81258152D01*
X44966666Y-81258152D02*
X45014285Y-81353390D01*
X45014285Y-81353390D02*
X45061904Y-81401009D01*
X45061904Y-81401009D02*
X45157142Y-81448628D01*
X45157142Y-81448628D02*
X45538094Y-81448628D01*
X44109523Y-80924819D02*
X44299999Y-80924819D01*
X44299999Y-80924819D02*
X44395237Y-80972438D01*
X44395237Y-80972438D02*
X44442856Y-81020057D01*
X44442856Y-81020057D02*
X44538094Y-81162914D01*
X44538094Y-81162914D02*
X44585713Y-81353390D01*
X44585713Y-81353390D02*
X44585713Y-81734342D01*
X44585713Y-81734342D02*
X44538094Y-81829580D01*
X44538094Y-81829580D02*
X44490475Y-81877200D01*
X44490475Y-81877200D02*
X44395237Y-81924819D01*
X44395237Y-81924819D02*
X44204761Y-81924819D01*
X44204761Y-81924819D02*
X44109523Y-81877200D01*
X44109523Y-81877200D02*
X44061904Y-81829580D01*
X44061904Y-81829580D02*
X44014285Y-81734342D01*
X44014285Y-81734342D02*
X44014285Y-81496247D01*
X44014285Y-81496247D02*
X44061904Y-81401009D01*
X44061904Y-81401009D02*
X44109523Y-81353390D01*
X44109523Y-81353390D02*
X44204761Y-81305771D01*
X44204761Y-81305771D02*
X44395237Y-81305771D01*
X44395237Y-81305771D02*
X44490475Y-81353390D01*
X44490475Y-81353390D02*
X44538094Y-81401009D01*
X44538094Y-81401009D02*
X44585713Y-81496247D01*
X82555600Y-159354617D02*
X82603220Y-159306998D01*
X82603220Y-159306998D02*
X82650839Y-159164141D01*
X82650839Y-159164141D02*
X82650839Y-159068903D01*
X82650839Y-159068903D02*
X82603220Y-158926046D01*
X82603220Y-158926046D02*
X82507981Y-158830808D01*
X82507981Y-158830808D02*
X82412743Y-158783189D01*
X82412743Y-158783189D02*
X82222267Y-158735570D01*
X82222267Y-158735570D02*
X82079410Y-158735570D01*
X82079410Y-158735570D02*
X81888934Y-158783189D01*
X81888934Y-158783189D02*
X81793696Y-158830808D01*
X81793696Y-158830808D02*
X81698458Y-158926046D01*
X81698458Y-158926046D02*
X81650839Y-159068903D01*
X81650839Y-159068903D02*
X81650839Y-159164141D01*
X81650839Y-159164141D02*
X81698458Y-159306998D01*
X81698458Y-159306998D02*
X81746077Y-159354617D01*
X81650839Y-159687951D02*
X81650839Y-160306998D01*
X81650839Y-160306998D02*
X82031791Y-159973665D01*
X82031791Y-159973665D02*
X82031791Y-160116522D01*
X82031791Y-160116522D02*
X82079410Y-160211760D01*
X82079410Y-160211760D02*
X82127029Y-160259379D01*
X82127029Y-160259379D02*
X82222267Y-160306998D01*
X82222267Y-160306998D02*
X82460362Y-160306998D01*
X82460362Y-160306998D02*
X82555600Y-160259379D01*
X82555600Y-160259379D02*
X82603220Y-160211760D01*
X82603220Y-160211760D02*
X82650839Y-160116522D01*
X82650839Y-160116522D02*
X82650839Y-159830808D01*
X82650839Y-159830808D02*
X82603220Y-159735570D01*
X82603220Y-159735570D02*
X82555600Y-159687951D01*
X100454819Y-168285714D02*
X99454819Y-168285714D01*
X99454819Y-168285714D02*
X99454819Y-168523809D01*
X99454819Y-168523809D02*
X99502438Y-168666666D01*
X99502438Y-168666666D02*
X99597676Y-168761904D01*
X99597676Y-168761904D02*
X99692914Y-168809523D01*
X99692914Y-168809523D02*
X99883390Y-168857142D01*
X99883390Y-168857142D02*
X100026247Y-168857142D01*
X100026247Y-168857142D02*
X100216723Y-168809523D01*
X100216723Y-168809523D02*
X100311961Y-168761904D01*
X100311961Y-168761904D02*
X100407200Y-168666666D01*
X100407200Y-168666666D02*
X100454819Y-168523809D01*
X100454819Y-168523809D02*
X100454819Y-168285714D01*
X99454819Y-169761904D02*
X99454819Y-169285714D01*
X99454819Y-169285714D02*
X99931009Y-169238095D01*
X99931009Y-169238095D02*
X99883390Y-169285714D01*
X99883390Y-169285714D02*
X99835771Y-169380952D01*
X99835771Y-169380952D02*
X99835771Y-169619047D01*
X99835771Y-169619047D02*
X99883390Y-169714285D01*
X99883390Y-169714285D02*
X99931009Y-169761904D01*
X99931009Y-169761904D02*
X100026247Y-169809523D01*
X100026247Y-169809523D02*
X100264342Y-169809523D01*
X100264342Y-169809523D02*
X100359580Y-169761904D01*
X100359580Y-169761904D02*
X100407200Y-169714285D01*
X100407200Y-169714285D02*
X100454819Y-169619047D01*
X100454819Y-169619047D02*
X100454819Y-169380952D01*
X100454819Y-169380952D02*
X100407200Y-169285714D01*
X100407200Y-169285714D02*
X100359580Y-169238095D01*
X100454819Y-170761904D02*
X100454819Y-170190476D01*
X100454819Y-170476190D02*
X99454819Y-170476190D01*
X99454819Y-170476190D02*
X99597676Y-170380952D01*
X99597676Y-170380952D02*
X99692914Y-170285714D01*
X99692914Y-170285714D02*
X99740533Y-170190476D01*
X90650839Y-169854617D02*
X90650839Y-169378427D01*
X90650839Y-169378427D02*
X89650839Y-169378427D01*
X90650839Y-170711760D02*
X90650839Y-170140332D01*
X90650839Y-170426046D02*
X89650839Y-170426046D01*
X89650839Y-170426046D02*
X89793696Y-170330808D01*
X89793696Y-170330808D02*
X89888934Y-170235570D01*
X89888934Y-170235570D02*
X89936553Y-170140332D01*
X87666666Y-150892319D02*
X87999999Y-150416128D01*
X88238094Y-150892319D02*
X88238094Y-149892319D01*
X88238094Y-149892319D02*
X87857142Y-149892319D01*
X87857142Y-149892319D02*
X87761904Y-149939938D01*
X87761904Y-149939938D02*
X87714285Y-149987557D01*
X87714285Y-149987557D02*
X87666666Y-150082795D01*
X87666666Y-150082795D02*
X87666666Y-150225652D01*
X87666666Y-150225652D02*
X87714285Y-150320890D01*
X87714285Y-150320890D02*
X87761904Y-150368509D01*
X87761904Y-150368509D02*
X87857142Y-150416128D01*
X87857142Y-150416128D02*
X88238094Y-150416128D01*
X86761904Y-149892319D02*
X87238094Y-149892319D01*
X87238094Y-149892319D02*
X87285713Y-150368509D01*
X87285713Y-150368509D02*
X87238094Y-150320890D01*
X87238094Y-150320890D02*
X87142856Y-150273271D01*
X87142856Y-150273271D02*
X86904761Y-150273271D01*
X86904761Y-150273271D02*
X86809523Y-150320890D01*
X86809523Y-150320890D02*
X86761904Y-150368509D01*
X86761904Y-150368509D02*
X86714285Y-150463747D01*
X86714285Y-150463747D02*
X86714285Y-150701842D01*
X86714285Y-150701842D02*
X86761904Y-150797080D01*
X86761904Y-150797080D02*
X86809523Y-150844700D01*
X86809523Y-150844700D02*
X86904761Y-150892319D01*
X86904761Y-150892319D02*
X87142856Y-150892319D01*
X87142856Y-150892319D02*
X87238094Y-150844700D01*
X87238094Y-150844700D02*
X87285713Y-150797080D01*
X92281333Y-81496819D02*
X92281333Y-82211104D01*
X92281333Y-82211104D02*
X92328952Y-82353961D01*
X92328952Y-82353961D02*
X92424190Y-82449200D01*
X92424190Y-82449200D02*
X92567047Y-82496819D01*
X92567047Y-82496819D02*
X92662285Y-82496819D01*
X91281333Y-82496819D02*
X91852761Y-82496819D01*
X91567047Y-82496819D02*
X91567047Y-81496819D01*
X91567047Y-81496819D02*
X91662285Y-81639676D01*
X91662285Y-81639676D02*
X91757523Y-81734914D01*
X91757523Y-81734914D02*
X91852761Y-81782533D01*
X115903166Y-92954819D02*
X116236499Y-92478628D01*
X116474594Y-92954819D02*
X116474594Y-91954819D01*
X116474594Y-91954819D02*
X116093642Y-91954819D01*
X116093642Y-91954819D02*
X115998404Y-92002438D01*
X115998404Y-92002438D02*
X115950785Y-92050057D01*
X115950785Y-92050057D02*
X115903166Y-92145295D01*
X115903166Y-92145295D02*
X115903166Y-92288152D01*
X115903166Y-92288152D02*
X115950785Y-92383390D01*
X115950785Y-92383390D02*
X115998404Y-92431009D01*
X115998404Y-92431009D02*
X116093642Y-92478628D01*
X116093642Y-92478628D02*
X116474594Y-92478628D01*
X115426975Y-92954819D02*
X115236499Y-92954819D01*
X115236499Y-92954819D02*
X115141261Y-92907200D01*
X115141261Y-92907200D02*
X115093642Y-92859580D01*
X115093642Y-92859580D02*
X114998404Y-92716723D01*
X114998404Y-92716723D02*
X114950785Y-92526247D01*
X114950785Y-92526247D02*
X114950785Y-92145295D01*
X114950785Y-92145295D02*
X114998404Y-92050057D01*
X114998404Y-92050057D02*
X115046023Y-92002438D01*
X115046023Y-92002438D02*
X115141261Y-91954819D01*
X115141261Y-91954819D02*
X115331737Y-91954819D01*
X115331737Y-91954819D02*
X115426975Y-92002438D01*
X115426975Y-92002438D02*
X115474594Y-92050057D01*
X115474594Y-92050057D02*
X115522213Y-92145295D01*
X115522213Y-92145295D02*
X115522213Y-92383390D01*
X115522213Y-92383390D02*
X115474594Y-92478628D01*
X115474594Y-92478628D02*
X115426975Y-92526247D01*
X115426975Y-92526247D02*
X115331737Y-92573866D01*
X115331737Y-92573866D02*
X115141261Y-92573866D01*
X115141261Y-92573866D02*
X115046023Y-92526247D01*
X115046023Y-92526247D02*
X114998404Y-92478628D01*
X114998404Y-92478628D02*
X114950785Y-92383390D01*
X88650839Y-161949379D02*
X89460362Y-161949379D01*
X89460362Y-161949379D02*
X89555600Y-161996998D01*
X89555600Y-161996998D02*
X89603220Y-162044617D01*
X89603220Y-162044617D02*
X89650839Y-162139855D01*
X89650839Y-162139855D02*
X89650839Y-162330331D01*
X89650839Y-162330331D02*
X89603220Y-162425569D01*
X89603220Y-162425569D02*
X89555600Y-162473188D01*
X89555600Y-162473188D02*
X89460362Y-162520807D01*
X89460362Y-162520807D02*
X88650839Y-162520807D01*
X88746077Y-162949379D02*
X88698458Y-162996998D01*
X88698458Y-162996998D02*
X88650839Y-163092236D01*
X88650839Y-163092236D02*
X88650839Y-163330331D01*
X88650839Y-163330331D02*
X88698458Y-163425569D01*
X88698458Y-163425569D02*
X88746077Y-163473188D01*
X88746077Y-163473188D02*
X88841315Y-163520807D01*
X88841315Y-163520807D02*
X88936553Y-163520807D01*
X88936553Y-163520807D02*
X89079410Y-163473188D01*
X89079410Y-163473188D02*
X89650839Y-162901760D01*
X89650839Y-162901760D02*
X89650839Y-163520807D01*
X79555600Y-164354617D02*
X79603220Y-164306998D01*
X79603220Y-164306998D02*
X79650839Y-164164141D01*
X79650839Y-164164141D02*
X79650839Y-164068903D01*
X79650839Y-164068903D02*
X79603220Y-163926046D01*
X79603220Y-163926046D02*
X79507981Y-163830808D01*
X79507981Y-163830808D02*
X79412743Y-163783189D01*
X79412743Y-163783189D02*
X79222267Y-163735570D01*
X79222267Y-163735570D02*
X79079410Y-163735570D01*
X79079410Y-163735570D02*
X78888934Y-163783189D01*
X78888934Y-163783189D02*
X78793696Y-163830808D01*
X78793696Y-163830808D02*
X78698458Y-163926046D01*
X78698458Y-163926046D02*
X78650839Y-164068903D01*
X78650839Y-164068903D02*
X78650839Y-164164141D01*
X78650839Y-164164141D02*
X78698458Y-164306998D01*
X78698458Y-164306998D02*
X78746077Y-164354617D01*
X78650839Y-165259379D02*
X78650839Y-164783189D01*
X78650839Y-164783189D02*
X79127029Y-164735570D01*
X79127029Y-164735570D02*
X79079410Y-164783189D01*
X79079410Y-164783189D02*
X79031791Y-164878427D01*
X79031791Y-164878427D02*
X79031791Y-165116522D01*
X79031791Y-165116522D02*
X79079410Y-165211760D01*
X79079410Y-165211760D02*
X79127029Y-165259379D01*
X79127029Y-165259379D02*
X79222267Y-165306998D01*
X79222267Y-165306998D02*
X79460362Y-165306998D01*
X79460362Y-165306998D02*
X79555600Y-165259379D01*
X79555600Y-165259379D02*
X79603220Y-165211760D01*
X79603220Y-165211760D02*
X79650839Y-165116522D01*
X79650839Y-165116522D02*
X79650839Y-164878427D01*
X79650839Y-164878427D02*
X79603220Y-164783189D01*
X79603220Y-164783189D02*
X79555600Y-164735570D01*
X92862686Y-168380864D02*
X92910305Y-168428484D01*
X92910305Y-168428484D02*
X93053162Y-168476103D01*
X93053162Y-168476103D02*
X93148400Y-168476103D01*
X93148400Y-168476103D02*
X93291257Y-168428484D01*
X93291257Y-168428484D02*
X93386495Y-168333245D01*
X93386495Y-168333245D02*
X93434114Y-168238007D01*
X93434114Y-168238007D02*
X93481733Y-168047531D01*
X93481733Y-168047531D02*
X93481733Y-167904674D01*
X93481733Y-167904674D02*
X93434114Y-167714198D01*
X93434114Y-167714198D02*
X93386495Y-167618960D01*
X93386495Y-167618960D02*
X93291257Y-167523722D01*
X93291257Y-167523722D02*
X93148400Y-167476103D01*
X93148400Y-167476103D02*
X93053162Y-167476103D01*
X93053162Y-167476103D02*
X92910305Y-167523722D01*
X92910305Y-167523722D02*
X92862686Y-167571341D01*
X91910305Y-168476103D02*
X92481733Y-168476103D01*
X92196019Y-168476103D02*
X92196019Y-167476103D01*
X92196019Y-167476103D02*
X92291257Y-167618960D01*
X92291257Y-167618960D02*
X92386495Y-167714198D01*
X92386495Y-167714198D02*
X92481733Y-167761817D01*
D12*
%TO.C,C2*%
X89461020Y-165820036D02*
X89461020Y-165297532D01*
X90931020Y-165820036D02*
X90931020Y-165297532D01*
%TO.C,R3*%
X86441296Y-162498784D02*
X86950744Y-162498784D01*
X86441296Y-163543784D02*
X86950744Y-163543784D01*
%TO.C,C4*%
X81434768Y-165786284D02*
X81957272Y-165786284D01*
X81434768Y-167256284D02*
X81957272Y-167256284D01*
%TO.C,J3*%
X78170000Y-150090000D02*
X80830000Y-150090000D01*
X78170000Y-155230000D02*
X78170000Y-150090000D01*
X78170000Y-155230000D02*
X80830000Y-155230000D01*
X78170000Y-156500000D02*
X78170000Y-157830000D01*
X78170000Y-157830000D02*
X79500000Y-157830000D01*
X80830000Y-155230000D02*
X80830000Y-150090000D01*
%TO.C,R2*%
X84441296Y-160998784D02*
X84950744Y-160998784D01*
X84441296Y-162043784D02*
X84950744Y-162043784D01*
%TO.C,U1*%
X131845000Y-100400000D02*
X131545000Y-100400000D01*
X129445000Y-100400000D02*
X129045000Y-100400000D01*
X126845000Y-100400000D02*
X126445000Y-100400000D01*
X124345000Y-100400000D02*
X123945000Y-100400000D01*
X121745000Y-100400000D02*
X121345000Y-100400000D01*
X119245000Y-100400000D02*
X118845000Y-100400000D01*
X116745000Y-100400000D02*
X116345000Y-100400000D01*
X114145000Y-100400000D02*
X113745000Y-100400000D01*
X111645000Y-100400000D02*
X111245000Y-100400000D01*
X109045000Y-100400000D02*
X108645000Y-100400000D01*
X106545000Y-100400000D02*
X106145000Y-100400000D01*
X104045000Y-100400000D02*
X103645000Y-100400000D01*
X101445000Y-100400000D02*
X101045000Y-100400000D01*
X98945000Y-100400000D02*
X98545000Y-100400000D01*
X96345000Y-100400000D02*
X95945000Y-100400000D01*
X93845000Y-100400000D02*
X93445000Y-100400000D01*
X91245000Y-100400000D02*
X90845000Y-100400000D01*
X88745000Y-100400000D02*
X88345000Y-100400000D01*
X86245000Y-100400000D02*
X85845000Y-100400000D01*
X83645000Y-100400000D02*
X83245000Y-100400000D01*
X80845000Y-100400000D02*
X80845000Y-107200000D01*
X80845000Y-109800000D02*
X80845000Y-109400000D01*
X80845000Y-112400000D02*
X80845000Y-112000000D01*
X80845000Y-114600000D02*
X80845000Y-121400000D01*
X129178000Y-118393000D02*
X131845000Y-118393000D01*
X131845000Y-121400000D02*
X131845000Y-100400000D01*
X131845000Y-121400000D02*
X131545000Y-121400000D01*
X129445000Y-121400000D02*
X129045000Y-121400000D01*
X129178000Y-121400000D02*
X129178000Y-118393000D01*
X126845000Y-121400000D02*
X126445000Y-121400000D01*
X124345000Y-121400000D02*
X123945000Y-121400000D01*
X121745000Y-121400000D02*
X121345000Y-121400000D01*
X119245000Y-121400000D02*
X118845000Y-121400000D01*
X116745000Y-121400000D02*
X116345000Y-121400000D01*
X114145000Y-121400000D02*
X113745000Y-121400000D01*
X111645000Y-121400000D02*
X111245000Y-121400000D01*
X109045000Y-121400000D02*
X108645000Y-121400000D01*
X106545000Y-121400000D02*
X106145000Y-121400000D01*
X104045000Y-121400000D02*
X103645000Y-121400000D01*
X101445000Y-121400000D02*
X101045000Y-121400000D01*
X98945000Y-121400000D02*
X98545000Y-121400000D01*
X96345000Y-121400000D02*
X95945000Y-121400000D01*
X93845000Y-121400000D02*
X93445000Y-121400000D01*
X91245000Y-121400000D02*
X90845000Y-121400000D01*
X88745000Y-121400000D02*
X88345000Y-121400000D01*
X86245000Y-121400000D02*
X85845000Y-121400000D01*
X83645000Y-121400000D02*
X83245000Y-121400000D01*
%TO.C,D52*%
X79836020Y-167871284D02*
X83846020Y-167871284D01*
X79836020Y-169871284D02*
X79836020Y-167871284D01*
X79836020Y-169871284D02*
X83846020Y-169871284D01*
%TO.C,Q2*%
X82940000Y-154937500D02*
X82940000Y-155587500D01*
X82940000Y-154937500D02*
X82940000Y-154287500D01*
X86060000Y-154937500D02*
X86060000Y-156612500D01*
X86060000Y-154937500D02*
X86060000Y-154287500D01*
%TO.C,R4*%
X84295276Y-157415000D02*
X84804724Y-157415000D01*
X84295276Y-158460000D02*
X84804724Y-158460000D01*
%TO.C,Q1*%
X92110000Y-154875000D02*
X92110000Y-154225000D01*
X92110000Y-154875000D02*
X92110000Y-155525000D01*
X88990000Y-154875000D02*
X88990000Y-153200000D01*
X88990000Y-154875000D02*
X88990000Y-155525000D01*
%TO.C,R7*%
X84995276Y-56119500D02*
X85504724Y-56119500D01*
X84995276Y-57164500D02*
X85504724Y-57164500D01*
%TO.C,J2*%
X47114000Y-122945000D02*
X47749000Y-122945000D01*
X47114000Y-122310000D02*
X47114000Y-122945000D01*
%TO.C,R1*%
X99022500Y-172245276D02*
X99022500Y-172754724D01*
X97977500Y-172245276D02*
X97977500Y-172754724D01*
D13*
%TO.C,BT2*%
X124095000Y-83505000D02*
X61105000Y-83505000D01*
X61105000Y-83505000D02*
X61105000Y-141495000D01*
X124095000Y-141495000D02*
X124095000Y-83505000D01*
X61105000Y-141495000D02*
X124095000Y-141495000D01*
X114950000Y-141995000D02*
X114950000Y-142995000D01*
X102250000Y-141995000D02*
X102250000Y-142995000D01*
X82950000Y-141995000D02*
X82950000Y-142995000D01*
X70250000Y-141995000D02*
X70250000Y-142995000D01*
X114450000Y-142495000D02*
X115450000Y-142495000D01*
X83450000Y-142495000D02*
X82450000Y-142495000D01*
D12*
%TO.C,R8*%
X118995276Y-78477500D02*
X119504724Y-78477500D01*
X118995276Y-79522500D02*
X119504724Y-79522500D01*
%TO.C,SW1*%
X95530000Y-177100000D02*
X89230000Y-177100000D01*
X95530000Y-176650000D02*
X95530000Y-177100000D01*
X95530000Y-175350000D02*
X95530000Y-172650000D01*
X95530000Y-171350000D02*
X95530000Y-170900000D01*
X95530000Y-170900000D02*
X89230000Y-170900000D01*
X89230000Y-177100000D02*
X89230000Y-176700000D01*
X89230000Y-172650000D02*
X89230000Y-175350000D01*
X89230000Y-170900000D02*
X89230000Y-171350000D01*
%TO.C,R6*%
X45054724Y-83422500D02*
X44545276Y-83422500D01*
X45054724Y-82377500D02*
X44545276Y-82377500D01*
%TO.C,C3*%
X84549753Y-159511284D02*
X84842287Y-159511284D01*
X84549753Y-160531284D02*
X84842287Y-160531284D01*
%TO.C,D51*%
X94640000Y-168500000D02*
X98650000Y-168500000D01*
X94640000Y-170500000D02*
X94640000Y-168500000D01*
X94640000Y-170500000D02*
X98650000Y-170500000D01*
%TO.C,L1*%
X87597272Y-169981284D02*
X87074768Y-169981284D01*
X87597272Y-167761284D02*
X87074768Y-167761284D01*
%TO.C,R5*%
X86977500Y-153192224D02*
X86977500Y-152682776D01*
X88022500Y-153192224D02*
X88022500Y-152682776D01*
%TO.C,J1*%
X90678000Y-77156000D02*
X90678000Y-82356000D01*
X85538000Y-77156000D02*
X90678000Y-77156000D01*
X85538000Y-77156000D02*
X85538000Y-79756000D01*
X84268000Y-77156000D02*
X82938000Y-77156000D01*
X82938000Y-77156000D02*
X82938000Y-78486000D01*
X85538000Y-79756000D02*
X82938000Y-79756000D01*
X82938000Y-79756000D02*
X82938000Y-82356000D01*
X82938000Y-82356000D02*
X90678000Y-82356000D01*
%TO.C,R9*%
X115569276Y-93477500D02*
X116078724Y-93477500D01*
X115569276Y-94522500D02*
X116078724Y-94522500D01*
%TO.C,U2*%
X87058520Y-164011284D02*
X86258520Y-164011284D01*
X87058520Y-164011284D02*
X87858520Y-164011284D01*
X87058520Y-167131284D02*
X85258520Y-167131284D01*
X87058520Y-167131284D02*
X87858520Y-167131284D01*
%TO.C,C5*%
X81434768Y-163786284D02*
X81957272Y-163786284D01*
X81434768Y-165256284D02*
X81957272Y-165256284D01*
%TO.C,C1*%
X91461020Y-165820036D02*
X91461020Y-165297532D01*
X92931020Y-165820036D02*
X92931020Y-165297532D01*
%TD*%
%LPC*%
D14*
%TO.C,C2*%
X90196020Y-166596284D03*
X90196020Y-164521284D03*
%TD*%
D15*
%TO.C,R3*%
X85783520Y-163021284D03*
X87608520Y-163021284D03*
%TD*%
D16*
%TO.C,C4*%
X80658520Y-166521284D03*
X82733520Y-166521284D03*
%TD*%
D17*
%TO.C,J3*%
X79500000Y-156500000D03*
D18*
X79500000Y-153960000D03*
X79500000Y-151420000D03*
%TD*%
D15*
%TO.C,R2*%
X83783520Y-161521284D03*
X85608520Y-161521284D03*
%TD*%
D19*
%TO.C,U1*%
X81545000Y-108360000D03*
X81545000Y-110900000D03*
X81545000Y-113440000D03*
D20*
X130475000Y-101110000D03*
X127935000Y-101110000D03*
X125395000Y-101110000D03*
X122855000Y-101110000D03*
X120315000Y-101110000D03*
X117775000Y-101110000D03*
X115235000Y-101110000D03*
X112695000Y-101110000D03*
X110155000Y-101110000D03*
X107615000Y-101110000D03*
X105075000Y-101110000D03*
X102535000Y-101110000D03*
X99995000Y-101110000D03*
X97455000Y-101110000D03*
X94915000Y-101110000D03*
X92375000Y-101110000D03*
X89835000Y-101110000D03*
X87295000Y-101110000D03*
X84755000Y-101110000D03*
X82215000Y-101110000D03*
X82215000Y-120690000D03*
X84755000Y-120690000D03*
X87295000Y-120690000D03*
X89835000Y-120690000D03*
X92375000Y-120690000D03*
X94915000Y-120690000D03*
X97455000Y-120690000D03*
X99995000Y-120690000D03*
X102535000Y-120690000D03*
X105075000Y-120690000D03*
X107615000Y-120690000D03*
X110155000Y-120690000D03*
X112695000Y-120690000D03*
X115235000Y-120690000D03*
X117775000Y-120690000D03*
X120315000Y-120690000D03*
X122855000Y-120690000D03*
X125395000Y-120690000D03*
X127935000Y-120690000D03*
X130475000Y-120690000D03*
D21*
X130345000Y-108175000D03*
D22*
X127315000Y-108475000D03*
X127315000Y-113325000D03*
D21*
X130345000Y-113625000D03*
%TD*%
D23*
%TO.C,D52*%
X80546020Y-168871284D03*
X83846020Y-168871284D03*
%TD*%
D24*
%TO.C,Q2*%
X85450000Y-155875000D03*
X83550000Y-155875000D03*
X84500000Y-154000000D03*
%TD*%
D15*
%TO.C,R4*%
X83637500Y-157937500D03*
X85462500Y-157937500D03*
%TD*%
D25*
%TO.C,Q1*%
X89600000Y-153937500D03*
X91500000Y-153937500D03*
X90550000Y-155812500D03*
%TD*%
D15*
%TO.C,R7*%
X84337500Y-56642000D03*
X86162500Y-56642000D03*
%TD*%
D26*
%TO.C,J2*%
X45844000Y-123580000D03*
D27*
X48384000Y-123580000D03*
D26*
X50924000Y-123580000D03*
X45844000Y-120405000D03*
X50924000Y-120405000D03*
D27*
X47368000Y-118500000D03*
X49400000Y-118500000D03*
D28*
X47749000Y-122310000D03*
X49019000Y-122310000D03*
X47749000Y-121040000D03*
X49019000Y-121040000D03*
X47749000Y-119770000D03*
X49019000Y-119770000D03*
%TD*%
D29*
%TO.C,R1*%
X98500000Y-171587500D03*
X98500000Y-173412500D03*
%TD*%
D30*
%TO.C,BT2*%
X102250000Y-138905000D03*
X114950000Y-138905000D03*
%TD*%
D15*
%TO.C,R8*%
X118337500Y-79000000D03*
X120162500Y-79000000D03*
%TD*%
D31*
%TO.C,SW1*%
X95260000Y-172000000D03*
X89500000Y-172000000D03*
X95260000Y-176000000D03*
X89500000Y-176000000D03*
%TD*%
D32*
%TO.C,R6*%
X45712500Y-82900000D03*
X43887500Y-82900000D03*
%TD*%
D33*
%TO.C,C3*%
X83833520Y-160021284D03*
X85558520Y-160021284D03*
%TD*%
D23*
%TO.C,D51*%
X95350000Y-169500000D03*
X98650000Y-169500000D03*
%TD*%
D34*
%TO.C,L1*%
X88498520Y-168871284D03*
X86173520Y-168871284D03*
%TD*%
D35*
%TO.C,R5*%
X87500000Y-153850000D03*
X87500000Y-152025000D03*
%TD*%
D17*
%TO.C,J1*%
X84268000Y-78486000D03*
D18*
X84268000Y-81026000D03*
X86808000Y-78486000D03*
X86808000Y-81026000D03*
X89348000Y-78486000D03*
X89348000Y-81026000D03*
%TD*%
D15*
%TO.C,R9*%
X114911500Y-94000000D03*
X116736500Y-94000000D03*
%TD*%
D36*
%TO.C,U2*%
X85921020Y-166521284D03*
X85921020Y-165571284D03*
X85921020Y-164621284D03*
X88196020Y-164621284D03*
X88196020Y-166521284D03*
%TD*%
D16*
%TO.C,C5*%
X80658520Y-164521284D03*
X82733520Y-164521284D03*
%TD*%
D14*
%TO.C,C1*%
X92196020Y-166596284D03*
X92196020Y-164521284D03*
%TD*%
%LPD*%
M02*
