M48
; DRILL file {KiCad 7.0.9} date Thu Dec 28 12:29:52 2023
; FORMAT={-:-/ absolute / metric / decimal}
; #@! TF.CreationDate,2023-12-28T12:29:52-06:00
; #@! TF.GenerationSoftware,Kicad,Pcbnew,7.0.9
; #@! TF.FileFunction,Plated,1,2,PTH
FMAT,2
METRIC
; #@! TA.AperFunction,Plated,PTH,ViaDrill
T1C0.400
; #@! TA.AperFunction,Plated,PTH,ViaDrill
T2C0.500
; #@! TA.AperFunction,Plated,PTH,ComponentDrill
T3C1.000
; #@! TA.AperFunction,Plated,PTH,ComponentDrill
T4C1.020
%
G90
G05
T1
X39.5Y-72.75
X40.5Y-147.5
X41.75Y-129.0
X42.5Y-70.0
X43.0Y-72.75
X43.9Y-84.8
X43.95Y-92.0
X48.768Y-116.586
X52.25Y-139.75
X52.5Y-79.5
X59.5Y-100.75
X59.5Y-119.25
X61.5Y-69.5
X62.5Y-148.0
X64.262Y-112.268
X64.77Y-137.414
X65.532Y-114.3
X68.072Y-114.3
X68.75Y-136.75
X68.834Y-85.598
X73.5Y-111.5
X74.93Y-113.538
X76.25Y-124.0
X78.5Y-101.25
X79.5Y-81.5
X82.804Y-163.068
X83.82Y-133.858
X85.0Y-146.25
X86.25Y-63.25
X87.75Y-160.528
X87.884Y-56.642
X90.424Y-143.256
X90.932Y-89.154
X93.98Y-89.154
X94.996Y-116.078
X94.996Y-124.206
X95.0Y-132.25
X96.52Y-108.458
X96.774Y-166.624
X97.5Y-80.0
X97.536Y-157.5
X98.298Y-165.862
X98.5Y-49.0
X98.75Y-63.5
X98.806Y-157.48
X98.806Y-164.521
X99.314Y-175.768
X100.33Y-150.368
X102.108Y-157.48
X102.616Y-107.696
X103.886Y-169.418
X105.41Y-134.874
X105.664Y-165.862
X107.25Y-157.75
X107.75Y-146.5
X109.728Y-85.344
X109.728Y-89.154
X112.0Y-64.0
X113.461Y-97.278
X115.155Y-125.527
X115.824Y-112.014
X118.11Y-123.952
X118.872Y-93.98
X120.25Y-80.5
X120.25Y-87.5
X123.444Y-92.202
X124.25Y-136.0
X129.032Y-138.43
X129.032Y-139.7
X132.08Y-138.43
X132.08Y-139.7
X133.604Y-90.932
X135.128Y-98.298
X135.322Y-119.148
X138.5Y-87.5
X138.684Y-120.65
X140.25Y-151.0
X141.75Y-138.0
X148.0Y-124.75
X149.0Y-100.75
X150.114Y-129.794
X150.25Y-68.75
X153.5Y-74.5
X154.75Y-141.25
X156.0Y-74.5
X157.5Y-86.5
X159.258Y-88.9
X159.258Y-90.17
X161.25Y-54.0
X169.75Y-68.75
X171.75Y-63.95
X178.5Y-53.75
X180.25Y-60.0
X188.5Y-67.0
X193.0Y-40.0
T2
X47.498Y-128.778
X77.724Y-139.7
T3
X79.5Y-151.42
X79.5Y-153.96
X79.5Y-156.5
X84.268Y-78.486
X84.268Y-81.026
X86.808Y-78.486
X86.808Y-81.026
X89.348Y-78.486
X89.348Y-81.026
T4
X102.25Y-138.905
X114.95Y-138.905
T0
M30
