%TF.GenerationSoftware,KiCad,Pcbnew,7.0.9*%
%TF.CreationDate,2024-02-03T11:29:30-06:00*%
%TF.ProjectId,bsidesPR,62736964-6573-4505-922e-6b696361645f,rev?*%
%TF.SameCoordinates,Original*%
%TF.FileFunction,Profile,NP*%
%FSLAX46Y46*%
G04 Gerber Fmt 4.6, Leading zero omitted, Abs format (unit mm)*
G04 Created by KiCad (PCBNEW 7.0.9) date 2024-02-03 11:29:30*
%MOMM*%
%LPD*%
G01*
G04 APERTURE LIST*
%TA.AperFunction,Profile*%
%ADD10C,0.100000*%
%TD*%
G04 APERTURE END LIST*
D10*
X83888372Y-73787501D02*
G75*
G03*
X83888372Y-73787501I-1500000J0D01*
G01*
X209018000Y-38330000D02*
G75*
G03*
X209018000Y-38330000I-1500000J0D01*
G01*
X208021970Y-34570173D02*
X208479278Y-34746723D01*
X209081367Y-35277964D01*
X209315597Y-35698040D01*
X209524504Y-36092953D01*
X209855657Y-36584280D01*
X210277365Y-37129460D01*
X210593025Y-37501618D01*
X211094858Y-38041134D01*
X211607857Y-38533478D01*
X211939043Y-38868128D01*
X212244064Y-39205592D01*
X212516386Y-39537292D01*
X212894915Y-40078335D01*
X213162990Y-40747363D01*
X213284099Y-41138207D01*
X213588928Y-41476859D01*
X214022781Y-41700750D01*
X214549815Y-42287439D01*
X214699026Y-42706736D01*
X214765772Y-43357384D01*
X214645721Y-44061343D01*
X214458283Y-44458358D01*
X214174474Y-44778968D01*
X213747848Y-45009642D01*
X213457005Y-45473126D01*
X213347481Y-45931083D01*
X213249091Y-46768353D01*
X213221358Y-47194058D01*
X213199552Y-47676228D01*
X213172075Y-48821188D01*
X213163663Y-50226866D01*
X213160619Y-51933589D01*
X213151967Y-52633614D01*
X213134376Y-53246043D01*
X213104623Y-53781591D01*
X213059698Y-54251248D01*
X212911129Y-55036055D01*
X212736027Y-55527076D01*
X212496679Y-55967704D01*
X212185457Y-56392188D01*
X211795087Y-56834512D01*
X211487102Y-57156410D01*
X211138309Y-57511510D01*
X210792496Y-57863387D01*
X210492473Y-58175010D01*
X209921618Y-58839325D01*
X209685418Y-59206430D01*
X209515412Y-59588795D01*
X209400344Y-60020707D01*
X209316109Y-60740028D01*
X209234038Y-61311898D01*
X209193207Y-62003478D01*
X209410790Y-63177754D01*
X209560072Y-64357712D01*
X209641463Y-65540382D01*
X209655233Y-66723002D01*
X209601825Y-67902618D01*
X209481638Y-69076422D01*
X209294977Y-70241506D01*
X209042330Y-71394994D01*
X208723922Y-72534035D01*
X208340274Y-73655748D01*
X207891706Y-74757266D01*
X207378546Y-75835757D01*
X206804335Y-76882977D01*
X206173623Y-77891373D01*
X205488518Y-78858985D01*
X204751158Y-79783783D01*
X203963674Y-80663817D01*
X203128101Y-81497083D01*
X202246578Y-82281587D01*
X201321203Y-83015386D01*
X200354115Y-83696421D01*
X199347382Y-84322787D01*
X198303174Y-84892452D01*
X197223501Y-85403449D01*
X196116248Y-85851604D01*
X194989808Y-86233971D01*
X193847090Y-86550376D01*
X192690970Y-86800547D01*
X191524276Y-86984321D01*
X190349916Y-87101523D01*
X189170837Y-87151884D01*
X187989859Y-87135233D01*
X186809939Y-87051331D01*
X185633848Y-86900014D01*
X184464638Y-86681073D01*
X183305065Y-86394276D01*
X182767825Y-87135910D01*
X182190354Y-87937265D01*
X181573862Y-88744660D01*
X180919686Y-89556801D01*
X180228982Y-90250586D01*
X179503053Y-90909780D01*
X178743207Y-91601867D01*
X177950668Y-92283988D01*
X177126654Y-92850805D01*
X176272528Y-93415518D01*
X175389546Y-94008855D01*
X174478823Y-94507744D01*
X173545109Y-95007922D01*
X172593210Y-95457636D01*
X171624833Y-95927765D01*
X170641740Y-96408514D01*
X169645589Y-96697654D01*
X168638182Y-96886273D01*
X167621171Y-97148757D01*
X166596301Y-97278646D01*
X165565287Y-97359900D01*
X164529899Y-97392147D01*
X163491803Y-97375092D01*
X162452682Y-97308350D01*
X161944977Y-101665655D01*
X161866166Y-102258515D01*
X161801863Y-102759811D01*
X161757915Y-103175984D01*
X161771310Y-103870045D01*
X161790808Y-104306909D01*
X162259788Y-104378799D01*
X162710551Y-104410610D01*
X163117063Y-104463618D01*
X163609474Y-104516145D01*
X164192737Y-104575497D01*
X164871674Y-104649189D01*
X166394828Y-104846489D01*
X167691643Y-105117416D01*
X168934985Y-105387431D01*
X170078792Y-105653952D01*
X171092647Y-105913079D01*
X171967658Y-106161657D01*
X172716553Y-106399996D01*
X173366283Y-106631622D01*
X173946974Y-106861886D01*
X174482821Y-107095747D01*
X174989276Y-107336730D01*
X175473620Y-107586597D01*
X175938523Y-107846029D01*
X176384039Y-108115434D01*
X176808791Y-108394741D01*
X177210456Y-108684077D01*
X177586814Y-108983459D01*
X177936625Y-109293015D01*
X178226914Y-109671240D01*
X178515073Y-110057676D01*
X178798409Y-110459678D01*
X179075209Y-110881690D01*
X179342844Y-111326421D01*
X179599087Y-111790346D01*
X179841536Y-112271222D01*
X180066714Y-112756176D01*
X180273274Y-113242724D01*
X180457219Y-113712889D01*
X180619728Y-114167891D01*
X180758532Y-114595535D01*
X180876580Y-114996038D01*
X180975338Y-115374367D01*
X181057065Y-115720580D01*
X181126687Y-116059168D01*
X181184069Y-116369404D01*
X181235138Y-116684960D01*
X181278109Y-116984342D01*
X181317314Y-117295692D01*
X181350511Y-117605521D01*
X181379406Y-117929416D01*
X181402229Y-118262099D01*
X181418339Y-118608994D01*
X181426133Y-118968633D01*
X181424066Y-119341843D01*
X181410536Y-119728079D01*
X181383612Y-120127092D01*
X181341995Y-120538386D01*
X181284109Y-120962297D01*
X181209399Y-121398040D01*
X181116345Y-121846769D01*
X181006092Y-122307033D01*
X180877902Y-122780251D01*
X180734724Y-123263538D01*
X180577743Y-123757168D01*
X180411774Y-124256941D01*
X180240517Y-124760785D01*
X179991596Y-125309689D01*
X179738268Y-125843477D01*
X179480463Y-126361219D01*
X179216657Y-126863572D01*
X178945593Y-127351306D01*
X178666599Y-127824588D01*
X178379457Y-128283258D01*
X178084009Y-128727140D01*
X177779844Y-129156746D01*
X177465610Y-129573528D01*
X177138318Y-129980616D01*
X176792753Y-130382553D01*
X176421818Y-130783841D01*
X176017919Y-131186515D01*
X175577121Y-131587267D01*
X175102341Y-131976579D01*
X174604201Y-132341449D01*
X174097546Y-132670568D01*
X173595129Y-132958831D01*
X173103294Y-133208425D01*
X172621016Y-133426040D01*
X172142583Y-133618974D01*
X171659055Y-133792874D01*
X171157319Y-133951753D01*
X170617563Y-134099241D01*
X170015851Y-134239776D01*
X169336073Y-134377803D01*
X168586192Y-134516167D01*
X168190535Y-134561644D01*
X167392060Y-134604206D01*
X166550487Y-134554082D01*
X166060823Y-134494193D01*
X164978018Y-134303366D01*
X163961760Y-134107180D01*
X163018449Y-133899563D01*
X162129804Y-133673704D01*
X161270182Y-133423701D01*
X160419316Y-133145892D01*
X159565903Y-132838435D01*
X158705640Y-132501042D01*
X157837647Y-132134409D01*
X156962428Y-131740418D01*
X156081169Y-131322644D01*
X155195512Y-130887101D01*
X154307475Y-130441929D01*
X153404410Y-129925277D01*
X152496403Y-129379753D01*
X151584086Y-128805718D01*
X148905357Y-127081564D01*
X148390835Y-127357474D01*
X147830427Y-127630204D01*
X147112325Y-127935178D01*
X146274341Y-128259554D01*
X145354597Y-128590130D01*
X144390834Y-128913929D01*
X143421239Y-129217957D01*
X142483688Y-129489157D01*
X141616067Y-129714471D01*
X139618678Y-130196164D01*
X139983513Y-131022413D01*
X140570033Y-132426533D01*
X141079027Y-133802198D01*
X141511581Y-135147823D01*
X141868413Y-136461805D01*
X142150532Y-137742646D01*
X142358822Y-138988801D01*
X142494134Y-140198641D01*
X142557380Y-141370663D01*
X142549377Y-142503271D01*
X142471211Y-143594991D01*
X142323623Y-144644110D01*
X142107498Y-145649185D01*
X141823781Y-146608574D01*
X141473398Y-147520852D01*
X141057185Y-148384271D01*
X140576033Y-149197429D01*
X140031094Y-149957989D01*
X139423650Y-150663882D01*
X138754823Y-151313475D01*
X138025734Y-151905494D01*
X137237537Y-152438256D01*
X136391349Y-152910425D01*
X135488221Y-153320597D01*
X134529440Y-153667155D01*
X133515962Y-153948657D01*
X132449003Y-154163733D01*
X131329681Y-154310780D01*
X130159117Y-154388437D01*
X128938398Y-154395223D01*
X127668740Y-154329638D01*
X126351301Y-154190185D01*
X124987031Y-153975381D01*
X124045987Y-153768989D01*
X123147813Y-153501354D01*
X122293382Y-153173245D01*
X121483379Y-152785664D01*
X120718714Y-152339507D01*
X120000108Y-151835631D01*
X119328501Y-151274919D01*
X118704543Y-150658387D01*
X118129110Y-149986780D01*
X117603025Y-149261052D01*
X117127059Y-148482147D01*
X116702031Y-147650876D01*
X116328757Y-146768263D01*
X116008010Y-145835053D01*
X115740539Y-144852337D01*
X115527334Y-143819288D01*
X115192784Y-141315011D01*
X115383847Y-138188499D01*
X115457707Y-137505501D01*
X115553105Y-136761316D01*
X115666070Y-135979495D01*
X115792766Y-135183632D01*
X115929199Y-134397197D01*
X116071528Y-133643800D01*
X116215964Y-132946959D01*
X116358361Y-132330226D01*
X117164498Y-129045644D01*
X117262675Y-128641952D01*
X115750272Y-127987200D01*
X115378115Y-127822489D01*
X114962584Y-127627080D01*
X114517380Y-127409769D01*
X114056167Y-127177334D01*
X113592650Y-126937024D01*
X113140425Y-126695633D01*
X112713261Y-126460345D01*
X112324723Y-126238156D01*
X111971928Y-126032710D01*
X111067918Y-125516393D01*
X110592361Y-125302880D01*
X110299220Y-125631798D01*
X109882739Y-126123393D01*
X109387141Y-126724528D01*
X108399705Y-127891975D01*
X107403657Y-128985282D01*
X106400080Y-130003815D01*
X105390126Y-130946654D01*
X104374883Y-131813189D01*
X103355537Y-132602676D01*
X102333138Y-133314305D01*
X101308807Y-133947243D01*
X100283592Y-134500906D01*
X99258821Y-134974356D01*
X98235371Y-135366969D01*
X97214564Y-135677942D01*
X96197423Y-135906516D01*
X95184994Y-136051937D01*
X94178535Y-136113485D01*
X93179061Y-136090326D01*
X91123886Y-135945617D01*
X89388677Y-135147143D01*
X88741623Y-134817984D01*
X88080395Y-134420942D01*
X87409704Y-133961286D01*
X86734673Y-133444658D01*
X86060014Y-132876487D01*
X85390612Y-132262398D01*
X84731520Y-131607846D01*
X84087518Y-130918335D01*
X83463458Y-130199352D01*
X82864424Y-129456433D01*
X82295200Y-128694992D01*
X81760635Y-127920734D01*
X81265782Y-127138938D01*
X80815388Y-126355219D01*
X80414370Y-125575025D01*
X80067648Y-124804019D01*
X79773320Y-124040271D01*
X79527283Y-123281482D01*
X79329301Y-122527972D01*
X79179238Y-121779998D01*
X79077025Y-121037984D01*
X79022460Y-120302154D01*
X79015338Y-119572821D01*
X79055660Y-118850417D01*
X79143121Y-118135095D01*
X79277652Y-117427303D01*
X79459187Y-116727250D01*
X79687521Y-116035431D01*
X79962349Y-115351952D01*
X80283875Y-114677261D01*
X80651556Y-114011695D01*
X81065562Y-113355549D01*
X81525315Y-112709040D01*
X82030512Y-112072297D01*
X82580847Y-111445519D01*
X83176251Y-110828850D01*
X83816488Y-110222492D01*
X84501456Y-109626716D01*
X85230951Y-109041586D01*
X86004838Y-108467311D01*
X86822879Y-107904124D01*
X87685074Y-107352127D01*
X88590983Y-106811562D01*
X89540674Y-106282525D01*
X90533907Y-105765215D01*
X91570550Y-105260018D01*
X92650328Y-104766829D01*
X93773177Y-104285945D01*
X96493989Y-103157366D01*
X96508062Y-99590609D01*
X96514982Y-98808985D01*
X96529631Y-98005055D01*
X96578059Y-96420382D01*
X96610309Y-95684544D01*
X96646800Y-95016570D01*
X96686817Y-94438866D01*
X96731004Y-93973956D01*
X96925901Y-92192151D01*
X96617939Y-92032391D01*
X96284815Y-91859332D01*
X95900925Y-91659589D01*
X95574548Y-91485617D01*
X95305894Y-91337484D01*
X95038457Y-91188879D01*
X94723646Y-91008734D01*
X94361357Y-90796987D01*
X93991675Y-90580217D01*
X93594355Y-90343777D01*
X93169565Y-90087669D01*
X92741249Y-89828846D01*
X92524750Y-89697268D01*
X92303301Y-89561003D01*
X91855009Y-89283667D01*
X91379316Y-88988422D01*
X91074035Y-88797460D01*
X90633746Y-88519446D01*
X89618470Y-87876462D01*
X88580776Y-87205024D01*
X88071950Y-86840293D01*
X87583608Y-86417608D01*
X86627780Y-85514647D01*
X85675920Y-84599787D01*
X85199887Y-84140644D01*
X84723890Y-83678449D01*
X83772300Y-82751412D01*
X82847231Y-81835702D01*
X82452419Y-81408266D01*
X82193462Y-81042078D01*
X81811301Y-80371116D01*
X81466748Y-79731725D01*
X81234616Y-79292421D01*
X81114124Y-79052828D01*
X81005163Y-78833026D01*
X80903663Y-78615815D01*
X80628529Y-77970116D01*
X80466087Y-77537917D01*
X80321857Y-77104341D01*
X80220967Y-76778648D01*
X80134184Y-76452137D01*
X80051878Y-76125422D01*
X79983578Y-75798062D01*
X79919754Y-75470566D01*
X79869869Y-75142633D01*
X79812964Y-74705260D01*
X79773794Y-74267718D01*
X79752260Y-73830281D01*
X79743273Y-73502292D01*
X79753074Y-72956148D01*
X79796855Y-72301936D01*
X79876414Y-71649628D01*
X79950683Y-71216240D01*
X80037805Y-70783922D01*
X80169759Y-70245612D01*
X80263459Y-69924188D01*
X80361399Y-69603220D01*
X80472565Y-69283879D01*
X80587935Y-68965151D01*
X80716465Y-68648289D01*
X80896812Y-68227266D01*
X81093845Y-67808935D01*
X81417710Y-67186419D01*
X81775455Y-66570443D01*
X81902187Y-66366663D01*
X82034073Y-66163984D01*
X82234633Y-65860533D01*
X82447774Y-65560033D01*
X82591733Y-65360134D01*
X82740711Y-65161425D01*
X82894742Y-64964019D01*
X83049723Y-64766833D01*
X83209689Y-64571006D01*
X83374674Y-64376482D01*
X83624814Y-64085409D01*
X83887400Y-63797915D01*
X84064220Y-63606732D01*
X84245958Y-63417043D01*
X84432648Y-63228843D01*
X84620252Y-63040935D01*
X84812774Y-62854550D01*
X85010180Y-62669793D01*
X85208535Y-62485377D01*
X85411739Y-62302553D01*
X85619828Y-62121392D01*
X85934537Y-61850634D01*
X86261286Y-61584147D01*
X86480870Y-61407157D01*
X86705203Y-61231931D01*
X86934350Y-61058536D01*
X87164413Y-60885514D01*
X87399191Y-60714355D01*
X87638750Y-60545098D01*
X87879191Y-60376213D01*
X88124277Y-60209397D01*
X88373943Y-60044615D01*
X88748440Y-59800953D01*
X89118257Y-59577468D01*
X89487634Y-59360427D01*
X89859181Y-59163632D01*
X90107150Y-59035374D01*
X90355900Y-58915153D01*
X90605395Y-58803005D01*
X90855027Y-58692415D01*
X91105336Y-58589830D01*
X91356289Y-58495316D01*
X91607345Y-58402328D01*
X91858943Y-58317275D01*
X92111050Y-58240224D01*
X92489447Y-58128889D01*
X92868862Y-58037359D01*
X93248582Y-57952069D01*
X93629014Y-57886482D01*
X94009616Y-57827066D01*
X94390693Y-57787186D01*
X94644765Y-57763413D01*
X94898908Y-57747440D01*
X95153048Y-57739199D01*
X95407223Y-57732517D01*
X95661366Y-57733535D01*
X95915404Y-57742251D01*
X96169445Y-57752459D01*
X96423281Y-57770331D01*
X96676879Y-57795901D01*
X97057211Y-57838393D01*
X97436830Y-57899876D01*
X97689749Y-57943658D01*
X97942263Y-57995001D01*
X98194301Y-58053941D01*
X98446307Y-58114307D01*
X98697702Y-58182233D01*
X98948588Y-58257656D01*
X99199372Y-58334502D01*
X99449477Y-58418876D01*
X99698906Y-58510677D01*
X99948230Y-58603971D01*
X100196811Y-58704692D01*
X100444543Y-58812839D01*
X100692139Y-58922411D01*
X100938853Y-59039342D01*
X101184653Y-59163564D01*
X101430282Y-59289245D01*
X101674893Y-59422149D01*
X101918522Y-59562343D01*
X102161982Y-59703963D01*
X102404321Y-59852737D01*
X102645542Y-60008737D01*
X102886593Y-60166090D01*
X103126424Y-60330635D01*
X103365066Y-60502300D01*
X103603473Y-60675391D01*
X103840590Y-60855501D01*
X104076418Y-61042767D01*
X104429381Y-61327429D01*
X104778885Y-61629727D01*
X105127235Y-61937586D01*
X105471857Y-62262910D01*
X105701038Y-62482325D01*
X105928660Y-62708658D01*
X106154621Y-62941892D01*
X106380309Y-63176517D01*
X106604303Y-63417974D01*
X106826600Y-63666335D01*
X107048591Y-63916015D01*
X107268718Y-64172549D01*
X107487082Y-64435897D01*
X107813593Y-64834609D01*
X108135391Y-65250241D01*
X108349243Y-65529768D01*
X108561028Y-65816024D01*
X108770845Y-66109030D01*
X108980257Y-66403305D01*
X109187598Y-66704265D01*
X109392804Y-67011918D01*
X109699476Y-67476949D01*
X110000655Y-67958522D01*
X110200602Y-68281933D01*
X110398282Y-68611900D01*
X110593651Y-68948452D01*
X110788511Y-69286186D01*
X110980528Y-69629400D01*
X111169520Y-69977953D01*
X111437295Y-70474350D01*
X111609573Y-70800084D01*
X111762925Y-71092104D01*
X112080892Y-71683830D01*
X112380442Y-71948329D01*
X113367164Y-71677265D01*
X114133351Y-71438574D01*
X114581780Y-71300887D01*
X115092536Y-71156875D01*
X115648266Y-71010681D01*
X116231665Y-70866450D01*
X116825306Y-70728527D01*
X117411894Y-70600998D01*
X117974096Y-70488121D01*
X118494486Y-70394113D01*
X119469644Y-70226177D01*
X120372705Y-70063973D01*
X121098674Y-69926999D01*
X121542792Y-69834522D01*
X122019875Y-69720692D01*
X121649312Y-68854765D01*
X121474051Y-68437592D01*
X121321716Y-68058650D01*
X121208583Y-67769598D01*
X121057874Y-67360491D01*
X120964343Y-67095411D01*
X120866984Y-66809343D01*
X120700878Y-66306994D01*
X120574178Y-65911878D01*
X120391491Y-65339416D01*
X120284057Y-64988842D01*
X120158987Y-64570107D01*
X120031002Y-64116017D01*
X119891380Y-63536110D01*
X119680783Y-62621163D01*
X119468355Y-61659333D01*
X119374824Y-61136636D01*
X119307949Y-60535433D01*
X119201937Y-59259266D01*
X119108711Y-57968924D01*
X119082227Y-57322888D01*
X119096098Y-56680921D01*
X119164090Y-55407568D01*
X119243582Y-54168772D01*
X119293874Y-53636378D01*
X119364446Y-53281956D01*
X119524887Y-52753529D01*
X119685533Y-52272206D01*
X119809722Y-51931690D01*
X119979488Y-51543085D01*
X120152783Y-51186662D01*
X120332483Y-50841738D01*
X120619384Y-50349427D01*
X120821878Y-50036516D01*
X121143811Y-49588461D01*
X121488194Y-49165605D01*
X121731924Y-48898100D01*
X121984439Y-48639177D01*
X122316001Y-48330844D01*
X122525717Y-48154905D01*
X122738586Y-47981577D01*
X122961632Y-47816355D01*
X123188031Y-47653541D01*
X123584505Y-47396314D01*
X123917120Y-47200434D01*
X124172178Y-47057289D01*
X124438731Y-46921095D01*
X124802409Y-46744071D01*
X125180738Y-46575661D01*
X125575281Y-46415051D01*
X125983723Y-46259798D01*
X126438219Y-46107259D01*
X126899841Y-45996534D01*
X127584265Y-45853729D01*
X128311147Y-45710413D01*
X128732310Y-45645403D01*
X129265317Y-45594398D01*
X130439065Y-45507005D01*
X131634046Y-45425750D01*
X132234300Y-45394314D01*
X132834217Y-45381460D01*
X134027568Y-45374746D01*
X135192231Y-45378171D01*
X135701362Y-45397467D01*
X136060260Y-45451490D01*
X136625211Y-45593618D01*
X137149365Y-45739306D01*
X137542851Y-45854338D01*
X137806184Y-45937425D01*
X138180548Y-46059239D01*
X138538902Y-46192414D01*
X138775715Y-46282825D01*
X139008319Y-46378560D01*
X139235366Y-46478975D01*
X139461529Y-46580341D01*
X139683454Y-46686929D01*
X139899884Y-46798161D01*
X140222157Y-46967759D01*
X140532217Y-47149565D01*
X140838384Y-47335169D01*
X141326150Y-47666360D01*
X141882825Y-48091862D01*
X142234670Y-48394396D01*
X142491963Y-48627241D01*
X142898070Y-49036398D01*
X143206027Y-49380034D01*
X143430360Y-49643569D01*
X143642115Y-49918600D01*
X143849893Y-50197228D01*
X144173083Y-50682076D01*
X144414402Y-51085807D01*
X144588783Y-51394242D01*
X144750346Y-51713801D01*
X144907871Y-52036819D01*
X145052540Y-52370960D01*
X145147052Y-52595056D01*
X145236685Y-52824135D01*
X145320856Y-53056981D01*
X145444503Y-53408858D01*
X145555261Y-53771520D01*
X145627223Y-54014571D01*
X145694234Y-54262610D01*
X145755886Y-54514173D01*
X145845719Y-54894096D01*
X145922736Y-55284534D01*
X145972219Y-55546068D01*
X146016679Y-55812554D01*
X146055844Y-56082396D01*
X146094032Y-56353053D01*
X146127165Y-56628660D01*
X146155075Y-56907593D01*
X146182000Y-57187338D01*
X146203805Y-57471966D01*
X146220388Y-57759853D01*
X146236025Y-58048516D01*
X146246535Y-58342098D01*
X146251830Y-58638901D01*
X146256204Y-58936450D01*
X146255355Y-59238953D01*
X146249347Y-59544573D01*
X146237515Y-60005548D01*
X146212793Y-60476595D01*
X146194512Y-60791710D01*
X146170944Y-61111710D01*
X146142290Y-61434762D01*
X146096299Y-61922834D01*
X146034311Y-62440849D01*
X145981135Y-62853228D01*
X145927727Y-63229098D01*
X145821374Y-63939483D01*
X145631397Y-64987282D01*
X145407197Y-66060143D01*
X145148718Y-67157864D01*
X144855945Y-68280218D01*
X144703306Y-68847780D01*
X144560128Y-69397117D01*
X144429086Y-69916165D01*
X144313345Y-70392503D01*
X144138997Y-71172393D01*
X144049844Y-71661396D01*
X142317078Y-77305835D01*
X144312833Y-77625088D01*
X144391483Y-76622632D01*
X144518479Y-75628159D01*
X144693236Y-74643368D01*
X144915161Y-73669892D01*
X145183678Y-72709397D01*
X145498152Y-71763542D01*
X145858032Y-70834014D01*
X146262677Y-69922441D01*
X146711510Y-69030520D01*
X147203921Y-68159879D01*
X147739304Y-67312249D01*
X148317103Y-66489189D01*
X148934388Y-65695361D01*
X149587610Y-64934769D01*
X150275463Y-64208478D01*
X150996481Y-63517627D01*
X151749206Y-62863232D01*
X152532284Y-62246327D01*
X153344289Y-61668081D01*
X154183795Y-61129412D01*
X155049377Y-60631439D01*
X155939657Y-60175246D01*
X156853192Y-59761886D01*
X157788572Y-59392373D01*
X158740872Y-59068948D01*
X159704907Y-58793102D01*
X160678948Y-58564972D01*
X161661128Y-58384590D01*
X162649813Y-58252162D01*
X163643216Y-58167754D01*
X164639503Y-58131432D01*
X165636944Y-58143405D01*
X166633776Y-58203700D01*
X167628229Y-58312390D01*
X168618580Y-58469677D01*
X169602995Y-58675594D01*
X169990753Y-57768500D01*
X170419951Y-56883346D01*
X170889507Y-56021421D01*
X171398502Y-55184015D01*
X171945820Y-54372419D01*
X172530509Y-53588019D01*
X173151479Y-52831969D01*
X173807825Y-52105696D01*
X174498426Y-51410385D01*
X175222360Y-50747426D01*
X175978545Y-50118075D01*
X176765957Y-49523621D01*
X177580782Y-48967282D01*
X178418662Y-48451675D01*
X179278140Y-47977373D01*
X180157629Y-47544952D01*
X181055535Y-47154889D01*
X181970399Y-46807827D01*
X182900589Y-46504207D01*
X183844549Y-46244674D01*
X184800750Y-46029701D01*
X185767669Y-45859866D01*
X186743745Y-45735746D01*
X187727311Y-45657849D01*
X188713528Y-45626751D01*
X189697295Y-45642486D01*
X190677031Y-45704614D01*
X191651104Y-45812796D01*
X192617991Y-45966624D01*
X193576027Y-46165793D01*
X194523544Y-46409828D01*
X195459061Y-46698458D01*
X196380903Y-47031278D01*
X197287428Y-47407843D01*
X198177123Y-47827886D01*
X199048376Y-48290997D01*
X200159756Y-48772116D01*
X200596348Y-48948563D01*
X201041592Y-49099984D01*
X201668498Y-49173744D01*
X201938512Y-48627139D01*
X201974184Y-47970217D01*
X201977853Y-47310209D01*
X201966558Y-46670888D01*
X201906869Y-45886623D01*
X201838368Y-45475602D01*
X201668498Y-44962945D01*
X201407472Y-44656239D01*
X200961659Y-44435602D01*
X200577122Y-44029770D01*
X200398303Y-43508091D01*
X200406779Y-43046167D01*
X200593095Y-42451746D01*
X200874333Y-41984091D01*
X201384481Y-41439012D01*
X201713262Y-41161336D01*
X202198008Y-40615341D01*
X202405081Y-40272790D01*
X202521198Y-39856885D01*
X202686014Y-39399675D01*
X202997636Y-38974851D01*
X203487469Y-38462499D01*
X204230228Y-37864924D01*
X204935064Y-37215463D01*
X205350027Y-36720168D01*
X205579778Y-36378532D01*
X205759181Y-36021533D01*
X205901038Y-35615972D01*
X206137406Y-35223942D01*
X206679942Y-34757982D01*
X207199214Y-34560779D01*
X207610372Y-34519101D01*
X208021970Y-34570173D01*
X95165972Y-133960101D02*
G75*
G03*
X95165972Y-133960101I-1500000J0D01*
G01*
X179239972Y-114275101D02*
G75*
G03*
X179239972Y-114275101I-1500000J0D01*
G01*
M02*
