%TF.GenerationSoftware,KiCad,Pcbnew,7.0.9*%
%TF.CreationDate,2024-02-03T11:30:07-06:00*%
%TF.ProjectId,bsidesPR,62736964-6573-4505-922e-6b696361645f,rev?*%
%TF.SameCoordinates,Original*%
%TF.FileFunction,Plated,1,2,PTH,Drill*%
%TF.FilePolarity,Positive*%
%FSLAX46Y46*%
G04 Gerber Fmt 4.6, Leading zero omitted, Abs format (unit mm)*
G04 Created by KiCad (PCBNEW 7.0.9) date 2024-02-03 11:30:07*
%MOMM*%
%LPD*%
G01*
G04 APERTURE LIST*
%TA.AperFunction,ViaDrill*%
%ADD10C,0.400000*%
%TD*%
%TA.AperFunction,ViaDrill*%
%ADD11C,0.500000*%
%TD*%
%TA.AperFunction,ComponentDrill*%
%ADD12C,1.000000*%
%TD*%
%TA.AperFunction,ComponentDrill*%
%ADD13C,1.200000*%
%TD*%
G04 APERTURE END LIST*
D10*
X90084572Y-69825101D03*
X90135372Y-62941701D03*
X92853172Y-86360501D03*
X93107172Y-113309901D03*
X93919972Y-129235701D03*
X95469372Y-113379901D03*
X97298172Y-124646421D03*
X97399772Y-75921101D03*
X98339572Y-126009901D03*
X101768572Y-119126501D03*
X102632172Y-103784901D03*
X104410172Y-122530101D03*
X104685000Y-91867729D03*
X106086572Y-70866501D03*
X108347172Y-116484901D03*
X108804372Y-105105701D03*
X109286972Y-81712301D03*
X110113072Y-121789901D03*
X110506172Y-114706901D03*
X112004772Y-116865901D03*
X112944572Y-94539301D03*
X116017972Y-119558301D03*
X119142172Y-127279901D03*
X120285172Y-93116901D03*
X120569144Y-77719929D03*
X121682172Y-117754901D03*
X121682172Y-144424901D03*
X122582172Y-140360901D03*
X123460172Y-72796901D03*
X123460172Y-74447901D03*
X124222172Y-105054901D03*
X125141144Y-61489329D03*
X125472172Y-140360901D03*
X128921172Y-72796901D03*
X128921172Y-74447901D03*
X129937172Y-112674901D03*
X131313344Y-100706929D03*
X131842172Y-143154901D03*
X134155073Y-152700729D03*
X134513744Y-63546729D03*
X136181000Y-50211729D03*
X136266344Y-130454901D03*
X139619144Y-77770729D03*
X140452772Y-82118701D03*
X140732172Y-144424901D03*
X142616344Y-117527802D03*
X143018172Y-83439501D03*
X143200544Y-93874329D03*
X144318144Y-62022729D03*
X144516772Y-104216701D03*
X146675772Y-93955101D03*
X148174372Y-103632501D03*
X150942972Y-93599501D03*
X151781172Y-76098901D03*
X151785744Y-84095329D03*
X152416172Y-90449901D03*
X154448172Y-76098901D03*
X154702172Y-122199901D03*
X160061572Y-107067574D03*
X161052172Y-95529901D03*
X161687172Y-70764901D03*
X162322172Y-132359901D03*
X163592172Y-85242901D03*
X163846172Y-67208901D03*
X166767172Y-82829901D03*
X169286344Y-123242802D03*
X171847172Y-112674901D03*
X172482172Y-94894901D03*
X174424172Y-86385901D03*
X176927172Y-66319901D03*
X178197172Y-126644901D03*
X181372172Y-82829901D03*
X185817172Y-55524901D03*
X188738172Y-77368901D03*
X191532172Y-68224901D03*
X191735873Y-79883000D03*
X191764662Y-80882088D03*
X198067000Y-71653901D03*
X199152172Y-55524901D03*
X199787172Y-77114901D03*
X205502172Y-66319901D03*
X209947172Y-51714901D03*
D11*
X100927500Y-129261101D03*
X105680172Y-123850901D03*
X108004272Y-126251201D03*
D12*
%TO.C,J3*%
X82947172Y-115976901D03*
X82947172Y-118516901D03*
X82947172Y-121056901D03*
D13*
%TO.C,BT1*%
X156113000Y-86360000D03*
X156113000Y-99160000D03*
M02*
