<?xml version="1.0" encoding="UTF-8" standalone="no"?>
<!-- Created with Inkscape (http://www.inkscape.org/) -->

<svg
   width="210mm"
   height="297mm"
   viewBox="0 0 210 297"
   version="1.1"
   id="svg1"
   inkscape:export-filename="bitmap.svg"
   inkscape:export-xdpi="96"
   inkscape:export-ydpi="96"
   sodipodi:docname="tainoSunX.svg"
   inkscape:version="1.3.2 (091e20e, 2023-11-25, custom)"
   xmlns:inkscape="http://www.inkscape.org/namespaces/inkscape"
   xmlns:sodipodi="http://sodipodi.sourceforge.net/DTD/sodipodi-0.dtd"
   xmlns="http://www.w3.org/2000/svg"
   xmlns:svg="http://www.w3.org/2000/svg">
  <sodipodi:namedview
     id="namedview1"
     pagecolor="#ffffff"
     bordercolor="#000000"
     borderopacity="0.25"
     inkscape:showpageshadow="2"
     inkscape:pageopacity="0.0"
     inkscape:pagecheckerboard="0"
     inkscape:deskcolor="#d1d1d1"
     inkscape:document-units="mm"
     inkscape:zoom="1.0289352"
     inkscape:cx="397.01237"
     inkscape:cy="561.25984"
     inkscape:window-width="2560"
     inkscape:window-height="1351"
     inkscape:window-x="2247"
     inkscape:window-y="-9"
     inkscape:window-maximized="1"
     inkscape:current-layer="layer1" />
  <defs
     id="defs1" />
  <g
     inkscape:label="Layer 1"
     inkscape:groupmode="layer"
     id="layer1">
    <path
       id="path5"
       clip-path="none"
       style="fill:#000000;stroke-width:0.19472"
       d="M 188.15647 112.7864 C 187.32722 112.8391 186.52892 113.37748 186.26047 114.37028 C 186.05885 115.11592 185.05551 116.3305 184.03063 117.06934 C 183.00574 117.80817 182.16718 118.81646 182.16718 119.31003 C 182.16718 119.8036 181.55759 120.68875 180.81222 121.27684 C 179.21262 122.53891 179.03624 124.45635 180.47322 124.96447 C 181.19674 125.22031 181.4897 126.26184 181.4897 128.57768 C 181.4897 131.83101 181.48951 131.83088 176.64917 129.61689 C 160.47212 122.21748 145.35783 129.83495 139.59045 148.29379 C 138.46379 151.89973 137.34228 155.32325 137.09861 155.90211 C 136.77577 156.66898 137.36034 157.36895 139.25248 158.48128 C 146.99948 163.03549 148.20737 170.02116 142.24403 175.78255 C 134.36548 183.39429 122.53722 178.13493 122.53722 167.0203 C 122.53722 164.07946 122.53757 164.07948 116.65748 163.74143 C 108.54192 163.27487 108.73493 163.13969 109.1706 168.99692 C 109.9747 179.80729 118.04928 188.77132 128.72496 190.70464 C 148.26012 194.24235 168.64016 172.14105 157.10204 159.93081 C 151.53649 154.04107 151.62238 147.46021 157.32476 142.84658 C 165.18532 136.48682 176.66723 141.21584 176.73133 150.83937 C 176.74623 153.07285 176.74623 153.07266 181.99768 153.80922 C 190.98955 155.07041 190.40505 155.40278 190.2411 149.12113 C 190.09974 143.7049 190.09959 143.7052 192.57067 141.1981 C 195.04177 138.691 195.04184 138.69085 195.04184 132.23327 C 195.04184 127.06921 195.24551 125.70354 196.05832 125.41612 C 197.37706 124.9498 197.37706 122.1364 196.05832 121.67009 C 195.49929 121.47242 195.04184 120.89746 195.04184 120.39265 C 195.04184 119.88784 194.10051 118.60753 192.94998 117.54735 C 191.79945 116.48716 190.57934 114.94361 190.23852 114.11758 C 189.84621 113.16675 188.98572 112.73373 188.15647 112.7864 z M 98.415181 126.37161 L 93.896594 126.3866 L 89.378007 126.40107 L 86.796252 127.24908 C 82.489036 128.66332 80.064241 130.79589 78.501152 134.54528 L 77.769413 136.30021 L 77.784916 141.11852 L 77.800419 145.93735 L 78.810177 149.5118 C 79.365328 151.47802 80.179984 153.92644 80.620919 154.9523 L 81.422937 156.8173 L 80.559424 157.02349 C 80.084469 157.13671 78.359125 157.4541 76.725549 157.72939 C 75.091972 158.00468 72.647085 158.58836 71.292806 159.02647 C 69.938525 159.46458 68.786959 159.77665 68.733789 159.71945 C 68.680619 159.66225 68.19943 158.77592 67.664087 157.75006 C 60.193851 143.43521 49.248815 138.24484 39.547974 144.41702 C 29.370612 150.89241 25.799272 160.20103 30.258101 168.63002 L 31.573267 171.1172 L 35.139974 174.56144 L 38.706681 178.00619 L 42.627372 180.46805 C 44.783746 181.82213 47.305133 183.32351 48.230648 183.80428 L 49.913749 184.67813 L 49.6533 187.06817 C 49.510211 188.38263 49.385181 191.53842 49.375281 194.08066 L 49.357194 198.7026 L 45.807023 200.1759 C 30.56902 206.49774 24.556304 215.4601 28.763102 225.58158 C 30.858408 230.62284 36.153156 236.50391 40.32157 238.42007 L 42.486812 239.41536 L 44.989502 239.58073 C 51.534663 240.01281 58.559024 235.94223 65.097319 227.92872 C 65.969695 226.85951 66.72756 225.98466 66.78197 225.98466 C 66.83638 225.98466 67.868419 226.56235 69.074854 227.2683 C 70.281286 227.97425 72.200505 228.95496 73.340226 229.44749 L 75.412451 230.34305 L 75.24502 231.03964 C 75.15292 231.42269 74.69866 233.27443 74.235262 235.15516 C 73.771867 237.03587 73.224726 240.32345 73.019832 242.46065 L 72.647762 246.34672 L 73.195015 249.45506 C 74.424837 256.43859 78.51539 260.83545 84.85942 261.99228 L 84.859937 261.99228 C 103.28024 265.35118 111.71083 252.41527 103.39266 233.55525 L 102.82421 232.26593 L 105.59304 231.59723 C 108.3088 230.94117 112.51511 229.47931 114.0256 228.66666 L 114.78938 228.25583 L 118.25945 230.48929 C 124.3473 234.40698 130.22426 236.80836 135.39225 237.4899 L 138.0169 237.83613 L 140.32477 237.50178 C 141.72501 237.29903 143.54316 236.73904 144.94929 236.07758 L 147.26646 234.98772 L 149.19865 232.95632 C 151.40296 230.63927 153.29327 227.33168 154.604 223.49799 L 155.5073 220.85577 L 155.52487 216.79917 L 155.54193 212.74309 L 154.32236 210.36494 C 151.59093 205.03946 145.13589 201.83398 134.75457 200.64718 C 129.90656 200.09296 130.39783 200.72738 130.99459 195.78753 C 131.00589 195.69413 131.01243 195.5975 131.02353 195.5028 L 121.5254 193.61816 L 121.44995 193.6104 C 121.20647 193.5858 118.68375 193.10015 115.84358 192.5314 C 104.9947 190.35887 99.503995 189.72529 89.055546 189.4396 L 81.309249 189.22773 L 73.930371 190.05558 C 67.158116 190.81536 59.691657 191.8943 58.587122 192.27302 L 58.134436 192.42856 L 58.337524 189.38896 C 59.483134 172.27708 72.531848 163.16234 92.771598 165.33616 C 97.545172 165.84886 101.64784 166.66701 105.16257 167.81043 L 108.4802 159.00683 C 108.5256 158.54481 108.96109 156.70855 109.48479 154.79107 C 113.6112 139.68267 110.38612 129.84575 100.3515 126.93385 L 98.415181 126.37161 z M 188.26551 127.37569 C 189.02758 127.37569 189.33322 128.27427 189.48559 130.96617 C 189.67183 134.25657 189.56949 134.55664 188.26551 134.55664 C 186.96148 134.55664 186.8597 134.25657 187.04595 130.96617 C 187.19831 128.27427 187.50343 127.37569 188.26551 127.37569 z M 168.95403 129.5616 C 169.14037 129.5616 169.29251 129.70201 169.29251 129.87373 C 169.29251 130.04544 169.14037 130.18585 168.95403 130.18585 C 168.76769 130.18585 168.61503 130.04544 168.61503 129.87373 C 168.61503 129.70201 168.76769 129.5616 168.95403 129.5616 z M 95.317179 132.47925 L 98.092204 132.61516 L 99.706059 133.41821 C 105.36491 136.23493 106.96071 143.75197 104.49285 155.96257 L 103.97453 158.52727 L 103.29292 158.49575 C 102.91781 158.47855 102.10243 158.34973 101.48114 158.20946 C 99.468715 157.75509 92.041988 156.98052 88.906718 156.89792 L 85.853158 156.8173 L 85.263529 154.9523 C 80.878542 141.07544 84.951752 131.97078 95.317179 132.47925 z M 183.86113 135.80566 C 184.04748 135.80566 184.20013 135.94608 184.20013 136.11779 C 184.20013 136.2895 184.04748 136.42992 183.86113 136.42992 C 183.67479 136.42992 183.52265 136.2895 183.52265 136.11779 C 183.52265 135.94608 183.67479 135.80566 183.86113 135.80566 z M 161.50022 137.67842 C 161.68657 137.67842 161.8387 137.81935 161.8387 137.99106 C 161.8387 138.16277 161.68657 138.30319 161.50022 138.30319 C 161.31388 138.30319 161.16122 138.16277 161.16122 137.99106 C 161.16122 137.81935 161.31388 137.67842 161.50022 137.67842 z M 162.85518 137.67842 C 163.04152 137.67842 163.19417 137.81935 163.19417 137.99106 C 163.19417 138.16277 163.04152 138.30319 162.85518 138.30319 C 162.66883 138.30319 162.5167 138.16277 162.5167 137.99106 C 162.5167 137.81935 162.66883 137.67842 162.85518 137.67842 z M 93.828898 139.84986 C 92.636676 139.85786 91.40807 140.26251 90.356759 141.15159 C 87.643686 143.446 88.508587 147.54056 91.960278 148.74389 C 95.078431 149.83094 98.898873 147.56999 98.898873 144.63768 C 98.898873 141.73783 96.451786 139.8328 93.828898 139.84986 z M 152.01346 143.92248 C 152.1998 143.92248 152.35246 144.06341 152.35246 144.23512 C 152.35246 144.40683 152.1998 144.54725 152.01346 144.54725 C 151.82712 144.54725 151.67446 144.40683 151.67446 144.23512 C 151.67446 144.06341 151.82712 143.92248 152.01346 143.92248 z M 165.14082 144.63303 C 163.77884 144.67983 162.38024 145.20121 161.19274 146.29546 C 158.41151 148.85831 158.41151 151.4753 161.19274 154.03814 C 164.99273 157.53974 170.95597 155.17499 170.95597 150.16654 C 170.95597 146.72325 168.1372 144.52997 165.14082 144.63303 z M 44.838607 149.97844 L 47.743339 149.97844 L 50.648071 149.97844 L 52.261926 150.7355 C 54.476053 151.77403 56.792917 153.46202 58.7375 155.45408 C 61.043649 157.81651 64.164414 161.96175 63.834863 162.22472 C 63.682619 162.3462 62.711896 163.05838 61.677372 163.80706 C 59.061809 165.69992 56.417697 168.57511 54.557393 171.54922 C 53.689704 172.93641 52.517151 175.25545 51.951868 176.70291 L 50.924023 179.33479 L 49.287431 178.29661 C 41.87653 173.59566 36.996007 167.94382 35.929073 162.82675 L 35.574056 161.12298 L 36.103739 159.12569 C 36.968997 155.86351 39.612182 152.76762 43.137419 150.8864 L 44.838607 149.97844 z M 47.678227 155.86335 C 46.519789 155.91905 45.358573 156.44148 44.370935 157.42295 L 43.280046 158.50712 L 43.136385 160.17627 C 42.946338 162.38362 43.629291 163.66235 45.425134 164.4618 C 50.141124 166.56117 54.707126 160.50237 50.968465 157.10617 C 49.991962 156.21912 48.836665 155.80767 47.678227 155.86335 z M 134.13807 163.58485 C 132.36539 163.51625 130.54616 164.16214 129.3027 165.61883 C 127.34477 167.91248 127.57909 170.51888 129.93884 172.69333 C 134.5531 176.94529 141.47899 172.92534 139.42405 167.18773 C 138.61992 164.94247 136.41722 163.67297 134.13807 163.58485 z M 132.36298 171.39677 C 132.54933 171.39677 132.70146 171.53718 132.70146 171.7089 C 132.70146 171.88061 132.54933 172.02102 132.36298 172.02102 C 132.17664 172.02102 132.02398 171.88061 132.02398 171.7089 C 132.02398 171.53718 132.17664 171.39677 132.36298 171.39677 z M 76.124552 175.93551 C 69.529193 175.93551 67.78412 184.24956 73.936056 186.36227 C 76.697316 187.31055 79.176188 186.68877 80.894287 184.61612 C 83.889159 181.00325 81.104583 175.93551 76.124552 175.93551 z M 105.16722 176.93184 C 104.77518 176.91694 104.36793 176.93151 103.94663 176.97938 C 98.708522 177.57499 97.038818 184.10899 101.39588 186.96068 L 102.59942 187.74823 L 104.70265 187.74306 L 106.8064 187.73841 L 108.08798 187.03923 C 113.49014 184.09219 111.04789 177.15582 105.16722 176.93184 z M 89.322713 192.83009 C 92.897899 192.88141 96.390438 193.10249 99.706059 193.49827 C 102.0137 193.77373 104.55548 194.06227 105.35429 194.13957 C 108.41222 194.43529 120.57228 197.63814 120.96368 198.25095 C 121.16016 198.55858 120.39927 203.30068 119.73068 205.9342 C 119.42683 207.13103 118.44596 209.57894 117.55096 211.37418 L 115.92367 214.63806 L 113.46284 216.9759 C 109.39459 220.84027 104.03378 222.95432 96.155888 223.80184 C 93.354118 224.10326 89.600593 224.15748 87.925899 223.9207 C 87.482109 223.858 86.032111 223.65213 84.703874 223.46285 C 71.338171 221.5582 60.52954 210.99737 58.439327 197.80085 L 58.234172 196.50635 L 61.864441 195.66971 C 69.38215 193.93613 77.679456 192.97123 85.72345 192.83526 C 86.930049 192.81486 88.130985 192.81298 89.322713 192.83009 z M 89.938696 195.56997 C 73.773777 195.51197 63.545161 203.25022 73.001229 211.7447 C 74.972127 213.51518 76.599135 214.02738 82.165011 214.62979 L 82.165527 214.62979 C 98.494535 216.39713 107.58692 214.66429 110.65268 209.20118 L 111.59422 207.52377 L 111.59215 205.79622 C 111.58915 203.18302 110.28623 201.18567 107.10664 198.92326 L 105.41527 197.72023 L 101.90903 196.9425 C 97.715293 196.01225 93.669063 195.58337 89.938696 195.56997 z M 84.85942 198.90879 L 89.378007 198.90931 C 98.642092 198.91131 104.39956 200.633 106.16923 203.92915 C 107.50565 206.41835 105.84318 209.38758 102.12658 211.14887 L 100.67448 211.8372 L 94.057825 211.88888 C 86.819522 211.94528 81.932592 211.61153 79.257694 210.8786 L 77.529118 210.40524 L 75.971073 208.90456 C 71.983838 205.06414 74.377186 201.51465 82.277665 199.55061 L 84.85942 198.90879 z M 88.872611 202.42279 L 85.827836 202.56593 L 84.321985 203.28888 C 81.102851 204.83427 81.685197 207.7349 85.383419 208.5759 C 85.982916 208.71223 88.484456 208.83797 90.942769 208.85547 L 95.412781 208.88751 L 96.524858 208.37901 C 98.671421 207.39791 99.090394 205.58995 97.521696 204.07902 L 96.46698 203.06306 L 94.192183 202.67135 C 92.891652 202.44751 90.613249 202.34099 88.872611 202.42279 z M 50.705432 203.95499 L 51.272323 205.72181 C 52.807157 210.50651 56.480471 216.54947 60.306396 220.58344 L 62.406527 222.79777 L 60.400448 224.64262 C 56.757796 227.99175 53.397724 230.12684 50.32561 231.0443 C 44.335226 232.83326 39.298887 230.47874 36.192106 224.43746 L 35.15651 222.42415 L 35.15651 219.92559 L 35.15651 217.42704 L 36.202441 215.41062 C 38.139652 211.67677 42.756815 207.81993 48.816142 204.8738 L 50.705432 203.95499 z M 130.64319 205.62621 C 131.22197 205.60511 132.13396 205.88515 133.72465 206.25149 C 140.73701 207.86649 146.12944 211.28349 147.41581 214.92693 C 149.48451 220.78616 145.66867 228.52722 139.91032 230.15288 C 135.54205 231.3861 129.44192 230.09777 122.05612 226.38205 C 119.46868 225.08033 119.504 225.22345 121.34815 223.48507 C 124.5863 220.43261 127.34416 215.24789 128.92805 209.23529 C 129.63992 206.53297 129.67855 205.66131 130.64319 205.62621 z M 137.02626 214.3864 C 135.33673 214.52099 133.67673 215.55801 132.93607 217.42601 C 132.04916 219.66281 133.11024 222.38948 135.18193 223.19671 C 139.17044 224.75083 143.15894 220.54952 141.29215 216.76041 C 140.43457 215.01973 138.71579 214.25181 137.02626 214.3864 z M 47.189884 216.5873 C 45.370302 216.562 43.610008 217.22333 42.749329 218.58304 C 41.30806 220.85997 42.290043 223.66036 44.990535 224.97438 C 49.970544 227.39757 55.175237 222.73845 51.986491 218.71171 C 50.888162 217.32476 49.009468 216.61261 47.189884 216.5873 z M 80.38269 232.03648 C 80.771628 232.01038 81.39116 232.18824 82.4606 232.41941 L 84.85942 232.93824 L 91.709131 232.95891 L 98.558842 232.97906 L 99.203247 235.62179 C 101.87801 246.59206 99.928255 253.613 93.64338 255.64073 C 82.64246 259.19 76.289221 249.82198 79.351229 234.56604 C 79.727617 232.69076 79.734462 232.08002 80.38269 232.03648 z M 90.188293 239.50373 C 87.263627 239.54303 84.535658 241.89238 85.15966 245.09615 C 85.416548 246.4151 86.749733 247.99739 88.07111 248.55175 C 90.363404 249.51346 93.428179 248.64485 94.691895 246.67538 L 95.4257 245.53178 L 95.277905 243.81871 L 95.130627 242.10512 L 94.002014 241.01836 C 92.887754 239.94513 91.517688 239.48585 90.188293 239.50373 z " />
  </g>
</svg>
