<?xml version="1.0" standalone="no"?>
 <!DOCTYPE svg PUBLIC "-//W3C//DTD SVG 1.1//EN" 
 "http://www.w3.org/Graphics/SVG/1.1/DTD/svg11.dtd"> 
<svg
  xmlns:svg="http://www.w3.org/2000/svg"
  xmlns="http://www.w3.org/2000/svg"
  xmlns:xlink="http://www.w3.org/1999/xlink"
  version="1.1"
  width="147.5740mm" height="137.0330mm" viewBox="0.0000 0.0000 147.5740 137.0330">
<title>SVG Image created as bsidesPR-Edge_Cuts.svg date 2024/01/30 18:40:48 </title>
  <desc>Image generated by PCBNEW </desc>
<g style="fill:#000000; fill-opacity:1.0000;stroke:#000000; stroke-opacity:1.0000;
stroke-linecap:round; stroke-linejoin:round;"
 transform="translate(0 0) scale(1 1)">
</g>
<g style="fill:#000000; fill-opacity:0.0; 
stroke:#000000; stroke-width:0.0000; stroke-opacity:1; 
stroke-linecap:round; stroke-linejoin:round;">
</g>
<g style="fill:#D0D2CD; fill-opacity:0.0; 
stroke:#D0D2CD; stroke-width:0.0000; stroke-opacity:1; 
stroke-linecap:round; stroke-linejoin:round;">
</g>
<g style="fill:#D0D2CD; fill-opacity:0.0; 
stroke:#D0D2CD; stroke-width:0.1000; stroke-opacity:1; 
stroke-linecap:round; stroke-linejoin:round;">
<circle cx="16.0528" cy="107.6672" r="1.5000" /> 
<circle cx="100.1268" cy="87.9822" r="1.5000" /> 
</g>
<g style="fill:#D0D2CD; fill-opacity:0.0; 
stroke:#D0D2CD; stroke-width:0.1558; stroke-opacity:1; 
stroke-linecap:round; stroke-linejoin:round;">
<path d="M135.6275 14.8345
L135.5978 14.7721
" />
<path d="M135.4828 27.5696
L135.5126 27.0328
" />
<path d="M4.7657 39.0745
L4.3345 39.6760
" />
<path d="M90.9824 70.8477
L92.4874 70.4866
" />
<path d="M38.8770 121.6567
L39.3029 122.4899
" />
<path d="M51.1392 128.4167
L52.3624 128.4099
" />
<path d="M41.3684 27.1938
L41.3668 27.1981
" />
<path d="M41.3686 31.1160
L41.3811 34.9707
" />
<path d="M124.3314 21.5400
L124.3289 21.7448
" />
<path d="M34.4170 45.8042
L34.4108 45.8052
" />
<path d="M6.2578 37.3214
L5.7277 37.8967
" />
<path d="M34.8967 45.6895
L34.7656 45.7243
" />
<path d="M58.0899 19.1352
L58.0835 19.1344
" />
<path d="M126.7366 11.4972
L126.6633 11.5575
" />
<path d="M84.2488 78.0989
L84.2158 78.0752
" />
<path d="M84.7241 71.1974
L86.3139 71.2797
" />
<path d="M41.3818 34.9896
L41.3824 34.9959
" />
<path d="M135.5429 14.5625
L135.5420 14.5348
" />
<path d="M100.7112 83.5020
L100.3520 83.1819
" />
<path d="M93.9745 107.8087
L94.4545 107.6348
" />
<path d="M10.1921 60.7818
L13.3280 62.7521
" />
<path d="M34.7656 45.7243
L34.6484 45.7541
" />
<path d="M136.2914 15.4060
L136.2327 15.3832
" />
<path d="M68.4968 32.8852
L68.4822 31.9907
" />
<path d="M124.8184 13.8984
L124.8013 13.9405
" />
<path d="M136.4556 15.4925
L136.4029 15.4608
" />
<path d="M70.0710 101.5896
L70.6326 101.3162
" />
<path d="M68.4822 31.9907
L68.4337 31.1230
" />
<path d="M4.3345 39.6760
L3.9365 40.2852
" />
<path d="M66.2918 45.4560
L66.2927 45.4500
" />
<path d="M61.1173 20.0979
L60.4032 19.8271
" />
<path d="M97.2489 106.3584
L97.2524 106.3558
" />
<path d="M97.2346 106.3683
L97.2383 106.3660
" />
<path d="M86.3139 71.2797
L87.8903 71.2470
" />
<path d="M18.7795 68.9003
L18.7429 69.5698
" />
<path d="M34.4527 45.7988
L34.4457 45.8001
" />
<path d="M124.6840 14.1726
L124.6544 14.2220
" />
<path d="M131.8952 9.8400
L131.8101 9.6952
" />
<path d="M132.1048 10.1602
L131.9937 9.9955
" />
<path d="M100.9949 101.8248
L101.2751 101.3491
" />
<path d="M84.0812 77.9008
L84.0660 77.8622
" />
<path d="M95.7782 80.5316
L95.2224 80.3211
" />
<path d="M123.8337 18.4768
L123.8511 18.4924
" />
<path d="M63.0665 21.1060
L62.4490 20.7377
" />
<path d="M82.9389 32.3657
L81.8500 32.6245
" />
<path d="M136.9827 17.9463
L137.0058 17.8871
" />
<path d="M84.1372 77.9974
L84.1168 77.9683
" />
<path d="M1.7845 89.9679
L1.5557 90.6613
" />
<path d="M95.3623 107.2506
L97.2154 106.3787
" />
<path d="M73.0379 37.5185
L72.2344 38.3148
" />
<path d="M124.3947 14.5764
L124.3515 14.6270
" />
<path d="M13.2848 109.9360
L13.2889 109.9366
" />
<path d="M68.0577 37.7511
L68.2139 36.7263
" />
<path d="M122.7805 16.6908
L122.7582 16.8093
" />
<path d="M135.5389 25.7173
L135.5420 24.0067
" />
<path d="M135.0155 13.4536
L134.8933 13.2923
" />
<path d="M67.8673 38.8013
L68.0577 37.7511
" />
<path d="M97.2686 106.3412
L97.2716 106.3380
" />
<path d="M66.6242 102.8763
L67.5900 102.5517
" />
<path d="M99.9749 82.8719
L99.5800 82.5719
" />
<path d="M30.5572 101.8520
L31.5467 100.6818
" />
<path d="M124.1720 19.1549
L124.1928 19.2444
" />
<path d="M41.3580 27.2337
L41.3573 27.2383
" />
<path d="M68.9535 42.8470
L68.4529 43.8480
" />
<path d="M68.0070 44.8754
L67.6170 45.9270
" />
<path d="M130.1843 8.2764
L130.1153 8.2692
" />
<path d="M50.8060 19.1580
L50.7987 19.1591
" />
<path d="M43.5031 41.8914
L43.6514 42.2567
" />
<path d="M103.9216 88.3302
L102.9466 86.4286
" />
<path d="M13.2972 109.9377
L13.3013 109.9380
" />
<path d="M32.7889 99.2303
L32.7947 99.2332
" />
<path d="M84.1602 78.0244
L84.1372 77.9974
" />
<path d="M5.7277 37.8967
L5.2302 38.4812
" />
<path d="M135.7780 19.4493
L135.8062 19.3402
" />
<path d="M41.5090 125.2892
L42.1820 125.8512
" />
<path d="M63.8436 103.6787
L64.7130 103.4528
" />
<path d="M13.2930 109.9372
L13.2972 109.9377
" />
<path d="M132.2062 32.7620
L132.2931 32.6391
" />
<path d="M104.7823 61.6113
L105.6205 60.2580
" />
<path d="M73.8878 36.7642
L73.0379 37.5185
" />
<path d="M4.4561 55.2474
L7.3092 58.0021
" />
<path d="M132.0564 33.0071
L132.1274 32.8843
" />
<path d="M84.0660 77.8622
L84.0528 77.8201
" />
<path d="M42.2024 25.2313
L41.9561 25.7864
" />
<path d="M39.7799 123.2706
L40.3071 123.9980
" />
<path d="M84.4197 78.1841
L84.3709 78.1642
" />
<path d="M84.1863 78.0504
L84.1602 78.0244
" />
<path d="M136.0352 18.8564
L136.0529 18.8377
" />
<path d="M84.0179 77.6132
L84.0138 77.5512
" />
<path d="M24.4285 33.5750
L23.6964 33.1513
" />
<path d="M135.7976 15.0780
L135.7482 15.0193
" />
<path d="M1.2751 95.7258
L1.4255 96.4755
" />
<path d="M128.3340 9.2217
L128.2978 9.2906
" />
<path d="M34.3895 45.7698
L34.3855 45.7629
" />
<path d="M125.1183 13.0360
L125.0788 13.0955
" />
<path d="M32.6957 99.3207
L32.7544 99.2568
" />
<path d="M123.9654 15.0112
L123.9134 15.0548
" />
<path d="M12.6537 79.6739
L11.6584 80.1924
" />
<path d="M84.0980 77.9361
L84.0812 77.9008
" />
<path d="M66.3191 45.2736
L66.3423 45.1488
" />
<path d="M27.2785 35.7412
L26.5792 35.1296
" />
<path d="M92.0539 108.3301
L92.5192 108.2305
" />
<path d="M43.6684 126.8034
L44.4801 127.1919
" />
<path d="M110.9415 61.0183
L112.2716 60.9922
" />
<path d="M124.2122 19.3392
L124.2300 19.4394
" />
<path d="M123.3151 15.6311
L123.2268 15.7448
" />
<path d="M137.1475 16.9890
L137.1450 16.9229
" />
<path d="M10.1841 60.7765
L10.1881 60.7792
" />
<path d="M126.6633 11.5575
L126.5897 11.6160
" />
<path d="M4.4217 55.2006
L4.4234 55.2038
" />
</g>
<g style="fill:#D0D2CD; fill-opacity:0.0; 
stroke:#D0D2CD; stroke-width:0.1000; stroke-opacity:1; 
stroke-linecap:round; stroke-linejoin:round;">
<circle cx="4.7752" cy="47.4946" r="1.5000" /> 
</g>
<g style="fill:#D0D2CD; fill-opacity:0.0; 
stroke:#D0D2CD; stroke-width:0.1558; stroke-opacity:1; 
stroke-linecap:round; stroke-linejoin:round;">
<path d="M2.1084 44.7192
L1.9870 45.3701
" />
<path d="M2.9147 100.3116
L3.3661 101.0972
" />
<path d="M137.0467 17.7658
L137.0645 17.7038
" />
<path d="M29.9708 38.6450
L29.3148 37.8511
" />
<path d="M91.5101 79.2638
L90.1284 78.9891
" />
<path d="M62.7953 106.3970
L62.2076 104.9896
" />
<path d="M124.9788 13.2707
L124.9523 13.3282
" />
<path d="M18.6264 77.0600
L15.8998 78.1912
" />
<path d="M124.8562 13.7846
L124.8458 13.8203
" />
<path d="M123.7313 22.9540
L123.6726 22.9443
" />
<path d="M129.9079 8.2629
L129.8389 8.2660
" />
<path d="M137.1075 17.5137
L137.1184 17.4492
" />
<path d="M32.2646 99.8159
L32.4607 99.5865
" />
<path d="M134.1517 12.4529
L133.9829 12.2861
" />
<path d="M4.4415 55.2312
L4.4437 55.2340
" />
<path d="M123.2291 22.8259
L123.1399 22.7956
" />
<path d="M131.2000 8.7425
L131.1447 8.6941
" />
<path d="M135.5303 26.4190
L135.5389 25.7173
" />
<path d="M124.2518 22.6337
L124.2388 22.6805
" />
<path d="M122.8927 16.3327
L122.8478 16.4521
" />
<path d="M124.1019 22.9145
L124.0922 22.9211
" />
<path d="M136.5549 15.5641
L136.5063 15.5270
" />
<path d="M103.9295 91.6615
L103.9295 91.6599
" />
<path d="M127.0240 11.2401
L126.8816 11.3714
" />
<path d="M58.0640 19.1330
L58.0575 19.1330
" />
<path d="M129.7013 8.2800
L129.5650 8.3042
" />
<path d="M137.1075 16.5965
L137.0949 16.5324
" />
<path d="M131.9599 38.4915
L131.8059 37.1497
" />
<path d="M43.7309 22.8723
L43.3820 23.2919
" />
<path d="M72.2344 38.3148
L71.4784 39.1507
" />
<path d="M33.0059 99.3459
L33.1125 99.4048
" />
<path d="M8.8465 107.4175
L9.5229 107.9353
" />
<path d="M84.1168 77.9683
L84.0980 77.9361
" />
<path d="M62.4490 20.7377
L61.7992 20.4016
" />
<path d="M125.7110 12.3431
L125.5839 12.4720
" />
<path d="M68.3358 35.7270
L68.4236 34.7536
" />
<path d="M25.1535 34.0461
L24.4285 33.5750
" />
<path d="M105.3492 20.2355
L104.2830 20.5797
" />
<path d="M66.2845 45.4852
L66.2864 45.4795
" />
<path d="M8.9349 81.8177
L8.1151 82.3822
" />
<path d="M87.6154 108.3959
L89.7154 108.6724
" />
<path d="M131.0298 8.6050
L130.9703 8.5643
" />
<path d="M136.2327 15.3832
L136.1980 15.3700
" />
<path d="M135.5182 14.3571
L135.5100 14.3272
" />
<path d="M128.1002 9.8223
L128.0750 9.8788
" />
<path d="M123.7030 18.3912
L123.7227 18.4011
" />
<path d="M136.7295 18.3744
L136.7680 18.3263
" />
<path d="M2.6842 42.7880
L2.4572 43.4276
" />
<path d="M60.9763 125.3278
L61.6465 124.6767
" />
<path d="M136.0529 18.8377
L136.0710 18.8205
" />
<path d="M127.8117 10.3287
L127.7630 10.3983
" />
<path d="M86.8268 108.2765
L87.6154 108.3959
" />
<path d="M7.4996 106.2325
L8.1704 106.8480
" />
<path d="M103.9355 88.3659
L103.9340 88.3606
" />
<path d="M34.3420 45.6861
L34.2968 45.6052
" />
<path d="M123.4156 18.2643
L123.4692 18.2927
" />
<path d="M13.2726 109.9334
L13.2766 109.9344
" />
<path d="M135.2727 13.8346
L135.2271 13.7613
" />
<path d="M95.2224 80.3211
L94.6487 80.1204
" />
<path d="M58.1090 19.1394
L58.1027 19.1378
" />
<path d="M37.6998 117.8162
L37.6998 117.8177
" />
<path d="M131.9928 33.1316
L132.0564 33.0071
" />
<path d="M35.7611 100.8948
L36.2256 101.1356
" />
<path d="M1.1180 94.2445
L1.1727 94.9821
" />
<path d="M86.0257 108.1251
L86.8268 108.2765
" />
<path d="M16.9005 31.5469
L16.1367 31.6207
" />
<path d="M66.2908 45.4620
L66.2918 45.4560
" />
<path d="M32.7627 99.2480
L32.7692 99.2411
" />
<path d="M17.0453 64.9969
L17.4848 65.2451
" />
<path d="M100.4102 102.7316
L100.7066 102.2859
" />
<path d="M46.8986 20.5576
L46.3608 20.8284
" />
<path d="M84.6607 78.2556
L84.5933 78.2389
" />
<path d="M124.1498 19.0708
L124.1720 19.1549
" />
<path d="M37.6301 111.4878
L37.5561 112.1724
" />
<path d="M10.1128 34.0944
L9.3912 34.6028
" />
<path d="M134.8933 13.2923
L134.7614 13.1273
" />
<path d="M128.2328 9.4353
L128.2040 9.5110
" />
<path d="M4.3977 102.6568
L4.9681 103.4200
" />
<path d="M1.1727 94.9821
L1.2751 95.7258
" />
<path d="M50.8280 19.1567
L50.8206 19.1568
" />
<path d="M90.1284 78.9891
L88.6745 78.7530
" />
<path d="M130.1445 48.8493
L130.6562 47.6280
" />
<path d="M123.8359 22.9656
L123.7857 22.9611
" />
<path d="M124.3298 20.7508
L124.3326 21.0832
" />
<path d="M85.1514 32.0267
L84.0402 32.1663
" />
<path d="M37.2603 115.3182
L37.2612 115.3242
" />
<path d="M34.4395 45.8011
L34.4337 45.8019
" />
<path d="M132.0066 41.1674
L132.0264 39.8321
" />
<path d="M50.8206 19.1568
L50.8132 19.1573
" />
<path d="M135.5457 14.5910
L135.5429 14.5625
" />
<path d="M124.0360 22.9471
L124.0226 22.9511
" />
<path d="M26.5239 105.7823
L27.5412 104.9137
" />
<path d="M135.4378 28.0404
L135.4624 27.8126
" />
<path d="M66.2927 45.4500
L66.2934 45.4440
" />
<path d="M136.4028 18.6495
L136.4556 18.6177
" />
<path d="M84.8108 78.2871
L84.7332 78.2717
" />
<path d="M4.4437 55.2340
L4.4461 55.2368
" />
<path d="M133.8092 12.1223
L133.6393 11.9616
" />
<path d="M4.4252 55.2070
L4.4270 55.2101
" />
<path d="M131.7708 33.8232
L131.8037 33.6707
" />
<path d="M10.1803 60.7737
L10.1841 60.7765
" />
<path d="M4.4461 55.2368
L4.4485 55.2395
" />
<path d="M84.0124 77.3372
L84.0157 77.2563
" />
<path d="M101.7672 65.2017
L102.8504 64.0859
" />
<path d="M13.8551 32.1526
L13.1005 32.4345
" />
<path d="M15.9401 64.3496
L17.0453 64.9969
" />
<path d="M4.4510 55.2422
L4.4535 55.2448
" />
<path d="M1.8601 47.9936
L1.9189 48.6515
" />
<path d="M34.4037 45.7934
L34.3968 45.7820
" />
<path d="M136.2103 18.7353
L136.2327 18.7270
" />
<path d="M2.5229 51.2728
L2.7671 51.9227
" />
<path d="M127.2960 10.9651
L127.1624 11.1042
" />
<path d="M41.3615 27.2157
L41.3604 27.2202
" />
<path d="M133.6393 11.9616
L133.4688 11.7927
" />
<path d="M59.6575 19.5894
L58.1090 19.1394
" />
<path d="M50.7843 19.1620
L50.7772 19.1639
" />
<path d="M63.7389 109.1246
L63.3054 107.7759
" />
<path d="M136.8393 18.2248
L136.8719 18.1716
" />
<path d="M124.8736 13.6936
L124.8701 13.7211
" />
<path d="M85.3899 78.3692
L85.1757 78.3432
" />
<path d="M4.4270 55.2101
L4.4289 55.2132
" />
<path d="M123.9490 18.6064
L123.9643 18.6290
" />
<path d="M31.5467 100.6818
L31.8022 100.3701
" />
<path d="M67.6427 39.8767
L67.8673 38.8013
" />
<path d="M118.3621 20.6670
L117.3139 20.3139
" />
<path d="M124.0820 22.9272
L124.0715 22.9328
" />
<path d="M123.9176 18.5644
L123.9334 18.5849
" />
<path d="M98.2884 81.7321
L97.8222 81.4722
" />
<path d="M14.7746 78.6732
L13.6925 79.1675
" />
<path d="M19.1909 31.6321
L18.4285 31.5530
" />
<path d="M70.6326 101.3162
L71.1482 101.0396
" />
<path d="M13.3013 109.9380
L15.3045 110.0693
" />
<path d="M129.4304 8.3386
L129.2984 8.3831
" />
<path d="M135.9496 18.9777
L135.9665 18.9495
" />
<path d="M43.7280 43.6598
L43.5473 43.6993
" />
<path d="M127.6028 10.6105
L127.5452 10.6817
" />
<path d="M5.2302 38.4812
L4.7657 39.0745
" />
<path d="M134.1705 30.6296
L134.3102 30.4777
" />
<path d="M136.4029 15.4608
L136.3482 15.4319
" />
<path d="M1.5557 90.6613
L1.3737 91.3630
" />
<path d="M103.8572 62.8882
L104.7823 61.6113
" />
<path d="M64.5526 118.6429
L64.7005 117.5914
" />
<path d="M136.6888 15.6896
L136.6462 15.6456
" />
<path d="M64.2040 21.9380
L63.6516 21.5063
" />
<path d="M92.9994 108.1089
L93.4870 107.9676
" />
<path d="M76.5617 104.4078
L77.4611 104.8965
" />
<path d="M136.5063 18.5832
L136.5549 18.5461
" />
<path d="M114.9035 60.6878
L116.1972 60.4113
" />
<path d="M136.6462 15.6456
L136.6016 15.6036
" />
<path d="M5.2805 84.7492
L4.6839 85.3673
" />
<path d="M122.7963 17.4916
L122.8322 17.5967
" />
<path d="M103.9323 88.3554
L103.9304 88.3503
" />
<path d="M3.5724 40.9016
L3.2421 41.5245
" />
<path d="M44.4801 127.1919
L45.3364 127.5208
" />
<path d="M124.8013 13.9405
L124.7821 13.9842
" />
<path d="M86.2702 31.9475
L85.1514 32.0267
" />
<path d="M10.7067 80.7226
L9.7989 81.2644
" />
<path d="M2.7505 87.9395
L2.3821 88.6066
" />
<path d="M124.3213 20.4424
L124.3298 20.7508
" />
<path d="M116.2513 20.0178
L115.1767 19.7788
" />
<path d="M124.7821 13.9842
L124.7608 14.0295
" />
<path d="M64.0965 110.4416
L63.7389 109.1246
" />
<path d="M3.6261 86.6338
L3.1654 87.2818
" />
<path d="M135.6627 14.8969
L135.6275 14.8345
" />
<path d="M19.9515 31.7615
L19.1909 31.6321
" />
<path d="M1.9189 48.6515
L2.0145 49.3090
" />
<path d="M137.1276 17.3842
L137.1351 17.3188
" />
<path d="M124.4649 56.2500
L125.4853 55.3494
" />
<path d="M2.9460 42.1535
L2.6842 42.7880
" />
<path d="M2.1654 98.7568
L2.5129 99.5296
" />
<path d="M8.1151 82.3822
L7.3396 82.9578
" />
<path d="M18.6474 72.7015
L18.6405 73.4849
" />
<path d="M85.2129 107.9416
L86.0257 108.1251
" />
<path d="M89.7216 108.6732
L89.7279 108.6737
" />
<path d="M120.4060 21.5434
L119.3936 21.0769
" />
<path d="M13.2566 109.9288
L13.2605 109.9300
" />
<path d="M101.9707 84.8837
L101.6824 84.5230
" />
<path d="M63.7006 121.5264
L64.0517 120.6120
" />
<path d="M65.6640 23.4199
L65.2104 22.8952
" />
<path d="M3.9365 40.2852
L3.5724 40.9016
" />
<path d="M136.0178 18.8769
L136.0352 18.8564
" />
<path d="M136.9827 16.1640
L136.9578 16.1058
" />
<path d="M100.2746 22.4968
L99.3518 23.1011
" />
<path d="M123.5248 18.3191
L123.5824 18.3436
" />
<path d="M58.0835 19.1344
L58.0770 19.1336
" />
<path d="M128.0465 9.9376
L128.0148 9.9986
" />
<path d="M67.0903 42.1019
L67.3837 40.9769
" />
<path d="M84.8940 78.3019
L84.8108 78.2871
" />
<path d="M71.1482 101.0396
L73.8326 102.7678
" />
<path d="M137.1276 16.7260
L137.1184 16.6610
" />
<path d="M123.8816 22.9674
L123.8359 22.9656
" />
<path d="M91.8895 32.4750
L90.7704 32.2446
" />
<path d="M133.8619 30.9523
L134.1705 30.6296
" />
<path d="M133.9829 12.2861
L133.8092 12.1223
" />
<path d="M123.7610 18.4231
L123.7796 18.4352
" />
<path d="M131.2536 8.7935
L131.2000 8.7425
" />
<path d="M84.0317 77.7247
L84.0239 77.6710
" />
<path d="M39.0005 44.5559
L38.4056 44.6941
" />
<path d="M9.3912 34.6028
L8.7010 35.1237
" />
<path d="M97.2455 106.3611
L97.2489 106.3584
" />
<path d="M132.3887 32.5144
L132.4932 32.3865
" />
<path d="M68.5116 102.2204
L69.3514 101.8952
" />
<path d="M124.8458 13.8203
L124.8332 13.8583
" />
<path d="M124.7373 14.0761
L124.7117 14.1239
" />
<path d="M103.9416 88.4036
L103.9412 88.3981
" />
<path d="M103.9407 88.3927
L103.9400 88.3872
" />
<path d="M127.3328 53.3666
L128.1479 52.3003
" />
<path d="M58.0575 19.1330
L58.0577 19.1332
" />
<path d="M18.6621 71.8957
L18.6474 72.7015
" />
<path d="M37.2591 115.3061
L37.2596 115.3122
" />
<path d="M135.5126 27.0328
L135.5303 26.4190
" />
<path d="M84.0115 77.4845
L84.0111 77.4133
" />
<path d="M84.0111 77.4133
L84.0124 77.3372
" />
<path d="M135.5100 14.3272
L135.5005 14.2972
" />
<path d="M121.1307 58.5006
L122.2836 57.8266
" />
<path d="M131.4417 45.1028
L131.7130 43.8067
" />
<path d="M67.1447 25.8188
L66.8249 25.1747
" />
<path d="M41.3811 34.9770
L41.3813 34.9833
" />
<path d="M127.6584 10.5394
L127.6028 10.6105
" />
<path d="M7.3396 82.9578
L6.6085 83.5443
" />
<path d="M102.4940 85.6356
L102.2412 85.2546
" />
<path d="M135.3544 13.9761
L135.3152 13.9062
" />
<path d="M37.2612 115.3242
L37.2623 115.3302
" />
<path d="M4.4392 55.2283
L4.4415 55.2312
" />
<path d="M137.0272 16.2833
L137.0058 16.2231
" />
<path d="M123.3143 18.2020
L123.3640 18.2340
" />
<path d="M89.4483 71.1021
L90.9824 70.8477
" />
<path d="M124.0484 22.9427
L124.0360 22.9471
" />
<path d="M43.3337 41.4394
L43.5031 41.8914
" />
<path d="M114.0923 19.5973
L113.0006 19.4733
" />
<path d="M135.2889 28.8270
L135.3344 28.6463
" />
<path d="M131.7400 9.5627
L131.6858 9.4441
" />
<path d="M128.8088 8.6600
L128.6995 8.7535
" />
<path d="M124.8949 13.4992
L124.8839 13.5560
" />
<path d="M37.2641 44.9852
L36.7523 45.1296
" />
<path d="M68.2348 29.4688
L68.0845 28.6828
" />
<path d="M130.4570 8.3312
L130.3895 8.3136
" />
<path d="M84.5308 78.2215
L84.4730 78.2032
" />
<path d="M124.7608 14.0295
L124.7373 14.0761
" />
<path d="M125.2056 12.9153
L125.1606 12.9760
" />
<path d="M123.0587 17.9751
L123.0962 18.0168
" />
<path d="M124.8771 13.6126
L124.8748 13.6692
" />
<path d="M13.2449 109.9243
L13.2488 109.9259
" />
<path d="M123.2210 18.1327
L123.2667 18.1682
" />
<path d="M136.6462 18.4646
L136.6888 18.4205
" />
<path d="M18.8639 67.8552
L18.8623 67.8552
" />
<path d="M47.4678 20.3043
L46.8986 20.5576
" />
<path d="M129.0446 8.5019
L128.9241 8.5761
" />
<path d="M89.7154 108.6724
L89.7216 108.6732
" />
<path d="M135.3742 28.4558
L135.4084 28.2543
" />
<path d="M50.8132 19.1573
L50.8060 19.1580
" />
<path d="M32.7826 99.2272
L32.7889 99.2303
" />
<path d="M126.5897 11.6160
L126.5159 11.6726
" />
<path d="M134.9612 29.6172
L135.0410 29.4704
" />
<path d="M123.9605 22.9637
L123.9232 22.9668
" />
<path d="M128.4132 9.0907
L128.3724 9.1551
" />
<path d="M71.4784 39.1507
L70.7712 40.0241
" />
<path d="M95.3893 69.4552
L96.7756 68.7904
" />
<path d="M32.7692 99.2411
L32.7826 99.2272
" />
<path d="M97.2558 106.3530
L97.2591 106.3502
" />
<path d="M67.6170 45.9270
L67.2840 47.0004
" />
<path d="M4.4309 55.2164
L4.4329 55.2194
" />
<path d="M73.8326 102.7678
L74.7468 103.3432
" />
<path d="M1.9870 45.3701
L1.9013 46.0236
" />
<path d="M125.5839 12.4720
L125.4648 12.6007
" />
<path d="M91.6107 108.4052
L92.0539 108.3301
" />
<path d="M69.5075 41.8745
L68.9535 42.8470
" />
<path d="M44.2061 43.5457
L43.7280 43.6598
" />
<path d="M136.9311 16.0488
L136.9025 15.9931
" />
<path d="M15.3740 31.7460
L14.6132 31.9232
" />
<path d="M37.8389 109.9582
L37.7257 110.7419
" />
<path d="M135.5740 14.7103
L135.5644 14.6798
" />
<path d="M37.2588 115.3000
L37.2591 115.3061
" />
<path d="M135.5253 14.3868
L135.5182 14.3571
" />
<path d="M124.9293 13.3855
L124.9101 13.4424
" />
<path d="M137.0806 16.4691
L137.0645 16.4064
" />
<path d="M111.9039 19.4072
L110.8045 19.3990
" />
<path d="M13.2889 109.9366
L13.2930 109.9372
" />
<path d="M122.7387 22.6428
L122.5107 22.5485
" />
<path d="M124.2248 22.7230
L124.2176 22.7427
" />
<path d="M68.4236 34.7536
L68.4772 33.8062
" />
<path d="M137.1483 17.0551
L137.1475 16.9890
" />
<path d="M66.2864 45.4795
L66.2880 45.4737
" />
<path d="M125.3545 12.7285
L125.2529 12.8539
" />
<path d="M41.3813 34.9833
L41.3818 34.9896
" />
<path d="M3.3661 101.0972
L3.8620 101.8808
" />
<path d="M80.9920 106.5548
L81.8552 106.8940
" />
<path d="M134.6741 30.0441
L134.7780 29.9028
" />
<path d="M122.8322 17.5967
L122.8764 17.6980
" />
<path d="M124.1264 18.9920
L124.1498 19.0708
" />
<path d="M32.8326 99.2521
L32.9122 99.2948
" />
<path d="M38.1025 108.3723
L37.9658 109.1605
" />
<path d="M127.1624 11.1042
L127.0240 11.2401
" />
<path d="M64.7235 114.1872
L64.5879 112.9745
" />
<path d="M124.6226 14.2720
L124.5888 14.3223
" />
<path d="M32.7544 99.2568
L32.7627 99.2480
" />
</g>
<g style="fill:#D0D2CD; fill-opacity:0.0; 
stroke:#D0D2CD; stroke-width:0.1000; stroke-opacity:1; 
stroke-linecap:round; stroke-linejoin:round;">
<circle cx="129.9048" cy="12.0371" r="1.5000" /> 
</g>
<g style="fill:#D0D2CD; fill-opacity:0.0; 
stroke:#D0D2CD; stroke-width:0.1558; stroke-opacity:1; 
stroke-linecap:round; stroke-linejoin:round;">
<path d="M97.2623 106.3472
L97.2655 106.3443
" />
<path d="M84.9825 78.3161
L84.8940 78.3019
" />
<path d="M33.8042 99.7964
L34.1369 99.9884
" />
<path d="M118.7203 59.6150
L119.9416 59.0970
" />
<path d="M41.3565 27.2475
L41.3562 27.2521
" />
<path d="M127.4240 10.8239
L127.2960 10.9651
" />
<path d="M121.3969 22.0663
L120.4060 21.5434
" />
<path d="M132.4932 32.3865
L132.6072 32.2545
" />
<path d="M84.5933 78.2389
L84.5308 78.2215
" />
<path d="M32.5477 99.4866
L32.6264 99.3976
" />
<path d="M39.4389 102.6036
L39.3405 103.0083
" />
<path d="M43.2829 43.7525
L42.5554 43.8898
" />
<path d="M137.0806 17.6412
L137.0949 17.5777
" />
<path d="M101.5466 100.8592
L101.8092 100.3556
" />
<path d="M97.2193 106.3769
L97.2232 106.3748
" />
<path d="M70.7712 40.0241
L70.1138 40.9328
" />
<path d="M41.3561 27.2613
L41.3686 31.1160
" />
<path d="M67.2840 47.0004
L67.0092 48.0934
" />
<path d="M137.0058 17.8871
L137.0272 17.8268
" />
<path d="M136.0006 18.8992
L136.0178 18.8769
" />
<path d="M99.5800 82.5719
L99.1673 82.2820
" />
<path d="M135.5780 21.4501
L135.5998 20.9668
" />
<path d="M136.3482 18.6784
L136.4028 18.6495
" />
<path d="M27.9681 36.3988
L27.2785 35.7412
" />
<path d="M126.4448 54.3843
L127.3328 53.3666
" />
<path d="M113.0006 19.4733
L111.9039 19.4072
" />
<path d="M48.0694 20.0673
L47.4678 20.3043
" />
<path d="M136.5549 18.5461
L136.6016 18.5065
" />
<path d="M94.6487 80.1204
L94.0570 79.9296
" />
<path d="M41.3668 27.1981
L41.3653 27.2024
" />
<path d="M131.0880 8.6483
L131.0298 8.6050
" />
<path d="M131.6864 34.5442
L131.7197 34.1593
" />
<path d="M17.3146 110.0308
L18.3292 109.8851
" />
<path d="M123.9134 15.0548
L123.8608 15.0973
" />
<path d="M66.3423 45.1488
L66.3718 45.0008
" />
<path d="M74.7468 103.3432
L75.6568 103.8900
" />
<path d="M124.1373 22.8820
L124.1288 22.8912
" />
<path d="M124.3069 14.6772
L124.2611 14.7272
" />
<path d="M136.8047 15.8339
L136.7681 15.7840
" />
<path d="M133.4688 11.7927
L133.2990 11.6170
" />
<path d="M36.2256 101.1356
L36.6877 101.3686
" />
<path d="M124.1623 22.8504
L124.1540 22.8617
" />
<path d="M129.5650 8.3042
L129.4304 8.3386
" />
<path d="M123.8608 15.0973
L123.7380 15.1984
" />
<path d="M64.7788 116.4972
L64.7869 115.3619
" />
<path d="M128.3724 9.1551
L128.3340 9.2217
" />
<path d="M33.1125 99.4048
L33.2310 99.4708
" />
<path d="M89.7467 108.6740
L89.7529 108.6737
" />
<path d="M13.2605 109.9300
L13.2645 109.9312
" />
<path d="M131.0891 46.3779
L131.4417 45.1028
" />
<path d="M124.2101 22.7612
L124.2024 22.7788
" />
<path d="M124.1947 22.7952
L124.1868 22.8106
" />
<path d="M67.9004 27.9245
L67.6824 27.1940
" />
<path d="M94.4545 107.6348
L94.9196 107.4479
" />
<path d="M135.6620 20.1668
L135.7030 19.8441
" />
<path d="M136.0964 15.3211
L136.0636 15.3018
" />
<path d="M13.6925 79.1675
L12.6537 79.6739
" />
<path d="M135.5504 22.5977
L135.5780 21.4501
" />
<path d="M123.3140 22.8531
L123.2291 22.8259
" />
<path d="M10.8577 108.7941
L11.5061 109.1240
" />
<path d="M134.6204 12.9598
L134.4713 12.7908
" />
<path d="M41.3701 27.1895
L41.3684 27.1938
" />
<path d="M122.7371 17.0436
L122.7391 17.1588
" />
<path d="M124.3515 14.6270
L124.3069 14.6772
" />
<path d="M58.1027 19.1378
L58.0964 19.1364
" />
<path d="M66.8249 25.1747
L66.4714 24.5599
" />
<path d="M135.6276 20.5401
L135.6620 20.1668
" />
<path d="M123.4704 22.8983
L123.3944 22.8772
" />
<path d="M136.4556 18.6177
L136.5063 18.5832
" />
<path d="M122.9482 22.7254
L122.7387 22.6428
" />
<path d="M75.6568 103.8900
L76.5617 104.4078
" />
<path d="M84.4730 78.2032
L84.4197 78.1841
" />
<path d="M133.2990 11.6170
L133.1310 11.4362
" />
<path d="M124.2611 14.7272
L124.2142 14.7765
" />
<path d="M55.7264 127.9691
L56.7420 127.6869
" />
<path d="M84.0239 77.6710
L84.0179 77.6132
" />
<path d="M64.7005 117.5914
L64.7788 116.4972
" />
<path d="M34.3811 45.7552
L34.3420 45.6861
" />
<path d="M122.5107 22.5485
L122.2636 22.4428
" />
<path d="M37.2623 115.3302
L37.6998 117.8162
" />
<path d="M3.1654 87.2818
L2.7505 87.9395
" />
<path d="M39.5884 44.4280
L39.0005 44.5559
" />
<path d="M131.8059 37.1497
L131.5632 35.8106
" />
<path d="M116.1972 60.4113
L117.4708 60.0534
" />
<path d="M97.6131 24.4482
L96.8006 25.1879
" />
<path d="M37.2596 115.3122
L37.2603 115.3182
" />
<path d="M136.1638 15.3552
L136.1299 15.3389
" />
<path d="M122.2836 57.8266
L123.3964 57.0761
" />
<path d="M128.8891 51.1894
L129.5550 50.0377
" />
<path d="M124.2932 22.4032
L124.2748 22.5270
" />
<path d="M130.1153 8.2692
L130.0462 8.2645
" />
<path d="M41.3562 27.2521
L41.3561 27.2567
" />
<path d="M92.8196 79.5772
L91.5101 79.2638
" />
<path d="M41.3824 34.9959
L41.3834 35.0022
" />
<path d="M87.3939 31.9291
L86.2702 31.9475
" />
<path d="M19.0592 66.0693
L18.8639 67.8552
" />
<path d="M103.2367 20.9807
L102.2188 21.4350
" />
<path d="M77.4611 104.8965
L78.3544 105.3558
" />
<path d="M131.7197 34.1593
L131.7708 33.8232
" />
<path d="M45.3747 21.4260
L44.9244 21.7547
" />
<path d="M89.7529 108.6737
L89.7592 108.6732
" />
<path d="M83.5543 107.4801
L84.3889 107.7266
" />
<path d="M1.8377 47.3360
L1.8601 47.9936
" />
<path d="M126.8094 11.4351
L126.7366 11.4972
" />
<path d="M130.3214 8.2987
L130.2530 8.2863
" />
<path d="M127.5452 10.6817
L127.4240 10.8239
" />
<path d="M123.9014 18.5449
L123.9176 18.5644
" />
<path d="M130.5904 8.3741
L130.5240 8.3513
" />
<path d="M90.7704 32.2446
L89.6465 32.0772
" />
<path d="M68.0845 28.6828
L67.9004 27.9245
" />
<path d="M126.4420 11.7270
L126.2854 11.8436
" />
<path d="M37.1339 101.5864
L37.5503 101.7823
" />
<path d="M43.1490 40.9180
L43.3337 41.4394
" />
<path d="M59.4558 126.4552
L60.2457 125.9212
" />
<path d="M128.6995 8.7535
L128.5966 8.8565
" />
<path d="M18.8196 68.3212
L18.7795 68.9003
" />
<path d="M135.5420 24.0067
L135.5504 22.5977
" />
<path d="M135.1785 13.6864
L135.1270 13.6101
" />
<path d="M124.1201 22.8996
L124.1112 22.9073
" />
<path d="M123.9792 18.6527
L123.9940 18.6775
" />
<path d="M85.8833 78.4219
L85.3899 78.3692
" />
<path d="M66.2934 45.4440
L66.3027 45.3727
" />
<path d="M128.5966 8.8565
L128.5478 8.9116
" />
<path d="M135.1135 29.3192
L135.1787 29.1625
" />
<path d="M1.8705 97.9913
L2.1654 98.7568
" />
<path d="M122.7436 16.9270
L122.7371 17.0436
" />
<path d="M98.4640 23.7521
L97.6131 24.4482
" />
<path d="M122.9449 16.2135
L122.8927 16.3327
" />
<path d="M39.3405 103.0083
L38.5326 106.3005
" />
<path d="M124.1173 14.8731
L124.0675 14.9201
" />
<path d="M102.9466 86.4286
L102.7292 86.0270
" />
<path d="M41.3811 34.9707
L41.3811 34.9770
" />
<path d="M131.3560 8.9032
L131.3057 8.8471
" />
<path d="M4.4329 55.2194
L4.4349 55.2224
" />
<path d="M100.7066 102.2859
L100.9949 101.8248
" />
<path d="M84.0528 77.8201
L84.0413 77.7743
" />
<path d="M43.6514 42.2567
L44.2061 43.5457
" />
<path d="M97.2524 106.3558
L97.2558 106.3530
" />
<path d="M13.2411 109.9226
L13.2449 109.9243
" />
<path d="M76.6782 34.7904
L75.7156 35.3943
" />
<path d="M81.8500 32.6245
L80.7760 32.9421
" />
<path d="M68.3512 30.2822
L68.2348 29.4688
" />
<path d="M123.0045 16.0948
L122.9449 16.2135
" />
<path d="M15.8998 78.1912
L14.7746 78.6732
" />
<path d="M136.8719 18.1716
L136.9025 18.1172
" />
<path d="M131.1447 8.6941
L131.0880 8.6483
" />
<path d="M103.9412 88.3981
L103.9407 88.3927
" />
<path d="M13.1005 32.4345
L12.3501 32.7694
" />
<path d="M84.0208 77.1701
L84.0279 77.0786
" />
<path d="M96.8006 25.1879
L96.0283 25.9693
" />
<path d="M2.0145 49.3090
L2.1469 49.9654
" />
<path d="M123.3640 18.2340
L123.4156 18.2643
" />
<path d="M123.0232 17.9320
L123.0587 17.9751
" />
<path d="M3.3685 53.2115
L4.4217 55.2006
" />
<path d="M132.7311 32.1172
L132.8652 31.9732
" />
<path d="M130.9703 8.5643
L130.9096 8.5261
" />
<path d="M123.7857 22.9611
L123.7313 22.9540
" />
<path d="M123.9936 22.9582
L123.9605 22.9637
" />
<path d="M123.1455 15.8602
L123.0714 15.9769
" />
<path d="M124.8332 13.8583
L124.8184 13.8984
" />
<path d="M84.3889 107.7266
L85.2129 107.9416
" />
<path d="M44.9244 21.7547
L44.5010 22.1047
" />
<path d="M135.5312 14.4164
L135.5253 14.3868
" />
<path d="M129.5550 50.0377
L130.1445 48.8493
" />
<path d="M101.3764 84.1725
L101.0527 83.8322
" />
<path d="M127.7119 10.4686
L127.6584 10.5394
" />
<path d="M4.4289 55.2132
L4.4309 55.2164
" />
<path d="M41.3587 27.2293
L41.3580 27.2337
" />
<path d="M93.4870 107.9676
L93.9745 107.8087
" />
<path d="M103.9420 88.4146
L103.9419 88.4091
" />
<path d="M136.6016 15.6036
L136.5549 15.5641
" />
<path d="M84.0719 76.6615
L84.1364 76.1590
" />
<path d="M131.4957 9.0869
L131.4511 9.0231
" />
<path d="M101.2309 21.9409
L100.2746 22.4968
" />
<path d="M88.6745 78.7530
L87.1482 78.5552
" />
<path d="M124.8839 13.5560
L124.8771 13.6126
" />
<path d="M4.4485 55.2395
L4.4510 55.2422
" />
<path d="M124.3072 22.2629
L124.2932 22.4032
" />
<path d="M124.3245 21.9336
L124.3175 22.1064
" />
<path d="M123.7980 18.4482
L123.8160 18.4620
" />
<path d="M66.6625 43.7416
L66.7938 43.2214
" />
<path d="M107.5136 19.7247
L106.4269 19.9506
" />
<path d="M131.5632 35.8106
L131.6041 35.1174
" />
<path d="M36.7523 45.1296
L36.3029 45.2676
" />
<path d="M124.2748 22.5270
L124.2639 22.5825
" />
<path d="M136.9025 18.1172
L136.9311 18.0613
" />
<path d="M99.7946 103.5753
L100.1061 103.1616
" />
<path d="M136.7295 15.7358
L136.6888 15.6896
" />
<path d="M124.0675 14.9201
L124.0168 14.9662
" />
<path d="M128.5009 8.9689
L128.4560 9.0287
" />
<path d="M135.1270 13.6101
L135.0726 13.5324
" />
<path d="M80.1204 106.1852
L80.9920 106.5548
" />
<path d="M41.3604 27.2202
L41.3595 27.2247
" />
<path d="M3.0489 52.5691
L3.3685 53.2115
" />
<path d="M97.2154 106.3787
L97.2193 106.3769
" />
<path d="M43.0559 23.7366
L42.7512 24.2075
" />
<path d="M66.2895 45.4679
L66.2908 45.4620
" />
<path d="M100.3520 83.1819
L99.9749 82.8719
" />
<path d="M122.7582 16.8093
L122.7436 16.9270
" />
<path d="M13.2807 109.9352
L13.2848 109.9360
" />
<path d="M33.6201 44.3349
L33.0493 43.2780
" />
<path d="M20.7092 31.9409
L19.9515 31.7615
" />
<path d="M58.0705 19.1332
L58.0640 19.1330
" />
<path d="M135.7031 14.9588
L135.6627 14.8969
" />
<path d="M8.1704 106.8480
L8.8465 107.4175
" />
<path d="M62.2076 104.9896
L61.8420 104.1615
" />
<path d="M124.2615 19.6564
L124.2872 19.8956
" />
<path d="M34.4457 45.8001
L34.4395 45.8011
" />
<path d="M13.2488 109.9259
L13.2527 109.9273
" />
<path d="M136.6016 18.5065
L136.6462 18.4646
" />
<path d="M123.0962 18.0168
L123.1358 18.0569
" />
<path d="M106.4269 19.9506
L105.3492 20.2355
" />
<path d="M103.9419 88.4091
L103.9416 88.4036
" />
<path d="M128.0148 9.9986
L127.9800 10.0616
" />
<path d="M119.3936 21.0769
L118.3621 20.6670
" />
<path d="M42.5599 39.1119
L42.9547 40.3448
" />
<path d="M43.5473 43.6993
L43.2829 43.7525
" />
<path d="M136.8719 15.9385
L136.8393 15.8854
" />
<path d="M37.7257 110.7419
L37.6301 111.4878
" />
<path d="M87.8903 71.2470
L89.4483 71.1021
" />
<path d="M130.7208 8.4272
L130.6560 8.3993
" />
<path d="M101.0527 83.8322
L100.7112 83.5020
" />
<path d="M135.7482 15.0193
L135.7031 14.9588
" />
<path d="M136.9025 15.9931
L136.8719 15.9385
" />
<path d="M123.7380 15.1984
L123.6219 15.3028
" />
<path d="M44.1036 22.4768
L43.7309 22.8723
" />
<path d="M124.4771 14.4746
L124.4366 14.5255
" />
<path d="M132.8652 31.9732
L133.1658 31.6609
" />
<path d="M96.7756 68.7904
L98.1118 68.0299
" />
<path d="M137.0949 16.5324
L137.0806 16.4691
" />
<path d="M124.1868 22.8106
L124.1788 22.8249
" />
<path d="M135.8062 19.3402
L135.8360 19.2419
" />
<path d="M131.5785 9.2221
L131.5382 9.1532
" />
<path d="M125.8454 12.2150
L125.7110 12.3431
" />
<path d="M122.8478 16.4521
L122.8104 16.5716
" />
<path d="M58.0964 19.1364
L58.0899 19.1352
" />
<path d="M123.6726 22.9443
L123.6096 22.9318
" />
<path d="M124.1788 22.8249
L124.1705 22.8382
" />
<path d="M66.2824 45.4909
L66.2845 45.4852
" />
<path d="M127.9014 10.1925
L127.8579 10.2600
" />
<path d="M131.9361 33.2589
L131.9928 33.1316
" />
<path d="M123.6830 18.3821
L123.7030 18.3912
" />
<path d="M63.6516 21.5063
L63.0665 21.1060
" />
<path d="M78.6825 33.7517
L77.6679 34.2427
" />
<path d="M97.2232 106.3748
L97.2271 106.3728
" />
<path d="M103.9284 88.3452
L103.9264 88.3401
" />
<path d="M103.9368 88.3712
L103.9355 88.3659
" />
<path d="M41.3858 35.0146
L41.3873 35.0207
" />
<path d="M99.1673 82.2820
L98.7368 82.0020
" />
<path d="M128.1219 9.7684
L128.1002 9.8223
" />
<path d="M25.5024 106.5736
L26.5239 105.7823
" />
<path d="M45.8532 21.1176
L45.3747 21.4260
" />
<path d="M4.4349 55.2224
L4.4370 55.2254
" />
<path d="M123.9643 18.6290
L123.9792 18.6527
" />
<path d="M84.0402 32.1663
L82.9389 32.3657
" />
<path d="M109.6074 60.9589
L110.9415 61.0183
" />
<path d="M124.0603 22.9380
L124.0484 22.9427
" />
<path d="M24.4778 107.2868
L25.5024 106.5736
" />
<path d="M37.9233 101.9474
L39.4389 102.6036
" />
<path d="M84.0279 77.0786
L84.0469 76.8803
" />
<path d="M123.8160 18.4620
L123.8337 18.4768
" />
<path d="M64.3792 111.7255
L64.0965 110.4416
" />
<path d="M32.8060 99.2387
L32.8181 99.2447
" />
<path d="M117.4708 60.0534
L118.7203 59.6150
" />
<path d="M132.3594 10.5108
L132.2270 10.3324
" />
<path d="M40.1517 44.3149
L39.5884 44.4280
" />
<path d="M130.3895 8.3136
L130.3214 8.2987
" />
<path d="M33.4997 99.6224
L33.8042 99.7964
" />
<path d="M128.1545 9.6692
L128.1400 9.7173
" />
<path d="M125.4648 12.6007
L125.3545 12.7285
" />
<path d="M67.4306 26.4920
L67.1447 25.8188
" />
<path d="M94.9196 107.4479
L95.3623 107.2506
" />
<path d="M37.2588 115.2879
L37.2588 115.2940
" />
<path d="M100.6129 66.2328
L101.7672 65.2017
" />
<path d="M41.3834 35.0022
L41.3845 35.0084
" />
<path d="M62.2553 123.9692
L62.8013 123.2068
" />
<path d="M103.1826 97.0787
L103.9154 94.9068
" />
<path d="M112.2716 60.9922
L113.5936 60.8817
" />
<path d="M136.9311 18.0613
L136.9578 18.0044
" />
<path d="M99.4760 103.9722
L99.7946 103.5753
" />
<path d="M29.3148 37.8511
L28.6470 37.1023
" />
<path d="M97.2308 106.3706
L97.2346 106.3683
" />
<path d="M137.1408 17.2532
L137.1450 17.1872
" />
<path d="M18.7106 70.3073
L18.6621 71.8957
" />
<path d="M124.8701 13.7211
L124.8643 13.7515
" />
<path d="M109.7047 19.4491
L108.6070 19.5576
" />
<path d="M10.1950 108.3960
L10.8577 108.7941
" />
<path d="M135.4528 14.1740
L135.4232 14.1101
" />
<path d="M49.8668 128.3509
L51.1392 128.4167
" />
<path d="M97.2419 106.3636
L97.2455 106.3611
" />
<path d="M124.0085 22.9548
L123.9936 22.9582
" />
<path d="M89.6465 32.0772
L88.5202 31.9722
" />
<path d="M136.0893 18.8048
L136.1081 18.7904
" />
<path d="M38.4056 44.6941
L37.8210 44.8387
" />
<path d="M84.1364 76.1590
L84.2153 75.5648
" />
<path d="M131.9937 9.9955
L131.8952 9.8400
" />
<path d="M124.5532 14.3728
L124.5160 14.4237
" />
<path d="M135.8670 19.1540
L135.8993 19.0762
" />
<path d="M119.9416 59.0970
L121.1307 58.5006
" />
<path d="M84.2158 78.0752
L84.1863 78.0504
" />
<path d="M1.4255 96.4755
L1.6239 97.2308
" />
<path d="M41.3561 27.2567
L41.3561 27.2613
" />
<path d="M136.7681 15.7840
L136.7295 15.7358
" />
<path d="M135.9665 18.9495
L135.9835 18.9233
" />
<path d="M13.3280 62.7521
L14.6529 63.5727
" />
<path d="M5.5684 104.1647
L6.1937 104.8853
" />
<path d="M13.2527 109.9273
L13.2566 109.9288
" />
<path d="M2.4572 43.4276
L2.2651 44.0716
" />
<path d="M81.8552 106.8940
L82.7095 107.2025
" />
<path d="M132.8052 11.0656
L132.6496 10.8789
" />
<path d="M42.3709 38.4872
L42.5599 39.1119
" />
<path d="M6.8391 105.5764
L7.4996 106.2325
" />
<path d="M124.7117 14.1239
L124.6840 14.1726
" />
<path d="M137.0058 16.2231
L136.9827 16.1640
" />
<path d="M1.1109 93.5135
L1.1180 94.2445
" />
<path d="M104.2830 20.5797
L103.2367 20.9807
" />
<path d="M101.2751 101.3491
L101.5466 100.8592
" />
<path d="M131.8101 9.6952
L131.7400 9.5627
" />
<path d="M34.4228 45.8033
L34.4170 45.8042
" />
<path d="M124.3326 21.0832
L124.3314 21.5400
" />
<path d="M8.0423 35.6565
L7.4153 36.2008
" />
<path d="M15.3045 110.0693
L16.3061 110.0925
" />
<path d="M21.4633 32.1699
L20.7092 31.9409
" />
<path d="M69.3514 101.8952
L70.0710 101.5896
" />
<path d="M137.1475 17.1212
L137.1483 17.0551
" />
<path d="M115.1767 19.7788
L114.0923 19.5973
" />
<path d="M58.0770 19.1336
L58.0705 19.1332
" />
<path d="M133.1310 11.4362
L132.9660 11.2519
" />
<path d="M130.6560 8.3993
L130.5904 8.3741
" />
<path d="M61.6465 124.6767
L62.2553 123.9692
" />
<path d="M135.7030 19.8441
L135.7262 19.7009
" />
<path d="M124.1112 22.9073
L124.1019 22.9145
" />
<path d="M122.9289 17.7952
L122.9897 17.8877
" />
<path d="M137.1351 17.3188
L137.1408 17.2532
" />
<path d="M34.4337 45.8019
L34.4228 45.8033
" />
<path d="M136.7680 18.3263
L136.8047 18.2764
" />
<path d="M42.4672 24.7054
L42.2024 25.2313
" />
<path d="M32.4626 42.2641
L31.8608 41.2936
" />
<path d="M33.9275 44.9203
L33.6201 44.3349
" />
<path d="M127.7630 10.3983
L127.7119 10.4686
" />
<path d="M19.3485 109.6560
L20.3714 109.3443
" />
<path d="M131.3057 8.8471
L131.2536 8.7935
" />
<path d="M63.2835 122.3918
L63.7006 121.5264
" />
<path d="M3.8620 101.8808
L4.3977 102.6568
" />
<path d="M67.6824 27.1940
L67.4306 26.4920
" />
<path d="M89.7404 108.6741
L89.7467 108.6740
" />
<path d="M103.9380 88.3765
L103.9368 88.3712
" />
<path d="M1.3737 91.3630
L1.2389 92.0724
" />
<path d="M94.0570 79.9296
L92.8196 79.5772
" />
<path d="M41.3595 27.2247
L41.3587 27.2293
" />
<path d="M37.5561 112.1724
L37.2592 115.2817
" />
<path d="M86.4678 78.4814
L85.8833 78.4219
" />
<path d="M124.2319 22.7023
L124.2248 22.7230
" />
<path d="M132.6072 32.2545
L132.7311 32.1172
" />
<path d="M124.1540 22.8617
L124.1456 22.8723
" />
<path d="M37.9658 109.1605
L37.8389 109.9582
" />
<path d="M14.6529 63.5727
L15.9401 64.3496
" />
<path d="M136.2914 18.7042
L136.3482 18.6784
" />
<path d="M84.3709 78.1642
L84.3262 78.1434
" />
<path d="M10.1881 60.7792
L10.1921 60.7818
" />
<path d="M136.9578 18.0044
L136.9827 17.9463
" />
<path d="M92.3331 31.4461
L91.8895 32.4750
" />
<path d="M48.5466 128.2112
L49.8668 128.3509
" />
<path d="M31.8608 41.2936
L31.2444 40.3665
" />
<path d="M66.4951 44.4385
L66.5465 44.2191
" />
<path d="M33.0493 43.2780
L32.4626 42.2641
" />
<path d="M89.7279 108.6737
L89.7341 108.6740
" />
<path d="M84.7332 78.2717
L84.6607 78.2556
" />
<path d="M79.2410 105.7855
L80.1204 106.1852
" />
<path d="M131.9017 42.4936
L132.0066 41.1674
" />
<path d="M124.2142 14.7765
L124.1662 14.8252
" />
<path d="M18.6405 73.4849
L18.6264 77.0600
" />
<path d="M35.3079 100.6528
L35.7611 100.8948
" />
<path d="M10.1729 60.7679
L10.1765 60.7708
" />
<path d="M99.1505 104.3516
L99.4760 103.9722
" />
<path d="M135.9327 19.0082
L135.9496 18.9777
" />
<path d="M4.9681 103.4200
L5.5684 104.1647
" />
<path d="M34.3968 45.7820
L34.3895 45.7698
" />
<path d="M97.8222 81.4722
L97.3380 81.2222
" />
<path d="M137.0645 16.4064
L137.0467 16.3444
" />
<path d="M41.3873 35.0207
L42.1952 37.8800
" />
<path d="M41.3627 27.2112
L41.3615 27.2157
" />
<path d="M123.3944 22.8772
L123.3140 22.8531
" />
<path d="M127.9800 10.0616
L127.9421 10.1262
" />
<path d="M85.1757 78.3432
L84.9825 78.3161
" />
<path d="M34.8798 100.4170
L35.3079 100.6528
" />
<path d="M10.1765 60.7708
L10.1803 60.7737
" />
<path d="M135.5565 14.6497
L135.5502 14.6200
" />
<path d="M135.1787 29.1625
L135.2371 28.9988
" />
<path d="M4.4234 55.2038
L4.4252 55.2070
" />
<path d="M103.9340 88.3606
L103.9323 88.3554
" />
<path d="M98.8185 104.7131
L99.1505 104.3516
" />
<path d="M3.2421 41.5245
L2.9460 42.1535
" />
<path d="M84.0138 77.5512
L84.0115 77.4845
" />
<path d="M128.4560 9.0287
L128.4132 9.0907
" />
<path d="M135.0726 13.5324
L135.0155 13.4536
" />
<path d="M80.7760 32.9421
L79.7193 33.3180
" />
<path d="M130.5240 8.3513
L130.4570 8.3312
" />
<path d="M124.5888 14.3223
L124.5532 14.3728
" />
<path d="M42.5554 43.8898
L41.6504 44.0524
" />
<path d="M136.1472 18.7653
L136.1676 18.7544
" />
<path d="M133.5124 31.3082
L133.8619 30.9523
" />
<path d="M135.8993 19.0762
L135.9327 19.0082
" />
<path d="M84.0157 77.2563
L84.0208 77.1701
" />
<path d="M124.8643 13.7515
L124.8562 13.7846
" />
<path d="M128.2040 9.5110
L128.1779 9.5890
" />
<path d="M79.7193 33.3180
L78.6825 33.7517
" />
<path d="M10.1623 60.7584
L10.1657 60.7616
" />
<path d="M128.9241 8.5761
L128.8088 8.6600
" />
<path d="M124.3071 20.1575
L124.3213 20.4424
" />
<path d="M22.2130 32.4482
L21.4633 32.1699
" />
<path d="M102.9792 97.6526
L103.1826 97.0787
" />
<path d="M32.6264 99.3976
L32.6957 99.3207
" />
<path d="M103.9240 88.3351
L103.9216 88.3302
" />
<path d="M38.5326 106.3005
L38.3899 106.9187
" />
<path d="M137.0272 17.8268
L137.0467 17.7658
" />
<path d="M52.3624 128.4099
L53.5355 128.3321
" />
<path d="M18.7429 69.5698
L18.7106 70.3073
" />
<path d="M136.5063 15.5270
L136.4556 15.4925
" />
<path d="M103.9391 88.3819
L103.9380 88.3765
" />
<path d="M123.7227 18.4011
L123.7420 18.4117
" />
<path d="M66.6390 50.3297
L66.5460 51.4684
" />
<path d="M12.3501 32.7694
L11.6049 33.1575
" />
<path d="M34.1905 45.4115
L34.0662 45.1810
" />
<path d="M136.8047 18.2764
L136.8393 18.2248
" />
<path d="M65.2104 22.8952
L64.7236 22.4012
" />
<path d="M34.4905 100.1943
L34.8798 100.4170
" />
<path d="M36.3029 45.2676
L35.9072 45.3932
" />
<path d="M136.8393 15.8854
L136.8047 15.8339
" />
<path d="M136.2327 18.7270
L136.2914 18.7042
" />
<path d="M66.3027 45.3727
L66.3191 45.2736
" />
<path d="M2.0599 89.2828
L1.7845 89.9679
" />
<path d="M93.9693 28.5487
L93.3747 29.4813
" />
<path d="M53.5355 128.3321
L54.6572 128.1847
" />
<path d="M136.1081 18.7904
L136.1274 18.7773
" />
<path d="M135.5998 20.9668
L135.6276 20.5401
" />
<path d="M123.6096 22.9318
L123.5422 22.9165
" />
<path d="M34.4608 45.7972
L34.4527 45.7988
" />
<path d="M23.6964 33.1513
L22.9577 32.7756
" />
<path d="M2.7671 51.9227
L3.0489 52.5691
" />
<path d="M131.8037 33.6707
L131.8420 33.5270
" />
<path d="M84.2153 75.5648
L84.7241 71.1974
" />
<path d="M135.5392 14.4756
L135.5359 14.4460
" />
<path d="M68.4529 43.8480
L68.0070 44.8754
" />
<path d="M135.3904 14.0441
L135.3544 13.9761
" />
<path d="M128.2640 9.3619
L128.2328 9.4353
" />
<path d="M135.7262 19.7009
L135.7512 19.5694
" />
<path d="M37.6998 117.8177
L37.9135 118.8516
" />
<path d="M34.2968 45.6052
L34.2461 45.5134
" />
<path d="M92.4874 70.4866
L93.9582 70.0215
" />
<path d="M9.7989 81.2644
L8.9349 81.8177
" />
<path d="M40.3071 123.9980
L40.8837 124.6712
" />
<path d="M37.5503 101.7823
L37.9233 101.9490
" />
<path d="M64.7869 115.3619
L64.7235 114.1872
" />
<path d="M62.8013 123.2068
L63.2835 122.3918
" />
<path d="M89.7592 108.6732
L89.7654 108.6724
" />
<path d="M101.6824 84.5230
L101.3764 84.1725
" />
<path d="M99.3518 23.1011
L98.4640 23.7521
" />
<path d="M2.1469 49.9654
L2.3163 50.6202
" />
<path d="M124.0765 18.8510
L124.1020 18.9188
" />
<path d="M134.5617 30.1863
L134.6741 30.0441
" />
<path d="M23.4513 107.9212
L24.4778 107.2868
" />
<path d="M21.3970 108.9508
L22.4240 108.4762
" />
<path d="M37.2588 115.2940
L37.2588 115.3000
" />
<path d="M135.9682 15.2364
L135.9080 15.1871
" />
<path d="M102.8504 64.0859
L103.8572 62.8882
" />
<path d="M92.5192 108.2305
L92.9994 108.1089
" />
<path d="M20.3714 109.3443
L21.3970 108.9508
" />
<path d="M135.5359 14.4460
L135.5312 14.4164
" />
<path d="M38.1815 119.8367
L38.5029 120.7720
" />
<path d="M125.2529 12.8539
L125.2056 12.9153
" />
<path d="M132.9660 11.2519
L132.8052 11.0656
" />
<path d="M135.4661 14.2053
L135.4528 14.1740
" />
<path d="M30.6142 39.4836
L29.9708 38.6450
" />
<path d="M108.6070 19.5576
L107.5136 19.7247
" />
<path d="M123.4692 18.2927
L123.5248 18.3191
" />
<path d="M131.6524 9.3676
L131.6167 9.2936
" />
<path d="M1.2389 92.0724
L1.1513 92.7894
" />
<path d="M132.2270 10.3324
L132.1048 10.1602
" />
<path d="M103.9295 91.6599
L103.9420 88.4146
" />
<path d="M137.1184 16.6610
L137.1075 16.5965
" />
<path d="M6.8205 36.7559
L6.2578 37.3214
" />
<path d="M128.5478 8.9116
L128.5009 8.9689
" />
<path d="M128.1779 9.5890
L128.1545 9.6692
" />
<path d="M124.9523 13.3282
L124.9293 13.3855
" />
<path d="M84.0413 77.7743
L84.0317 77.7247
" />
<path d="M105.6204 60.2580
L106.9428 60.5797
" />
<path d="M131.5382 9.1532
L131.4957 9.0869
" />
<path d="M78.3544 105.3558
L79.2410 105.7855
" />
<path d="M125.4853 55.3494
L126.4448 54.3843
" />
<path d="M74.7828 36.0540
L73.8878 36.7642
" />
<path d="M122.8104 16.5716
L122.7805 16.6908
" />
<path d="M135.5644 14.6798
L135.5565 14.6497
" />
<path d="M31.8022 100.3701
L32.0433 100.0792
" />
<path d="M50.7914 19.1604
L50.7843 19.1620
" />
<path d="M1.6239 97.2308
L1.8705 97.9913
" />
<path d="M131.6167 9.2936
L131.5785 9.2221
" />
<path d="M41.9561 25.7864
L41.3701 27.1895
" />
<path d="M106.9428 60.5797
L108.2731 60.8130
" />
<path d="M125.0788 13.0955
L125.0423 13.1544
" />
<path d="M66.9373 42.6708
L67.0903 42.1019
" />
<path d="M130.2530 8.2863
L130.1843 8.2764
" />
<path d="M108.2731 60.8130
L109.6074 60.9589
" />
<path d="M32.4607 99.5865
L32.5477 99.4866
" />
<path d="M134.7780 29.9028
L134.8736 29.7608
" />
<path d="M101.8092 100.3556
L102.0627 99.8391
" />
<path d="M89.7654 108.6724
L91.6107 108.4052
" />
<path d="M64.5460 51.1484
L66.2824 45.4909
" />
<path d="M122.8764 17.6980
L122.9289 17.7952
" />
<path d="M137.0949 17.5777
L137.1075 17.5137
" />
<path d="M37.9135 118.8516
L38.1815 119.8367
" />
<path d="M22.9577 32.7756
L22.2130 32.4482
" />
<path d="M34.5463 45.7785
L34.4608 45.7972
" />
<path d="M93.9582 70.0215
L95.3893 69.4552
" />
<path d="M41.6504 44.0524
L40.6733 44.2207
" />
<path d="M135.5978 14.7721
L135.5740 14.7103
" />
<path d="M137.1408 16.8570
L137.1351 16.7913
" />
<path d="M54.4420 19.1457
L50.8280 19.1567
" />
<path d="M64.0517 120.6120
L64.3361 119.6504
" />
<path d="M67.3837 40.9769
L67.6427 39.8767
" />
<path d="M135.3344 28.6463
L135.3742 28.4558
" />
<path d="M46.3608 20.8284
L45.8532 21.1176
" />
<path d="M40.8837 124.6712
L41.5090 125.2892
" />
<path d="M117.3139 20.3139
L116.2513 20.0178
" />
<path d="M66.3718 45.0008
L66.4074 44.8316
" />
<path d="M125.0089 13.2127
L124.9788 13.2707
" />
<path d="M9.5229 107.9353
L10.1950 108.3960
" />
<path d="M66.5465 44.2191
L66.6625 43.7416
" />
<path d="M126.1333 11.9644
L125.9864 12.0885
" />
<path d="M13.2685 109.9324
L13.2726 109.9334
" />
<path d="M131.7130 43.8067
L131.9017 42.4936
" />
<path d="M32.8181 99.2447
L32.8249 99.2481
" />
<path d="M44.5010 22.1047
L44.1036 22.4768
" />
<path d="M136.1886 18.7444
L136.2103 18.7353
" />
<path d="M68.4772 33.8062
L68.4968 32.8852
" />
<path d="M66.4074 44.8316
L66.4486 44.6434
" />
<path d="M92.8287 30.4477
L92.3331 31.4461
" />
<path d="M123.1358 18.0569
L123.1774 18.0956
" />
<path d="M67.0092 48.0934
L66.7938 49.2040
" />
<path d="M4.4535 55.2448
L4.4561 55.2474
" />
<path d="M6.6085 83.5443
L5.9221 84.1415
" />
<path d="M124.3289 21.7448
L124.3245 21.9336
" />
<path d="M17.6647 31.5245
L16.9005 31.5469
" />
<path d="M1.8514 46.6792
L1.8377 47.3360
" />
<path d="M124.2176 22.7427
L124.2101 22.7612
" />
<path d="M34.1369 99.9884
L34.4905 100.1943
" />
<path d="M124.0084 18.7034
L124.0226 18.7305
" />
<path d="M123.1399 22.7956
L123.0463 22.7621
" />
<path d="M134.7614 13.1273
L134.6204 12.9598
" />
<path d="M28.5533 103.9687
L29.5590 102.9478
" />
<path d="M16.1367 31.6207
L15.3740 31.7460
" />
<path d="M60.4032 19.8271
L59.6575 19.5894
" />
<path d="M39.3029 122.4899
L39.7799 123.2706
" />
<path d="M127.8579 10.2600
L127.8117 10.3287
" />
<path d="M129.1696 8.4376
L129.0446 8.5019
" />
<path d="M27.5412 104.9137
L28.5533 103.9687
" />
<path d="M42.1820 125.8512
L42.9021 126.3562
" />
<path d="M35.5351 45.5068
L35.1952 45.6063
" />
<path d="M136.9578 16.1058
L136.9311 16.0488
" />
<path d="M22.4240 108.4762
L23.4513 107.9212
" />
<path d="M123.6219 15.3028
L123.5127 15.4098
" />
<path d="M124.1928 19.2444
L124.2122 19.3392
" />
<path d="M133.1658 31.6609
L133.5124 31.3082
" />
<path d="M103.9400 88.3872
L103.9391 88.3819
" />
<path d="M135.2371 28.9988
L135.2889 28.8270
" />
<path d="M47.1795 127.9959
L48.5466 128.2112
" />
<path d="M135.9835 18.9233
L136.0006 18.8992
" />
<path d="M13.2645 109.9312
L13.2685 109.9324
" />
<path d="M131.4045 8.9618
L131.3560 8.9032
" />
<path d="M135.4624 27.8126
L135.4828 27.5696
" />
<path d="M98.1118 68.0299
L99.3927 67.1764
" />
<path d="M37.2592 115.2817
L37.2588 115.2879
" />
<path d="M123.2268 15.7448
L123.1455 15.8602
" />
<path d="M136.0636 15.3018
L136.0312 15.2812
" />
<path d="M35.1952 45.6063
L34.8967 45.6895
" />
<path d="M130.6562 47.6280
L131.0891 46.3779
" />
<path d="M124.0501 18.7883
L124.0765 18.8510
" />
<path d="M99.3927 67.1764
L100.6129 66.2328
" />
<path d="M136.3482 15.4319
L136.2914 15.4060
" />
<path d="M124.3175 22.1064
L124.3072 22.2629
" />
<path d="M89.7341 108.6740
L89.7404 108.6741
" />
<path d="M66.4486 44.6434
L66.4951 44.4385
" />
<path d="M4.6839 85.3673
L4.1324 85.9956
" />
<path d="M123.3964 57.0761
L124.4649 56.2500
" />
<path d="M123.5422 22.9165
L123.4704 22.8983
" />
<path d="M136.6888 18.4205
L136.7295 18.3744
" />
<path d="M124.2388 22.6805
L124.2319 22.7023
" />
<path d="M135.5420 14.5348
L135.5413 14.5052
" />
<path d="M124.8748 13.6692
L124.8736 13.6936
" />
<path d="M88.5202 31.9722
L87.3939 31.9291
" />
<path d="M123.7420 18.4117
L123.7610 18.4231
" />
<path d="M41.3653 27.2024
L41.3640 27.2068
" />
<path d="M66.7938 43.2214
L66.9373 42.6708
" />
<path d="M100.1061 103.1616
L100.4102 102.7316
" />
<path d="M135.5502 14.6200
L135.5457 14.5910
" />
<path d="M124.5160 14.4237
L124.4771 14.4746
" />
<path d="M75.7156 35.3943
L74.7828 36.0540
" />
<path d="M11.6049 33.1575
L10.8654 33.5990
" />
<path d="M131.4511 9.0231
L131.4045 8.9618
" />
<path d="M102.5410 98.7688
L102.7653 98.2161
" />
<path d="M43.3820 23.2919
L43.0559 23.7366
" />
<path d="M4.1324 85.9956
L3.6261 86.6338
" />
<path d="M63.3054 107.7759
L62.7953 106.3970
" />
<path d="M134.3102 30.4777
L134.4405 30.3304
" />
<path d="M33.2310 99.4708
L33.4997 99.6224
" />
<path d="M34.2461 45.5134
L34.1905 45.4115
" />
<path d="M134.4713 12.7908
L134.3148 12.6216
" />
<path d="M122.9897 17.8877
L123.0232 17.9320
" />
<path d="M126.5159 11.6726
L126.4420 11.7270
" />
<path d="M123.8849 18.5264
L123.9014 18.5449
" />
<path d="M129.8389 8.2660
L129.8388 8.2660
" />
<path d="M132.1274 32.8843
L132.2062 32.7620
" />
<path d="M123.4104 15.5193
L123.3151 15.6311
" />
<path d="M34.3855 45.7629
L34.3811 45.7552
" />
<path d="M13.2766 109.9344
L13.2807 109.9352
" />
<path d="M41.3573 27.2383
L41.3569 27.2429
" />
<path d="M123.1774 18.0956
L123.2210 18.1327
" />
<path d="M36.6877 101.3686
L37.1339 101.5864
" />
<path d="M136.0312 15.2812
L135.9682 15.2364
" />
<path d="M123.0463 22.7621
L122.9482 22.7254
" />
<path d="M40.6733 44.2207
L40.1517 44.3149
" />
<path d="M66.0845 23.9748
L65.6640 23.4199
" />
<path d="M70.1138 40.9328
L69.5075 41.8745
" />
<path d="M64.7236 22.4012
L64.2040 21.9380
" />
<path d="M102.3068 99.3099
L102.5410 98.7688
" />
<path d="M84.3262 78.1434
L84.2856 78.1216
" />
<path d="M127.9421 10.1262
L127.9014 10.1925
" />
<path d="M123.0714 15.9769
L123.0045 16.0948
" />
<path d="M102.7292 86.0270
L102.4940 85.6356
" />
<path d="M29.5590 102.9478
L30.5572 101.8520
" />
<path d="M77.6679 34.2427
L76.6782 34.7904
" />
<path d="M68.4337 31.1230
L68.3512 30.2822
" />
<path d="M128.1400 9.7173
L128.1219 9.7684
" />
<path d="M124.1662 14.8252
L124.1173 14.8731
" />
<path d="M103.9264 88.3401
L103.9240 88.3351
" />
<path d="M50.7701 19.1660
L48.7045 19.8457
" />
<path d="M58.6078 126.9285
L59.4558 126.4552
" />
<path d="M18.4285 31.5530
L17.6647 31.5245
" />
<path d="M132.2931 32.6391
L132.3887 32.5144
" />
<path d="M32.8249 99.2481
L32.8326 99.2521
" />
<path d="M137.0645 17.7038
L137.0806 17.6412
" />
<path d="M130.7848 8.4576
L130.7208 8.4272
" />
<path d="M129.2984 8.3831
L129.1696 8.4376
" />
<path d="M124.1456 22.8723
L124.1373 22.8820
" />
<path d="M10.8654 33.5990
L10.1128 34.0944
" />
<path d="M34.6484 45.7541
L34.5463 45.7785
" />
<path d="M82.7095 107.2025
L83.5543 107.4801
" />
<path d="M102.7653 98.2161
L102.9792 97.6526
" />
<path d="M124.2872 19.8956
L124.3071 20.1575
" />
<path d="M136.1980 15.3700
L136.1638 15.3552
" />
<path d="M130.9096 8.5261
L130.8477 8.4906
" />
<path d="M126.2854 11.8436
L126.1333 11.9644
" />
<path d="M123.8511 18.4924
L123.8682 18.5090
" />
<path d="M132.0264 39.8321
L131.9599 38.4915
" />
<path d="M135.2271 13.7613
L135.1785 13.6864
" />
<path d="M123.9232 22.9668
L123.8816 22.9674
" />
<path d="M97.2271 106.3728
L97.2308 106.3706
" />
<path d="M125.1606 12.9760
L125.1183 13.0360
" />
<path d="M68.2139 36.7263
L68.3358 35.7270
" />
<path d="M124.4366 14.5255
L124.3947 14.5764
" />
<path d="M10.1657 60.7616
L10.1693 60.7648
" />
<path d="M134.3148 12.6216
L134.1517 12.4529
" />
<path d="M103.9154 94.9068
L103.9295 91.6615
" />
<path d="M11.5061 109.1240
L13.2373 109.9208
" />
<path d="M4.4370 55.2254
L4.4392 55.2283
" />
<path d="M18.8623 67.8552
L18.8196 68.3212
" />
<path d="M96.8360 80.9820
L96.3161 80.7519
" />
<path d="M32.9122 99.2948
L33.0059 99.3459
" />
<path d="M66.4714 24.5599
L66.0845 23.9748
" />
<path d="M123.9940 18.6775
L124.0084 18.7034
" />
<path d="M135.7512 19.5694
L135.7780 19.4493
" />
<path d="M97.2655 106.3443
L97.2686 106.3412
" />
<path d="M38.5029 120.7720
L38.8770 121.6567
" />
<path d="M130.0462 8.2645
L129.9770 8.2625
" />
<path d="M123.8682 18.5090
L123.8849 18.5264
" />
<path d="M128.1479 52.3003
L128.8891 51.1894
" />
<path d="M124.0226 18.7305
L124.0501 18.7883
" />
<path d="M10.1693 60.7648
L10.1729 60.7679
" />
<path d="M37.9233 101.9490
L37.9233 101.9474
" />
<path d="M58.0577 19.1332
L54.4420 19.1457
" />
<path d="M32.0433 100.0792
L32.2646 99.8159
" />
<path d="M66.2880 45.4737
L66.2895 45.4679
" />
<path d="M123.9334 18.5849
L123.9490 18.6064
" />
<path d="M6.1937 104.8853
L6.8391 105.5764
" />
<path d="M18.3292 109.8851
L19.3485 109.6560
" />
<path d="M124.1288 22.8912
L124.1201 22.8996
" />
<path d="M50.7772 19.1639
L50.7701 19.1660
" />
<path d="M60.2457 125.9212
L60.9763 125.3278
" />
<path d="M135.4786 14.2363
L135.4661 14.2053
" />
<path d="M57.7028 127.3396
L58.6078 126.9285
" />
<path d="M135.9080 15.1871
L135.8511 15.1341
" />
<path d="M34.0662 45.1810
L33.9275 44.9203
" />
<path d="M14.6132 31.9232
L13.8551 32.1526
" />
<path d="M42.9547 40.3448
L43.1490 40.9180
" />
<path d="M128.2978 9.2906
L128.2640 9.3619
" />
<path d="M11.6584 80.1924
L10.7067 80.7226
" />
<path d="M135.4232 14.1101
L135.3904 14.0441
" />
<path d="M102.2412 85.2546
L101.9707 84.8837
" />
<path d="M38.3899 106.9187
L38.2452 107.6171
" />
<path d="M124.6544 14.2220
L124.6226 14.2720
" />
<path d="M64.7130 103.4528
L65.6525 103.1810
" />
<path d="M84.0469 76.8803
L84.0719 76.6615
" />
<path d="M135.5005 14.2972
L135.4901 14.2668
" />
<path d="M123.5127 15.4098
L123.4104 15.5193
" />
<path d="M123.2667 18.1682
L123.3143 18.2020
" />
<path d="M13.2373 109.9208
L13.2411 109.9226
" />
<path d="M37.8210 44.8387
L37.2641 44.9852
" />
<path d="M131.6041 35.1174
L131.6864 34.5442
" />
<path d="M28.6470 37.1023
L27.9681 36.3988
" />
<path d="M124.2639 22.5825
L124.2518 22.6337
" />
<path d="M137.1351 16.7913
L137.1276 16.7260
" />
<path d="M61.7992 20.4016
L61.1173 20.0979
" />
<path d="M135.8511 15.1341
L135.7976 15.0780
" />
<path d="M97.2591 106.3502
L97.2623 106.3472
" />
<path d="M110.8045 19.3990
L109.7047 19.4491
" />
<path d="M124.9101 13.4424
L124.8949 13.4992
" />
<path d="M132.6496 10.8789
L132.5007 10.6934
" />
<path d="M2.2651 44.0716
L2.1084 44.7192
" />
<path d="M134.4405 30.3304
L134.5617 30.1863
" />
<path d="M124.1020 18.9188
L124.1264 18.9920
" />
<path d="M124.1705 22.8382
L124.1623 22.8504
" />
<path d="M41.3640 27.2068
L41.3627 27.2112
" />
<path d="M42.9021 126.3562
L43.6684 126.8034
" />
<path d="M135.4084 28.2543
L135.4378 28.0404
" />
<path d="M61.8420 104.1615
L63.8436 103.6787
" />
<path d="M124.0715 22.9328
L124.0603 22.9380
" />
<path d="M124.2300 19.4394
L124.2465 19.5452
" />
<path d="M45.3364 127.5208
L46.2364 127.7890
" />
<path d="M48.7045 19.8457
L48.0694 20.0673
" />
<path d="M7.3092 58.0021
L10.1623 60.7584
" />
<path d="M124.0922 22.9211
L124.0820 22.9272
" />
<path d="M122.7391 17.1588
L122.7497 17.2723
" />
<path d="M26.5792 35.1296
L25.8706 34.5644
" />
<path d="M137.1450 16.9229
L137.1408 16.8570
" />
<path d="M125.9864 12.0885
L125.8454 12.2150
" />
<path d="M16.3061 110.0925
L17.3146 110.0308
" />
<path d="M122.2636 22.4428
L121.3969 22.0663
" />
<path d="M95.2978 26.7911
L94.6109 27.6514
" />
<path d="M7.4153 36.2008
L6.8205 36.7559
" />
<path d="M42.7512 24.2075
L42.4672 24.7054
" />
<path d="M131.6858 9.4441
L131.6524 9.3676
" />
<path d="M122.7497 17.2723
L122.7688 17.3833
" />
<path d="M128.0750 9.8788
L128.0465 9.9376
" />
<path d="M129.9770 8.2625
L129.9079 8.2629
" />
<path d="M65.6525 103.1810
L66.6242 102.8763
" />
<path d="M42.1952 37.8800
L42.3709 38.4872
" />
<path d="M5.9221 84.1415
L5.2805 84.7492
" />
<path d="M96.3161 80.7519
L95.7782 80.5316
" />
<path d="M2.3821 88.6066
L2.0599 89.2828
" />
<path d="M87.1482 78.5552
L86.4678 78.4814
" />
<path d="M136.1676 18.7544
L136.1886 18.7444
" />
<path d="M41.3845 35.0084
L41.3858 35.0146
" />
<path d="M66.7938 49.2040
L66.6390 50.3297
" />
<path d="M137.0467 16.3444
L137.0272 16.2833
" />
<path d="M124.0226 22.9511
L124.0085 22.9548
" />
<path d="M46.2364 127.7890
L47.1795 127.9959
" />
<path d="M113.5936 60.8817
L114.9035 60.6878
" />
<path d="M136.0710 18.8205
L136.0893 18.8048
" />
<path d="M135.0410 29.4704
L135.1135 29.3192
" />
<path d="M131.8860 33.3903
L131.9361 33.2589
" />
<path d="M135.4901 14.2668
L135.4786 14.2363
" />
<path d="M122.7688 17.3833
L122.7963 17.4916
" />
<path d="M126.8816 11.3714
L126.8094 11.4351
" />
<path d="M38.2452 107.6171
L38.1025 108.3723
" />
<path d="M84.2856 78.1216
L84.2488 78.0989
" />
<path d="M35.9072 45.3932
L35.5351 45.5068
" />
<path d="M98.7368 82.0020
L98.2884 81.7321
" />
<path d="M2.3163 50.6202
L2.5229 51.2728
" />
<path d="M135.5413 14.5052
L135.5392 14.4756
" />
<path d="M129.8388 8.2660
L129.7013 8.2800
" />
<path d="M137.1450 17.1872
L137.1475 17.1212
" />
<path d="M130.8477 8.4906
L130.7848 8.4576
" />
<path d="M131.8420 33.5270
L131.8860 33.3903
" />
<path d="M8.7010 35.1237
L8.0423 35.6565
" />
<path d="M17.8249 65.4287
L19.0592 66.0693
" />
<path d="M97.2383 106.3660
L97.2419 106.3636
" />
<path d="M124.2465 19.5452
L124.2615 19.6564
" />
<path d="M31.2444 40.3665
L30.6142 39.4836
" />
<path d="M56.7420 127.6869
L57.7028 127.3396
" />
<path d="M2.5129 99.5296
L2.9147 100.3116
" />
<path d="M64.3361 119.6504
L64.5526 118.6429
" />
<path d="M123.6420 18.3660
L123.6830 18.3821
" />
<path d="M125.0423 13.1544
L125.0089 13.2127
" />
<path d="M97.3380 81.2222
L96.8360 80.9820
" />
<path d="M97.2716 106.3380
L98.8185 104.7131
" />
<path d="M54.6572 128.1847
L55.7264 127.9691
" />
<path d="M17.4848 65.2451
L17.8249 65.4287
" />
<path d="M137.1184 17.4492
L137.1276 17.3842
" />
<path d="M136.1274 18.7773
L136.1472 18.7653
" />
<path d="M102.0627 99.8391
L102.3068 99.3099
" />
<path d="M1.1513 92.7894
L1.1109 93.5135
" />
<path d="M96.0283 25.9693
L95.2978 26.7911
" />
<path d="M41.3569 27.2429
L41.3565 27.2475
" />
<path d="M94.6109 27.6514
L93.9693 28.5487
" />
<path d="M50.7987 19.1591
L50.7914 19.1604
" />
<path d="M135.8360 19.2419
L135.8670 19.1540
" />
<path d="M1.9013 46.0236
L1.8514 46.6792
" />
<path d="M64.5879 112.9745
L64.3792 111.7255
" />
<path d="M124.2024 22.7788
L124.1947 22.7952
" />
<path d="M123.5824 18.3436
L123.6420 18.3660
" />
<path d="M32.7947 99.2332
L32.8060 99.2387
" />
<path d="M25.8706 34.5644
L25.1535 34.0461
" />
<path d="M102.2188 21.4350
L101.2309 21.9409
" />
<path d="M123.7796 18.4352
L123.7980 18.4482
" />
<path d="M124.0168 14.9662
L123.9654 15.0112
" />
<path d="M135.3152 13.9062
L135.2727 13.8346
" />
<path d="M132.5007 10.6934
L132.3594 10.5108
" />
<path d="M134.8736 29.7608
L134.9612 29.6172
" />
<path d="M67.5900 102.5517
L68.5116 102.2204
" />
<path d="M34.4108 45.8052
L34.4037 45.7934
" />
<path d="M93.3747 29.4813
L92.8287 30.4477
" />
<path d="M136.1299 15.3389
L136.0964 15.3211
" />
<path d="M103.9304 88.3503
L103.9284 88.3452
" />
<path d="M64.5460 51.1484
L66.5460 51.4684
" />
<g >
</g>
<g >
</g>
<g >
</g>
<g >
</g>
<g >
</g>
<g >
</g>
<g >
</g>
<g >
</g>
<g >
</g>
<g >
</g>
<g >
</g>
<g >
</g>
<g >
</g>
<g >
</g>
<g >
</g>
<g >
</g>
<g >
</g>
<g >
</g>
<g >
</g>
<g >
</g>
<g >
</g>
<g >
</g>
<g >
</g>
<g >
</g>
<g >
</g>
<g >
</g>
<g >
</g>
<g >
</g>
<g >
</g>
<g >
</g>
<g >
</g>
<g >
</g>
<g >
</g>
<g >
</g>
<g >
</g>
<g >
</g>
<g >
</g>
<g >
</g>
<g >
</g>
<g >
</g>
<g >
</g>
<g >
</g>
<g >
</g>
<g >
</g>
<g >
</g>
<g >
</g>
<g >
</g>
<g >
</g>
<g >
</g>
<g >
</g>
<g >
</g>
<g >
</g>
<g >
</g>
<g >
</g>
<g >
</g>
<g >
</g>
<g >
</g>
<g >
</g>
<g >
</g>
<g >
</g>
<g >
</g>
<g >
</g>
<g >
</g>
<g >
</g>
<g >
</g>
<g >
</g>
<g >
</g>
<g >
</g>
<g >
</g>
<g >
</g>
<g >
</g>
<g >
</g>
<g >
</g>
<g >
</g>
<g >
</g>
<g >
</g>
<g >
</g>
<g >
</g>
<g >
</g>
</g> 
</svg>
