<?xml version="1.0" encoding="UTF-8"?>
<!-- Generator: Blender, SVG Export for Grease Pencil - v1.0 -->
<!DOCTYPE svg PUBLIC "-//W3C//DTD SVG 1.1//EN" "http://www.w3.org/Graphics/SVG/1.1/DTD/svg11.dtd">
<svg version="1.0" x="0px" y="0px" xmlns="http://www.w3.org/2000/svg" width="508px" height="451px" viewBox="0 0 508 451">
	<g id="blender_frame_1">
		<g id="blender_object_GPencil.002">
			<!--Layer: Curve_017_Fills-->
			<g id="Curve_017_Fills">
				<polygon fill="#000000" stroke="none" fill-opacity="1" points="389.570068,197.759644 385.396118,196.727295 383.462280,199.396851 381.383667,202.281372 379.164551,205.187622 376.809814,208.110962 374.323608,210.608276 371.710571,212.981079 368.975464,215.472290 366.122681,217.927612 363.156616,219.967896 360.082153,222.000610 356.903809,224.136353 353.625610,225.932129 350.264648,227.732544 346.838257,229.351318 343.352539,231.043579 339.813843,232.774048 336.228149,233.814819 332.601929,234.493774 328.941162,235.438599 325.252075,235.906128 321.540894,236.198608 317.813965,236.314697 314.077271,236.253296 310.336914,236.013062 308.509399,251.697388 308.225708,253.831421 307.994263,255.635864 307.836060,257.133911 307.884277,259.632202 307.954468,261.204712 309.642578,261.463501 311.265137,261.578003 312.728394,261.768799 314.500854,261.957886 316.600342,262.171509 319.044189,262.436768 324.526855,263.146973 329.194824,264.122192 333.670288,265.094116 337.787476,266.053467 341.436890,266.986206 344.586548,267.880981 347.282227,268.738892 349.620972,269.572632 351.711182,270.401489 353.640015,271.243286 355.463013,272.110718 357.206421,273.010132 358.879883,273.943970 360.483521,274.913696 362.012451,275.919067 363.458252,276.960571 364.812988,278.038208 366.072144,279.152466 367.117065,280.513916 368.154297,281.904907 369.174194,283.351929 370.170532,284.870972 371.133911,286.471802 372.056274,288.141724 372.928955,289.872681 373.739502,291.618286 374.483032,293.369629 375.145142,295.062012 375.730103,296.699829 376.229736,298.239136 376.654663,299.680786 377.010132,301.042603 377.304321,302.288818 377.554932,303.507568 377.761475,304.624268 377.945312,305.760132 378.099976,306.837769 378.241089,307.958496 378.360596,309.073730 378.464600,310.239624 378.546753,311.437134 378.604736,312.685791 378.632812,313.980347 378.625366,315.323730 378.576660,316.713989 378.479736,318.150269 378.329956,319.630737 378.121582,321.156616 377.852661,322.725098 377.517700,324.340332 377.120850,325.997070 376.659424,327.700439 376.144043,329.440063 375.578979,331.216919 374.981567,333.015869 374.365112,334.829468 373.469116,336.805298 372.557251,338.726685 371.629272,340.590332 370.679688,342.398560 369.703979,344.154175 368.699707,345.857788 367.666138,347.508789 366.602661,349.106567 365.507812,350.652954 364.376709,352.153198 363.198608,353.618530 361.954712,355.065308 360.619507,356.509766 359.165649,357.959229 357.578979,359.401733 355.869995,360.803101 354.076904,362.116455 352.253174,363.301147 350.444702,364.338745 348.674316,365.237183 346.938354,366.020508 345.216187,366.714966 343.475708,367.340942 341.669678,367.912842 339.726807,368.443726 337.560913,368.949585 335.114014,369.446411 332.414795,369.944458 330.990601,370.108154 328.116455,370.261353 325.087158,370.080933 323.324585,369.865356 319.427002,369.178467 315.768921,368.472290 312.373413,367.724976 309.174683,366.911987 306.080444,366.012085 303.017700,365.012085 299.945801,363.905396 296.849243,362.690918 293.724854,361.371216 290.574463,359.953003 287.402344,358.449219 284.214355,356.881470 281.017822,355.279053 277.767212,353.419312 274.498779,351.455688 271.214844,349.389404 261.572632,343.183228 259.720581,344.176392 257.703369,345.158081 255.118530,346.255859 252.102173,347.423462 248.791504,348.613403 245.322388,349.778931 241.832275,350.873291 238.457520,351.849487 235.334473,352.660522 228.144775,354.394409 229.458008,357.368530 231.569214,362.422729 233.401367,367.374512 234.958374,372.218140 236.242798,376.947876 237.258301,381.558350 238.008057,386.043945 238.495117,390.398804 238.722778,394.617554 238.693970,398.694458 238.412598,402.624146 237.881348,406.400513 237.103394,410.018311 236.082153,413.471680 234.820923,416.755493 233.322754,419.863403 231.590820,422.790405 229.629272,425.528076 227.442749,428.068970 225.035278,430.407227 222.410889,432.538208 219.573730,434.455933 216.527832,436.155518 213.276978,437.631958 209.825806,438.879395 206.177734,439.892700 202.337158,440.666870 198.308105,441.196167 194.094604,441.475708 189.700562,441.500122 185.130371,441.264038 180.388184,440.762085 175.477417,439.988892 172.090088,439.245972 168.857056,438.282593 165.781494,437.101562 162.865845,435.706421 160.113403,434.100464 157.526733,432.286743 155.109253,430.268433 152.863281,428.049194 150.791992,425.631714 148.898315,423.019409 147.185059,420.215698 145.655151,417.223511 144.311523,414.046509 143.156982,410.687378 142.194214,407.150024 141.426758,403.431519 140.222534,394.417236 140.910278,383.163208 141.176147,380.704712 141.519531,378.026001 141.926147,375.211792 142.382202,372.347046 142.873291,369.516235 143.385620,366.804321 143.905518,364.296021 144.418091,362.076050 147.319824,350.253052 147.673218,348.799927 142.229248,346.443115 140.889648,345.850220 139.393921,345.146851 137.791382,344.364624 136.131226,343.527954 134.462769,342.662964 132.834961,341.794067 131.297363,340.947144 129.898804,340.147339 128.628906,339.407837 125.374878,337.549316 123.663086,336.780762 122.607910,337.964722 121.108765,339.734253 119.324829,341.898071 115.770508,346.100342 112.185181,350.035767 108.572754,353.702026 104.937378,357.095825 101.282959,360.214966 97.613770,363.056763 93.933594,365.618286 90.246460,367.896606 86.556152,369.889526 82.867432,371.593750 79.183472,373.006958 75.509033,374.126343 71.847778,374.949097 68.203491,375.472534 64.580688,375.694092 60.983032,375.610718 53.585327,375.089844 47.339355,372.215698 45.010254,371.030884 42.630127,369.601685 40.215942,367.947144 37.786133,366.087524 35.357666,364.042358 32.948120,361.831909 30.575684,359.475830 28.257568,356.993896 26.011230,354.405884 23.854980,351.731689 21.806030,348.990845 19.881836,346.203857 18.100586,343.389771 16.479370,340.568726 15.035889,337.760376 13.787842,334.985107 12.728394,332.235962 11.842773,329.504639 11.130127,326.792358 10.589966,324.099976 10.222046,321.429077 10.025635,318.780396 10.000000,316.155151 10.145142,313.554810 10.459961,310.979980 10.944214,308.432251 11.597656,305.912354 12.419556,303.422119 13.408813,300.961914 14.566162,298.533325 15.889648,296.137573 17.379883,293.775757 19.034790,291.448608 20.853271,289.156616 22.834229,286.900513 24.977417,284.680786 27.281982,282.498169 29.747559,280.353638 32.373413,278.247437 35.159058,276.180298 38.103638,274.153076 41.207153,272.166138 44.468018,270.220337 47.886475,268.316040 51.461670,266.453979 55.193115,264.635498 59.079834,262.860229 63.121582,261.129272 72.915283,257.066895 72.965942,244.228149 72.990845,241.414673 73.043579,238.520874 73.217896,232.816772 73.333984,230.168091 73.465332,227.763672 73.609375,225.684204 73.768433,224.010742 74.469971,217.597046 73.361450,217.021973 72.162354,216.399048 70.780518,215.680054 69.605713,215.053833 68.638672,214.520630 67.676025,213.985718 66.542847,213.337280 65.238770,212.575073 63.908081,211.794800 62.477905,210.943726 60.948853,210.021851 59.407104,209.090210 58.627808,208.616577 57.830688,208.126099 56.217041,207.127808 54.504761,206.065063 53.405884,205.377686 51.821045,204.376953 48.166504,202.062500 44.431274,199.645630 42.599731,198.332764 40.841919,196.811279 37.401367,193.561035 33.975098,190.267944 32.261597,188.615234 30.548218,186.951538 27.122925,183.614624 23.793091,180.318481 22.371948,178.779907 21.439819,177.461792 20.064209,175.046631 18.823975,172.745117 17.988403,171.163818 17.554688,170.301392 17.162476,169.510193 16.797119,168.728333 15.806763,166.404114 15.222046,164.848389 14.702881,163.287720 14.339722,162.115356 14.027344,160.940063 13.731079,159.764038 13.485229,158.585693 13.255493,157.406860 13.075928,156.226440 12.871094,154.652100 12.730103,153.077148 12.652588,151.502563 12.620239,150.321960 12.655518,148.356079 12.813110,146.001221 13.099487,143.653198 13.366821,142.093201 13.680420,140.537048 14.155396,138.599365 14.492676,137.442383 14.845215,136.287048 15.245361,135.137573 15.660645,133.990295 16.123291,132.849731 16.772461,131.334229 17.481689,129.828430 18.647461,127.587646 19.935181,125.370422 20.391357,124.636902 20.866089,123.907349 21.588013,122.815063 22.355225,121.733398 22.873413,121.013855 23.409668,120.298584 23.964111,119.588013 24.521973,118.878235 25.097778,118.173340 25.691650,117.473145 26.592041,116.425415 27.537231,115.390564 28.173706,114.702393 28.827881,114.019592 29.499878,113.342163 30.175171,112.665771 30.868164,111.994873 31.578735,111.329834 32.292725,110.666016 33.024170,110.007935 33.773193,109.355835 34.906006,108.381226 36.082153,107.421997 36.872559,106.784912 37.680054,106.154175 38.504883,105.530029 39.333008,104.907227 40.178101,104.291138 41.040405,103.681885 41.905884,103.073975 42.788086,102.473511 43.686768,101.880371 45.034790,101.003296 46.365967,100.198853 47.695557,99.417603 49.032959,98.709229 49.925537,98.247559 50.820923,97.814819 51.718994,97.411133 52.617554,97.013062 53.518555,96.643799 54.421875,96.303589 55.325562,95.968872 56.231201,95.662720 57.138672,95.385376 58.500732,94.984619 59.866455,94.655151 61.233276,94.348145 62.602661,94.112061 63.972656,93.898193 65.344360,93.754639 66.258911,93.669067 67.173706,93.611572 68.088501,93.581909 69.003418,93.557861 69.918213,93.561523 70.832642,93.592896 71.747070,93.629639 72.660767,93.693970 73.573608,93.786011 74.942627,93.938965 76.309082,94.160278 77.219482,94.317871 78.128418,94.502686 79.035645,94.714844 79.942749,94.932129 80.847656,95.176636 81.750732,95.448120 82.653442,95.724731 83.553711,96.028442 84.451538,96.358887 85.348999,96.694702 86.243774,97.057251 87.135498,97.446533 88.026733,97.840942 88.914795,98.261841 89.799561,98.708984 90.683716,99.161377 91.564209,99.639771 92.441162,100.144409 93.317505,100.654175 94.189819,101.189697 95.058105,101.751221 95.925781,102.317627 96.789062,102.909912 97.648071,103.527832 98.506226,104.150879 99.359741,104.799194 100.208618,105.473267 101.479126,106.497925 102.737183,107.586060 103.991089,108.694214 105.231567,109.865234 106.056519,110.655029 106.875854,111.469727 107.689209,112.309265 108.501587,113.153809 109.307861,114.022949 110.108032,114.916931 110.907104,115.815674 111.699463,116.739075 112.485474,117.687012 113.660767,119.122192 114.819092,120.618286 115.588867,121.624451 116.351196,122.654846 117.106445,123.709534 117.860229,124.768799 118.606567,125.852112 119.345215,126.959534 120.449097,128.633423 121.533203,130.366882 122.252930,131.531006 122.964478,132.718750 123.667725,133.930176 124.369141,135.145874 125.060303,136.381287 125.740601,137.635925 126.704468,139.422729 127.324585,140.595215 127.876587,141.646362 129.021118,143.776306 130.099365,144.728394 133.651123,143.752686 136.409058,142.893494 138.023193,142.397888 139.861694,141.879517 141.862061,141.353271 143.962036,140.834106 146.098877,140.337646 148.210327,139.878601 150.234009,139.472290 152.107178,139.133911 155.617310,138.529419 158.867920,137.945557 161.481079,137.452515 163.079712,137.119629 164.796997,136.709900 163.463135,133.592957 162.832275,132.091309 162.283936,130.727295 161.876709,129.686829 161.334229,128.214233 160.997559,127.260071 160.647095,126.230347 160.049194,124.422119 159.593140,122.999878 158.935547,120.939270 158.548828,119.677368 158.098633,118.170105 157.637939,116.535583 157.135376,114.448181 156.377319,111.154785 155.612671,107.692627 155.276001,105.811157 155.035278,103.647095 154.653687,99.053467 154.318115,94.408813 154.222778,92.083374 154.272705,89.772583 154.517456,85.189087 154.803589,80.729980 154.984619,78.813599 155.238647,77.537842 155.816162,75.635742 156.394409,73.903198 156.841431,72.677490 157.452515,71.278687 158.076294,69.995728 158.723145,68.754150 159.755859,66.982056 160.484741,65.855713 161.643555,64.242920 162.883179,62.720825 163.760498,61.757935 164.669434,60.825928 165.862915,59.716064 166.617798,59.082764 167.384033,58.458862 168.186890,57.864136 169.001831,57.278076 170.428955,56.352173 171.626221,55.647095 172.544312,55.131836 173.503784,54.641602 174.812866,54.004395 176.174683,53.398193 177.594849,52.820068 179.065063,52.261230 180.701050,51.712158 182.362671,51.313599 184.826294,50.799561 187.442749,50.283691 188.958740,50.049683 190.877319,49.866089 195.102295,49.551514 199.403687,49.259033 201.564331,49.145874 203.723755,49.099609 208.019287,49.075439 212.211548,49.087769 214.044189,49.157227 215.336060,49.351685 217.369629,49.863281 219.256348,50.387695 220.672729,50.801758 221.620605,51.100830 222.968140,51.539307 224.258057,52.018677 225.110474,52.344116 225.947754,52.688721 226.765015,53.050171 227.579102,53.415039 228.377930,53.798706 229.156982,54.199097 230.317017,54.809570 231.433105,55.463989 232.535156,56.132080 234.290894,57.324219 236.294678,58.855835 237.561157,59.944824 238.487305,60.782959 239.949097,62.255737 241.057617,63.492676 241.865112,64.441284 242.627319,65.431274 243.375244,66.434204 244.538574,68.179443 245.407227,69.632690 246.034912,70.742920 246.616455,71.893188 247.183472,73.055908 247.704224,74.258667 248.044434,75.065308 248.367065,75.889893 248.670044,76.728027 249.115112,77.994629 249.513794,79.300049 249.772827,80.174927 250.014038,81.067749 250.235962,81.973267 250.559326,83.340820 250.836548,84.746216 251.014648,85.687622 251.174683,86.646851 251.315674,87.618164 251.453125,88.592407 251.572388,89.584473 251.672852,90.588501 251.769775,91.595459 251.848267,92.619995 251.907959,93.656250 251.964233,94.695312 252.002075,95.752075 252.021118,96.820435 252.036865,97.891479 252.033813,98.980347 252.012207,100.080444 251.969604,101.739746 251.880615,103.435303 251.814819,104.569580 251.729980,105.721436 251.626831,106.884277 251.461304,108.641113 251.238159,110.505737 251.046753,111.990112 250.854492,113.343079 250.471680,115.900146 249.787842,119.671753 248.980835,123.533569 248.050415,127.484863 246.996582,131.524841 246.447144,133.567810 245.931763,135.545166 245.460083,137.413513 245.043457,139.128113 244.415894,141.935364 244.094971,143.695557 237.857788,164.013000 245.041626,165.162170 245.324707,161.553772 245.781860,157.974121 246.410889,154.429321 247.209717,150.925232 248.176270,147.467896 249.308228,144.063232 250.603638,140.717346 252.060181,137.436096 253.675781,134.225586 255.448242,131.091675 257.375366,128.040588 259.455200,125.077942 261.677124,122.220520 264.028442,119.482727 266.504395,116.868408 269.099731,114.381653 271.809204,112.026123 274.627930,109.805542 277.550781,107.724121 280.572632,105.785156 283.688354,103.992676 286.892944,102.350586 290.181274,100.862671 293.548218,99.532593 296.976074,98.368408 300.446167,97.375488 303.952271,96.554321 307.487671,95.905029 311.046509,95.428345 314.622314,95.124512 318.208496,94.993774 321.798828,95.036865 325.386963,95.253906 328.966553,95.645142 332.531372,96.211304 336.074829,96.952515 337.470581,93.687378 339.015503,90.501221 340.705688,87.398682 342.537842,84.384399 344.507935,81.463013 346.612549,78.639526 348.847778,75.918091 351.210327,73.303833 353.696167,70.801025 356.302002,68.414673 359.023926,66.149292 361.858276,64.009521 364.791260,62.006958 367.807251,60.151001 370.901001,58.443726 374.066772,56.887207 377.298828,55.483154 380.591919,54.233887 383.940186,53.140991 387.338013,52.206787 390.779907,51.432983 394.260376,50.821655 397.773804,50.374878 401.314209,50.094482 404.864136,49.982544 408.405273,50.039185 411.931885,50.262817 415.438110,50.652222 418.918457,51.205933 422.366943,51.922852 425.777588,52.801270 429.145020,53.840210 432.463257,55.038208 435.726318,56.393677 438.928833,57.905640 442.064941,59.572632 446.065430,61.304443 447.636963,61.939575 449.239624,62.484619 451.496216,62.750122 452.468140,60.782593 452.596558,58.417969 452.609741,56.042236 452.569092,53.740967 452.354248,50.917969 452.107666,49.438477 451.496216,47.593140 450.556641,46.489136 448.951904,45.694946 447.567749,44.234131 446.924072,42.356323 446.954590,40.693604 447.625244,38.553955 448.637573,36.870605 450.473877,34.908569 451.657349,33.909058 453.402222,31.943726 454.147583,30.710693 454.565552,29.213623 455.158813,27.567871 456.280518,26.038696 458.043701,24.194458 460.717285,22.043457 463.254395,19.705688 464.748047,17.922852 465.575073,16.693115 466.220825,15.408081 466.731445,13.948242 467.582275,12.537109 469.535156,10.859863 471.404297,10.150024 472.884277,10.000000 474.365845,10.183838 476.011963,10.819336 478.179199,12.731567 479.022339,14.243652 479.774292,15.665161 480.966309,17.433716 482.484253,19.396118 483.620483,20.735718 485.426880,22.677734 487.273438,24.449951 488.465576,25.654541 489.563477,26.869263 490.543701,28.063232 491.906250,30.010742 492.871216,32.418945 493.307129,33.825806 494.404419,35.044800 495.966064,35.850708 497.863159,37.962524 498.400269,39.471802 498.640503,41.813843 498.208374,44.347778 497.533691,45.776855 496.512085,46.930908 494.976440,47.761230 493.929565,49.429565 493.535278,51.078003 493.181152,54.091797 493.081299,55.624146 493.002808,57.359741 492.903931,61.481079 492.873657,66.540894 492.862671,72.684326 492.831543,75.204102 492.768188,77.408569 492.661133,79.336304 492.499390,81.026855 491.964600,83.851807 491.334351,85.619263 490.472778,87.205322 489.352539,88.733276 487.947388,90.325439 486.838745,91.484131 485.583252,92.762329 484.338501,94.028931 483.258545,95.150635 481.203735,97.541870 480.353516,98.863281 479.741577,100.239624 479.327393,101.794312 479.024170,104.383545 478.728760,106.442017 478.581787,108.931396 479.364990,113.158264 479.902344,117.405579 480.195312,121.662659 480.244873,125.919556 480.052612,130.165649 479.619995,134.390808 478.948120,138.584595 478.038696,142.736633 476.892578,146.836670 475.511597,150.874329 473.896973,154.839294 472.049805,158.721375 469.982910,162.490906 467.712646,166.120667 465.246582,169.603638 462.592407,172.932495 459.757812,176.100220 456.750122,179.099609 453.577026,181.923462 450.246094,184.564819 446.765015,187.016235 443.141235,189.270874 439.382568,191.321411 435.496216,193.160767 431.510620,194.773926 427.455933,196.150269 423.342651,197.289185 419.181152,198.189697 414.981567,198.851196 410.754395,199.273071 406.510254,199.454346 402.259277,199.394409 398.012085,199.092407 393.778687,198.547729" />
			</g>
		</g>
	</g>
</svg>
