<?xml version="1.0" encoding="utf-8"?>
<!-- Generator: Adobe Illustrator 27.5.0, SVG Export Plug-In . SVG Version: 6.00 Build 0)  -->
<svg version="1.1" id="Layer_1" xmlns="http://www.w3.org/2000/svg" xmlns:xlink="http://www.w3.org/1999/xlink" x="0px" y="0px"
	 viewBox="0 0 500 200" style="enable-background:new 0 0 500 200;" xml:space="preserve">
<style type="text/css">
	.st0{fill:#FF6D2D;}
	.st1{fill:#FFFFFF;}
	.st2{fill:#7C7D7F;}
</style>
<g id="Arrow_4">
</g>
<g>
	<path d="M151,60.5l-30.5-17.6c-5.7-3.3-6.5-3.3-12.2,0L77.7,60.5c-3.4,1.9-6.1,6.7-6.1,10.6v35.3c0,3.9,2.8,8.7,6.1,10.6l30.5,17.6
		c5.7,3.3,6.5,3.3,12.2,0L151,117c3.4-1.9,6.1-6.7,6.1-10.6V71.1C157.1,67.2,154.4,62.4,151,60.5z"/>
	<path class="st1" d="M113.1,99.2L113.1,99.2l-7.1,0c-1.9,0-3.8,0.1-5.4-0.2c-4.6-0.8-7.8-2.9-10.6-6.8c-2.5-3.5-3.4-7.9-2.4-12.3
		c1-4.8,4.3-9.2,8.6-11.7l8-4.6c1.2-0.7,7.9-4.6,9.1-5.3c0.6-0.4,1.1,0,1.1,0.9c0,0.6,0,6.1,0,6.7c0,0.8-0.5,1.8-1.1,2.2
		c-1.2,0.7-3.7,2.1-4.9,2.8l-8,4.6c-2.3,1.3-4,3.7-4.6,6.2c-0.3,1.5-0.4,3.6,1.1,5.7c1.6,2.2,3.1,3.6,6.6,3.6c3.5,0,17.5,0,21.2-0.1
		c2.3,0,4.1,1.5,4.1,3.7c0,1.5-0.8,2.9-2.2,3.7l-11.9,6.9c-0.1,0.1-0.3,0-0.4-0.1c0,0,0-0.1,0-0.1v-4.4
		C114.3,99.7,113.7,99.2,113.1,99.2z"/>
	<path class="st1" d="M141.1,97.6c-1.1,4.8-4.3,9.2-8.6,11.7l-8,4.6c-1.2,0.7-7.9,4.6-9.1,5.3c-0.6,0.4-1.1,0-1.1-0.9
		c0-0.6,0-6.1,0-6.7c0-0.8,0.5-1.8,1.1-2.2c1.2-0.7,3.7-2.1,4.9-2.8l8-4.6c2.3-1.3,4-3.7,4.6-6.2c0.3-1.5,0.4-3.6-1.1-5.7
		c-1.6-2.2-3.1-3.6-6.6-3.6c-3.5,0-17.5,0-21.2,0.1c-2.3,0-4.1-1.5-4.1-3.7c0-1.5,0.8-2.9,2.2-3.7l11.9-6.9c0.1-0.1,0.3,0,0.4,0.1
		c0,0,0,0.1,0,0.1V77c0,0.7,0.6,1.3,1.2,1.3v0l7.1,0c1.9,0,3.8-0.1,5.4,0.2c4.6,0.8,7.8,2.9,10.6,6.8
		C141.2,88.8,142.1,93.2,141.1,97.6z"/>
	<path d="M198.1,87.7h-5.3v8.2h-2.5V74.6h7.9c3.9,0,5.1,2.9,5.1,6.5C203.4,84.9,202.1,87.7,198.1,87.7z M197.8,76.9h-5v8.4h5
		c2.3,0,3-1.7,3-4.2C200.8,78.6,200.1,76.9,197.8,76.9z M206,81.1h2.4v11c0,1.4,0.8,2,2.1,2c1.7,0,3.3-0.6,4.6-1.3V81.1h2.4v14.8
		h-1.9l-0.2-1h0c-1.6,0.9-3.2,1.4-5.1,1.4c-2.5,0-4.2-1.3-4.2-3.7V81.1z M232.2,88.8h-8.9c0,4.4,1.7,5.2,4.1,5.2
		c1.3,0,2.8-0.2,4.2-0.5l0.1,2.2c-1.1,0.3-2.9,0.5-4.2,0.5c-4.3,0-6.7-1.8-6.7-7.9c0-5.4,1.9-7.6,6.2-7.6c4.2,0,5.2,2.5,5.2,6.2
		V88.8z M229.8,86.8c0-2.3-0.2-4-2.8-4c-2.3,0-3.4,0.8-3.6,4H229.8z M242.8,83.1c-0.3,0-0.7-0.1-0.9-0.1c-1.6,0-2.9,0.6-3.9,2v10.8
		h-2.4V81.1h1.8l0.3,1.5h0.1c1.1-1.2,2.2-1.8,4-1.8c0.3,0,0.9,0,1.2,0.1L242.8,83.1z M249.2,83.3v9.3c0,0.8,0.3,1.4,1.4,1.4
		c0.7,0,2-0.1,3-0.3l0.1,2.1c-1.2,0.3-2.2,0.4-3.2,0.4c-2.9,0-3.7-1.5-3.7-3.3v-9.6h-2.3v-1.9l2.3-0.3l0.1-4h2.3v4h4.5v2.2H249.2z
		 M262,96.2c-4.2,0-6.4-2.2-6.4-7.7c0-5.5,2.2-7.7,6.4-7.7c4.2,0,6.4,2.2,6.4,7.7C268.4,94,266.2,96.2,262,96.2z M262,82.9
		c-2.4,0-3.9,1.1-3.9,5.5c0,4.4,1.6,5.5,3.9,5.5c2.4,0,3.9-1.1,3.9-5.5C265.9,84,264.4,82.9,262,82.9z M287.1,87l4.5,8.9h-2.8
		l-4.3-8.8h-3.6v8.8h-2.5V74.6h7.9c3.9,0,5.1,2.8,5.1,6.3C291.4,84.1,290.3,86.6,287.1,87z M285.8,76.9h-5v7.8h5c2.3,0,3-1.5,3-3.9
		C288.8,78.5,288.1,76.9,285.8,76.9z M294.6,77.5v-3.1h2.6v3.1H294.6z M294.8,95.9V81.1h2.4v14.8H294.8z M307.2,80.8
		c1.1,0,2.2,0.1,3.4,0.3l-0.1,2.1c-1-0.2-2.4-0.3-3.3-0.3c-3.7,0-4.2,3.1-4.2,5.6c0,4.4,1.6,5.5,4.1,5.5c1.1,0,2.3-0.2,3.6-0.3
		l0.1,2.2c-1.1,0.2-2.5,0.4-3.5,0.4c-4.3,0-6.7-2-6.7-7.7C300.6,82.8,302.9,80.8,307.2,80.8z M319.6,96.2c-4.2,0-6.4-2.2-6.4-7.7
		c0-5.5,2.2-7.7,6.4-7.7c4.2,0,6.4,2.2,6.4,7.7C326,94,323.8,96.2,319.6,96.2z M319.6,82.9c-2.4,0-3.9,1.1-3.9,5.5
		c0,4.4,1.6,5.5,3.9,5.5c2.4,0,3.9-1.1,3.9-5.5C323.5,84,322,82.9,319.6,82.9z M194.1,127.9c-1.6,0-3.5-0.2-4.6-0.3l0.1-2.5
		c1.5,0.2,3.1,0.3,4.8,0.3c2.4,0,4.5-0.6,4.5-2.8c0-1.6-0.9-2.3-1.9-3l-4.4-3.1c-1.5-1-3.5-2.5-3.5-5.5c0-3.9,3-4.9,6.7-4.9
		c1.4,0,3.1,0.1,4.4,0.3l-0.1,2.4c-1.4-0.2-2.9-0.3-4.6-0.3c-2.3,0-3.8,0.5-3.8,2.6c0,1.5,0.9,2.3,1.7,2.9l4.6,3.2
		c2.2,1.5,3.5,2.7,3.5,5.5C201.5,126.7,197.8,127.9,194.1,127.9z M210.8,112.5c1.1,0,2.2,0.1,3.4,0.3l-0.1,2.1
		c-1-0.2-2.4-0.3-3.3-0.3c-3.7,0-4.2,3.1-4.2,5.6c0,4.4,1.6,5.4,4.1,5.4c1.1,0,2.3-0.2,3.6-0.3l0.1,2.2c-1.1,0.3-2.5,0.4-3.5,0.4
		c-4.3,0-6.7-2-6.7-7.7C204.1,114.5,206.4,112.5,210.8,112.5z M217.3,109.3v-3.1h2.6v3.1H217.3z M217.4,127.6v-14.8h2.4v14.8H217.4z
		 M234.7,120.5h-8.9c0,4.4,1.7,5.2,4.1,5.2c1.3,0,2.8-0.2,4.2-0.5l0.1,2.2c-1.1,0.3-2.9,0.5-4.2,0.5c-4.3,0-6.7-1.8-6.7-7.9
		c0-5.4,1.9-7.6,6.2-7.6c4.2,0,5.2,2.5,5.2,6.2V120.5z M232.3,118.5c0-2.3-0.2-4-2.8-4c-2.3,0-3.4,0.9-3.6,4H232.3z M249.4,127.6
		H247v-11.1c0-1.4-0.8-2-2.1-2c-1.7,0-3.3,0.6-4.6,1.3v11.7H238v-14.8h1.9l0.2,1h0c1.6-0.9,3.2-1.3,5.1-1.3c2.5,0,4.2,1.3,4.2,3.7
		V127.6z M259.2,112.5c1.1,0,2.2,0.1,3.4,0.3l-0.1,2.1c-1-0.2-2.4-0.3-3.3-0.3c-3.7,0-4.2,3.1-4.2,5.6c0,4.4,1.6,5.4,4.1,5.4
		c1.1,0,2.3-0.2,3.6-0.3l0.1,2.2c-1.1,0.3-2.5,0.4-3.5,0.4c-4.3,0-6.7-2-6.7-7.7C252.6,114.5,254.8,112.5,259.2,112.5z M276.5,120.5
		h-8.9c0,4.4,1.7,5.2,4.1,5.2c1.3,0,2.8-0.2,4.2-0.5l0.1,2.2c-1.1,0.3-2.9,0.5-4.2,0.5c-4.3,0-6.7-1.8-6.7-7.9
		c0-5.4,1.9-7.6,6.2-7.6c4.2,0,5.2,2.5,5.2,6.2V120.5z M274.2,118.5c0-2.3-0.2-4-2.8-4c-2.3,0-3.4,0.9-3.6,4H274.2z M283.6,127.2
		c-0.5,1.4-1.4,3.2-2.1,4.4h-2c0.4-1,1.1-3.5,1.4-4.4l-0.1-3h2.9L283.6,127.2z M300.9,108.7v18.9h-2.5v-18.9h-5.6v-2.3h13.8v2.3
		H300.9z M317.4,120.5h-8.9c0,4.4,1.7,5.2,4.1,5.2c1.3,0,2.8-0.2,4.2-0.5l0.1,2.2c-1.1,0.3-2.9,0.5-4.2,0.5c-4.3,0-6.7-1.8-6.7-7.9
		c0-5.4,1.9-7.6,6.2-7.6c4.2,0,5.2,2.5,5.2,6.2V120.5z M315.1,118.5c0-2.3-0.2-4-2.8-4c-2.3,0-3.4,0.9-3.6,4H315.1z M326.8,112.5
		c1.1,0,2.2,0.1,3.4,0.3l-0.1,2.1c-1-0.2-2.4-0.3-3.3-0.3c-3.7,0-4.2,3.1-4.2,5.6c0,4.4,1.6,5.4,4.1,5.4c1.1,0,2.3-0.2,3.6-0.3
		l0.1,2.2c-1.1,0.3-2.5,0.4-3.5,0.4c-4.3,0-6.7-2-6.7-7.7C320.1,114.5,322.4,112.5,326.8,112.5z M344.9,127.6h-2.4v-11.1
		c0-1.4-0.8-2-2.1-2c-1.7,0-3.3,0.6-4.6,1.3v11.7h-2.4v-22.2h2.4v8.3h0.1c1.4-0.8,3-1.2,4.8-1.2c2.5,0,4.2,1.3,4.2,3.7V127.6z
		 M360.2,127.6h-2.4v-11.1c0-1.4-0.8-2-2.1-2c-1.7,0-3.3,0.6-4.6,1.3v11.7h-2.4v-14.8h1.9l0.2,1h0c1.6-0.9,3.2-1.3,5.1-1.3
		c2.5,0,4.2,1.3,4.2,3.7V127.6z M369.7,127.9c-4.2,0-6.4-2.2-6.4-7.7c0-5.5,2.2-7.7,6.4-7.7c4.2,0,6.4,2.2,6.4,7.7
		C376.1,125.7,373.9,127.9,369.7,127.9z M369.7,114.6c-2.4,0-3.9,1.1-3.9,5.5c0,4.4,1.6,5.5,3.9,5.5c2.4,0,3.9-1.1,3.9-5.5
		C373.7,115.7,372.1,114.6,369.7,114.6z M379.6,127.6v-22.2h2.4v22.2H379.6z M391.9,127.9c-4.2,0-6.4-2.2-6.4-7.7
		c0-5.5,2.2-7.7,6.4-7.7c4.2,0,6.4,2.2,6.4,7.7C398.3,125.7,396.1,127.9,391.9,127.9z M391.9,114.6c-2.4,0-3.9,1.1-3.9,5.5
		c0,4.4,1.6,5.5,3.9,5.5c2.4,0,3.9-1.1,3.9-5.5C395.8,115.7,394.3,114.6,391.9,114.6z M414.6,114.7c-0.9,0.2-2.1,0.3-3.2,0.4v0.1
		c0.4,0.7,0.8,1.7,0.8,2.8c0,4.1-2.2,5.6-5.6,5.6c-0.4,0-1,0-1.4-0.1l-0.7,0.9c-0.2,0.3-0.4,0.7-0.4,1c0,0.3,0.2,0.5,0.8,0.5h4.5
		c3.1,0,4.2,1.6,4.2,3.7c0,1.4-0.4,2.4-1.2,3.1c-1.4,1.4-3.9,1.7-5.9,1.7c-1.7,0-3.6-0.3-4.6-1.3c-0.6-0.6-0.9-1.4-0.9-2.4
		c0-1.1,0.6-2.2,1.5-3.1v0c-0.4-0.3-0.9-0.9-0.9-1.8c0-0.8,0.4-1.4,0.8-1.9l0.9-1.1v0c-1.2-0.8-2-2.3-2-4.8c0-4,2.3-5.5,5.6-5.5
		c1.5,0,2.6,0.5,4.2,0.5c1.1,0,2.7-0.2,3.6-0.4L414.6,114.7z M409.3,128h-4.6c-0.9,0.8-1.5,1.4-1.5,2.3c0,0.5,0.1,0.9,0.4,1.2
		c0.7,0.6,2,0.7,3.1,0.7c0.9,0,2.8-0.1,3.8-1c0.4-0.4,0.7-1,0.7-1.7C411.2,128.8,410.8,128,409.3,128z M406.7,114.6
		c-1.8,0-3.3,0.7-3.3,3.3c0,2.8,1.4,3.5,3.3,3.5c1.9,0,3.2-0.7,3.2-3.5C409.9,115.3,408.5,114.6,406.7,114.6z M426,112.8h2.5
		l-5.4,16.3c-1,3.1-1.8,5.1-5.4,5.1c-0.7,0-1.4-0.1-1.9-0.3l0.1-2.1c0.6,0.1,1.2,0.2,1.7,0.2c0.8,0,1.4-0.1,1.9-0.6
		c0.6-0.6,1-1.5,1.4-2.8l-5.3-15.8h2.6l3.4,10.4c0.2,0.6,0.3,1.3,0.6,2.2h0.1c0.2-1,0.4-1.7,0.6-2.2L426,112.8z M196.7,148.8
		c0.8,1.4,2.7,4.2,4,5.4c0.6-1,1.1-2.4,1.4-3.6l2.4,0.7c-0.4,1.5-1,3.3-2,4.6c0.7,0.8,1.5,1.2,2.5,1.2c0.3,0,0.6,0,1-0.1l0.1,2.4
		c-0.5,0.1-1,0.2-1.4,0.2c-1.2,0-2.8-0.5-3.9-1.6c-1.3,1-3.1,1.6-4.8,1.6c-4.4,0-5.9-2.7-5.9-5.4c0-2.6,1.7-4.7,3.4-6.1
		c-1.4-2-2.1-3.7-2.1-5.6c0-2.8,1.2-4.8,4.4-4.8c3.3,0,4.6,2,4.6,4.5C200.2,145.1,198.3,147.3,196.7,148.8z M199,156.2
		c-1.4-1.5-3.4-4.3-4.3-5.8c-1.1,0.9-2.1,2.4-2.1,3.9c0,1.7,1.1,3,3.2,3C196.8,157.2,198.1,156.9,199,156.2z M195.7,139.9
		c-1,0-2,0.5-2,2.4c0,1.3,0.5,2.9,1.6,4.4c1.1-0.9,2.4-2.5,2.4-4.3C197.8,140.4,196.8,139.9,195.7,139.9z M223.9,150.4l4.5,8.9h-2.8
		l-4.3-8.8h-3.6v8.8h-2.5V138h7.9c3.9,0,5.1,2.8,5.1,6.3C228.2,147.6,227.1,150.1,223.9,150.4z M222.7,140.4h-5v7.8h5
		c2.3,0,3-1.5,3-3.9C225.7,141.9,224.9,140.4,222.7,140.4z M241.8,152.2h-8.9c0,4.4,1.7,5.2,4.1,5.2c1.3,0,2.8-0.2,4.2-0.5l0.1,2.2
		c-1.1,0.3-2.9,0.5-4.2,0.5c-4.3,0-6.7-1.8-6.7-7.9c0-5.4,1.9-7.6,6.2-7.6c4.2,0,5.2,2.5,5.2,6.2V152.2z M239.4,150.2
		c0-2.3-0.2-4-2.8-4c-2.3,0-3.4,0.8-3.6,4H239.4z M248.8,159.6c-1,0-2.9-0.1-4-0.3l0.1-2.2c0.8,0.1,2.3,0.3,3.8,0.3
		c1.7,0,3.2-0.4,3.2-1.8c0-0.9-0.7-1.3-1.4-1.7l-3.4-2.1c-1.3-0.8-2.7-1.8-2.7-4c0-2.6,2-3.7,5.1-3.7c1,0,2.8,0.1,3.9,0.3l-0.1,2.1
		c-0.7-0.1-2-0.3-3.3-0.3c-1.6,0-3.1,0.2-3.1,1.5c0,0.9,0.6,1.4,1.2,1.7l3.5,2.2c1.7,1.1,2.7,1.9,2.7,3.9
		C254.3,158.5,251.8,159.6,248.8,159.6z M268.3,152.2h-8.9c0,4.4,1.7,5.2,4.1,5.2c1.3,0,2.8-0.2,4.2-0.5l0.1,2.2
		c-1.1,0.3-2.9,0.5-4.2,0.5c-4.3,0-6.7-1.8-6.7-7.9c0-5.4,1.9-7.6,6.2-7.6c4.2,0,5.2,2.5,5.2,6.2V152.2z M265.9,150.2
		c0-2.3-0.2-4-2.8-4c-2.3,0-3.4,0.8-3.6,4H265.9z M279.7,159.3l-0.2-0.9h0c-1.2,0.7-2.7,1.1-4.2,1.1c-2.4,0-4.7-1.2-4.7-4.3
		c0-0.8,0.2-2.1,1.1-3c1.6-1.6,5.1-1.6,7.5-1.6v-2.3c0-1.6-0.9-2-2.6-2c-1.6,0-3.6,0.3-4.7,0.6l-0.1-2.1c1.1-0.3,3.2-0.6,4.8-0.6
		c2.7,0,5,0.8,5,3.7v11.5H279.7z M279.2,152.6c-1.5,0-4.6,0-5.6,1c-0.5,0.5-0.5,1.1-0.5,1.6c0,1.7,1.1,2.2,2.4,2.2
		c1.4,0,2.9-0.5,3.7-1.1V152.6z M292.6,146.5c-0.3,0-0.7-0.1-0.9-0.1c-1.6,0-2.9,0.6-3.9,2v10.8h-2.4v-14.8h1.8l0.3,1.5h0.1
		c1.1-1.2,2.2-1.8,4-1.8c0.3,0,0.9,0,1.2,0.1L292.6,146.5z M300.8,144.2c1.1,0,2.2,0.1,3.4,0.3l-0.1,2.1c-1-0.2-2.4-0.3-3.3-0.3
		c-3.7,0-4.2,3.1-4.2,5.6c0,4.4,1.6,5.4,4.1,5.4c1.1,0,2.3-0.2,3.6-0.3l0.1,2.2c-1.1,0.3-2.5,0.4-3.5,0.4c-4.3,0-6.7-1.9-6.7-7.6
		C294.1,146.2,296.4,144.2,300.8,144.2z M318.9,159.3h-2.4v-11.1c0-1.4-0.8-2-2.1-2c-1.7,0-3.3,0.6-4.6,1.3v11.7h-2.4v-22.2h2.4v8.3
		h0.1c1.4-0.8,3-1.2,4.8-1.2c2.5,0,4.2,1.3,4.2,3.7V159.3z M335.6,140.4v18.9h-2.5v-18.9h-5.6V138h13.8v2.3H335.6z M348.7,146.5
		c-0.3,0-0.7-0.1-0.9-0.1c-1.6,0-2.9,0.6-3.9,2v10.8h-2.4v-14.8h1.8l0.3,1.5h0.1c1.1-1.2,2.2-1.8,4-1.8c0.3,0,0.9,0,1.2,0.1
		L348.7,146.5z M351,144.5h2.4v11.1c0,1.4,0.8,2,2.1,2c1.7,0,3.3-0.6,4.6-1.3v-11.7h2.4v14.8h-1.9l-0.2-1h0
		c-1.6,0.9-3.2,1.4-5.1,1.4c-2.5,0-4.2-1.3-4.2-3.7V144.5z M370.2,159.6c-1,0-2.9-0.1-4-0.3l0.1-2.2c0.8,0.1,2.3,0.3,3.7,0.3
		c1.7,0,3.2-0.4,3.2-1.8c0-0.9-0.7-1.3-1.4-1.7l-3.4-2.1c-1.3-0.8-2.7-1.8-2.7-4c0-2.6,2-3.7,5.1-3.7c1,0,2.8,0.1,3.9,0.3l-0.1,2.1
		c-0.7-0.1-2-0.3-3.3-0.3c-1.6,0-3.1,0.2-3.1,1.5c0,0.9,0.6,1.4,1.2,1.7l3.5,2.2c1.7,1.1,2.7,1.9,2.7,3.9
		C375.7,158.5,373.1,159.6,370.2,159.6z M381.9,146.7v9.3c0,0.8,0.3,1.4,1.4,1.4c0.7,0,2-0.1,3-0.3l0.1,2.1
		c-1.2,0.3-2.2,0.4-3.2,0.4c-2.9,0-3.7-1.5-3.7-3.3v-9.6h-2.3v-1.9l2.3-0.3l0.1-4h2.3v4h4.5v2.2H381.9z"/>
</g>
</svg>
