%TF.GenerationSoftware,KiCad,Pcbnew,7.0.9*%
%TF.CreationDate,2024-01-30T18:45:20-06:00*%
%TF.ProjectId,bsidesPR,62736964-6573-4505-922e-6b696361645f,rev?*%
%TF.SameCoordinates,Original*%
%TF.FileFunction,Profile,NP*%
%FSLAX46Y46*%
G04 Gerber Fmt 4.6, Leading zero omitted, Abs format (unit mm)*
G04 Created by KiCad (PCBNEW 7.0.9) date 2024-01-30 18:45:20*
%MOMM*%
%LPD*%
G01*
G04 APERTURE LIST*
%TA.AperFunction,Profile*%
%ADD10C,0.100000*%
%TD*%
%TA.AperFunction,Profile*%
%ADD11C,0.155759*%
%TD*%
G04 APERTURE END LIST*
D10*
X95165972Y-133960101D02*
G75*
G03*
X95165972Y-133960101I-1500000J0D01*
G01*
X179239972Y-114275101D02*
G75*
G03*
X179239972Y-114275101I-1500000J0D01*
G01*
D11*
X213240659Y-41127442D02*
X213210972Y-41065040D01*
X213096018Y-53862562D02*
X213125779Y-53325761D01*
X82378904Y-65367438D02*
X81947623Y-65968958D01*
X168595551Y-97140598D02*
X170100609Y-96779472D01*
X116490183Y-147949598D02*
X116916099Y-148782801D01*
X128752341Y-154709595D02*
X129975620Y-154702796D01*
X118981620Y-53486722D02*
X118980021Y-53491041D01*
X118981778Y-57408961D02*
X118994260Y-61263602D01*
X201944578Y-47832960D02*
X201942099Y-48037681D01*
X112030179Y-72097120D02*
X112023942Y-72098157D01*
X83870984Y-63614319D02*
X83340824Y-64189600D01*
X112509861Y-71982398D02*
X112378818Y-72017200D01*
X135703061Y-45428162D02*
X135696659Y-45427280D01*
X204349778Y-37790082D02*
X204276499Y-37850400D01*
X161862009Y-104391840D02*
X161828977Y-104368079D01*
X162337290Y-97490320D02*
X163927038Y-97572615D01*
X118994980Y-61282560D02*
X118995621Y-61288801D01*
X213156089Y-40855442D02*
X213155210Y-40827680D01*
X178324411Y-109794880D02*
X177965134Y-109474799D01*
X171587693Y-134101600D02*
X172067698Y-133927674D01*
X87805225Y-87074720D02*
X90941144Y-89045038D01*
X112378818Y-72017200D02*
X112261539Y-72047040D01*
X213904575Y-41698881D02*
X213845859Y-41676160D01*
X146109940Y-59178080D02*
X146095383Y-58283600D01*
X202431540Y-40191282D02*
X202414499Y-40233362D01*
X214068735Y-41785441D02*
X214016099Y-41753681D01*
X147684183Y-127882484D02*
X148245780Y-127609119D01*
X146095383Y-58283600D02*
X146046903Y-57415922D01*
X81947623Y-65968958D02*
X81549704Y-66578156D01*
X143904978Y-71748957D02*
X143905863Y-71742957D01*
X138730423Y-46390800D02*
X138016422Y-46120002D01*
X174862095Y-132651356D02*
X174865537Y-132648719D01*
X174847776Y-132661194D02*
X174851450Y-132658875D01*
X163927038Y-97572615D02*
X165503505Y-97539923D01*
X96392664Y-95193195D02*
X96356104Y-95862720D01*
X112065860Y-72091761D02*
X112058902Y-72093037D01*
X202297214Y-40465522D02*
X202267539Y-40514960D01*
X209508335Y-36132883D02*
X209423301Y-35988082D01*
X209717930Y-36453123D02*
X209606894Y-36288402D01*
X178608091Y-128117762D02*
X178888254Y-127641993D01*
X161694333Y-104193757D02*
X161679209Y-104155115D01*
X173391379Y-106824476D02*
X172835618Y-106613996D01*
X201446897Y-44769761D02*
X201464255Y-44785361D01*
X140679703Y-47398960D02*
X140062180Y-47030640D01*
X160552049Y-58658631D02*
X159463154Y-58917413D01*
X214595859Y-44239200D02*
X214618979Y-44180002D01*
X161750412Y-104290320D02*
X161729929Y-104261201D01*
X79397626Y-116260804D02*
X79168825Y-116954236D01*
X172975449Y-133543519D02*
X174828574Y-132671595D01*
X150651120Y-63811426D02*
X149847605Y-64607677D01*
X202007859Y-40869282D02*
X201964658Y-40919922D01*
X90897944Y-136228882D02*
X90902103Y-136229517D01*
X145670902Y-64044001D02*
X145827060Y-63019202D01*
X200393699Y-42983680D02*
X200371372Y-43102241D01*
X213152097Y-52010242D02*
X213155210Y-50299601D01*
X212628660Y-39746482D02*
X212506492Y-39585200D01*
X145480503Y-65094239D02*
X145670902Y-64044001D01*
X174881772Y-132634156D02*
X174884812Y-132630958D01*
X144237381Y-129169202D02*
X145203141Y-128844642D01*
X177588096Y-109164796D02*
X177193210Y-108864796D01*
X108170340Y-128144874D02*
X109159861Y-126974720D01*
X201785215Y-45447840D02*
X201806015Y-45537281D01*
X118971140Y-53526642D02*
X118970499Y-53531202D01*
X146566635Y-69139889D02*
X146066086Y-70140945D01*
X145620193Y-71168345D02*
X145230147Y-72219865D01*
X207797458Y-34569362D02*
X207728501Y-34562083D01*
X128419138Y-45450962D02*
X128411863Y-45452003D01*
X121116263Y-68184321D02*
X121264579Y-68549598D01*
X181534812Y-114623121D02*
X180559775Y-112721516D01*
X90910343Y-136230640D02*
X90914502Y-136230958D01*
X110402024Y-125523194D02*
X110407859Y-125526075D01*
X161773374Y-104317359D02*
X161750412Y-104290320D01*
X83340824Y-64189600D02*
X82843384Y-64774158D01*
X213391135Y-45742240D02*
X213419370Y-45633121D01*
X119122184Y-151582081D02*
X119795218Y-152144080D01*
X141456742Y-129971595D02*
X142326182Y-129745753D01*
X90906183Y-136230152D02*
X90910343Y-136230640D01*
X209819370Y-59054960D02*
X209906260Y-58932001D01*
X182395447Y-87904219D02*
X183233628Y-86550880D01*
X151500967Y-63057099D02*
X150651120Y-63811426D01*
X82069224Y-81540320D02*
X84922345Y-84295038D01*
X209669614Y-59300001D02*
X209740574Y-59177201D01*
X161679209Y-104155115D02*
X161665940Y-104113038D01*
X119815622Y-51524241D02*
X119569224Y-52079282D01*
X117393064Y-149563514D02*
X117920261Y-150290955D01*
X162032895Y-104477039D02*
X161984092Y-104457117D01*
X161799460Y-104343281D02*
X161773374Y-104317359D01*
X213648411Y-45149360D02*
X213666099Y-45130640D01*
X161631052Y-103906159D02*
X161626975Y-103844080D01*
X102041703Y-59867921D02*
X101309543Y-59444242D01*
X213410813Y-41370881D02*
X213361374Y-41312241D01*
X78888265Y-122018714D02*
X79038665Y-122768397D01*
X205947129Y-35514643D02*
X205910972Y-35583523D01*
X112002659Y-72062720D02*
X111998661Y-72055836D01*
X202731455Y-39328962D02*
X202692014Y-39388401D01*
X110308902Y-125613599D02*
X110367618Y-125549756D01*
X201578574Y-41304081D02*
X201526572Y-41347761D01*
X90266904Y-105966797D02*
X89271543Y-106485279D01*
X161711216Y-104229035D02*
X161694333Y-104193757D01*
X143932261Y-71566480D02*
X143955460Y-71441761D01*
X104891703Y-62034080D02*
X104192344Y-61422480D01*
X169667051Y-134623035D02*
X170132419Y-134523438D01*
X121281620Y-153096314D02*
X122093302Y-153484803D01*
X188554715Y-87311189D02*
X189884793Y-87285155D01*
X201825376Y-45632081D02*
X201843210Y-45732322D01*
X200928257Y-41924000D02*
X200839939Y-42037681D01*
X214760654Y-43281922D02*
X214758176Y-43215842D01*
X87797303Y-87069440D02*
X87801224Y-87072156D01*
X204276499Y-37850400D02*
X204202890Y-37908961D01*
X82034903Y-81493519D02*
X82036585Y-81496717D01*
D10*
X83888372Y-73787501D02*
G75*
G03*
X83888372Y-73787501I-1500000J0D01*
G01*
D11*
X79721546Y-71012159D02*
X79600185Y-71663038D01*
X80527866Y-126604554D02*
X80979224Y-127390076D01*
X214659861Y-44058723D02*
X214677695Y-43996720D01*
X107583939Y-64937916D02*
X106928019Y-64144001D01*
X169123301Y-105556721D02*
X167741611Y-105281995D01*
X140408500Y-132689918D02*
X139820743Y-131282557D01*
X202592014Y-39563602D02*
X202565452Y-39621122D01*
X96239545Y-103352875D02*
X93512983Y-104484077D01*
X202469370Y-40077521D02*
X202458970Y-40113203D01*
X201344492Y-49246961D02*
X201285776Y-49237202D01*
X207521055Y-34555843D02*
X207452097Y-34558962D01*
X214720652Y-43806641D02*
X214731540Y-43742161D01*
X109877781Y-126108802D02*
X110073862Y-125879444D01*
X211764890Y-38745841D02*
X211596091Y-38579041D01*
X82054664Y-81524079D02*
X82056904Y-81526881D01*
X200842258Y-49118802D02*
X200753049Y-49088560D01*
X208813132Y-35035442D02*
X208757859Y-34987043D01*
X213143454Y-52711921D02*
X213152097Y-52010242D01*
X201864975Y-48926642D02*
X201851938Y-48973441D01*
X200505857Y-42625602D02*
X200460972Y-42745042D01*
X201715049Y-49207441D02*
X201705381Y-49214002D01*
X214168100Y-41857041D02*
X214119455Y-41819922D01*
X181542649Y-117954395D02*
X181542649Y-117952796D01*
X204637131Y-37532963D02*
X204494809Y-37664323D01*
X135677140Y-45425922D02*
X135670664Y-45425922D01*
X207314499Y-34572883D02*
X207178171Y-34597123D01*
X214720652Y-42889362D02*
X214708091Y-42825361D01*
X209573073Y-64784457D02*
X209419072Y-63442648D01*
X121344101Y-49165201D02*
X120995218Y-49584800D01*
X149847605Y-64607677D02*
X149091612Y-65443625D01*
X110619059Y-125638795D02*
X110725699Y-125697681D01*
X86459623Y-133710401D02*
X87136103Y-134228235D01*
X161729929Y-104261201D02*
X161711216Y-104229035D01*
X140062180Y-47030640D02*
X139412339Y-46694480D01*
X203324180Y-38636002D02*
X203197056Y-38764881D01*
X145948978Y-62019922D02*
X146036741Y-61046482D01*
X102766663Y-60339042D02*
X102041703Y-59867921D01*
X182962422Y-46528433D02*
X181896140Y-46872599D01*
X143897623Y-71778156D02*
X143899540Y-71772401D01*
X86548023Y-108110639D02*
X85728263Y-108675117D01*
X165228574Y-134688795D02*
X167328574Y-134965357D01*
X208642978Y-34897922D02*
X208583457Y-34857203D01*
X213845859Y-41676160D02*
X213811216Y-41662961D01*
X213131370Y-40650001D02*
X213123130Y-40620161D01*
X205713376Y-36115203D02*
X205688169Y-36171682D01*
X201316172Y-44684162D02*
X201335849Y-44694001D01*
X214342649Y-44667280D02*
X214381211Y-44619202D01*
X80297385Y-69080958D02*
X80070345Y-69720557D01*
X138589463Y-151620716D02*
X139259702Y-150969593D01*
X213666099Y-45130640D02*
X213684177Y-45113441D01*
X205424900Y-36621602D02*
X205376169Y-36691202D01*
X164439939Y-134569434D02*
X165228574Y-134688795D01*
X85112745Y-132525440D02*
X85783545Y-133140955D01*
X181548655Y-114658802D02*
X181547129Y-114653516D01*
X111955143Y-71979035D02*
X111910019Y-71898157D01*
X201028733Y-44557200D02*
X201082419Y-44585602D01*
X90885785Y-136226319D02*
X90889783Y-136227283D01*
X212885849Y-40127521D02*
X212840256Y-40054243D01*
X172835618Y-106613996D02*
X172261850Y-106413355D01*
X135722184Y-45432322D02*
X135715860Y-45430720D01*
X115312980Y-144109119D02*
X115312980Y-144110633D01*
X209606015Y-59424482D02*
X209669614Y-59300001D01*
X113374259Y-127187684D02*
X113838743Y-127428553D01*
X78731145Y-120537440D02*
X78785865Y-121274964D01*
X163638889Y-134417994D02*
X164439939Y-134569434D01*
X94513703Y-57839841D02*
X93749863Y-57913602D01*
X143903940Y-71754877D02*
X143904978Y-71748957D01*
X110375858Y-125540955D02*
X110382419Y-125533997D01*
X94658503Y-91289838D02*
X95097944Y-91537995D01*
X178023374Y-129024561D02*
X178319773Y-128578797D01*
X124511783Y-46850562D02*
X123973942Y-47121360D01*
X162273850Y-104548560D02*
X162206492Y-104531837D01*
X201762974Y-45363682D02*
X201785215Y-45447840D01*
X115243223Y-137780714D02*
X115169224Y-138465284D01*
X87725943Y-60387360D02*
X87004422Y-60895762D01*
X212506492Y-39585200D02*
X212374570Y-39420240D01*
X205845932Y-35728243D02*
X205817136Y-35803922D01*
X82010825Y-128949756D02*
X82581223Y-129712952D01*
X78785865Y-121274964D02*
X78888265Y-122018714D01*
X128441141Y-45449601D02*
X128433780Y-45449760D01*
X167741611Y-105281995D02*
X166287693Y-105045917D01*
X207757649Y-75142165D02*
X208269401Y-73920906D01*
X201449057Y-49258481D02*
X201398899Y-49254001D01*
X201942978Y-47043760D02*
X201945774Y-47376160D01*
X162764611Y-58319596D02*
X161653358Y-58459186D01*
X114873459Y-141611121D02*
X114874338Y-141617115D01*
X112052659Y-72094001D02*
X112046903Y-72094800D01*
X209619760Y-67460350D02*
X209639560Y-66125006D01*
X128433780Y-45449760D02*
X128426420Y-45450242D01*
X213158896Y-40883921D02*
X213156089Y-40855442D01*
X201649131Y-49240000D02*
X201635776Y-49244001D01*
X104137064Y-132075196D02*
X105154422Y-131206641D01*
X213050974Y-54333280D02*
X213075620Y-54105521D01*
X143905863Y-71742957D02*
X143906583Y-71736957D01*
X214016013Y-44942402D02*
X214068735Y-44910642D01*
X162424021Y-104579999D02*
X162346335Y-104564637D01*
X82056904Y-81526881D02*
X82059305Y-81529676D01*
X211422410Y-38415201D02*
X211252500Y-38254560D01*
X82038343Y-81499915D02*
X82040183Y-81503040D01*
X209383933Y-60116160D02*
X209416892Y-59963602D01*
X87793464Y-87066639D02*
X87797303Y-87069440D01*
X82059305Y-81529676D02*
X82061704Y-81532398D01*
X161625620Y-103630158D02*
X161628891Y-103549195D01*
X179380384Y-91494631D02*
X180463565Y-90378849D01*
X91468265Y-58445521D02*
X90713624Y-58727442D01*
X93553223Y-90642560D02*
X94658503Y-91289838D01*
X82064185Y-81535120D02*
X82066663Y-81537757D01*
X79473226Y-74286561D02*
X79532105Y-74944398D01*
X112016898Y-72086317D02*
X112010019Y-72074958D01*
X213823459Y-45028242D02*
X213845859Y-45019922D01*
X80136106Y-77565760D02*
X80380265Y-78215595D01*
X204909214Y-37258002D02*
X204775535Y-37397123D01*
X118974662Y-53508640D02*
X118973618Y-53513120D01*
X211252500Y-38254560D02*
X211082016Y-38085602D01*
X137270664Y-45882322D02*
X135722184Y-45432322D01*
X128397458Y-45454880D02*
X128390342Y-45456800D01*
X141352024Y-135417518D02*
X140918583Y-134068799D01*
X214452500Y-44517683D02*
X214485056Y-44464561D01*
X202486814Y-39986481D02*
X202483298Y-40014002D01*
X163003049Y-104662159D02*
X162788889Y-104636158D01*
X82040183Y-81503040D02*
X82042023Y-81506159D01*
X201562180Y-44899360D02*
X201577451Y-44921921D01*
X109159861Y-126974720D02*
X109415378Y-126663038D01*
X145255863Y-66169599D02*
X145480503Y-65094239D01*
X195975277Y-46959930D02*
X194927079Y-46606805D01*
X201695212Y-49220161D02*
X201684653Y-49225761D01*
X201530735Y-44857361D02*
X201546579Y-44877842D01*
X175901609Y-108025037D02*
X175435373Y-107765119D01*
X92387784Y-104966077D02*
X91305704Y-105460401D01*
X96804105Y-57925040D02*
X96041623Y-57845920D01*
X148245780Y-127609119D02*
X148761380Y-127332557D01*
X90914502Y-136230958D02*
X92917624Y-136362232D01*
X207043613Y-34631522D02*
X206911619Y-34676003D01*
X213562729Y-45270640D02*
X213579697Y-45242402D01*
X121341141Y-69952717D02*
X121160502Y-69992237D01*
X205216013Y-36903443D02*
X205158335Y-36974563D01*
X82843384Y-64774158D02*
X82378904Y-65367438D01*
X211783689Y-56922562D02*
X211923374Y-56770640D01*
X214016099Y-41753681D02*
X213961374Y-41724802D01*
X79168825Y-116954236D02*
X78986905Y-117655921D01*
X181470340Y-89181127D02*
X182395447Y-87904219D01*
X142165781Y-144935840D02*
X142313700Y-143884315D01*
X214302012Y-41982560D02*
X214259372Y-41938480D01*
X141817142Y-48230961D02*
X141264744Y-47799201D01*
X170612571Y-134401844D02*
X171100181Y-134260474D01*
X154174900Y-130700721D02*
X155074259Y-131189442D01*
X214119455Y-44876081D02*
X214168100Y-44839042D01*
X192516633Y-86980692D02*
X193810372Y-86704245D01*
X214259372Y-41938480D02*
X214214731Y-41896561D01*
X82893705Y-111042158D02*
X82297065Y-111660236D01*
X200409458Y-43784562D02*
X200445371Y-43889600D01*
X181545456Y-114648316D02*
X181543613Y-114643201D01*
X81185544Y-67194477D02*
X80855304Y-67817438D01*
X122093302Y-153484803D02*
X122949540Y-153813672D01*
X202414499Y-40233362D02*
X202395298Y-40277122D01*
X163883340Y-58240375D02*
X162764611Y-58319596D01*
X88319864Y-107015516D02*
X87412024Y-107557355D01*
X80363706Y-114232398D02*
X79995226Y-114899512D01*
X201934495Y-46735361D02*
X201942978Y-47043760D01*
X193864488Y-46310669D02*
X192789848Y-46071724D01*
X202395298Y-40277122D02*
X202373935Y-40322401D01*
X141709623Y-136734559D02*
X141352024Y-135417518D01*
X81239304Y-112926716D02*
X80778585Y-113574720D01*
X213275852Y-41189841D02*
X213240659Y-41127442D01*
X97564664Y-58054401D02*
X96804105Y-57925040D01*
X79532105Y-74944398D02*
X79627625Y-75601917D01*
X214740732Y-43677122D02*
X214748252Y-43611762D01*
X202078121Y-82542943D02*
X203098459Y-81642341D01*
X80559145Y-68446400D02*
X80297385Y-69080958D01*
X79778585Y-125049756D02*
X80126026Y-125822559D01*
X85728263Y-108675117D02*
X84952744Y-109250721D01*
X96260584Y-98994398D02*
X96253623Y-99777839D01*
X162826096Y-134234559D02*
X163638889Y-134417994D01*
X167334812Y-134966077D02*
X167341050Y-134966639D01*
X198019127Y-47836332D02*
X197006741Y-47369841D01*
X90869785Y-136221680D02*
X90873703Y-136222962D01*
X179583860Y-111176636D02*
X179295615Y-110815919D01*
X141313779Y-147819276D02*
X141664902Y-146904883D01*
X143277219Y-49712800D02*
X142823539Y-49188080D01*
X81549704Y-66578156D02*
X81185544Y-67194477D01*
X213630979Y-45169840D02*
X213648411Y-45149360D01*
X214595859Y-42456882D02*
X214570969Y-42398722D01*
X177887822Y-48789707D02*
X176964978Y-49393985D01*
X201138010Y-44612000D02*
X201195615Y-44636481D01*
X135696659Y-45427280D02*
X135690183Y-45426560D01*
X205659690Y-36230483D02*
X205627939Y-36291523D01*
X144703458Y-68394800D02*
X144996824Y-67269837D01*
X162507139Y-104594800D02*
X162424021Y-104579999D01*
X148761380Y-127332557D02*
X151445780Y-129060718D01*
X214740732Y-43018882D02*
X214731540Y-42953922D01*
X201494809Y-49260322D02*
X201449057Y-49258481D01*
X169502659Y-58767921D02*
X168383604Y-58537536D01*
X211475058Y-57245200D02*
X211783689Y-56922562D01*
X211596091Y-38579041D02*
X211422410Y-38415201D01*
X201374180Y-44716001D02*
X201392820Y-44728162D01*
X208866819Y-35086402D02*
X208813132Y-35035442D01*
X161644895Y-104017597D02*
X161637058Y-103963917D01*
X116613700Y-70848798D02*
X116018821Y-70987037D01*
X87004422Y-60895762D02*
X86314185Y-61416642D01*
X174858652Y-132653992D02*
X174862095Y-132651356D01*
X210001853Y-58807282D02*
X210106418Y-58679441D01*
X146124820Y-128513282D02*
X146964579Y-128188160D01*
X202458970Y-40113203D02*
X202446335Y-40151200D01*
X202350498Y-40369041D02*
X202324900Y-40416801D01*
X181554819Y-114696473D02*
X181554416Y-114691041D01*
X181553855Y-114685596D02*
X181553135Y-114680152D01*
X204945946Y-79659515D02*
X205761121Y-78593222D01*
X135670664Y-45425922D02*
X135670823Y-45426160D01*
X96275223Y-98188636D02*
X96260584Y-98994398D01*
X114872263Y-141599036D02*
X114872818Y-141605115D01*
X213125779Y-53325761D02*
X213143454Y-52711921D01*
X161624656Y-103777436D02*
X161624253Y-103706238D01*
X161624253Y-103706238D02*
X161625620Y-103630158D01*
X213123130Y-40620161D02*
X213113694Y-40590082D01*
X198743861Y-84793483D02*
X199896810Y-84119505D01*
X209054907Y-71395699D02*
X209326206Y-70099642D01*
X144757859Y-52111680D02*
X144438102Y-51467600D01*
X118994260Y-61269922D02*
X118994498Y-61276240D01*
X205271616Y-36832323D02*
X205216013Y-36903443D01*
X84952744Y-109250721D02*
X84221705Y-109837195D01*
X180107212Y-111928559D02*
X179854331Y-111547516D01*
X212967612Y-40269041D02*
X212928330Y-40199122D01*
X114874338Y-141617115D02*
X114875461Y-141623121D01*
X82052344Y-81521198D02*
X82054664Y-81524079D01*
X214640329Y-42576240D02*
X214618979Y-42516001D01*
X200927451Y-44494880D02*
X200977134Y-44526960D01*
X167061429Y-97395000D02*
X168595551Y-97140598D01*
X201661619Y-49235602D02*
X201649131Y-49240000D01*
X120946903Y-67732319D02*
X121116263Y-68184321D01*
X191705502Y-45890174D02*
X190613791Y-45766224D01*
X212902097Y-55119922D02*
X212947617Y-54939200D01*
X209353135Y-35855602D02*
X209298972Y-35737043D01*
X206422019Y-34952883D02*
X206312656Y-35046403D01*
X202508091Y-39792161D02*
X202497056Y-39848881D01*
X114877298Y-71278156D02*
X114365464Y-71422480D01*
X145848020Y-55761680D02*
X145697703Y-54975681D01*
X208070176Y-34624082D02*
X208002659Y-34606562D01*
X162144016Y-104514399D02*
X162086179Y-104496155D01*
X202373935Y-40322401D02*
X202350498Y-40369041D01*
X202818735Y-39208240D02*
X202773777Y-39268961D01*
X200671860Y-44268000D02*
X200709372Y-44309681D01*
X202490256Y-39905521D02*
X202488010Y-39962083D01*
X90858103Y-136217200D02*
X90861945Y-136218799D01*
X200834177Y-44425602D02*
X200879856Y-44461121D01*
X214259372Y-44757520D02*
X214302012Y-44713441D01*
X96477063Y-94148157D02*
X96475464Y-94148157D01*
X125080979Y-46597202D02*
X124511783Y-46850562D01*
X206657773Y-34794802D02*
X206537290Y-34869042D01*
X167328574Y-134965357D02*
X167334812Y-134966077D01*
X212987375Y-54748722D02*
X213021616Y-54547202D01*
X128426420Y-45450242D02*
X128419138Y-45450962D01*
X110395780Y-125520081D02*
X110402024Y-125523194D01*
X204202890Y-37908961D02*
X204129050Y-37965522D01*
X212574338Y-55910081D02*
X212654172Y-55763282D01*
X201573691Y-49256641D02*
X201536411Y-49259681D01*
X206026340Y-35383602D02*
X205985618Y-35448003D01*
X149091612Y-65443625D02*
X148384329Y-66317046D01*
X173002496Y-95748062D02*
X174388804Y-95083286D01*
X110382419Y-125533997D02*
X110395780Y-125520081D01*
X174868979Y-132645923D02*
X174872251Y-132643116D01*
X145230147Y-72219865D02*
X144897135Y-73293279D01*
X82044025Y-81509278D02*
X82046024Y-81512318D01*
X151445780Y-129060718D02*
X152360019Y-129636072D01*
X79600185Y-71663038D02*
X79514505Y-72316559D01*
X203197056Y-38764881D02*
X203078013Y-38893601D01*
X169223850Y-134698157D02*
X169667051Y-134623035D01*
X147120651Y-68167404D02*
X146566635Y-69139889D01*
X121819224Y-69838636D02*
X121341141Y-69952717D01*
X214544260Y-42341761D02*
X214515696Y-42286002D01*
X92987143Y-58038880D02*
X92226343Y-58216080D01*
X115452024Y-136251124D02*
X115338822Y-137034803D01*
X213187131Y-41003202D02*
X213177610Y-40972721D01*
X114872019Y-141592957D02*
X114872263Y-141599036D01*
X213138498Y-40679761D02*
X213131370Y-40650001D01*
X202542490Y-39678400D02*
X202523301Y-39735361D01*
X214693772Y-42762000D02*
X214677695Y-42699280D01*
X189517060Y-45700076D02*
X188417650Y-45691933D01*
X90902103Y-136229517D02*
X90906183Y-136230152D01*
X200351853Y-48935761D02*
X200123850Y-48841440D01*
X201838010Y-49015922D02*
X201830735Y-49035602D01*
X146036741Y-61046482D02*
X146090342Y-60099122D01*
X214761460Y-43348002D02*
X214760654Y-43281922D01*
X143899540Y-71772401D02*
X143901139Y-71766639D01*
X202967698Y-39021442D02*
X202866099Y-39146802D01*
X118994498Y-61276240D02*
X118994980Y-61282560D01*
X80979224Y-127390076D02*
X81475144Y-128173682D01*
X158605210Y-132847755D02*
X159468418Y-133186878D01*
X212287290Y-56337040D02*
X212391135Y-56195682D01*
X200445371Y-43889600D02*
X200489609Y-43990961D01*
X201739536Y-45284962D02*
X201762974Y-45363682D01*
X110445780Y-125545032D02*
X110525382Y-125587684D01*
X115715702Y-134665198D02*
X115578983Y-135453443D01*
X204775535Y-37397123D02*
X204637131Y-37532963D01*
X142336661Y-140480079D02*
X142201059Y-139267432D01*
X202235776Y-40564881D02*
X202202012Y-40615201D01*
X110367618Y-125549756D02*
X110375858Y-125540955D01*
D10*
X209018000Y-38330000D02*
G75*
G03*
X209018000Y-38330000I-1500000J0D01*
G01*
D11*
X174875449Y-132640162D02*
X174878660Y-132637195D01*
X162595701Y-104609040D02*
X162507139Y-104594800D01*
X111417380Y-126089283D02*
X111750101Y-126281275D01*
X196333433Y-85907876D02*
X197554732Y-85389937D01*
X118969700Y-53540400D02*
X118969382Y-53545042D01*
X205037131Y-37116802D02*
X204909214Y-37258002D01*
X199010093Y-48359202D02*
X198019127Y-47836332D01*
X210106418Y-58679441D02*
X210220420Y-58547440D01*
X162206492Y-104531837D02*
X162144016Y-104514399D01*
X110160898Y-125779517D02*
X110239621Y-125690552D01*
X117052024Y-128896558D02*
X116953623Y-129301197D01*
X120896103Y-70045435D02*
X120168583Y-70182715D01*
X214693772Y-43934080D02*
X214708091Y-43870640D01*
X179159775Y-127152076D02*
X179422410Y-126648560D01*
X174832493Y-132669764D02*
X174836411Y-132667762D01*
X148384329Y-66317046D02*
X147726945Y-67225714D01*
X118969224Y-53554243D02*
X118981778Y-57408961D01*
X144897135Y-73293279D02*
X144622347Y-74386360D01*
X214618979Y-44180002D02*
X214640329Y-44119761D01*
X213613779Y-45192081D02*
X213630979Y-45169840D01*
X177193210Y-108864796D02*
X176780491Y-108574879D01*
X213191135Y-47743040D02*
X213212974Y-47259760D01*
X213961374Y-44971281D02*
X214016013Y-44942402D01*
X105581223Y-62691761D02*
X104891703Y-62034080D01*
X204057983Y-80677203D02*
X204945946Y-79659515D01*
X190613791Y-45766224D02*
X189517060Y-45700076D01*
X125682578Y-46360242D02*
X125080979Y-46597202D01*
X214168100Y-44839042D02*
X214214731Y-44799442D01*
X172261850Y-106413355D02*
X171670176Y-106222480D01*
X118980021Y-53491041D02*
X118978501Y-53495362D01*
X208701133Y-34941202D02*
X208642978Y-34897922D01*
X209299534Y-60837122D02*
X209332895Y-60452241D01*
X94927784Y-136323756D02*
X95942344Y-136178004D01*
X201526572Y-41347761D02*
X201473935Y-41390241D01*
X143955460Y-71441761D02*
X143984983Y-71293677D01*
X152360019Y-129636072D02*
X153269944Y-130182874D01*
X201750498Y-49174961D02*
X201741941Y-49184080D01*
X201920090Y-40970161D02*
X201874253Y-41020081D01*
X214417856Y-42126801D02*
X214381296Y-42076881D01*
X211082016Y-38085602D02*
X210912180Y-37909922D01*
X113838743Y-127428553D02*
X114300901Y-127661524D01*
X201775449Y-49143360D02*
X201767136Y-49154642D01*
X207178171Y-34597123D02*
X207043613Y-34631522D01*
X201473935Y-41390241D02*
X201351133Y-41491361D01*
X142392020Y-142790076D02*
X142400022Y-141654798D01*
X205985618Y-35448003D02*
X205947129Y-35514643D01*
X110725699Y-125697681D02*
X110844181Y-125763758D01*
X167359861Y-134966956D02*
X167366099Y-134966639D01*
X90873703Y-136222962D02*
X90877704Y-136224158D01*
X208702230Y-72670768D02*
X209054907Y-71395699D01*
X201823301Y-49054160D02*
X201815610Y-49071680D01*
X201807859Y-49088080D02*
X201799936Y-49103522D01*
X145513620Y-54217362D02*
X145295621Y-53486960D01*
X172067698Y-133927674D02*
X172532737Y-133740797D01*
X213275132Y-46459760D02*
X213316172Y-46137040D01*
X213709617Y-41614002D02*
X213676731Y-41594721D01*
X91305704Y-105460401D02*
X90266904Y-105966797D01*
X213163620Y-48890641D02*
X213191135Y-47743040D01*
X200927134Y-49146000D02*
X200842258Y-49118802D01*
X88470823Y-135086964D02*
X89119224Y-135416883D01*
X212233616Y-39252720D02*
X212084495Y-39083762D01*
X118983298Y-53482401D02*
X118981620Y-53486722D01*
X200350254Y-43336561D02*
X200352256Y-43451761D01*
X201964658Y-40919922D02*
X201920090Y-40970161D01*
X135715860Y-45430720D02*
X135709543Y-45429362D01*
X144438102Y-51467600D02*
X144084580Y-50852802D01*
X213240818Y-46833042D02*
X213275132Y-46459760D01*
X201083616Y-49191202D02*
X201007529Y-49170081D01*
X214068735Y-44910642D02*
X214119455Y-44876081D01*
X200561374Y-49018320D02*
X200351853Y-48935761D01*
X153269944Y-130182874D02*
X154174900Y-130700721D01*
X162086179Y-104496155D02*
X162032895Y-104477039D01*
X210912180Y-37909922D02*
X210744175Y-37729120D01*
X201874253Y-41020081D02*
X201827378Y-41069440D01*
X133339542Y-154262000D02*
X134355143Y-153979835D01*
X161637058Y-103963917D02*
X161631052Y-103906159D01*
X142313700Y-143884315D02*
X142392020Y-142790076D01*
X111994260Y-72048157D02*
X111955143Y-71979035D01*
X200123850Y-48841440D02*
X199876731Y-48735682D01*
X114875461Y-141623121D02*
X115312980Y-144109119D01*
X80778585Y-113574720D02*
X80363706Y-114232398D01*
X117201542Y-70720960D02*
X116613700Y-70848798D01*
X209419072Y-63442648D02*
X209176328Y-62103525D01*
X193810372Y-86704245D02*
X195083976Y-86346309D01*
X175226246Y-50741147D02*
X174413752Y-51480773D01*
X114872818Y-141605115D02*
X114873459Y-141611121D01*
X213776975Y-41648160D02*
X213743052Y-41631840D01*
X199896810Y-84119505D02*
X201009567Y-83368995D01*
X206502281Y-77482269D02*
X207168200Y-76330601D01*
X201906333Y-48696162D02*
X201887937Y-48819922D01*
X207728501Y-34562083D02*
X207659372Y-34557442D01*
X118969382Y-53545042D02*
X118969303Y-53549601D01*
X170432737Y-105870161D02*
X169123301Y-105556721D01*
X118995621Y-61288801D02*
X118996579Y-61295121D01*
X165007073Y-58222043D02*
X163883340Y-58240375D01*
X96672345Y-92362238D02*
X96477063Y-94148157D01*
X180849913Y-47273618D02*
X179831986Y-47727895D01*
X155074259Y-131189442D02*
X155967618Y-131648719D01*
X209332895Y-60452241D02*
X209383933Y-60116160D01*
X122987864Y-47718882D02*
X122537540Y-48047602D01*
X167366099Y-134966639D02*
X167372336Y-134966077D01*
X161167453Y-133773035D02*
X162002097Y-134019520D01*
X79450826Y-73628956D02*
X79473226Y-74286561D01*
X204422580Y-37728000D02*
X204349778Y-37790082D01*
X207934580Y-34591602D02*
X207866172Y-34579203D01*
X205158335Y-36974563D02*
X205037131Y-37116802D01*
X201514573Y-44837842D02*
X201530735Y-44857361D01*
X208203537Y-34666962D02*
X208137217Y-34644242D01*
X168383604Y-58537536D02*
X167259675Y-58370106D01*
X145697703Y-54975681D02*
X145513620Y-54217362D01*
X204055210Y-38019922D02*
X203898569Y-38136561D01*
X114747062Y-127879359D02*
X115163462Y-128075196D01*
X120762180Y-67210956D02*
X120946903Y-67732319D01*
X137068979Y-152748072D02*
X137858823Y-152214075D01*
X206312656Y-35046403D02*
X206209775Y-35149442D01*
X96432743Y-94614161D02*
X96392664Y-95193195D01*
X213155210Y-50299601D02*
X213163620Y-48890641D01*
X212791697Y-39979362D02*
X212740171Y-39903040D01*
X201733298Y-49192481D02*
X201724338Y-49200242D01*
X201592417Y-44945600D02*
X201607139Y-44970402D01*
X163496494Y-104714796D02*
X163003049Y-104662159D01*
X143906583Y-71736957D02*
X143915860Y-71665595D01*
X206209775Y-35149442D02*
X206160972Y-35204482D01*
X212726658Y-55612083D02*
X212791855Y-55455363D01*
X79483625Y-124284241D02*
X79778585Y-125049756D01*
X200356736Y-43219922D02*
X200350254Y-43336561D01*
X176077220Y-50045008D02*
X175226246Y-50741147D01*
X200558091Y-42506400D02*
X200505857Y-42625602D01*
X116953623Y-129301197D02*
X116145780Y-132593433D01*
X201730491Y-41166001D02*
X201680649Y-41213041D01*
X180559775Y-112721516D02*
X180342331Y-112319916D01*
X118994260Y-61263602D02*
X118994260Y-61269922D01*
X208969211Y-35196082D02*
X208918894Y-35140003D01*
X82046024Y-81512318D02*
X82048105Y-81515357D01*
X178319773Y-128578797D02*
X178608091Y-128117762D01*
X161665940Y-104113038D02*
X161654490Y-104067200D01*
X121264579Y-68549598D02*
X121819224Y-69838636D01*
X174865537Y-132648719D02*
X174868979Y-132645923D01*
X90854264Y-136215516D02*
X90858103Y-136217200D01*
X154291339Y-61083294D02*
X153328797Y-61687248D01*
X159463154Y-58917413D02*
X158389144Y-59235015D01*
X145964420Y-56575120D02*
X145848020Y-55761680D01*
X200617698Y-42387681D02*
X200558091Y-42506400D01*
X93512983Y-104484077D02*
X92387784Y-104966077D01*
X214485056Y-44464561D02*
X214515696Y-44410081D01*
X208757859Y-34987043D02*
X208701133Y-34941202D01*
X181554416Y-114691041D02*
X181553855Y-114685596D01*
X90713624Y-58727442D02*
X89963303Y-59062321D01*
X161634018Y-103463038D02*
X161641050Y-103371516D01*
X174413752Y-51480773D02*
X173641434Y-52262258D01*
X79627625Y-75601917D02*
X79760026Y-76258320D01*
X200977134Y-44526960D02*
X201028733Y-44557200D01*
X200636338Y-44224961D02*
X200671860Y-44268000D01*
X80981705Y-79504395D02*
X82034903Y-81493519D01*
X210344260Y-58410081D02*
X210478330Y-58266160D01*
X208583457Y-34857203D02*
X208522739Y-34819042D01*
X201398899Y-49254001D02*
X201344492Y-49246961D01*
X201606736Y-49251121D02*
X201573691Y-49256641D01*
X200758652Y-42153123D02*
X200684580Y-42269840D01*
X202446335Y-40151200D02*
X202431540Y-40191282D01*
X162002097Y-134019520D02*
X162826096Y-134234559D01*
X122537540Y-48047602D02*
X122114182Y-48397602D01*
X213144419Y-40709360D02*
X213138498Y-40679761D01*
X207168200Y-76330601D02*
X207757649Y-75142165D01*
X178989609Y-110465436D02*
X178665854Y-110125117D01*
X205325058Y-36761523D02*
X205271616Y-36832323D01*
X82042023Y-81506159D02*
X82044025Y-81509278D01*
X118971860Y-53522162D02*
X118971140Y-53526642D01*
X171100181Y-134260474D02*
X171587693Y-134101600D01*
X181555137Y-114707520D02*
X181555051Y-114702003D01*
X214214731Y-41896561D02*
X214168100Y-41857041D01*
X161685056Y-102954395D02*
X161749534Y-102451917D01*
X209108896Y-35379763D02*
X209064255Y-35316003D01*
X178844057Y-48233800D02*
X177887822Y-48789707D01*
X166287693Y-105045917D02*
X164761374Y-104848157D01*
X202497056Y-39848881D02*
X202490256Y-39905521D01*
X82061704Y-81532398D02*
X82064185Y-81535120D01*
X201920420Y-48555842D02*
X201906333Y-48696162D01*
X201937693Y-48226560D02*
X201930649Y-48399280D01*
X201411216Y-44741120D02*
X201429209Y-44754960D01*
X144275699Y-70034559D02*
X144406980Y-69514319D01*
X185126778Y-46017577D02*
X184040082Y-46243493D01*
X209176340Y-62103522D02*
X209217295Y-61410322D01*
X114365464Y-71422480D02*
X113916099Y-71560480D01*
X201887937Y-48819922D02*
X201877060Y-48875440D01*
X214515696Y-44410081D02*
X214544260Y-44354243D01*
X177407773Y-129868238D02*
X177719297Y-129454554D01*
X214342649Y-42028721D02*
X214302012Y-41982560D01*
X201680649Y-41213041D02*
X201629929Y-41259122D01*
X206114097Y-35261843D02*
X206069211Y-35321602D01*
X212740171Y-39903040D02*
X212685776Y-39825361D01*
X157733616Y-132478162D02*
X158605210Y-132847755D01*
X118973618Y-53513120D02*
X118972660Y-53517600D01*
X80662105Y-78862000D02*
X80981705Y-79504395D01*
X174828574Y-132671595D02*
X174832493Y-132669764D01*
X120669059Y-50029520D02*
X120364420Y-50500400D01*
X143902659Y-71760798D02*
X143903940Y-71754877D01*
X177965134Y-109474799D02*
X177588096Y-109164796D01*
X200371372Y-43102241D02*
X200356736Y-43219922D01*
X90893863Y-136228162D02*
X90897944Y-136228882D01*
X111233298Y-70627839D02*
X110662504Y-69570960D01*
X98322345Y-58233842D02*
X97564664Y-58054401D01*
X135683701Y-45426160D02*
X135677140Y-45425922D01*
X213316257Y-41251682D02*
X213275852Y-41189841D01*
X85783545Y-133140955D02*
X86459623Y-133710401D01*
X139820743Y-131282557D02*
X139455143Y-130454395D01*
X201874656Y-45949280D02*
X201900339Y-46188480D01*
X112058902Y-72093037D02*
X112052659Y-72094001D01*
X90861945Y-136218799D02*
X90865864Y-136220240D01*
X214214731Y-44799442D02*
X214259372Y-44757520D01*
X200709372Y-44309681D02*
X200748972Y-44349842D01*
X184040082Y-46243493D02*
X182962422Y-46528433D01*
X181555051Y-114702003D02*
X181554819Y-114696473D01*
X205627939Y-36291523D02*
X205593137Y-36354482D01*
X197006741Y-47369841D02*
X195975277Y-46959930D01*
X120173063Y-65404798D02*
X120567862Y-66637678D01*
X121160502Y-69992237D02*
X120896103Y-70045435D01*
X214485056Y-42231440D02*
X214452500Y-42178321D01*
X115338822Y-137034803D02*
X115243223Y-137780714D01*
X165503505Y-97539923D02*
X167061429Y-97395000D01*
X208334018Y-34720083D02*
X208269211Y-34692243D01*
X178665854Y-110125117D02*
X178324411Y-109794880D01*
X213361374Y-41312241D02*
X213316257Y-41251682D01*
X214515696Y-42286002D02*
X214485056Y-42231440D01*
X201351133Y-41491361D02*
X201235056Y-41595682D01*
X121716739Y-48769761D02*
X121344101Y-49165201D01*
X202090256Y-40767521D02*
X202049778Y-40818400D01*
X210478330Y-58266160D02*
X210778977Y-57953840D01*
X174388804Y-95083286D02*
X175725006Y-94322801D01*
X214708091Y-42825361D02*
X214693772Y-42762000D01*
X201799936Y-49103522D02*
X201791941Y-49117841D01*
X213419370Y-45633121D02*
X213449131Y-45534800D01*
X209191697Y-35515043D02*
X209151377Y-35446082D01*
X203458579Y-38507920D02*
X203324180Y-38636002D01*
X200460972Y-42745042D02*
X200423618Y-42864561D01*
X135709543Y-45429362D02*
X135703061Y-45428162D01*
X201285776Y-49237202D02*
X201222739Y-49224720D01*
X201791941Y-49117841D02*
X201783689Y-49131122D01*
X143895621Y-71783839D02*
X143897623Y-71778156D01*
X205514573Y-36485363D02*
X205471055Y-36552962D01*
X209549289Y-59551841D02*
X209606015Y-59424482D01*
X201296177Y-44675040D02*
X201316172Y-44684162D01*
X141264744Y-47799201D02*
X140679703Y-47398960D01*
X156295654Y-60044614D02*
X155281115Y-60535578D01*
X174836411Y-132667762D02*
X174840256Y-132665674D01*
X181541611Y-114638074D02*
X181539536Y-114633033D01*
X181549936Y-114664075D02*
X181548655Y-114658802D01*
X118998978Y-61307520D02*
X119000498Y-61313602D01*
X176780491Y-108574879D02*
X176350010Y-108294959D01*
X205735056Y-36061283D02*
X205713376Y-36115203D01*
X103115543Y-132866480D02*
X104137064Y-132075196D01*
X123466343Y-47410480D02*
X122987864Y-47718882D01*
X82048105Y-81515357D02*
X82050184Y-81518317D01*
X201577451Y-44921921D02*
X201592417Y-44945600D01*
X161653358Y-58459186D02*
X160552049Y-58658631D01*
X187220547Y-87251770D02*
X188554715Y-87311189D01*
X201673459Y-49230881D02*
X201661619Y-49235602D01*
X102090983Y-133579761D02*
X103115543Y-132866480D01*
X115536423Y-128240320D02*
X117052024Y-128896558D01*
X161641050Y-103371516D02*
X161660093Y-103173200D01*
X201429209Y-44754960D02*
X201446897Y-44769761D01*
X141992344Y-138018397D02*
X141709623Y-136734559D01*
X110419138Y-125531592D02*
X110431302Y-125537598D01*
X195083976Y-86346309D02*
X196333433Y-85907876D01*
X209972580Y-36803683D02*
X209840171Y-36625362D01*
X117764902Y-70607838D02*
X117201542Y-70720960D01*
X208002659Y-34606562D02*
X207934580Y-34591602D01*
X111112900Y-125915284D02*
X111417380Y-126089283D01*
X205767698Y-35962083D02*
X205753220Y-36010242D01*
X203078013Y-38893601D02*
X202967698Y-39021442D01*
X145043778Y-52784962D02*
X144757859Y-52111680D01*
X172532737Y-133740797D02*
X172975449Y-133543519D01*
X114872019Y-141580799D02*
X114871940Y-141586878D01*
X178226057Y-92525720D02*
X179380384Y-91494631D01*
X118996579Y-61295121D02*
X118997623Y-61301282D01*
X139868424Y-150262073D02*
X140414499Y-149499756D01*
X180795774Y-123371595D02*
X181528574Y-121199683D01*
X189884793Y-87285155D02*
X191206769Y-87174659D01*
X214544260Y-44354243D02*
X214570969Y-44297282D01*
X177089133Y-130265113D02*
X177407773Y-129868238D01*
X106928019Y-64144001D02*
X106260184Y-63395197D01*
X174844016Y-132663514D02*
X174847776Y-132661194D01*
X214754014Y-43546082D02*
X214758176Y-43480161D01*
X96323783Y-96600239D02*
X96275223Y-98188636D01*
X202483298Y-40014002D02*
X202477451Y-40044401D01*
X187317905Y-45742001D02*
X186220166Y-45850481D01*
X87808185Y-134688953D02*
X88470823Y-135086964D01*
X213065940Y-40466962D02*
X213036411Y-40403040D01*
X127480021Y-154643836D02*
X128752341Y-154709595D01*
X174855051Y-132656483D02*
X174858652Y-132653992D01*
X201621689Y-49247681D02*
X201606736Y-49251121D01*
X167259675Y-58370106D02*
X166133341Y-58265114D01*
X213702500Y-45097681D02*
X213721299Y-45083280D01*
X116018821Y-70987037D02*
X115434183Y-71131599D01*
X161749534Y-102451917D02*
X161828501Y-101857679D01*
X209606894Y-36288402D02*
X209508335Y-36132883D01*
X202166416Y-40665760D02*
X202129136Y-40716563D01*
X213480173Y-45446961D02*
X213512497Y-45369120D01*
X197554732Y-85389937D02*
X198743861Y-84793483D01*
X161828977Y-104368079D02*
X161799460Y-104343281D01*
X79038665Y-122768397D02*
X79237066Y-123523682D01*
X118969303Y-53549601D02*
X118969224Y-53554243D01*
X214381296Y-42076881D02*
X214342649Y-42028721D01*
X213579697Y-45242402D02*
X213596653Y-45216242D01*
X90941144Y-89045038D02*
X92266105Y-89865595D01*
X83181543Y-130457593D02*
X83806904Y-131178235D01*
X90865864Y-136220240D02*
X90869785Y-136221680D01*
X80070345Y-69720557D02*
X79878266Y-70364478D01*
X159468418Y-133186878D02*
X160322654Y-133495435D01*
X210418332Y-37358483D02*
X210262815Y-37171763D01*
X119984104Y-64780079D02*
X120173063Y-65404798D01*
X84452265Y-131869361D02*
X85112745Y-132525440D01*
X202324900Y-40416801D02*
X202297214Y-40465522D01*
X214618979Y-42516001D02*
X214595859Y-42456882D01*
X78724025Y-119806397D02*
X78731145Y-120537440D01*
X181896140Y-46872599D02*
X180849913Y-47273618D01*
X178888254Y-127641993D02*
X179159775Y-127152076D01*
X209423301Y-35988082D02*
X209353135Y-35855602D01*
X112035941Y-72096241D02*
X112030179Y-72097120D01*
X201945774Y-47376160D02*
X201944578Y-47832960D01*
X85655463Y-61949442D02*
X85028504Y-62493680D01*
X92917624Y-136362232D02*
X93919224Y-136385438D01*
X99076423Y-58462800D02*
X98322345Y-58233842D01*
X146964579Y-128188160D02*
X147684183Y-127882484D01*
X214760654Y-43414161D02*
X214761460Y-43348002D01*
X192789848Y-46071724D02*
X191705502Y-45890174D01*
X135690183Y-45426560D02*
X135683701Y-45426160D01*
X210744175Y-37729120D02*
X210579136Y-37544802D01*
X208269211Y-34692243D02*
X208203537Y-34666962D01*
X139259702Y-150969593D02*
X139868424Y-150262073D01*
X213316172Y-46137040D02*
X213339377Y-45993842D01*
X201724338Y-49200242D02*
X201715049Y-49207441D01*
X200542099Y-44088080D02*
X200602890Y-44180640D01*
X214748252Y-43611762D02*
X214754014Y-43546082D01*
X112046903Y-72094800D02*
X112035941Y-72096241D01*
X214381211Y-44619202D02*
X214417856Y-44569282D01*
X120080338Y-50998322D02*
X119815622Y-51524241D01*
X110075779Y-68557038D02*
X109473942Y-67586475D01*
X111540659Y-71213196D02*
X111233298Y-70627839D01*
X205376169Y-36691202D02*
X205325058Y-36761523D01*
X96961625Y-135948878D02*
X97984583Y-135637195D01*
X208918894Y-35140003D02*
X208866819Y-35086402D01*
X140896659Y-148684717D02*
X141313779Y-147819276D01*
X81475144Y-128173682D02*
X82010825Y-128949756D01*
X145295621Y-53486960D02*
X145043778Y-52784962D01*
X167353611Y-134967042D02*
X167359861Y-134966956D01*
X181551133Y-114669434D02*
X181549936Y-114664075D01*
X78986905Y-117655921D02*
X78852106Y-118365357D01*
X171670176Y-106222480D02*
X170432737Y-105870161D01*
X118972660Y-53517600D02*
X118971860Y-53522162D01*
X115169224Y-138465284D02*
X114872342Y-141574634D01*
X164080979Y-104774317D02*
X163496494Y-104714796D01*
X201845054Y-48995200D02*
X201838010Y-49015922D01*
X210220420Y-58547440D02*
X210344260Y-58410081D01*
X201767136Y-49154642D02*
X201758811Y-49165201D01*
X115578983Y-135453443D02*
X115452024Y-136251124D01*
X92266105Y-89865595D02*
X93553223Y-90642560D01*
X213904575Y-44997120D02*
X213961374Y-44971281D01*
X161984092Y-104457117D02*
X161939377Y-104436317D01*
X87801224Y-87072156D02*
X87805225Y-87074720D01*
X214570969Y-44297282D02*
X214595859Y-44239200D01*
X169946238Y-57739019D02*
X169502659Y-58767924D01*
X126159781Y-154504078D02*
X127480021Y-154643836D01*
X109473942Y-67586475D02*
X108857541Y-66659437D01*
X144108262Y-70731440D02*
X144159702Y-70512000D01*
X110662504Y-69570960D02*
X110075779Y-68557038D01*
X167341050Y-134966639D02*
X167347300Y-134966956D01*
X162346335Y-104564637D02*
X162273850Y-104548560D01*
X156854178Y-132078394D02*
X157733616Y-132478162D01*
X209514900Y-68786544D02*
X209619760Y-67460350D01*
X201827378Y-41069440D02*
X201779380Y-41118082D01*
X96253623Y-99777839D02*
X96239545Y-103352875D01*
X112921061Y-126945753D02*
X113374259Y-127187684D01*
X87786023Y-87060798D02*
X87789704Y-87063758D01*
X176763694Y-130644483D02*
X177089133Y-130265113D01*
X213545859Y-45301121D02*
X213562729Y-45270640D01*
X82581223Y-129712952D02*
X83181543Y-130457593D01*
X112010019Y-72074958D02*
X112002659Y-72062720D01*
X175435373Y-107765119D02*
X174951218Y-107515119D01*
X214677695Y-42699280D02*
X214659861Y-42637360D01*
X119000498Y-61313602D02*
X119808341Y-64172956D01*
X118975858Y-53504160D02*
X118974662Y-53508640D01*
X201007529Y-49170081D02*
X200927134Y-49146000D01*
X205593137Y-36354482D02*
X205555295Y-36419123D01*
X162788889Y-104636158D02*
X162595701Y-104609040D01*
X112492978Y-126709913D02*
X112921061Y-126945753D01*
X87789704Y-87063758D02*
X87793464Y-87066639D01*
X213169700Y-40942640D02*
X213163376Y-40912961D01*
X212791855Y-55455363D02*
X212850254Y-55291682D01*
X82036585Y-81496717D02*
X82038343Y-81499915D01*
X181547129Y-114653516D02*
X181545456Y-114648316D01*
X176431699Y-131005994D02*
X176763694Y-130644483D01*
X80855304Y-67817438D02*
X80559145Y-68446400D01*
X161626975Y-103844080D02*
X161624656Y-103777436D01*
X206069211Y-35321602D02*
X206026340Y-35383602D01*
X212685776Y-39825361D02*
X212628660Y-39746482D01*
X158389144Y-59235015D02*
X157332487Y-59610921D01*
X208137217Y-34644242D02*
X208070176Y-34624082D01*
X202202012Y-40615201D02*
X202166416Y-40665760D01*
X120168583Y-70182715D02*
X119263620Y-70345276D01*
X213760410Y-45058240D02*
X213780735Y-45047361D01*
X211125535Y-57601121D02*
X211475058Y-57245200D01*
X213512497Y-45369120D02*
X213545859Y-45301121D01*
X161628891Y-103549195D02*
X161634018Y-103463038D01*
X202477451Y-40044401D02*
X202469370Y-40077521D01*
X205817136Y-35803922D02*
X205791050Y-35881922D01*
X157332487Y-59610921D02*
X156295654Y-60044614D01*
X87775464Y-87051276D02*
X87778904Y-87054560D01*
X206537290Y-34869042D02*
X206422019Y-34952883D01*
X201920249Y-46450400D02*
X201934495Y-46735361D01*
X99826185Y-58741120D02*
X99076423Y-58462800D01*
X180592417Y-123945521D02*
X180795774Y-123371595D01*
X110239621Y-125690552D02*
X110308902Y-125613599D01*
X181537217Y-114628004D02*
X181534812Y-114623121D01*
X116145780Y-132593433D02*
X116003061Y-133211597D01*
X214640329Y-44119761D02*
X214659861Y-44058723D01*
X129975620Y-154702796D02*
X131148661Y-154624964D01*
X96356104Y-95862720D02*
X96323783Y-96600239D01*
X214119455Y-41819922D02*
X214068735Y-41785441D01*
X181552256Y-114674793D02*
X181551133Y-114669434D01*
X201335849Y-44694001D02*
X201355210Y-44704642D01*
X144252200Y-76622626D02*
X144159220Y-77761359D01*
X89963303Y-59062321D02*
X89218024Y-59450400D01*
X111803623Y-71704395D02*
X111679380Y-71473920D01*
X214417856Y-44569282D02*
X214452500Y-44517683D01*
X142823539Y-49188080D02*
X142336820Y-48694080D01*
X112103623Y-126487195D02*
X112492978Y-126709913D01*
X113916099Y-71560480D02*
X113520420Y-71686078D01*
X214452500Y-42178321D02*
X214417856Y-42126801D01*
X213845859Y-45019922D02*
X213904575Y-44997120D01*
X143915860Y-71665595D02*
X143932261Y-71566480D01*
X79673066Y-115575757D02*
X79397626Y-116260804D01*
X171582505Y-54841583D02*
X170987858Y-55774221D01*
X131148661Y-154624964D02*
X132270340Y-154477601D01*
X213721299Y-45083280D02*
X213740574Y-45070240D01*
X213212974Y-47259760D02*
X213240818Y-46833042D01*
X201222739Y-49224720D02*
X201155381Y-49209440D01*
X112073942Y-72090156D02*
X112065860Y-72091761D01*
X101309543Y-59444242D02*
X100570823Y-59068482D01*
X80380265Y-78215595D02*
X80662105Y-78862000D01*
X209416892Y-59963602D02*
X209455210Y-59819922D01*
X161828501Y-101857679D02*
X162337290Y-97490320D01*
X213152414Y-40768482D02*
X213149057Y-40738962D01*
X146066086Y-70140945D02*
X145620193Y-71168345D01*
X213003611Y-40337040D02*
X212967612Y-40269041D01*
X205877219Y-35654803D02*
X205845932Y-35728243D01*
X213339377Y-45993842D02*
X213364414Y-45862321D01*
X115312980Y-144110633D02*
X115526664Y-145144556D01*
X111910019Y-71898157D02*
X111859299Y-71806318D01*
X170100609Y-96779472D02*
X171571345Y-96314375D01*
X87412024Y-107557355D02*
X86548023Y-108110639D01*
X117920261Y-150290955D02*
X118496903Y-150964075D01*
X115163462Y-128075196D02*
X115536423Y-128241920D01*
X142400022Y-141654798D02*
X142336661Y-140480079D01*
X140414499Y-149499756D02*
X140896659Y-148684717D01*
X167372336Y-134966077D02*
X167378574Y-134965357D01*
X179295615Y-110815919D02*
X178989609Y-110465436D01*
X176964978Y-49393985D02*
X176077220Y-50045008D01*
X79760026Y-76258320D02*
X79929465Y-76913117D01*
X201689695Y-45143922D02*
X201715134Y-45211762D01*
X212174900Y-56479200D02*
X212287290Y-56337040D01*
X101064502Y-134214161D02*
X102090983Y-133579761D01*
X99010184Y-135243677D02*
X100037143Y-134769117D01*
X114871940Y-141586878D02*
X114872019Y-141592957D01*
X213581370Y-41529282D02*
X213521213Y-41480002D01*
X180463565Y-90378849D02*
X181470340Y-89181127D01*
X170132419Y-134523438D02*
X170612571Y-134401844D01*
X97984583Y-135637195D02*
X99010184Y-135243677D01*
X213149057Y-40738962D02*
X213144419Y-40709360D01*
X115794663Y-146129603D02*
X116116099Y-147064954D01*
X202866099Y-39146802D02*
X202818735Y-39208240D01*
X210579136Y-37544802D02*
X210418332Y-37358483D01*
X213079294Y-40498240D02*
X213065940Y-40466962D01*
X108227384Y-65776478D02*
X107583939Y-64937916D01*
X186220166Y-45850481D02*
X185126778Y-46017577D01*
X201082419Y-44585602D02*
X201138010Y-44612000D01*
X209265610Y-35660482D02*
X209229856Y-35586483D01*
X78852106Y-118365357D02*
X78764426Y-119082313D01*
X209840171Y-36625362D02*
X209717930Y-36453123D01*
X181542649Y-117952796D02*
X181555137Y-114707520D01*
X214731540Y-42953922D02*
X214720652Y-42889362D01*
X84433625Y-63048801D02*
X83870984Y-63614319D01*
X206160972Y-35204482D02*
X206114097Y-35261843D01*
X205791050Y-35881922D02*
X205767698Y-35962083D01*
X202565452Y-39621122D02*
X202542490Y-39678400D01*
X161654490Y-104067200D02*
X161644895Y-104017597D01*
X183233616Y-86550880D02*
X184555986Y-86872606D01*
X209151377Y-35446082D02*
X209108896Y-35379763D01*
X155967618Y-131648719D02*
X156854178Y-132078394D01*
X203098459Y-81642341D02*
X204057983Y-80677203D01*
X152395957Y-62346921D02*
X151500967Y-63057099D01*
X200423618Y-42864561D02*
X200393699Y-42983680D01*
X213177610Y-40972721D02*
X213169700Y-40942640D01*
X109415378Y-126663038D02*
X109656504Y-126372156D01*
X128404581Y-45453281D02*
X128397458Y-45454880D01*
X79237066Y-123523682D02*
X79483625Y-124284241D01*
X209229856Y-35586483D02*
X209191697Y-35515043D01*
X119569224Y-52079282D02*
X118983298Y-53482401D01*
X184555986Y-86872606D02*
X185886301Y-87105906D01*
X202692014Y-39388401D02*
X202655454Y-39447282D01*
X144550498Y-68963679D02*
X144703458Y-68394800D01*
X207866172Y-34579203D02*
X207797458Y-34569362D01*
X185886301Y-87105906D02*
X187220547Y-87251770D01*
X110073862Y-125879444D02*
X110160898Y-125779517D01*
X212391135Y-56195682D02*
X212486741Y-56053760D01*
X179422410Y-126648560D02*
X179675852Y-126131995D01*
X167378574Y-134965357D02*
X169223850Y-134698157D01*
X142159220Y-77441358D02*
X143895621Y-71783839D01*
X200489609Y-43990961D02*
X200542099Y-44088080D01*
X214708091Y-43870640D02*
X214720652Y-43806641D01*
X115526664Y-145144556D02*
X115794663Y-146129603D01*
X100570823Y-59068482D02*
X99826185Y-58741120D01*
X112159458Y-72071436D02*
X112073942Y-72090156D01*
X171571345Y-96314375D02*
X173002496Y-95748062D01*
X119263620Y-70345276D02*
X118286423Y-70513599D01*
X213210972Y-41065040D02*
X213187131Y-41003202D01*
X214754014Y-43149921D02*
X214748252Y-43084241D01*
X132055222Y-45438642D02*
X128441141Y-45449601D01*
X141664902Y-146904883D02*
X141949222Y-145943275D01*
X144996824Y-67269837D02*
X145255863Y-66169599D01*
X212947617Y-54939200D02*
X212987375Y-54748722D01*
X123973942Y-47121360D02*
X123466343Y-47410480D01*
X118496903Y-150964075D02*
X119122184Y-151582081D01*
X194927079Y-46606805D02*
X193864488Y-46310669D01*
X143984983Y-71293677D02*
X144020578Y-71124476D01*
X202622092Y-39505601D02*
X202592014Y-39563602D01*
X87136103Y-134228235D02*
X87808185Y-134688953D01*
X144159702Y-70512000D02*
X144275699Y-70034559D01*
X203746494Y-38257361D02*
X203599619Y-38381440D01*
X90881705Y-136225281D02*
X90885785Y-136226319D01*
X209326206Y-70099642D02*
X209514900Y-68786544D01*
X110431302Y-125537598D02*
X110438102Y-125541041D01*
X122114182Y-48397602D02*
X121716739Y-48769761D01*
X213801780Y-45037360D02*
X213823459Y-45028242D01*
X146090342Y-60099122D02*
X146109940Y-59178080D01*
X144020578Y-71124476D02*
X144061783Y-70936317D01*
X170441871Y-56740575D02*
X169946238Y-57739019D01*
X200748972Y-44349842D02*
X200790574Y-44388560D01*
X144622347Y-74386360D02*
X144406972Y-75496885D01*
X82066663Y-81537757D02*
X82069224Y-81540320D01*
X84221705Y-109837195D02*
X83535303Y-110434400D01*
X201942099Y-48037681D02*
X201937693Y-48226560D01*
X95277863Y-57817441D02*
X94513703Y-57839841D01*
X79464585Y-72972077D02*
X79450826Y-73628956D01*
X201830735Y-49035602D02*
X201823301Y-49054160D01*
X111750101Y-126281275D02*
X112103623Y-126487195D01*
X201621616Y-44996320D02*
X201635776Y-45023441D01*
X200753049Y-49088560D02*
X200659458Y-49055042D01*
X212374570Y-39420240D02*
X212233616Y-39252720D01*
X106166504Y-130261597D02*
X107172184Y-129240723D01*
X93749863Y-57913602D02*
X92987143Y-58038880D01*
X138016422Y-46120002D02*
X137270664Y-45882322D01*
X116916099Y-148782801D02*
X117393064Y-149563514D01*
X205471055Y-36552962D02*
X205424900Y-36621602D01*
X206782737Y-34730483D02*
X206657773Y-34794802D01*
X105154422Y-131206641D02*
X106166504Y-130261597D01*
X119795218Y-152144080D02*
X120515299Y-152649122D01*
X113148258Y-71799756D02*
X112808420Y-71899195D01*
X214570969Y-42398722D02*
X214544260Y-42341761D01*
X100037143Y-134769117D02*
X101064502Y-134214161D01*
X201235056Y-41595682D02*
X201125852Y-41702720D01*
X201806015Y-45537281D02*
X201825376Y-45632081D01*
X210778977Y-57953840D02*
X211125535Y-57601121D01*
X181553135Y-114680152D02*
X181552256Y-114674793D01*
X212850254Y-55291682D02*
X212902097Y-55119922D01*
X124792661Y-154288795D02*
X126159781Y-154504078D01*
X213596653Y-45216242D02*
X213613779Y-45192081D01*
X90877704Y-136224158D02*
X90881705Y-136225281D01*
X209017698Y-35254723D02*
X208969211Y-35196082D01*
X213075620Y-54105521D02*
X213096018Y-53862562D01*
X175725006Y-94322801D02*
X177005844Y-93469361D01*
X114872342Y-141574634D02*
X114872019Y-141580799D01*
X200839939Y-42037681D02*
X200758652Y-42153123D01*
X213676731Y-41594721D02*
X213644333Y-41574161D01*
X112808420Y-71899195D02*
X112509861Y-71982398D01*
X208269401Y-73920906D02*
X208702230Y-72670768D01*
X201663291Y-45081202D02*
X201689695Y-45143922D01*
X177005844Y-93469361D02*
X178226057Y-92525720D01*
X213961374Y-41724802D02*
X213904575Y-41698881D01*
X201930649Y-48399280D02*
X201920420Y-48555842D01*
X167347300Y-134966956D02*
X167353611Y-134967042D01*
X144061783Y-70936317D02*
X144108262Y-70731440D01*
X82297065Y-111660236D02*
X81745545Y-112288477D01*
X201009567Y-83368995D02*
X202078121Y-82542943D01*
X201155381Y-49209440D02*
X201083616Y-49191202D01*
X214302012Y-44713441D02*
X214342649Y-44667280D01*
X201851938Y-48973441D02*
X201845054Y-48995200D01*
X213155210Y-40827680D02*
X213154490Y-40798081D01*
X202488010Y-39962083D02*
X202486814Y-39986481D01*
X166133341Y-58265114D02*
X165007073Y-58222043D01*
X201355210Y-44704642D02*
X201374180Y-44716001D01*
X118978501Y-53495362D02*
X118977140Y-53499760D01*
X144406980Y-69514319D02*
X144550498Y-68963679D01*
X177719297Y-129454554D02*
X178023374Y-129024561D01*
X213163376Y-40912961D02*
X213158896Y-40883921D01*
X202129136Y-40716563D02*
X202090256Y-40767521D01*
X153328797Y-61687248D02*
X152395957Y-62346921D01*
X89218024Y-59450400D02*
X88478583Y-59891920D01*
X209064255Y-35316003D02*
X209017698Y-35254723D01*
X180154172Y-125061683D02*
X180378501Y-124509034D01*
X120995218Y-49584800D02*
X120669059Y-50029520D01*
X81745545Y-112288477D02*
X81239304Y-112926716D01*
X140918583Y-134068799D02*
X140408500Y-132689918D01*
X211923374Y-56770640D02*
X212053696Y-56623282D01*
X110844181Y-125763758D02*
X111112900Y-125915284D01*
X111859299Y-71806318D02*
X111803623Y-71704395D01*
X212084495Y-39083762D02*
X211927939Y-38914481D01*
X200602890Y-44180640D02*
X200636338Y-44224961D01*
X204129050Y-37965522D02*
X204055210Y-38019922D01*
X201498093Y-44819361D02*
X201514573Y-44837842D01*
X207452097Y-34558962D02*
X207452012Y-34558962D01*
X209740574Y-59177201D02*
X209819370Y-59054960D01*
X201023618Y-41812241D02*
X200928257Y-41924000D01*
X111998661Y-72055836D02*
X111994260Y-72048157D01*
X90889783Y-136227283D02*
X90893863Y-136228162D01*
X118970499Y-53531202D02*
X118970023Y-53535840D01*
X200790574Y-44388560D02*
X200834177Y-44425602D01*
X114300901Y-127661524D02*
X114747062Y-127879359D01*
X213644333Y-41574161D02*
X213581370Y-41529282D01*
X200659458Y-49055042D02*
X200561374Y-49018320D01*
X118286423Y-70513599D02*
X117764902Y-70607838D01*
X143697623Y-50267762D02*
X143277219Y-49712800D01*
X147726945Y-67225714D02*
X147120651Y-68167404D01*
X142336820Y-48694080D02*
X141817142Y-48230961D01*
X179919932Y-125602796D02*
X180154172Y-125061683D01*
X161939377Y-104436317D02*
X161898813Y-104414558D01*
X205555295Y-36419123D02*
X205514573Y-36485363D01*
X200684580Y-42269840D02*
X200617698Y-42387681D01*
X180342331Y-112319916D02*
X180107212Y-111928559D01*
X107172184Y-129240723D02*
X108170340Y-128144874D01*
X155281115Y-60535578D02*
X154291339Y-61083294D01*
X146046903Y-57415922D02*
X145964420Y-56575120D01*
X205753220Y-36010242D02*
X205735056Y-36061283D01*
X201779380Y-41118082D02*
X201730491Y-41166001D01*
X181539536Y-114633033D02*
X181537217Y-114628004D01*
X128383298Y-45458961D02*
X126317704Y-46138642D01*
X136220981Y-153221363D02*
X137068979Y-152748072D01*
X96041623Y-57845920D02*
X95277863Y-57817441D01*
X209906260Y-58932001D02*
X210001853Y-58807282D01*
X110438102Y-125541041D02*
X110445780Y-125545032D01*
X214677695Y-43996720D02*
X214693772Y-43934080D01*
X208397934Y-34750483D02*
X208334018Y-34720083D01*
X206911619Y-34676003D02*
X206782737Y-34730483D01*
X201758811Y-49165201D02*
X201750498Y-49174961D01*
X88478583Y-59891920D02*
X87725943Y-60387360D01*
X112261539Y-72047040D02*
X112159458Y-72071436D01*
X160322654Y-133495435D02*
X161167453Y-133773035D01*
X180378501Y-124509034D02*
X180592417Y-123945521D01*
X201900339Y-46188480D02*
X201920249Y-46450400D01*
X213811216Y-41662961D02*
X213776975Y-41648160D01*
X208522739Y-34819042D02*
X208460898Y-34783523D01*
X203898569Y-38136561D02*
X203746494Y-38257361D01*
X201464255Y-44785361D02*
X201481370Y-44801920D01*
X209639560Y-66125006D02*
X209573073Y-64784457D01*
X212840256Y-40054243D02*
X212791697Y-39979362D01*
X201536411Y-49259681D02*
X201494809Y-49260322D01*
X174840256Y-132665674D02*
X174844016Y-132663514D01*
X202773777Y-39268961D02*
X202731455Y-39328962D01*
X145827060Y-63019202D02*
X145948978Y-62019922D01*
X202049778Y-40818400D02*
X202007859Y-40869282D01*
X87778904Y-87054560D02*
X87782425Y-87057758D01*
X211927939Y-38914481D02*
X211764890Y-38745841D01*
X181528574Y-121199683D02*
X181542649Y-117954395D01*
X89119224Y-135416883D02*
X90850425Y-136213758D01*
X82050184Y-81518317D02*
X82052344Y-81521198D01*
X96475464Y-94148157D02*
X96432743Y-94614161D01*
X174449216Y-107274958D02*
X173929294Y-107044800D01*
X110525382Y-125587684D02*
X110619059Y-125638795D01*
X144084580Y-50852802D02*
X143697623Y-50267762D01*
X201607139Y-44970402D02*
X201621616Y-44996320D01*
X213364414Y-45862321D02*
X213391135Y-45742240D01*
X174878660Y-132637195D02*
X174881772Y-132634156D01*
X116116099Y-147064954D02*
X116490183Y-147949598D01*
X207659372Y-34557442D02*
X207590171Y-34555363D01*
X201481370Y-44801920D02*
X201498093Y-44819361D01*
X205761121Y-78593222D02*
X206502281Y-77482269D01*
X201635776Y-45023441D02*
X201663291Y-45081202D01*
X87782425Y-87057758D02*
X87786023Y-87060798D01*
X115536423Y-128241920D02*
X115536423Y-128240320D01*
X135670823Y-45426160D02*
X132055222Y-45438642D01*
X109656504Y-126372156D02*
X109877781Y-126108802D01*
X143901139Y-71766639D02*
X143902659Y-71760798D01*
X201546579Y-44877842D02*
X201562180Y-44899360D01*
X83806904Y-131178235D02*
X84452265Y-131869361D01*
X95942344Y-136178004D02*
X96961625Y-135948878D01*
X201741941Y-49184080D02*
X201733298Y-49192481D01*
X128390342Y-45456800D02*
X128383298Y-45458961D01*
X137858823Y-152214075D02*
X138589463Y-151620716D01*
X213091770Y-40529200D02*
X213079294Y-40498240D01*
X135315940Y-153632484D02*
X136220981Y-153221363D01*
X213521213Y-41480002D02*
X213464255Y-41427042D01*
X111679380Y-71473920D02*
X111540659Y-71213196D01*
X92226343Y-58216080D02*
X91468265Y-58445521D01*
X120567862Y-66637678D02*
X120762180Y-67210956D01*
X205910972Y-35583523D02*
X205877219Y-35654803D01*
X89271543Y-106485279D02*
X88319864Y-107015516D01*
X213036411Y-40403040D02*
X213003611Y-40337040D01*
X179854331Y-111547516D02*
X179583860Y-111176636D01*
X116003061Y-133211597D02*
X115858341Y-133909998D01*
X202267539Y-40514960D02*
X202235776Y-40564881D01*
X142326182Y-129745753D02*
X143265702Y-129473914D01*
X161660093Y-103173200D02*
X161685056Y-102954395D01*
X213113694Y-40590082D02*
X213103293Y-40559760D01*
X201125852Y-41702720D02*
X201023618Y-41812241D01*
X200879856Y-44461121D02*
X200927451Y-44494880D01*
X90850425Y-136213758D02*
X90854264Y-136215516D01*
X115434183Y-71131599D02*
X114877298Y-71278156D01*
X209217295Y-61410322D02*
X209299534Y-60837122D01*
X106260184Y-63395197D02*
X105581223Y-62691761D01*
X201877060Y-48875440D02*
X201864975Y-48926642D01*
X214748252Y-43084241D02*
X214740732Y-43018882D01*
X139412339Y-46694480D02*
X138730423Y-46390800D01*
X213464255Y-41427042D02*
X213410813Y-41370881D01*
X174872251Y-132643116D02*
X174875449Y-132640162D01*
X188417650Y-45691933D02*
X187317905Y-45742001D01*
X202523301Y-39735361D02*
X202508091Y-39792161D01*
X210262815Y-37171763D02*
X210113852Y-36986323D01*
X79878266Y-70364478D02*
X79721546Y-71012159D01*
X212053696Y-56623282D02*
X212174900Y-56479200D01*
X201715134Y-45211762D02*
X201739536Y-45284962D01*
X201783689Y-49131122D02*
X201775449Y-49143360D01*
X118977140Y-53499760D02*
X118975858Y-53504160D01*
X120515299Y-152649122D02*
X121281620Y-153096314D01*
X213021616Y-54547202D02*
X213050974Y-54333280D01*
X139455143Y-130454395D02*
X141456742Y-129971595D01*
X201684653Y-49225761D02*
X201673459Y-49230881D01*
X201843210Y-45732322D02*
X201859690Y-45838080D01*
X122949540Y-153813672D02*
X123849619Y-154081922D01*
X126317704Y-46138642D02*
X125682578Y-46360242D01*
X84922345Y-84295038D02*
X87775464Y-87051276D01*
X201705381Y-49214002D02*
X201695212Y-49220161D01*
X200352256Y-43451761D02*
X200362900Y-43565201D01*
X104192344Y-61422480D02*
X103483783Y-60857361D01*
X214758176Y-43215842D02*
X214754014Y-43149921D01*
X203599619Y-38381440D02*
X203458579Y-38507920D01*
X93919224Y-136385438D02*
X94927784Y-136323756D01*
X199876731Y-48735682D02*
X199010093Y-48359202D01*
X172910989Y-53083973D02*
X172224114Y-53944291D01*
X85028504Y-62493680D02*
X84433625Y-63048801D01*
X120364420Y-50500400D02*
X120080338Y-50998322D01*
X209298972Y-35737043D02*
X209265610Y-35660482D01*
X200362900Y-43565201D02*
X200381931Y-43676240D01*
X205688169Y-36171682D02*
X205659690Y-36230483D01*
X207590171Y-34555363D02*
X207521055Y-34555843D01*
X143265702Y-129473914D02*
X144237381Y-129169202D01*
X119808341Y-64172956D02*
X119984104Y-64780079D01*
X83535303Y-110434400D02*
X82893705Y-111042158D01*
X173929294Y-107044800D02*
X173391379Y-106824476D01*
X79995226Y-114899512D02*
X79673066Y-115575757D01*
X164761374Y-104848157D02*
X164080979Y-104774317D01*
X213780735Y-45047361D02*
X213801780Y-45037360D01*
X118997623Y-61301282D02*
X118998978Y-61307520D01*
X144406972Y-75496885D02*
X144252200Y-76622626D01*
X214659861Y-42637360D02*
X214640329Y-42576240D01*
X201635776Y-49244001D02*
X201621689Y-49247681D01*
X123849619Y-154081922D02*
X124792661Y-154288795D01*
X191206769Y-87174659D02*
X192516633Y-86980692D01*
X213684177Y-45113441D02*
X213702500Y-45097681D01*
X212654172Y-55763282D02*
X212726658Y-55612083D01*
X209499216Y-59683201D02*
X209549289Y-59551841D01*
X213103293Y-40559760D02*
X213091770Y-40529200D01*
X200381931Y-43676240D02*
X200409458Y-43784562D01*
X204494809Y-37664323D02*
X204422580Y-37728000D01*
X115858341Y-133909998D02*
X115715702Y-134665198D01*
X161898813Y-104414558D02*
X161862009Y-104391840D01*
X113520420Y-71686078D02*
X113148258Y-71799756D01*
X176350010Y-108294959D02*
X175901609Y-108025037D01*
X79929465Y-76913117D02*
X80136106Y-77565760D01*
X213154490Y-40798081D02*
X213152414Y-40768482D01*
X207452012Y-34558962D02*
X207314499Y-34572883D01*
X214758176Y-43480161D02*
X214760654Y-43414161D01*
X208460898Y-34783523D02*
X208397934Y-34750483D01*
X209455210Y-59819922D02*
X209499216Y-59683201D01*
X86314185Y-61416642D02*
X85655463Y-61949442D01*
X95438025Y-91721601D02*
X96672345Y-92362238D01*
X174851450Y-132658875D02*
X174855051Y-132656483D01*
X201859690Y-45838080D02*
X201874656Y-45949280D01*
X108857541Y-66659437D02*
X108227384Y-65776478D01*
X134355143Y-153979835D02*
X135315940Y-153632484D01*
X80126026Y-125822559D02*
X80527866Y-126604554D01*
X141949222Y-145943275D02*
X142165781Y-144935840D01*
X201255210Y-44658961D02*
X201296177Y-44675040D01*
X202655454Y-39447282D02*
X202622092Y-39505601D01*
X174951218Y-107515119D02*
X174449216Y-107274958D01*
X174884812Y-132630958D02*
X176431699Y-131005994D01*
X132270340Y-154477601D02*
X133339542Y-154262000D01*
X95097944Y-91537995D02*
X95438025Y-91721601D01*
X214731540Y-43742161D02*
X214740732Y-43677122D01*
X213740574Y-45070240D02*
X213760410Y-45058240D01*
X179675852Y-126131995D02*
X179919932Y-125602796D01*
X78764426Y-119082313D02*
X78724025Y-119806397D01*
X173641434Y-52262258D02*
X172910989Y-53083973D01*
X118970023Y-53535840D02*
X118969700Y-53540400D01*
X172224114Y-53944291D02*
X171582505Y-54841583D01*
X128411863Y-45452003D02*
X128404581Y-45453281D01*
X213449131Y-45534800D02*
X213480173Y-45446961D01*
X79514505Y-72316559D02*
X79464585Y-72972077D01*
X142201059Y-139267432D02*
X141992344Y-138018397D01*
X201815610Y-49071680D02*
X201807859Y-49088080D01*
X201195615Y-44636481D02*
X201255210Y-44658961D01*
X110407859Y-125526075D02*
X110419138Y-125531592D01*
X103483783Y-60857361D02*
X102766663Y-60339042D01*
X179831986Y-47727895D02*
X178844057Y-48233800D01*
X201392820Y-44728162D02*
X201411216Y-44741120D01*
X201629929Y-41259122D02*
X201578574Y-41304081D01*
X212928330Y-40199122D02*
X212885849Y-40127521D01*
X210113852Y-36986323D02*
X209972580Y-36803683D01*
X212486741Y-56053760D02*
X212574338Y-55910081D01*
X145203141Y-128844642D02*
X146124820Y-128513282D01*
X112023942Y-72098157D02*
X112016898Y-72086317D01*
X170987858Y-55774221D02*
X170441871Y-56740575D01*
X213743052Y-41631840D02*
X213709617Y-41614002D01*
X181543613Y-114643201D02*
X181541611Y-114638074D01*
X142159220Y-77441358D02*
X144159220Y-77761359D01*
M02*
