%TF.GenerationSoftware,KiCad,Pcbnew,7.0.9*%
%TF.CreationDate,2024-01-30T18:45:19-06:00*%
%TF.ProjectId,bsidesPR,62736964-6573-4505-922e-6b696361645f,rev?*%
%TF.SameCoordinates,Original*%
%TF.FileFunction,Paste,Bot*%
%TF.FilePolarity,Positive*%
%FSLAX46Y46*%
G04 Gerber Fmt 4.6, Leading zero omitted, Abs format (unit mm)*
G04 Created by KiCad (PCBNEW 7.0.9) date 2024-01-30 18:45:19*
%MOMM*%
%LPD*%
G01*
G04 APERTURE LIST*
G04 Aperture macros list*
%AMRoundRect*
0 Rectangle with rounded corners*
0 $1 Rounding radius*
0 $2 $3 $4 $5 $6 $7 $8 $9 X,Y pos of 4 corners*
0 Add a 4 corners polygon primitive as box body*
4,1,4,$2,$3,$4,$5,$6,$7,$8,$9,$2,$3,0*
0 Add four circle primitives for the rounded corners*
1,1,$1+$1,$2,$3*
1,1,$1+$1,$4,$5*
1,1,$1+$1,$6,$7*
1,1,$1+$1,$8,$9*
0 Add four rect primitives between the rounded corners*
20,1,$1+$1,$2,$3,$4,$5,0*
20,1,$1+$1,$4,$5,$6,$7,0*
20,1,$1+$1,$6,$7,$8,$9,0*
20,1,$1+$1,$8,$9,$2,$3,0*%
G04 Aperture macros list end*
%ADD10RoundRect,0.237500X0.250000X0.237500X-0.250000X0.237500X-0.250000X-0.237500X0.250000X-0.237500X0*%
%ADD11R,2.750000X1.000000*%
%ADD12RoundRect,0.237500X-0.237500X0.250000X-0.237500X-0.250000X0.237500X-0.250000X0.237500X0.250000X0*%
%ADD13RoundRect,0.150000X0.587500X0.150000X-0.587500X0.150000X-0.587500X-0.150000X0.587500X-0.150000X0*%
%ADD14RoundRect,0.150000X-0.587500X-0.150000X0.587500X-0.150000X0.587500X0.150000X-0.587500X0.150000X0*%
%ADD15RoundRect,0.225000X-0.375000X0.225000X-0.375000X-0.225000X0.375000X-0.225000X0.375000X0.225000X0*%
%ADD16RoundRect,0.250000X-0.337500X-0.475000X0.337500X-0.475000X0.337500X0.475000X-0.337500X0.475000X0*%
%ADD17RoundRect,0.250000X-0.475000X0.337500X-0.475000X-0.337500X0.475000X-0.337500X0.475000X0.337500X0*%
%ADD18RoundRect,0.250001X0.849999X-0.462499X0.849999X0.462499X-0.849999X0.462499X-0.849999X-0.462499X0*%
%ADD19RoundRect,0.237500X-0.237500X0.300000X-0.237500X-0.300000X0.237500X-0.300000X0.237500X0.300000X0*%
%ADD20RoundRect,0.150000X-0.150000X0.512500X-0.150000X-0.512500X0.150000X-0.512500X0.150000X0.512500X0*%
%ADD21RoundRect,0.225000X0.375000X-0.225000X0.375000X0.225000X-0.375000X0.225000X-0.375000X-0.225000X0*%
%ADD22RoundRect,0.237500X-0.250000X-0.237500X0.250000X-0.237500X0.250000X0.237500X-0.250000X0.237500X0*%
G04 APERTURE END LIST*
D10*
%TO.C,R6*%
X91686672Y-62941701D03*
X93511672Y-62941701D03*
%TD*%
D11*
%TO.C,SW1*%
X132007888Y-147045921D03*
X126247888Y-147045921D03*
X132007888Y-151045921D03*
X126247888Y-151045921D03*
%TD*%
D12*
%TO.C,R1*%
X98838172Y-128579401D03*
X98838172Y-130404401D03*
%TD*%
D13*
%TO.C,Q1*%
X100795672Y-127587901D03*
X102670672Y-128537901D03*
X102670672Y-126637901D03*
%TD*%
D12*
%TO.C,R4*%
X98670672Y-122500401D03*
X98670672Y-120675401D03*
%TD*%
D14*
%TO.C,Q2*%
X102608172Y-121537901D03*
X100733172Y-120587901D03*
X100733172Y-122487901D03*
%TD*%
D15*
%TO.C,D52*%
X87736888Y-120883921D03*
X87736888Y-117583921D03*
%TD*%
D16*
%TO.C,C1*%
X92086888Y-129233921D03*
X90011888Y-129233921D03*
%TD*%
D17*
%TO.C,C5*%
X92086888Y-119771421D03*
X92086888Y-117696421D03*
%TD*%
D18*
%TO.C,L1*%
X87736888Y-123211421D03*
X87736888Y-125536421D03*
%TD*%
D19*
%TO.C,C3*%
X96586888Y-122596421D03*
X96586888Y-120871421D03*
%TD*%
D20*
%TO.C,U2*%
X90086888Y-125233921D03*
X91986888Y-125233921D03*
X91986888Y-122958921D03*
X91036888Y-122958921D03*
X90086888Y-122958921D03*
%TD*%
D12*
%TO.C,R2*%
X95086888Y-122646421D03*
X95086888Y-120821421D03*
%TD*%
D17*
%TO.C,C4*%
X90086888Y-119771421D03*
X90086888Y-117696421D03*
%TD*%
D12*
%TO.C,R3*%
X93586888Y-124646421D03*
X93586888Y-122821421D03*
%TD*%
D16*
%TO.C,C2*%
X92086888Y-127233921D03*
X90011888Y-127233921D03*
%TD*%
D21*
%TO.C,D51*%
X96552172Y-127079901D03*
X96552172Y-130379901D03*
%TD*%
D22*
%TO.C,R5*%
X104583172Y-124537901D03*
X102758172Y-124537901D03*
%TD*%
M02*
