M48
; DRILL file {KiCad 7.0.9} date Tue Jan 30 18:45:31 2024
; FORMAT={-:-/ absolute / metric / decimal}
; #@! TF.CreationDate,2024-01-30T18:45:31-06:00
; #@! TF.GenerationSoftware,Kicad,Pcbnew,7.0.9
; #@! TF.FileFunction,Plated,1,2,PTH
FMAT,2
METRIC
; #@! TA.AperFunction,Plated,PTH,ViaDrill
T1C0.400
; #@! TA.AperFunction,Plated,PTH,ViaDrill
T2C0.500
; #@! TA.AperFunction,Plated,PTH,ComponentDrill
T3C1.000
; #@! TA.AperFunction,Plated,PTH,ComponentDrill
T4C1.200
%
G90
G05
T1
X90.085Y-69.825
X90.135Y-62.942
X92.853Y-86.361
X93.107Y-113.31
X93.92Y-129.236
X95.469Y-114.428
X97.298Y-124.646
X97.4Y-75.921
X98.34Y-126.01
X101.769Y-119.127
X102.632Y-103.785
X104.41Y-122.53
X104.685Y-91.868
X106.087Y-70.867
X108.347Y-116.485
X108.804Y-105.106
X109.287Y-81.712
X110.506Y-114.707
X110.506Y-120.651
X112.005Y-116.866
X112.945Y-94.539
X116.018Y-119.558
X119.142Y-127.28
X120.285Y-93.117
X120.569Y-77.72
X121.682Y-117.755
X121.682Y-144.425
X123.46Y-72.797
X123.46Y-74.448
X124.222Y-105.055
X125.141Y-61.489
X128.921Y-72.797
X128.921Y-74.448
X129.937Y-112.675
X131.313Y-100.707
X131.842Y-143.155
X134.155Y-152.701
X134.514Y-63.547
X136.181Y-50.212
X136.266Y-130.455
X139.619Y-77.771
X140.453Y-82.119
X140.732Y-144.425
X142.616Y-117.528
X143.018Y-83.44
X143.201Y-93.874
X144.318Y-62.023
X144.517Y-104.217
X146.676Y-93.955
X148.174Y-103.633
X150.943Y-93.6
X151.781Y-76.099
X151.786Y-84.095
X152.416Y-90.45
X154.448Y-76.099
X154.702Y-122.2
X160.062Y-107.068
X161.052Y-95.53
X161.687Y-70.765
X162.322Y-132.36
X163.592Y-85.243
X163.846Y-67.209
X166.767Y-82.83
X169.286Y-123.243
X171.847Y-112.675
X172.482Y-94.895
X174.424Y-86.386
X176.927Y-66.32
X178.197Y-126.645
X181.372Y-82.83
X185.817Y-55.525
X188.738Y-77.369
X191.532Y-68.225
X191.736Y-79.883
X191.765Y-80.882
X198.067Y-71.654
X199.152Y-55.525
X199.787Y-77.115
X205.502Y-66.32
X209.947Y-51.715
T2
X100.927Y-129.261
X105.68Y-123.851
X108.004Y-126.251
T3
X82.947Y-115.977
X82.947Y-118.517
X82.947Y-121.057
T4
X156.113Y-86.36
X156.113Y-99.16
T0
M30
