%TF.GenerationSoftware,KiCad,Pcbnew,7.0.9*%
%TF.CreationDate,2024-02-12T09:09:14-06:00*%
%TF.ProjectId,bsidesPR,62736964-6573-4505-922e-6b696361645f,rev?*%
%TF.SameCoordinates,Original*%
%TF.FileFunction,Soldermask,Top*%
%TF.FilePolarity,Negative*%
%FSLAX46Y46*%
G04 Gerber Fmt 4.6, Leading zero omitted, Abs format (unit mm)*
G04 Created by KiCad (PCBNEW 7.0.9) date 2024-02-12 09:09:14*
%MOMM*%
%LPD*%
G01*
G04 APERTURE LIST*
%ADD10R,1.500000X0.900000*%
%ADD11C,1.000000*%
%ADD12R,1.700000X1.700000*%
%ADD13O,1.700000X1.700000*%
%ADD14R,3.000000X3.000000*%
%ADD15C,3.000000*%
%ADD16C,2.374900*%
%ADD17C,0.990600*%
G04 APERTURE END LIST*
D10*
%TO.C,D35*%
X164174000Y-118111000D03*
X164174000Y-121411000D03*
X169074000Y-121411000D03*
X169074000Y-118111000D03*
%TD*%
%TO.C,D38*%
X156591000Y-65532000D03*
X156591000Y-68832000D03*
X161491000Y-68832000D03*
X161491000Y-65532000D03*
%TD*%
%TO.C,D6*%
X97753000Y-99061000D03*
X97753000Y-102361000D03*
X102653000Y-102361000D03*
X102653000Y-99061000D03*
%TD*%
D11*
%TO.C,*%
X197859000Y-79883000D03*
%TD*%
D10*
%TO.C,D40*%
X146902000Y-79122000D03*
X146902000Y-82422000D03*
X151802000Y-82422000D03*
X151802000Y-79122000D03*
%TD*%
%TO.C,D44*%
X176747000Y-77598000D03*
X176747000Y-80898000D03*
X181647000Y-80898000D03*
X181647000Y-77598000D03*
%TD*%
%TO.C,D18*%
X134747000Y-72898000D03*
X134747000Y-76198000D03*
X139647000Y-76198000D03*
X139647000Y-72898000D03*
%TD*%
%TO.C,D22*%
X116840000Y-102364000D03*
X116840000Y-105664000D03*
X121740000Y-105664000D03*
X121740000Y-102364000D03*
%TD*%
%TO.C,D46*%
X181102000Y-50420000D03*
X181102000Y-53720000D03*
X186002000Y-53720000D03*
X186002000Y-50420000D03*
%TD*%
D11*
%TO.C,REF\u002A\u002A*%
X197859000Y-79883000D03*
%TD*%
D10*
%TO.C,D37*%
X155157000Y-102363000D03*
X155157000Y-105663000D03*
X160057000Y-105663000D03*
X160057000Y-102363000D03*
%TD*%
%TO.C,D14*%
X129630000Y-46864000D03*
X129630000Y-50164000D03*
X134530000Y-50164000D03*
X134530000Y-46864000D03*
%TD*%
%TO.C,D23*%
X138049000Y-102491000D03*
X138049000Y-105791000D03*
X142949000Y-105791000D03*
X142949000Y-102491000D03*
%TD*%
%TO.C,D50*%
X205068000Y-46737000D03*
X205068000Y-50037000D03*
X209968000Y-50037000D03*
X209968000Y-46737000D03*
%TD*%
%TO.C,D7*%
X101944000Y-113031000D03*
X101944000Y-116331000D03*
X106844000Y-116331000D03*
X106844000Y-113031000D03*
%TD*%
%TO.C,D1*%
X85180000Y-64898000D03*
X85180000Y-68198000D03*
X90080000Y-68198000D03*
X90080000Y-64898000D03*
%TD*%
%TO.C,D42*%
X161726372Y-78106501D03*
X161726372Y-81406501D03*
X166626372Y-81406501D03*
X166626372Y-78106501D03*
%TD*%
%TO.C,D39*%
X193167000Y-74043000D03*
X193167000Y-77343000D03*
X198067000Y-77343000D03*
X198067000Y-74043000D03*
%TD*%
%TO.C,D13*%
X120232000Y-56516000D03*
X120232000Y-59816000D03*
X125132000Y-59816000D03*
X125132000Y-56516000D03*
%TD*%
%TO.C,D21*%
X126418000Y-95758000D03*
X126418000Y-99058000D03*
X131318000Y-99058000D03*
X131318000Y-95758000D03*
%TD*%
%TO.C,D15*%
X139446000Y-57024000D03*
X139446000Y-60324000D03*
X144346000Y-60324000D03*
X144346000Y-57024000D03*
%TD*%
%TO.C,D36*%
X166677000Y-107950000D03*
X166677000Y-111250000D03*
X171577000Y-111250000D03*
X171577000Y-107950000D03*
%TD*%
%TO.C,D27*%
X132641000Y-125222000D03*
X132641000Y-128522000D03*
X137541000Y-128522000D03*
X137541000Y-125222000D03*
%TD*%
%TO.C,D4*%
X87974000Y-81408000D03*
X87974000Y-84708000D03*
X92874000Y-84708000D03*
X92874000Y-81408000D03*
%TD*%
%TO.C,D47*%
X186653000Y-63120000D03*
X186653000Y-66420000D03*
X191553000Y-66420000D03*
X191553000Y-63120000D03*
%TD*%
%TO.C,D20*%
X138303000Y-88901000D03*
X138303000Y-92201000D03*
X143203000Y-92201000D03*
X143203000Y-88901000D03*
%TD*%
%TO.C,D24*%
X126963000Y-107316000D03*
X126963000Y-110616000D03*
X131863000Y-110616000D03*
X131863000Y-107316000D03*
%TD*%
%TO.C,D33*%
X157443000Y-127382000D03*
X157443000Y-130682000D03*
X162343000Y-130682000D03*
X162343000Y-127382000D03*
%TD*%
%TO.C,D16*%
X129630000Y-58548000D03*
X129630000Y-61848000D03*
X134530000Y-61848000D03*
X134530000Y-58548000D03*
%TD*%
D11*
%TO.C,REF\u002A\u002A*%
X195834000Y-79883000D03*
%TD*%
D10*
%TO.C,D26*%
X137975000Y-112395000D03*
X137975000Y-115695000D03*
X142875000Y-115695000D03*
X142875000Y-112395000D03*
%TD*%
%TO.C,D5*%
X99785000Y-84202000D03*
X99785000Y-87502000D03*
X104685000Y-87502000D03*
X104685000Y-84202000D03*
%TD*%
%TO.C,D49*%
X200660000Y-61468000D03*
X200660000Y-64768000D03*
X205560000Y-64768000D03*
X205560000Y-61468000D03*
%TD*%
%TO.C,D10*%
X97626000Y-127890000D03*
X97626000Y-131190000D03*
X102526000Y-131190000D03*
X102526000Y-127890000D03*
%TD*%
%TO.C,D9*%
X84164000Y-125604000D03*
X84164000Y-128904000D03*
X89064000Y-128904000D03*
X89064000Y-125604000D03*
%TD*%
%TO.C,D11*%
X92456000Y-119635000D03*
X92456000Y-122935000D03*
X97356000Y-122935000D03*
X97356000Y-119635000D03*
%TD*%
%TO.C,D48*%
X194400000Y-50674000D03*
X194400000Y-53974000D03*
X199300000Y-53974000D03*
X199300000Y-50674000D03*
%TD*%
%TO.C,D25*%
X116803000Y-112650000D03*
X116803000Y-115950000D03*
X121703000Y-115950000D03*
X121703000Y-112650000D03*
%TD*%
%TO.C,D2*%
X101182000Y-65914000D03*
X101182000Y-69214000D03*
X106082000Y-69214000D03*
X106082000Y-65914000D03*
%TD*%
%TO.C,D12*%
X114099000Y-122301000D03*
X114099000Y-125601000D03*
X118999000Y-125601000D03*
X118999000Y-122301000D03*
%TD*%
%TO.C,D34*%
X173355000Y-121539000D03*
X173355000Y-124839000D03*
X178255000Y-124839000D03*
X178255000Y-121539000D03*
%TD*%
%TO.C,D19*%
X115406000Y-88012000D03*
X115406000Y-91312000D03*
X120306000Y-91312000D03*
X120306000Y-88012000D03*
%TD*%
%TO.C,D8*%
X86540000Y-110236000D03*
X86540000Y-113536000D03*
X91440000Y-113536000D03*
X91440000Y-110236000D03*
%TD*%
%TO.C,D43*%
X169524172Y-89688901D03*
X169524172Y-92988901D03*
X174424172Y-92988901D03*
X174424172Y-89688901D03*
%TD*%
%TO.C,D41*%
X156300000Y-90298000D03*
X156300000Y-93598000D03*
X161200000Y-93598000D03*
X161200000Y-90298000D03*
%TD*%
%TO.C,D28*%
X116639000Y-139065000D03*
X116639000Y-142365000D03*
X121539000Y-142365000D03*
X121539000Y-139065000D03*
%TD*%
%TO.C,D17*%
X115660000Y-72772000D03*
X115660000Y-76072000D03*
X120560000Y-76072000D03*
X120560000Y-72772000D03*
%TD*%
%TO.C,D45*%
X171921000Y-61469000D03*
X171921000Y-64769000D03*
X176821000Y-64769000D03*
X176821000Y-61469000D03*
%TD*%
%TO.C,D30*%
X126963000Y-149734000D03*
X126963000Y-153034000D03*
X131863000Y-153034000D03*
X131863000Y-149734000D03*
%TD*%
%TO.C,D3*%
X92546000Y-70994000D03*
X92546000Y-74294000D03*
X97446000Y-74294000D03*
X97446000Y-70994000D03*
%TD*%
%TO.C,D32*%
X148172000Y-118873000D03*
X148172000Y-122173000D03*
X153072000Y-122173000D03*
X153072000Y-118873000D03*
%TD*%
%TO.C,D29*%
X126709000Y-138431000D03*
X126709000Y-141731000D03*
X131609000Y-141731000D03*
X131609000Y-138431000D03*
%TD*%
%TO.C,D31*%
X135980000Y-139193000D03*
X135980000Y-142493000D03*
X140880000Y-142493000D03*
X140880000Y-139193000D03*
%TD*%
D12*
%TO.C,J3*%
X82947172Y-115976901D03*
D13*
X82947172Y-118516901D03*
X82947172Y-121056901D03*
%TD*%
D14*
%TO.C,BT1*%
X156113000Y-86360000D03*
D15*
X156113000Y-99160000D03*
%TD*%
D16*
%TO.C,J2*%
X136972972Y-69647301D03*
D17*
X139512972Y-69647301D03*
D16*
X142052972Y-69647301D03*
X136972972Y-66472301D03*
X142052972Y-66472301D03*
D17*
X138496972Y-64567301D03*
X140528972Y-64567301D03*
%TD*%
M02*
