%TF.GenerationSoftware,KiCad,Pcbnew,7.0.9*%
%TF.CreationDate,2023-12-28T12:53:38-06:00*%
%TF.ProjectId,bsidesPR,62736964-6573-4505-922e-6b696361645f,rev?*%
%TF.SameCoordinates,Original*%
%TF.FileFunction,Profile,NP*%
%FSLAX46Y46*%
G04 Gerber Fmt 4.6, Leading zero omitted, Abs format (unit mm)*
G04 Created by KiCad (PCBNEW 7.0.9) date 2023-12-28 12:53:38*
%MOMM*%
%LPD*%
G01*
G04 APERTURE LIST*
%TA.AperFunction,Profile*%
%ADD10C,0.100000*%
%TD*%
%TA.AperFunction,Profile*%
%ADD11C,0.194720*%
%TD*%
G04 APERTURE END LIST*
D10*
X127738000Y-128778000D02*
G75*
G03*
X127738000Y-128778000I-1500000J0D01*
G01*
X92710000Y-144804000D02*
G75*
G03*
X92710000Y-144804000I-1500000J0D01*
G01*
X69064000Y-80494000D02*
G75*
G03*
X69064000Y-80494000I-1500000J0D01*
G01*
X57356000Y-108458000D02*
G75*
G03*
X57356000Y-108458000I-1500000J0D01*
G01*
X106124000Y-77978000D02*
G75*
G03*
X106124000Y-77978000I-1500000J0D01*
G01*
D11*
X71107855Y-143046124D02*
X71594561Y-143324526D01*
X127046150Y-150035087D02*
X128145396Y-150534771D01*
X60333073Y-61008798D02*
X59436693Y-60360916D01*
X44580512Y-155218720D02*
X44585552Y-155220013D01*
X32047465Y-69708865D02*
X31677288Y-70495133D01*
X134511047Y-152730341D02*
X135527043Y-152959588D01*
X79705360Y-51795470D02*
X79703353Y-51800873D01*
X149551657Y-150754556D02*
X149556033Y-150751315D01*
X77719731Y-171891511D02*
X78378739Y-172800754D01*
X188367121Y-29416549D02*
X188324891Y-29505561D01*
X31951602Y-126905515D02*
X31433041Y-127727641D01*
X183353799Y-42672706D02*
X183378706Y-43000058D01*
X100607237Y-41722347D02*
X100599179Y-41721203D01*
X183155833Y-46417163D02*
X183144954Y-46427677D01*
X70732894Y-74567639D02*
X70577593Y-74279518D01*
X133140766Y-115263598D02*
X133117391Y-115223447D01*
X30371470Y-75332810D02*
X30309144Y-76152163D01*
X145566052Y-117715235D02*
X144019286Y-117274773D01*
X44555805Y-155210569D02*
X44560674Y-155212423D01*
X108685583Y-166106938D02*
X108870470Y-164792463D01*
X149568689Y-150740983D02*
X149572746Y-150737339D01*
X57308955Y-152704839D02*
X58592085Y-151911780D01*
X152339830Y-147768460D02*
X152738113Y-147272431D01*
X79690932Y-51856869D02*
X79690465Y-51862607D01*
X181416169Y-39107759D02*
X181418750Y-39251812D01*
X84713205Y-44585704D02*
X84150257Y-44996605D01*
X29383408Y-134695137D02*
X29392281Y-135608890D01*
X81433903Y-48062559D02*
X81078760Y-48684968D01*
X198257673Y-41222445D02*
X198285681Y-41211957D01*
X181133170Y-45988919D02*
X180824258Y-45856713D01*
X29776694Y-138397649D02*
X30024699Y-139341736D01*
X107099221Y-170793000D02*
X107620597Y-169711170D01*
X113597643Y-57791616D02*
X113537000Y-56706952D01*
X90328435Y-178241901D02*
X91918846Y-178324108D01*
X51818835Y-100389890D02*
X51574694Y-102622312D01*
X197573245Y-36424444D02*
X197529194Y-36346404D01*
X197931837Y-41525439D02*
X197952991Y-41490117D01*
X86969176Y-177798108D02*
X88678074Y-178067182D01*
X133012081Y-114742174D02*
X133009219Y-114658941D01*
X30630275Y-73702313D02*
X30478597Y-74515944D01*
X197370539Y-35674701D02*
X197357477Y-35636806D01*
X143643905Y-153091445D02*
X144244146Y-152939419D01*
X184156457Y-34535078D02*
X184132500Y-34606328D01*
X79722106Y-61540296D02*
X79722949Y-61548142D01*
X71023306Y-75057422D02*
X71016121Y-75058496D01*
X68948210Y-141863291D02*
X68956444Y-141854566D01*
X191854761Y-28613604D02*
X191782051Y-28559508D01*
X100566672Y-41719480D02*
X100566886Y-41719808D01*
X184561033Y-33870622D02*
X184501779Y-33947428D01*
X68573126Y-70633430D02*
X67820805Y-69420153D01*
X68777906Y-142050282D02*
X68864481Y-141954104D01*
X129234885Y-150996762D02*
X130313903Y-151420746D01*
X197808708Y-36720873D02*
X197741935Y-36650690D01*
X51295352Y-109659421D02*
X51277774Y-114128171D01*
X157907888Y-128241074D02*
X157905416Y-128234694D01*
X133165253Y-113001964D02*
X133264000Y-112259189D01*
X195322155Y-56493551D02*
X195707971Y-56090345D01*
X183187332Y-46380409D02*
X183176944Y-46393575D01*
X182950200Y-41089497D02*
X182968944Y-41119099D01*
X111178000Y-73077085D02*
X111323031Y-72480312D01*
X197529194Y-36346404D02*
X197492052Y-36268356D01*
X42567844Y-118043687D02*
X41378229Y-118706470D01*
X149560331Y-150747972D02*
X149564551Y-150744527D01*
X183141455Y-36394617D02*
X183079161Y-36453417D01*
X110861602Y-74608335D02*
X110873191Y-74519098D01*
X191475780Y-28375235D02*
X191395882Y-28337200D01*
X144244146Y-152939419D02*
X144853602Y-152762687D01*
X75386713Y-166367798D02*
X75721688Y-167599121D01*
X184088370Y-34889722D02*
X184086900Y-34920191D01*
X44575502Y-155217315D02*
X44580512Y-155218720D01*
X195256369Y-32956090D02*
X195043993Y-32755302D01*
X91457503Y-41760816D02*
X88875472Y-42610425D01*
X43811995Y-117395646D02*
X42567844Y-118043687D01*
X34204937Y-147078274D02*
X34955344Y-148009100D01*
X52934164Y-57505144D02*
X51983536Y-57343394D01*
X30678386Y-80260002D02*
X30890175Y-81078540D01*
X197348423Y-52265296D02*
X197385638Y-51594283D01*
X101254569Y-176463841D02*
X102314568Y-175872221D01*
X197028741Y-35004879D02*
X196967977Y-34911318D01*
X68980879Y-141841129D02*
X68988181Y-141844744D01*
X183324665Y-46031407D02*
X183309606Y-46095368D01*
X47212302Y-57485685D02*
X46261311Y-57707177D01*
X145462979Y-152564137D02*
X146062984Y-152346658D01*
X76001876Y-73670918D02*
X75271114Y-73851571D01*
X184082510Y-34954562D02*
X184075229Y-34992587D01*
X70990891Y-75030826D02*
X70981737Y-75015527D01*
X198083562Y-41328862D02*
X198106541Y-41309198D01*
X50075715Y-57208891D02*
X49120486Y-57236945D01*
X133009219Y-114658941D02*
X133008668Y-114569898D01*
X121428444Y-146982220D02*
X122565810Y-147665675D01*
X45313696Y-57993956D02*
X44370440Y-58346426D01*
X199303244Y-40010473D02*
X199325503Y-39933048D01*
X191554452Y-28416484D02*
X191475780Y-28375235D01*
X33849678Y-124512369D02*
X33160290Y-125297675D01*
X197652606Y-42429412D02*
X197683891Y-42265014D01*
X183023149Y-46492099D02*
X183005517Y-46496736D01*
X179740957Y-45386126D02*
G75*
G03*
X142856688Y-58397001I-12744967J-22656224D01*
G01*
X183409083Y-44728251D02*
X183406031Y-44984209D01*
X198033783Y-36904773D02*
X197955123Y-36848697D01*
X197401476Y-35786803D02*
X197392591Y-35749643D01*
X79705558Y-56698270D02*
X79721190Y-61516629D01*
X111857688Y-70430600D02*
X112224421Y-69024441D01*
X198204335Y-41246295D02*
X198230580Y-41233847D01*
X69869486Y-142331243D02*
X70250107Y-142548663D01*
X197255448Y-53121123D02*
X197292055Y-52853671D01*
X70666048Y-142788740D02*
X71107855Y-143046124D01*
X79725437Y-61563729D02*
X79727080Y-61571456D01*
X190293479Y-28135785D02*
X190293448Y-28135816D01*
X67428168Y-143655530D02*
X67747638Y-143265898D01*
X182787004Y-40899257D02*
X182808733Y-40918788D01*
X69306469Y-71900837D02*
X68573126Y-70633430D01*
X133020935Y-114265871D02*
X133029685Y-114151547D01*
X33530933Y-86819845D02*
X33533368Y-86823699D01*
X182332922Y-46426132D02*
X182237824Y-46399733D01*
X147717645Y-118467687D02*
X147022897Y-118204596D01*
X84665319Y-177204176D02*
X85790386Y-177539543D01*
X183039751Y-46487080D02*
X183023149Y-46492099D01*
X48165688Y-57329075D02*
X47212302Y-57485685D01*
X78836409Y-73079129D02*
X78184527Y-73196916D01*
X157922169Y-128314593D02*
X157921870Y-128307735D01*
X133084659Y-113630077D02*
X133165253Y-113001964D01*
X33412864Y-67398286D02*
X32915548Y-68159773D01*
X183884488Y-35458136D02*
X183849923Y-35519006D01*
X30512914Y-79439455D02*
X30678386Y-80260002D01*
X74568266Y-161920666D02*
X74568379Y-161928275D01*
X185301594Y-33071979D02*
X185133585Y-33232098D01*
X130313903Y-151420746D02*
X131381740Y-151806409D01*
X197322881Y-52568963D02*
X197348423Y-52265296D01*
X33535878Y-86827502D02*
X33538463Y-86831254D01*
X77123514Y-170915601D02*
X77719731Y-171891511D01*
X181490220Y-39667785D02*
X181535089Y-39799104D01*
X183407097Y-43741839D02*
X183410636Y-44157285D01*
X110600376Y-47771823D02*
X110074864Y-47078060D01*
X199043965Y-40584193D02*
X199084719Y-40517801D01*
X30890175Y-81078540D02*
X31148534Y-81894321D01*
X182506795Y-46467999D02*
X182422574Y-46448861D01*
X75398871Y-145237485D02*
X77293402Y-146057797D01*
X196968250Y-54256276D02*
X197041242Y-54051714D01*
X197440456Y-36115363D02*
X197432642Y-36078331D01*
X31453714Y-82706595D02*
X31805969Y-83514612D01*
X113634424Y-145578691D02*
X114684064Y-145172337D01*
X150855381Y-119968411D02*
X150272573Y-119643466D01*
X79721190Y-61516629D02*
X79721225Y-61524533D01*
X79692293Y-51845448D02*
X79691542Y-51851149D01*
X193125791Y-30503495D02*
X192987002Y-30297610D01*
X74412189Y-144786329D02*
X74932679Y-145031097D01*
X192364464Y-29161795D02*
X192308733Y-29082060D01*
X81194720Y-66693102D02*
X81688180Y-68234157D01*
X193278650Y-30718846D02*
X193125791Y-30503495D01*
X133481024Y-152461520D02*
X134511047Y-152730341D01*
X108468773Y-157460094D02*
X108115379Y-155855308D01*
X198802617Y-40884038D02*
X198855904Y-40828908D01*
X187274822Y-31333090D02*
X187114938Y-31509647D01*
X188169901Y-29949858D02*
X188147220Y-30013737D01*
X146305705Y-117953789D02*
X145566052Y-117715235D01*
X156406285Y-125337029D02*
X156112370Y-124847849D01*
X184501779Y-33947428D02*
X184445614Y-34023312D01*
X74568379Y-161928275D02*
X74568742Y-161935874D01*
X75293390Y-155251029D02*
X75151875Y-156230561D01*
X198906684Y-37473038D02*
X198855909Y-37415322D01*
X64943624Y-146488000D02*
X66191302Y-145118173D01*
X187922465Y-30461030D02*
X187871558Y-30543822D01*
X198627676Y-37211985D02*
X198564325Y-37168867D01*
X181431992Y-39393556D02*
X181455835Y-39532408D01*
X94914175Y-178218348D02*
X96316269Y-178034062D01*
X108978373Y-162005649D02*
X108899152Y-160537220D01*
X182422574Y-46448861D02*
X182332922Y-46426132D01*
X153507594Y-146217808D02*
X153878066Y-145660565D01*
X80747885Y-49342446D02*
X80439925Y-50036206D01*
X36255506Y-122233620D02*
X35397495Y-122980116D01*
X33528573Y-86815943D02*
X33530933Y-86819845D01*
X182400904Y-40702142D02*
X182472896Y-40732748D01*
X44600836Y-155223204D02*
X44605979Y-155224038D01*
X184297742Y-34246192D02*
X184256018Y-34319149D01*
X196337514Y-55358424D02*
X196467322Y-55181703D01*
X157906668Y-132378110D02*
X157922263Y-128321469D01*
X81814670Y-47474006D02*
X81433903Y-48062559D01*
X195888308Y-33580192D02*
X195684479Y-33369435D01*
X183262589Y-36273867D02*
X183202631Y-36334720D01*
X47869570Y-115542233D02*
X46463067Y-116144693D01*
X64638367Y-65117107D02*
X63803626Y-64181052D01*
X82429018Y-72427435D02*
X82098534Y-72493867D01*
X70999465Y-75044999D02*
X70990891Y-75030826D01*
X49301487Y-99049382D02*
X49850823Y-99359632D01*
X71594561Y-143324526D02*
X72129702Y-143619305D01*
X182031232Y-46335623D02*
X181919709Y-46297757D01*
X44595716Y-155222255D02*
X44600836Y-155223204D01*
X110074864Y-47078060D02*
X109507804Y-46422215D01*
X33558561Y-86855998D02*
X33561709Y-86859302D01*
X49850823Y-99359632D02*
X50275866Y-99589108D01*
X182199795Y-40595783D02*
X182264346Y-40633587D01*
X148389969Y-118743090D02*
X147717645Y-118467687D01*
X187698637Y-30801130D02*
X187634738Y-30889010D01*
X33552468Y-86849211D02*
X33555480Y-86852634D01*
X51983536Y-57343394D02*
X51030393Y-57244508D01*
X197494617Y-44011830D02*
X197529450Y-43478369D01*
X183996497Y-35228793D02*
X183972491Y-35283510D01*
X199363467Y-38468794D02*
X199345560Y-38389555D01*
X36543666Y-149773815D02*
X37369310Y-150593908D01*
X197105979Y-53836957D02*
X197162906Y-53611064D01*
X198199553Y-36997341D02*
X198157208Y-36976891D01*
X198855909Y-37415322D02*
X198802622Y-37360191D01*
X199426096Y-39287335D02*
X199429186Y-39204770D01*
X44585552Y-155220013D02*
X44590621Y-155221191D01*
X183730948Y-35706120D02*
X183686438Y-35769315D01*
X108677354Y-81738827D02*
X111177355Y-82138827D01*
X182742362Y-40863535D02*
X182764882Y-40880849D01*
X184974722Y-33393166D02*
X184825891Y-33554130D01*
X30393506Y-78617648D02*
X30512914Y-79439455D01*
X70922337Y-74910943D02*
X70865859Y-74809772D01*
X197423545Y-36006413D02*
X197422385Y-35971723D01*
X40710946Y-93763096D02*
X40715543Y-93766822D01*
X192915039Y-59376884D02*
X192985868Y-59217692D01*
X140139105Y-153643811D02*
X140146894Y-153644742D01*
X156451473Y-140573423D02*
X156718906Y-139869011D01*
X182623643Y-40792325D02*
X182648218Y-40804619D01*
X67050337Y-68261444D02*
X66262554Y-67157741D01*
X182648218Y-40804619D02*
X182672373Y-40817857D01*
X182264346Y-40633587D02*
X182331385Y-40669064D01*
X198498452Y-37129170D02*
X198430055Y-37093060D01*
X131381740Y-151806409D02*
X132437684Y-152153438D01*
X183488245Y-36023672D02*
X183434157Y-36086960D01*
X135527043Y-152959588D02*
X136528300Y-153148949D01*
X108968440Y-163424715D02*
X108978373Y-162005649D01*
X183182120Y-41641667D02*
X183209920Y-41746858D01*
X154310745Y-122593494D02*
X153883881Y-122180727D01*
X112548189Y-67649115D02*
X112829041Y-66304916D01*
X38207761Y-151363296D02*
X39052884Y-152075081D01*
X40243359Y-119383770D02*
X39163442Y-120075361D01*
X183391664Y-45436228D02*
X183378868Y-45631950D01*
X79703353Y-51800873D02*
X79701485Y-51806320D01*
X183090519Y-41367017D02*
X183122292Y-41451833D01*
X133458453Y-115508548D02*
X133402627Y-115482536D01*
X134464537Y-115732287D02*
X134223044Y-115698422D01*
X183208048Y-46350974D02*
X183197714Y-46366269D01*
X107126588Y-152523065D02*
X106488955Y-150799518D01*
X183209920Y-41746858D02*
X183235902Y-41858689D01*
X55761133Y-58363546D02*
X54823945Y-58015624D01*
X192797385Y-59711957D02*
X192852383Y-59541148D01*
X44611142Y-155224756D02*
X44616324Y-155225358D01*
X149667414Y-119330951D02*
X149039886Y-119030835D01*
X91529776Y-41749112D02*
X91520576Y-41749307D01*
X40635849Y-60421251D02*
X39733897Y-61056757D01*
X149572746Y-150737339D02*
X149576718Y-150733597D01*
X83252425Y-72235379D02*
X82654769Y-72377957D01*
X29392281Y-135608890D02*
X29460666Y-136530826D01*
X136528300Y-153148949D02*
X137514105Y-153298108D01*
X198061039Y-41350366D02*
X198083562Y-41328862D01*
X157905416Y-128234694D02*
X157902752Y-128228383D01*
X199303224Y-38233750D02*
X199278769Y-38157375D01*
X91475178Y-41755734D02*
X91466295Y-41758097D01*
X30024699Y-139341736D02*
X30332941Y-140292408D01*
X128145396Y-150534771D02*
X129234885Y-150996762D01*
X71008284Y-75059827D02*
X70999465Y-75044999D01*
X186506644Y-32097065D02*
X186415617Y-32174668D01*
X195473491Y-33160946D02*
X195256369Y-32956090D01*
X183005517Y-46496736D02*
X182986777Y-46501035D01*
X67820805Y-69420153D02*
X67050337Y-68261444D01*
X193154114Y-58908619D02*
X193252561Y-58755790D01*
X184091232Y-34818962D02*
X184088370Y-34889722D01*
X71070784Y-75049832D02*
X71060737Y-75051820D01*
X193480687Y-58446168D02*
X193611397Y-58286426D01*
X80057904Y-72868651D02*
X78836409Y-73079129D01*
X68049021Y-142902318D02*
X68325622Y-142573059D01*
X195684479Y-33369435D02*
X195473491Y-33160946D01*
X182137739Y-40555725D02*
X182199795Y-40595783D01*
X83594983Y-176793134D02*
X84665319Y-177204176D01*
X31350081Y-71288327D02*
X31066269Y-72087756D01*
X197752627Y-41978525D02*
X197789787Y-41855631D01*
X33951971Y-66646393D02*
X33412864Y-67398286D01*
X197623572Y-42608449D02*
X197652606Y-42429412D01*
X79695393Y-51828491D02*
X79694219Y-51834117D01*
X191232826Y-28270778D02*
X191149879Y-28242394D01*
X194408624Y-32098526D02*
X194202341Y-31868083D01*
X91511401Y-41749868D02*
X91502264Y-41750793D01*
X157914150Y-128260586D02*
X157912257Y-128254024D01*
X182021142Y-40469141D02*
X182078185Y-40513487D01*
X199278769Y-38157375D02*
X199252105Y-38082147D01*
X181676034Y-38070089D02*
X181610701Y-38219109D01*
X79699754Y-51811808D02*
X79698161Y-51817334D01*
X71016121Y-75058496D02*
X71008284Y-75059827D01*
X111323031Y-72480312D02*
X111487059Y-71830031D01*
X199345579Y-39854668D02*
X199363484Y-39775430D01*
X199192098Y-37935514D02*
X199158728Y-37864301D01*
X198746817Y-40936415D02*
X198802617Y-40884038D01*
X59872809Y-151020227D02*
X61149726Y-150031126D01*
X48377369Y-155418882D02*
X49638110Y-155341791D01*
X79690465Y-51862607D02*
X79690142Y-51868359D01*
X181773833Y-40218343D02*
X181818216Y-40272135D01*
X105297301Y-148005139D02*
X107799262Y-147401624D01*
X196903554Y-34815930D02*
X196835585Y-34718837D01*
X182331385Y-40669064D02*
X182400904Y-40702142D01*
X199325503Y-39933048D02*
X199345579Y-39854668D01*
X79690142Y-51868359D02*
X79689961Y-51874122D01*
X199252105Y-38082147D02*
X199223219Y-38008161D01*
X70865859Y-74809772D02*
X70802468Y-74694956D01*
X133736497Y-115601899D02*
X133658353Y-115580062D01*
X197327542Y-35559893D02*
X197310775Y-35520762D01*
X182385733Y-37065457D02*
X182257854Y-37202389D01*
X86618088Y-43500317D02*
X85945766Y-43838773D01*
X113262203Y-63711066D02*
X113414613Y-62462000D01*
X68570746Y-142286389D02*
X68679548Y-142161487D01*
X181966616Y-40422760D02*
X182021142Y-40469141D01*
X197212564Y-53373020D02*
X197255448Y-53121123D01*
X192757539Y-29922179D02*
X192669818Y-29756606D01*
X182078185Y-40513487D02*
X182137739Y-40555725D01*
X188285757Y-29597398D02*
X188249823Y-29692048D01*
X153127489Y-146755322D02*
X153507594Y-146217808D01*
X193252561Y-58755790D02*
X193361247Y-58602131D01*
X182138677Y-37342102D02*
X182028278Y-37484246D01*
X44550976Y-155208604D02*
X44555805Y-155210569D01*
X184392748Y-34098349D02*
X184343388Y-34172617D01*
X198242398Y-37015833D02*
X198199553Y-36997341D01*
X197467257Y-44615873D02*
X197494617Y-44011830D01*
X30291873Y-76973253D02*
X30319910Y-77795331D01*
X71051973Y-75053362D02*
X71044171Y-75054576D01*
X183361340Y-45807255D02*
X183338339Y-45961972D01*
X196045498Y-55716203D02*
X196197021Y-55536062D01*
X199420929Y-39369712D02*
X199426096Y-39287335D01*
X44370440Y-58346426D02*
X43432524Y-58764990D01*
X108899152Y-160537220D02*
X108729658Y-159021383D01*
X182585598Y-46483623D02*
X182506795Y-46467999D01*
X199379233Y-39695428D02*
X199392838Y-39614760D01*
X196967977Y-34911318D02*
X196903554Y-34815930D01*
X196835585Y-34718837D02*
X196764182Y-34620160D01*
X197741935Y-36650690D02*
X197680106Y-36577370D01*
X180824258Y-45856713D02*
X179740957Y-45386126D01*
X191925718Y-28670909D02*
X191854761Y-28613604D01*
X74932679Y-145031097D02*
X75398871Y-145239484D01*
X197408863Y-35823830D02*
X197401476Y-35786803D01*
X149538088Y-150763647D02*
X149542683Y-150760723D01*
X199000709Y-40648667D02*
X199043965Y-40584193D01*
X70802468Y-74694956D02*
X70732894Y-74567639D01*
X74572692Y-161966046D02*
X75119567Y-165073453D01*
X113067029Y-64992136D02*
X113262203Y-63711066D01*
X142508246Y-153309827D02*
X143062174Y-153215877D01*
X184132500Y-34606328D02*
X184113505Y-34677341D01*
X142382453Y-116882978D02*
X140655405Y-116539614D01*
X185661503Y-32758782D02*
X185477863Y-32913856D01*
X199122973Y-40449656D02*
X199158728Y-40379926D01*
X181750536Y-37921741D02*
X181676034Y-38070089D01*
X182727014Y-46504633D02*
X182659000Y-46495808D01*
X133046502Y-115021106D02*
X133034463Y-114959064D01*
X81688180Y-68234157D02*
X81931117Y-68950787D01*
X192708325Y-60082292D02*
X192749515Y-59891596D01*
X133024708Y-114892032D02*
X133017246Y-114819803D01*
X70971175Y-74997327D02*
X70922337Y-74910943D01*
X96316269Y-178034062D02*
X97652767Y-177764628D01*
X62093005Y-62479656D02*
X61218787Y-61715190D01*
X189456829Y-28350173D02*
X189300586Y-28430638D01*
X183005378Y-41182515D02*
X183023076Y-41216388D01*
X182672373Y-40817857D02*
X182696112Y-40832069D01*
X181732005Y-40162880D02*
X181773833Y-40218343D01*
X113537000Y-56706952D02*
X113433900Y-55656044D01*
X79727080Y-61571456D02*
X79728987Y-61579129D01*
X39898544Y-152722366D02*
X40738604Y-153298254D01*
X100566886Y-41719808D02*
X96047354Y-41735410D01*
X132437684Y-152153438D02*
X133481024Y-152461520D01*
X40729891Y-93777276D02*
X40734851Y-93780515D01*
X183434157Y-36086960D02*
X183378451Y-36149847D01*
X183686438Y-35769315D02*
X183639814Y-35832807D01*
X71037008Y-75055579D02*
X71023306Y-75057422D01*
X137514105Y-153298108D02*
X140139105Y-153643811D01*
X182911635Y-41034354D02*
X182931099Y-41061259D01*
X152963467Y-121393066D02*
X152469881Y-121018113D01*
X183309606Y-46095368D02*
X183293296Y-46153893D01*
X198627670Y-41032243D02*
X198688502Y-40985873D01*
X69533637Y-142141828D02*
X69869486Y-142331243D01*
X183540617Y-35960125D02*
X183488245Y-36023672D01*
X111055621Y-73607476D02*
X111113746Y-73351362D01*
X151954016Y-120655705D02*
X151415856Y-120305814D01*
X107620597Y-169711170D02*
X108059528Y-168568247D01*
X192560375Y-29512719D02*
X192515661Y-29420193D01*
X152469881Y-121018113D02*
X151954016Y-120655705D01*
X157917350Y-128273861D02*
X157915848Y-128267200D01*
X44546189Y-155206528D02*
X44550976Y-155208604D01*
X197910681Y-41563527D02*
X197931837Y-41525439D01*
X199278788Y-40086848D02*
X199303244Y-40010473D01*
X71305311Y-74995851D02*
X71177707Y-75026441D01*
X106488955Y-150799518D02*
X105754340Y-149040296D01*
X43432524Y-58764990D02*
X42500931Y-59250051D01*
X33533368Y-86823699D02*
X33535878Y-86827502D01*
X151933004Y-148242734D02*
X152339830Y-147768460D01*
X100615252Y-41723774D02*
X100607237Y-41722347D01*
X133264620Y-115397247D02*
X133227738Y-115366226D01*
X110850446Y-74659822D02*
X110852757Y-74652642D01*
X107668357Y-154208980D02*
X107126588Y-152523065D01*
X181418209Y-46106756D02*
X181133170Y-45988919D01*
X186947842Y-31683545D02*
X186774768Y-31853323D01*
X81931117Y-68950787D02*
X82162004Y-69602483D01*
X192852383Y-59541148D02*
X192915039Y-59376884D01*
X182871604Y-40984426D02*
X182891805Y-41008753D01*
X113288391Y-54639187D02*
X113100526Y-53656671D01*
X199043967Y-37660036D02*
X199000711Y-37595562D01*
X182851028Y-40961343D02*
X182871604Y-40984426D01*
X189782918Y-28226481D02*
X189617886Y-28282081D01*
X91484141Y-41753728D02*
X91475178Y-41755734D01*
X110854831Y-74645394D02*
X110856667Y-74638083D01*
X184099680Y-34748193D02*
X184091232Y-34818962D01*
X91502264Y-41750793D02*
X91493173Y-41752080D01*
X110060538Y-146779538D02*
X111275116Y-146398622D01*
X197955123Y-36848697D02*
X197879934Y-36787136D01*
X187871558Y-30543822D02*
X187817190Y-30628276D01*
X91466295Y-41758097D02*
X91457503Y-41760816D01*
X199430213Y-39122113D02*
X199429185Y-39039456D01*
X110859619Y-74623298D02*
X110860732Y-74615836D01*
X100123329Y-176977676D02*
X101254569Y-176463841D01*
X197432642Y-36078331D02*
X197426985Y-36041982D01*
X85790386Y-177539543D02*
X86969176Y-177798108D01*
X192127012Y-28862065D02*
X192061949Y-28795141D01*
X187817190Y-30628276D02*
X187759502Y-30714132D01*
X196446588Y-34212402D02*
X196270388Y-34003042D01*
X197572266Y-43011803D02*
X197623572Y-42608449D01*
X33541120Y-86834954D02*
X33543850Y-86838601D01*
X33546652Y-86842193D02*
X33549525Y-86845730D01*
X198074261Y-36930509D02*
X198033783Y-36904773D01*
X183302971Y-42234667D02*
X183321714Y-42373699D01*
X193361247Y-58602131D02*
X193480687Y-58446168D01*
X79728987Y-61579129D02*
X80738753Y-65153348D01*
X199363484Y-39775430D02*
X199379233Y-39695428D01*
X197418492Y-49949885D02*
X197422385Y-47811566D01*
X105243826Y-43305166D02*
X104391373Y-42925617D01*
X51519316Y-103204767D02*
X51469233Y-103928572D01*
X69026029Y-141863426D02*
X69035590Y-141868390D01*
X153878066Y-145660565D02*
X154238542Y-145084269D01*
X109507804Y-46422215D02*
X108899391Y-45804677D01*
X133900000Y-106800000D02*
G75*
G03*
X160020380Y-93125663I2400000J27200000D01*
G01*
X182522234Y-36931659D02*
X182385733Y-37065457D01*
X79696708Y-51822896D02*
X79695393Y-51828491D01*
X44605979Y-155224038D02*
X44611142Y-155224756D01*
X198038908Y-41373843D02*
X198061039Y-41350366D01*
X198746823Y-37307814D02*
X198688508Y-37258356D01*
X188412342Y-29330379D02*
X188367121Y-29416549D01*
X30225353Y-130263098D02*
X29939393Y-131129943D01*
X81622534Y-175748528D02*
X82580385Y-176307543D01*
X140178185Y-153645807D02*
X140186008Y-153645408D01*
X198285681Y-37032269D02*
X198242398Y-37015833D01*
X189150000Y-28523357D02*
X189005910Y-28628213D01*
X155458185Y-123907885D02*
X155097878Y-123457043D01*
X188679626Y-28942668D02*
X188621029Y-29014409D01*
X40738604Y-153298254D02*
X41566929Y-153795847D01*
X111487059Y-71830031D02*
X111666480Y-71141656D01*
X184445614Y-34023312D02*
X184392748Y-34098349D01*
X193620677Y-31170002D02*
X193444105Y-30941677D01*
X183238216Y-46297220D02*
X183228315Y-46316454D01*
X53881294Y-57729356D02*
X52934164Y-57505144D01*
X30972358Y-128561547D02*
X30569735Y-129406832D01*
X75801341Y-152324632D02*
X75623012Y-153268564D01*
X187498407Y-31066374D02*
X187426261Y-31155339D01*
X51574694Y-102622312D02*
X51572695Y-102622312D01*
X198285681Y-41211957D02*
X198359130Y-41183522D01*
X83621058Y-45434081D02*
X83124254Y-45899346D01*
X196796113Y-54641160D02*
X196886656Y-54452229D01*
X183639814Y-35832807D02*
X183591173Y-35896457D01*
X79689925Y-51879895D02*
X79705558Y-56698270D01*
X82654769Y-72377957D02*
X82429018Y-72427435D01*
X110860732Y-74615836D02*
X110861602Y-74608335D01*
X182987335Y-41150095D02*
X183005378Y-41182515D01*
X197422385Y-35971723D02*
X197421514Y-35934670D01*
X44570524Y-155215796D02*
X44575502Y-155217315D01*
X198115424Y-36954581D02*
X198074261Y-36930509D01*
X33160290Y-125297675D02*
X32527528Y-126095465D01*
X187426261Y-31155339D02*
X187274822Y-31333090D01*
X62421435Y-148945424D02*
X63686535Y-147764066D01*
X182886563Y-36621848D02*
X182820792Y-36674870D01*
X151415856Y-120305814D02*
X150855381Y-119968411D01*
X140162526Y-153645807D02*
X140170355Y-153645940D01*
X142856685Y-58397008D02*
G75*
G03*
X111177355Y-82138827I-5901815J-25131242D01*
G01*
X111525982Y-49271553D02*
X111084147Y-48503117D01*
X183176944Y-46393575D02*
X183166470Y-46405811D01*
X133117391Y-115223447D02*
X133096272Y-115179326D01*
X108414896Y-167366184D02*
X108685583Y-166106938D01*
X183110076Y-46454646D02*
X183097440Y-46462263D01*
X40702043Y-93755292D02*
X40706445Y-93759252D01*
X33526290Y-86811992D02*
X33528573Y-86815943D01*
X100582966Y-41719769D02*
X100574825Y-41719480D01*
X190379742Y-28131928D02*
X190293479Y-28135785D01*
X75982164Y-151451569D02*
X75801341Y-152324632D01*
X37169307Y-121500511D02*
X36255506Y-122233620D01*
X30478597Y-74515944D02*
X30371470Y-75332810D01*
X193753893Y-58121430D02*
X193908691Y-57949705D01*
X197432925Y-46050445D02*
X197467257Y-44615873D01*
X72413700Y-74686757D02*
X71988931Y-74811117D01*
X35154376Y-65174062D02*
X34532574Y-65904762D01*
X149542683Y-150760723D02*
X149547207Y-150757692D01*
X197187940Y-35273395D02*
X197138835Y-35186039D01*
X51030393Y-57244508D02*
X50075715Y-57208891D01*
X140154703Y-153645408D02*
X140162526Y-153645807D01*
X183260069Y-41977226D02*
X183282424Y-42102530D01*
X183152814Y-41543303D02*
X183182120Y-41641667D01*
X75721688Y-167599121D02*
X76123485Y-168768279D01*
X182986777Y-46501035D02*
X182945483Y-46507861D01*
X192644473Y-60502432D02*
X192708325Y-60082292D01*
X196467322Y-55181703D02*
X196586793Y-55004310D01*
X182951615Y-36567172D02*
X182886563Y-36621848D01*
X71451882Y-74958560D02*
X71305311Y-74995851D01*
X197292055Y-52853671D02*
X197322881Y-52568963D01*
X186139735Y-32393982D02*
X186047354Y-32461980D01*
X44560674Y-155212423D02*
X44565581Y-155214166D01*
X30332941Y-140292408D02*
X30701602Y-141249265D01*
X199325483Y-38311175D02*
X199303224Y-38233750D01*
X157919759Y-128287310D02*
X157918654Y-128280566D01*
X29543467Y-132893777D02*
X29433863Y-133789966D01*
X192602072Y-29608441D02*
X192560375Y-29512719D01*
X183266784Y-46231569D02*
X183257467Y-46254782D01*
X31433041Y-127727641D02*
X30972358Y-128561547D01*
X183282424Y-42102530D02*
X183302971Y-42234667D01*
X198154132Y-41274860D02*
X198178874Y-41259923D01*
X54741082Y-153991685D02*
X56024820Y-153398456D01*
X149039886Y-119030835D02*
X148389969Y-118743090D01*
X122565810Y-147665675D02*
X123696975Y-148313002D01*
X197232932Y-35358441D02*
X197187940Y-35273395D01*
X149547207Y-150757692D02*
X149551657Y-150754556D01*
X72696159Y-143921668D02*
X73276807Y-144222821D01*
X46261311Y-57707177D02*
X45313696Y-57993956D01*
X154928052Y-143877217D02*
X155256360Y-143247812D01*
X133053503Y-113903642D02*
X133084659Y-113630077D01*
X182667280Y-36801346D02*
X182522234Y-36931659D01*
X70020003Y-73221936D02*
X69306469Y-71900837D01*
X188120079Y-30081098D02*
X188088620Y-30151680D01*
X134223044Y-115698422D02*
X134112255Y-115680632D01*
X191782051Y-28559508D02*
X191707692Y-28508622D01*
X32915548Y-68159773D02*
X32460317Y-68930189D01*
X188460448Y-29247066D02*
X188412342Y-29330379D01*
X184256018Y-34319149D02*
X184218424Y-34391565D01*
X53459140Y-154483580D02*
X54741082Y-153991685D01*
X196586793Y-55004310D02*
X196696275Y-54824658D01*
X157910169Y-128247519D02*
X157907888Y-128241074D01*
X197529450Y-43478369D02*
X197572266Y-43011803D01*
X181680136Y-46210019D02*
X181418209Y-46106756D01*
X31638170Y-143192772D02*
X32202361Y-144174682D01*
X133227738Y-115366226D02*
X133195064Y-115333823D01*
X34532574Y-65904762D02*
X33951971Y-66646393D01*
X182891805Y-41008753D02*
X182911635Y-41034354D01*
X191994815Y-28731422D02*
X191925718Y-28670909D01*
X88875472Y-42610425D02*
X88081587Y-42887357D01*
X116285590Y-144448499D02*
X116930121Y-144102796D01*
X191314862Y-28302381D02*
X191232826Y-28270778D01*
X183396463Y-43356266D02*
X183407097Y-43741839D01*
X44565581Y-155214166D02*
X44570524Y-155215796D01*
X133195064Y-115333823D02*
X133166388Y-115299985D01*
X199158728Y-40379926D02*
X199192105Y-40308711D01*
X197273903Y-35440872D02*
X197232932Y-35358441D01*
X78378739Y-172800754D02*
X79099531Y-173642203D01*
X181802682Y-46255915D02*
X181680136Y-46210019D01*
X183070182Y-46475710D02*
X183055403Y-46481632D01*
X184343388Y-34172617D02*
X184297742Y-34246192D01*
X183406031Y-44984209D02*
X183400471Y-45220258D01*
X198106541Y-41309198D02*
X198130043Y-41291241D01*
X193444105Y-30941677D02*
X193278650Y-30718846D01*
X198688502Y-40985873D02*
X198746817Y-40936415D01*
X133911318Y-115642884D02*
X133820748Y-115622822D01*
X70976683Y-75006901D02*
X70971175Y-74997327D01*
X185133585Y-33232098D02*
X184974722Y-33393166D01*
X133014520Y-114373568D02*
X133020935Y-114265871D01*
X69035590Y-141868390D02*
X69135079Y-141921668D01*
X182237824Y-46399733D02*
X182137266Y-46369589D01*
X199413667Y-38792419D02*
X199404305Y-38710704D01*
X106056092Y-43725351D02*
X105243826Y-43305166D01*
X133077413Y-115131032D02*
X133060821Y-115078360D01*
X31148534Y-81894321D02*
X31453714Y-82706595D01*
X69002314Y-141851621D02*
X69017460Y-141859081D01*
X107799262Y-147401624D02*
X108886071Y-147119315D01*
X41566929Y-153795847D02*
X42377383Y-154208249D01*
X183284715Y-46181129D02*
X183275872Y-46207019D01*
X182789655Y-46510173D02*
X182727014Y-46504633D01*
X183144954Y-46427677D02*
X183133754Y-46437399D01*
X191631791Y-28460947D02*
X191554452Y-28416484D01*
X199379218Y-38548796D02*
X199363467Y-38468794D01*
X194001271Y-31635191D02*
X193806891Y-31401835D01*
X189005910Y-28628213D02*
X188869157Y-28745086D01*
X184218424Y-34391565D02*
X184185168Y-34463516D01*
X37369310Y-150593908D02*
X38207761Y-151363296D01*
X66262554Y-67157741D02*
X65458287Y-66109483D01*
X133402627Y-115482536D02*
X133351854Y-115455350D01*
X51383059Y-105687354D02*
X51322366Y-107672892D01*
X194830926Y-32544121D02*
X194618645Y-32324534D01*
X184075229Y-34992587D02*
X184065087Y-35034015D01*
X183228315Y-46316454D02*
X183218253Y-46334370D01*
X151517996Y-148694577D02*
X151933004Y-148242734D01*
X75119567Y-165073453D02*
X75119567Y-165075437D01*
X190638964Y-28139727D02*
X190552590Y-28133900D01*
X120285590Y-146262952D02*
X121428444Y-146982220D01*
X140186008Y-153645408D02*
X140193817Y-153644742D01*
X70577593Y-74279518D02*
X70404200Y-73953559D01*
X30701602Y-141249265D02*
X31135871Y-142215334D01*
X160020379Y-93125666D02*
G75*
G03*
X192448824Y-62566480I6975611J25083316D01*
G01*
X197828613Y-41745768D02*
X197868960Y-41648534D01*
X33549525Y-86845730D02*
X33552468Y-86849211D01*
X197385638Y-51594283D02*
X197407671Y-50827017D01*
X199404314Y-39533521D02*
X199413673Y-39451806D01*
X157899899Y-128222145D02*
X157896857Y-128215985D01*
X82373701Y-70167488D02*
X82559065Y-70624051D01*
X149533424Y-150766464D02*
X149538088Y-150763647D01*
X199413673Y-39451806D02*
X199420929Y-39369712D01*
X71615706Y-74915067D02*
X71451882Y-74958560D01*
X182472896Y-40732748D02*
X182547354Y-40760808D01*
X187634738Y-30889010D02*
X187567947Y-30977511D01*
X186774768Y-31853323D02*
X186596948Y-32017518D01*
X134112255Y-115680632D02*
X134008416Y-115662137D01*
X82658492Y-46393613D02*
X82222415Y-46918095D01*
X69385460Y-142059213D02*
X69533637Y-142141828D01*
X199122973Y-37794572D02*
X199084720Y-37726428D01*
X198802622Y-37360191D02*
X198746823Y-37307814D01*
X140655405Y-116539614D02*
X138837995Y-116244450D01*
X183202631Y-36334720D02*
X183141455Y-36394617D01*
X149584403Y-150725827D02*
X151517996Y-148694577D01*
X80722436Y-175117216D02*
X81622534Y-175748528D01*
X198130043Y-41291241D02*
X198154132Y-41274860D01*
X44541445Y-155204343D02*
X44546189Y-155206528D01*
X196696275Y-54824658D02*
X196796113Y-54641160D01*
X157918654Y-128280566D02*
X157917350Y-128273861D01*
X79721225Y-61524533D02*
X79721531Y-61532424D01*
X183812791Y-35580793D02*
X183773123Y-35643247D01*
X100574825Y-41719480D02*
X100566672Y-41719480D01*
X197789787Y-41855631D02*
X197828613Y-41745768D01*
X198954951Y-37533174D02*
X198906684Y-37473038D01*
X192602809Y-60983541D02*
X192644473Y-60502432D01*
X32822310Y-145154167D02*
X33491880Y-146124330D01*
X133658353Y-115580062D02*
X133586104Y-115557259D01*
X183972491Y-35283510D02*
X183945802Y-35340139D01*
X197450366Y-36152978D02*
X197440456Y-36115363D01*
X112283068Y-50918300D02*
X111925687Y-50076743D01*
X33561709Y-86859302D02*
X33564925Y-86862546D01*
X134008416Y-115662137D02*
X133911318Y-115642884D01*
X183057459Y-41288615D02*
X183090519Y-41367017D01*
X191066126Y-28217228D02*
X190981673Y-28195283D01*
X40706445Y-93759252D02*
X40710946Y-93763096D01*
X199223232Y-40236063D02*
X199252122Y-40162077D01*
X183945802Y-35340139D02*
X183916457Y-35398430D01*
X199223219Y-38008161D02*
X199192098Y-37935514D01*
X183235902Y-41858689D02*
X183260069Y-41977226D01*
X104391373Y-42925617D02*
X103498926Y-42587090D01*
X82580385Y-176307543D02*
X83594983Y-176793134D01*
X154588658Y-144489594D02*
X154928052Y-143877217D01*
X68956444Y-141854566D02*
X68973090Y-141837186D01*
X49120486Y-57236945D02*
X48165688Y-57329075D01*
X47125430Y-155389905D02*
X48377369Y-155418882D01*
X37264041Y-63054212D02*
X36520405Y-63748119D01*
X113433900Y-55656044D02*
X113288391Y-54639187D01*
X183257467Y-46254782D02*
X183247939Y-46276665D01*
X188869157Y-28745086D02*
X188740583Y-28873857D01*
X56024820Y-153398456D02*
X57308955Y-152704839D01*
X133008668Y-114569898D02*
X133010433Y-114474842D01*
X187969767Y-30380160D02*
X187922465Y-30461030D01*
X112597930Y-51795835D02*
X112283068Y-50918300D01*
X111084147Y-48503117D02*
X110600376Y-47771823D01*
X59436693Y-60360916D02*
X58530480Y-59771984D01*
X74569356Y-161943457D02*
X74570219Y-161951017D01*
X116930121Y-144102796D02*
X120285590Y-146262952D01*
X103301913Y-175204657D02*
X104215192Y-174462989D01*
X197392591Y-35749643D02*
X197382262Y-35712294D01*
X183197714Y-46366269D02*
X183187332Y-46380409D01*
X133029685Y-114151547D02*
X133053503Y-113903642D01*
X182846937Y-46512507D02*
X182789655Y-46510173D01*
X181535089Y-39799104D02*
X181590383Y-39925781D01*
X198430051Y-41151167D02*
X198498446Y-41115057D01*
X77293402Y-146057797D02*
X77170355Y-146563642D01*
X156112370Y-124847849D02*
X155796343Y-124371478D01*
X51322366Y-107672892D02*
X51304137Y-108680143D01*
X199392826Y-38629464D02*
X199379218Y-38548796D01*
X194885276Y-56938519D02*
X195322155Y-56493551D01*
X182968944Y-41119099D02*
X182987335Y-41150095D01*
X183015847Y-36510982D02*
X182951615Y-36567172D01*
X147022897Y-118204596D02*
X146305705Y-117953789D01*
X182898875Y-46511710D02*
X182846937Y-46512507D01*
X198430055Y-37093060D02*
X198359132Y-37060704D01*
X68988181Y-141844744D02*
X69002314Y-141851621D01*
X133166388Y-115299985D02*
X133140766Y-115263598D01*
X199000711Y-37595562D02*
X198954951Y-37533174D01*
X188217196Y-29789494D02*
X188187979Y-29889722D01*
X30309144Y-76152163D02*
X30291873Y-76973253D01*
X108115379Y-155855308D02*
X107668357Y-154208980D01*
X44621524Y-155225842D02*
X47125430Y-155389905D01*
X135349034Y-115830596D02*
X134732194Y-115764832D01*
X85945766Y-43838773D02*
X85311256Y-44200164D01*
X62954895Y-63301756D02*
X62093005Y-62479656D01*
X133060821Y-115078360D02*
X133046502Y-115021106D01*
X78184527Y-73196916D02*
X77480320Y-73338323D01*
X182028278Y-37484246D02*
X181926737Y-37628468D01*
X75398871Y-145239484D02*
X75398871Y-145237485D01*
X196270388Y-34003042D02*
X196083953Y-33791850D01*
X70404200Y-73953559D02*
X70020003Y-73221936D01*
X182808733Y-40918788D02*
X182830073Y-40939474D01*
X98922257Y-177411885D02*
X100123329Y-176977676D01*
X149580604Y-150729760D02*
X149584403Y-150725827D01*
X155878266Y-141940620D02*
X156171139Y-141264185D01*
X30319910Y-77795331D02*
X30393506Y-78617648D01*
X190466147Y-28131300D02*
X190379742Y-28131928D01*
X42500931Y-59250051D02*
X41576644Y-59802014D01*
X181610701Y-38219109D02*
X181554615Y-38368449D01*
X113524312Y-61245230D02*
X113591349Y-60061048D01*
X195882597Y-55900435D02*
X196045498Y-55716203D01*
X41576644Y-59802014D02*
X40635849Y-60421251D01*
X181818216Y-40272135D02*
X181865146Y-40324184D01*
X191395882Y-28337200D02*
X191314862Y-28302381D01*
X197868960Y-41648534D02*
X197910681Y-41563527D01*
X75151875Y-156230561D02*
X75032411Y-157162959D01*
X96047354Y-41735410D02*
X91529776Y-41749112D01*
X182830073Y-40939474D02*
X182851028Y-40961343D01*
X183410636Y-44157285D02*
X183409083Y-44728251D01*
X187759502Y-30714132D02*
X187698637Y-30801130D01*
X157915848Y-128267200D02*
X157914150Y-128260586D01*
X197343127Y-35598556D02*
X197327542Y-35559893D01*
X36520405Y-63748119D02*
X35817085Y-64454958D01*
X74939887Y-158018720D02*
X74568793Y-161905438D01*
X136930075Y-115997251D02*
X136079637Y-115904980D01*
X181554615Y-38368449D02*
X181507855Y-38517758D01*
X184017789Y-35176236D02*
X183996497Y-35228793D01*
X51469233Y-103928572D02*
X51423473Y-104765508D01*
X181418750Y-39251812D02*
X181431992Y-39393556D01*
X71060737Y-75051820D02*
X71051973Y-75053362D01*
X80958480Y-65912186D02*
X81194720Y-66693102D01*
X75032411Y-157162959D02*
X74939887Y-158018720D01*
X197414700Y-35860780D02*
X197408863Y-35823830D01*
X193806891Y-31401835D02*
X193620677Y-31170002D01*
X82162004Y-69602483D02*
X82373701Y-70167488D01*
X38871082Y-61707864D02*
X38047698Y-62373905D01*
X63686535Y-147764066D02*
X64943624Y-146488000D01*
X181926737Y-37628468D02*
X181834130Y-37774417D01*
X140201605Y-153643811D02*
X142508246Y-153309827D01*
X77170355Y-146563642D02*
X76160590Y-150678876D01*
X71988931Y-74811117D02*
X71615706Y-74915067D01*
X149556033Y-150751315D02*
X149560331Y-150747972D01*
X193611397Y-58286426D02*
X193753893Y-58121430D01*
X83124254Y-45899346D02*
X82658492Y-46393613D01*
X111275116Y-146398622D02*
X112482259Y-145992896D01*
X198017103Y-41399424D02*
X198038908Y-41373843D01*
X143062174Y-153215877D02*
X143643905Y-153091445D01*
X150272573Y-119643466D02*
X149667414Y-119330951D01*
X183321714Y-42373699D02*
X183353799Y-42672706D01*
X124821227Y-148923889D02*
X125937856Y-149498021D01*
X157920664Y-128294089D02*
X157919759Y-128287310D01*
X77480320Y-73338323D02*
X76745523Y-73498080D01*
X197462309Y-36191081D02*
X197450366Y-36152978D01*
X156171139Y-141264185D02*
X156451473Y-140573423D01*
X123696975Y-148313002D02*
X124821227Y-148923889D01*
X190552590Y-28133900D02*
X190466147Y-28131300D01*
X199084720Y-37726428D02*
X199043967Y-37660036D01*
X192749515Y-59891596D02*
X192797385Y-59711957D01*
X197717280Y-42114852D02*
X197752627Y-41978525D01*
X184687979Y-33713941D02*
X184561033Y-33870622D01*
X192468034Y-29330862D02*
X192417600Y-29244729D01*
X149523893Y-150771767D02*
X149528691Y-150769171D01*
X153434794Y-121780594D02*
X152963467Y-121393066D01*
X33521956Y-86803952D02*
X33524084Y-86807995D01*
X31135871Y-142215334D02*
X31638170Y-143192772D01*
X49638110Y-155341791D02*
X50906253Y-155159579D01*
X133034463Y-114959064D02*
X133024708Y-114892032D01*
X75119567Y-165075437D02*
X75386713Y-166367798D01*
X76160590Y-150678876D02*
X75982164Y-151451569D01*
X183084169Y-46469269D02*
X183070182Y-46475710D01*
X156718906Y-139869011D02*
X156973075Y-139151624D01*
X199084719Y-40517801D02*
X199122973Y-40449656D01*
X190981673Y-28195283D02*
X190896625Y-28176559D01*
X100599179Y-41721203D02*
X100591086Y-41720343D01*
X45110472Y-116762573D02*
X43811995Y-117395646D01*
X183400471Y-45220258D02*
X183391664Y-45436228D01*
X157896857Y-128215985D02*
X156678107Y-125839047D01*
X154715404Y-123018923D02*
X154310745Y-122593494D01*
X79881099Y-174414733D02*
X80722436Y-175117216D01*
X183378706Y-43000058D02*
X183396463Y-43356266D01*
X188088620Y-30151680D02*
X188052987Y-30225225D01*
X133017246Y-114819803D02*
X133012081Y-114742174D01*
X107559282Y-44686072D02*
X106827975Y-44185782D01*
X194076307Y-57769776D02*
X194452059Y-57379406D01*
X34955344Y-148009100D02*
X35736965Y-148909913D01*
X41378229Y-118706470D02*
X40243359Y-119383770D01*
X72129702Y-143619305D02*
X72696159Y-143921668D01*
X103498926Y-42587090D02*
X102566680Y-42289975D01*
X110873191Y-74519098D02*
X110893700Y-74395156D01*
X56691878Y-58772717D02*
X55761133Y-58363546D01*
X66191302Y-145118173D02*
X67428168Y-143655530D01*
X197138835Y-35186039D02*
X197085731Y-35096493D01*
X155796343Y-124371478D02*
X155458185Y-123907885D01*
X108059528Y-168568247D02*
X108414896Y-167366184D01*
X69135079Y-141921668D02*
X69252155Y-141985551D01*
X192669818Y-29756606D02*
X192602072Y-29608441D01*
X183055403Y-46481632D02*
X183039751Y-46487080D01*
X35817085Y-64454958D02*
X35154376Y-65174062D01*
X80439925Y-50036206D02*
X79707503Y-51790113D01*
X190725165Y-28148780D02*
X190638964Y-28139727D01*
X74574976Y-74034768D02*
X73935198Y-74215242D01*
X155573219Y-142602055D02*
X155878266Y-141940620D01*
X146062984Y-152346658D02*
X146644322Y-152113139D01*
X133264000Y-112259189D02*
X133900000Y-106800000D01*
X113591349Y-60061048D02*
X113615776Y-58909746D01*
X74568742Y-161935874D02*
X74569356Y-161943457D01*
X194618645Y-32324534D02*
X194408624Y-32098526D01*
X30569735Y-129406832D02*
X30225353Y-130263098D01*
X190896625Y-28176559D02*
X190811087Y-28161058D01*
X79701485Y-51806320D02*
X79699754Y-51811808D01*
X75452065Y-154253863D02*
X75293390Y-155251029D01*
X149528691Y-150769171D02*
X149533424Y-150766464D01*
X74571331Y-161958549D02*
X74572692Y-161966046D01*
X68679548Y-142161487D02*
X68777906Y-142050282D01*
X182547354Y-40760808D02*
X182598644Y-40780945D01*
X187567947Y-30977511D02*
X187498407Y-31066374D01*
X82222415Y-46918095D02*
X81814670Y-47474006D01*
X154238542Y-145084269D02*
X154588658Y-144489594D01*
X157902752Y-128228383D02*
X157899899Y-128222145D01*
X197407671Y-50827017D02*
X197418492Y-49949885D01*
X138837995Y-116244450D02*
X136930075Y-115997251D01*
X42377383Y-154208249D02*
X44541445Y-155204343D01*
X39733897Y-61056757D02*
X38871082Y-61707864D01*
X193065388Y-59062095D02*
X193154114Y-58908619D01*
X199392838Y-39614760D02*
X199404314Y-39533521D01*
X73373519Y-74387723D02*
X72878925Y-74544716D01*
X102566680Y-42289975D02*
X100631125Y-41727475D01*
X35397495Y-122980116D02*
X34595482Y-123739774D01*
X197426985Y-36041982D02*
X197423545Y-36006413D01*
X46463067Y-116144693D02*
X45110472Y-116762573D01*
X39052884Y-152075081D02*
X39898544Y-152722366D01*
X197492052Y-36268356D02*
X197462309Y-36191081D01*
X188324891Y-29505561D02*
X188285757Y-29597398D01*
X35736965Y-148909913D02*
X36543666Y-149773815D01*
X76745523Y-73498080D02*
X76001876Y-73670918D01*
X198178874Y-41259923D02*
X198204335Y-41246295D01*
X198359130Y-41183522D02*
X198430051Y-41151167D01*
X197421514Y-35934670D02*
X197418934Y-35897708D01*
X110922662Y-74239266D02*
X110959613Y-74054185D01*
X181470498Y-38666684D02*
X181442623Y-38814875D01*
X199345560Y-38389555D02*
X199325483Y-38311175D01*
X140193817Y-153644742D02*
X140201605Y-153643811D01*
X192448824Y-62566480D02*
X192500000Y-61700000D01*
X40720235Y-93770428D02*
X40725018Y-93773914D01*
X199426094Y-38956891D02*
X199420925Y-38874513D01*
X197418934Y-35897708D02*
X197414700Y-35860780D01*
X110858264Y-74630716D02*
X110859619Y-74623298D01*
X50275866Y-99589108D02*
X51818835Y-100389890D01*
X113615776Y-58909746D02*
X113597643Y-57791616D01*
X190293448Y-28135816D02*
X190121540Y-28153229D01*
X197382262Y-35712294D02*
X197370539Y-35674701D01*
X74570219Y-161951017D02*
X74571331Y-161958549D01*
X29939393Y-131129943D02*
X29712038Y-132006969D01*
X115583635Y-144790163D02*
X116285590Y-144448499D01*
X197162906Y-53611064D02*
X197212564Y-53373020D01*
X33491880Y-146124330D02*
X34204937Y-147078274D01*
X183849923Y-35519006D02*
X183812791Y-35580793D01*
X198230580Y-41233847D02*
X198257673Y-41222445D01*
X183133754Y-46437399D02*
X183122154Y-46446373D01*
X108249819Y-45225833D02*
X107559282Y-44686072D01*
X61218787Y-61715190D02*
X60333073Y-61008798D01*
X183293296Y-46153893D02*
X183284715Y-46181129D01*
X114684064Y-145172337D02*
X115583635Y-144790163D01*
X63803626Y-64181052D02*
X62954895Y-63301756D01*
X198564319Y-41075360D02*
X198627670Y-41032243D01*
X69252155Y-141985551D02*
X69385460Y-142059213D01*
X199158728Y-37864301D02*
X199122973Y-37794572D01*
X156973075Y-139151624D02*
X157889090Y-136436749D01*
X79693186Y-51839770D02*
X79692293Y-51845448D01*
X194202341Y-31868083D02*
X194001271Y-31635191D01*
X195707971Y-56090345D02*
X195882597Y-55900435D01*
X186324020Y-32250143D02*
X186232008Y-32323309D01*
X183079161Y-36453417D02*
X183015847Y-36510982D01*
X191707692Y-28508622D02*
X191631791Y-28460947D01*
X181919709Y-46297757D02*
X181802682Y-46255915D01*
X33543850Y-86838601D02*
X33546652Y-86842193D01*
X152738113Y-147272431D02*
X153127489Y-146755322D01*
X183218253Y-46334370D02*
X183208048Y-46350974D01*
X105754340Y-149040296D02*
X105297301Y-148005139D01*
X183097440Y-46462263D02*
X183084169Y-46469269D01*
X157921870Y-128307735D02*
X157921368Y-128300899D01*
X188187979Y-29889722D02*
X188169901Y-29949858D01*
X68325622Y-142573059D02*
X68570746Y-142286389D01*
X190121540Y-28153229D02*
X189951083Y-28183491D01*
X182719440Y-40847285D02*
X182742362Y-40863535D01*
X186596948Y-32017518D02*
X186506644Y-32097065D01*
X197310775Y-35520762D02*
X197273903Y-35440872D01*
X182659000Y-46495808D02*
X182585598Y-46483623D01*
X133351854Y-115455350D02*
X133305922Y-115426938D01*
X189951083Y-28183491D02*
X189782918Y-28226481D01*
X108886071Y-147119315D02*
X110060538Y-146779538D01*
X189300586Y-28430638D02*
X189150000Y-28523357D01*
X58530480Y-59771984D02*
X57615265Y-59242438D01*
X38138689Y-120781016D02*
X37169307Y-121500511D01*
X133096272Y-115179326D02*
X133077413Y-115131032D01*
X32460317Y-68930189D02*
X32047465Y-69708865D01*
X44616324Y-155225358D02*
X44621524Y-155225842D01*
X184052113Y-35078598D02*
X184036337Y-35126088D01*
X190811087Y-28161058D02*
X190725165Y-28148780D01*
X188621029Y-29014409D02*
X188564897Y-29089066D01*
X197623712Y-36501694D02*
X197573245Y-36424444D01*
X133305922Y-115426938D02*
X133264620Y-115397247D01*
X111113746Y-73351362D02*
X111178000Y-73077085D01*
X100591086Y-41720343D02*
X100582966Y-41719769D01*
X183338339Y-45961972D02*
X183324665Y-46031407D01*
X197995559Y-41427242D02*
X198017103Y-41399424D01*
X181590383Y-39925781D02*
X181656041Y-40047235D01*
X85311256Y-44200164D02*
X84713205Y-44585704D01*
X192863759Y-30103176D02*
X192757539Y-29922179D01*
X61149726Y-150031126D02*
X62421435Y-148945424D01*
X88081587Y-42887357D02*
X87329577Y-43183583D01*
X133820748Y-115622822D02*
X133736497Y-115601899D01*
X47919897Y-98240262D02*
X49301487Y-99049382D01*
X134732194Y-115764832D02*
X134464537Y-115732287D01*
X31805969Y-83514612D02*
X32205550Y-84317624D01*
X108870470Y-164792463D02*
X108968440Y-163424715D01*
X75271114Y-73851571D02*
X74574976Y-74034768D01*
X51572695Y-102622312D02*
X51519316Y-103204767D01*
X71044171Y-75054576D02*
X71037008Y-75055579D01*
X197041242Y-54051714D02*
X197105979Y-53836957D01*
X183275872Y-46207019D02*
X183266784Y-46231569D01*
X149564551Y-150744527D02*
X149568689Y-150740983D01*
X133586104Y-115557259D02*
X133519541Y-115533439D01*
X106496520Y-171811780D02*
X107099221Y-170793000D01*
X196083953Y-33791850D02*
X195888308Y-33580192D01*
X157922263Y-128321469D02*
X157922169Y-128314593D01*
X51304137Y-108680143D02*
X51295352Y-109659421D01*
X196197021Y-55536062D02*
X196337514Y-55358424D01*
X181507855Y-38517758D02*
X181470498Y-38666684D01*
X199429185Y-39039456D02*
X199426094Y-38956891D01*
X199429186Y-39204770D02*
X199430213Y-39122113D01*
X183247939Y-46276665D02*
X183238216Y-46297220D01*
X192515661Y-29420193D02*
X192468034Y-29330862D01*
X181424308Y-38961980D02*
X181416169Y-39107759D01*
X79694219Y-51834117D02*
X79693186Y-51839770D01*
X184036337Y-35126088D02*
X184017789Y-35176236D01*
X31677288Y-70495133D02*
X31350081Y-71288327D01*
X157912257Y-128254024D02*
X157910169Y-128247519D01*
X29712038Y-132006969D02*
X29543467Y-132893777D01*
X192987002Y-30297610D02*
X192863759Y-30103176D01*
X79722949Y-61548142D02*
X79724059Y-61555955D01*
X125937856Y-149498021D02*
X127046150Y-150035087D01*
X79099531Y-173642203D02*
X79881099Y-174414733D01*
X97652767Y-177764628D02*
X98922257Y-177411885D01*
X44654772Y-96243405D02*
X46311019Y-97269139D01*
X188052987Y-30225225D02*
X188013322Y-30301471D01*
X198157208Y-36976891D02*
X198115424Y-36954581D01*
X188740583Y-28873857D02*
X188679626Y-28942668D01*
X184185168Y-34463516D02*
X184156457Y-34535078D01*
X183122154Y-46446373D02*
X183110076Y-46454646D01*
X146644322Y-152113139D02*
X147197699Y-151866467D01*
X52180397Y-154873193D02*
X53459140Y-154483580D01*
X111925687Y-50076743D02*
X111525982Y-49271553D01*
X140170355Y-153645940D02*
X140178185Y-153645807D01*
X183378451Y-36149847D02*
X183321229Y-36212196D01*
X188511335Y-29166623D02*
X188460448Y-29247066D01*
X144019286Y-117274773D02*
X142382453Y-116882978D01*
X40697741Y-93751218D02*
X40702043Y-93755292D01*
X111666480Y-71141656D02*
X111857688Y-70430600D01*
X184086900Y-34920191D02*
X184082510Y-34954562D01*
X182257854Y-37202389D02*
X182138677Y-37342102D01*
X198564325Y-37168867D02*
X198498452Y-37129170D01*
X110847899Y-74666928D02*
X110850446Y-74659822D01*
X186232008Y-32323309D02*
X186139735Y-32393982D01*
X196764182Y-34620160D02*
X196611528Y-34418564D01*
X194452059Y-57379406D02*
X194885276Y-56938519D01*
X91493173Y-41752080D02*
X91484141Y-41753728D01*
X100631125Y-41727475D02*
X100623217Y-41725484D01*
X183122292Y-41451833D02*
X183152814Y-41543303D01*
X193908691Y-57949705D02*
X194076307Y-57769776D01*
X111004088Y-73842669D02*
X111055621Y-73607476D01*
X70981737Y-75015527D02*
X70976683Y-75006901D01*
X44590621Y-155221191D02*
X44595716Y-155222255D01*
X87329577Y-43183583D02*
X86618088Y-43500317D01*
X157889090Y-136436749D02*
X157906668Y-132380109D01*
X58592085Y-151911780D02*
X59872809Y-151020227D01*
X192500000Y-61700000D02*
X192602809Y-60983541D01*
X153883881Y-122180727D02*
X153434794Y-121780594D01*
X198906680Y-40771191D02*
X198954948Y-40711056D01*
X110852757Y-74652642D02*
X110854831Y-74645394D01*
X40715543Y-93766822D02*
X40720235Y-93770428D01*
X79698161Y-51817334D02*
X79696708Y-51822896D01*
X32202361Y-144174682D02*
X32822310Y-145154167D01*
X183916457Y-35398430D02*
X183884488Y-35458136D01*
X51423473Y-104765508D02*
X51383059Y-105687354D01*
X102314568Y-175872221D02*
X103301913Y-175204657D01*
X136079637Y-115904980D02*
X135349034Y-115830596D01*
X65458287Y-66109483D02*
X64638367Y-65117107D01*
X183166470Y-46405811D02*
X183155833Y-46417163D01*
X32527528Y-126095465D02*
X31951602Y-126905515D01*
X72878925Y-74544716D02*
X72413700Y-74686757D01*
X157906668Y-132380109D02*
X157906668Y-132378110D01*
X37131335Y-90305905D02*
X40697741Y-93751218D01*
X110893700Y-74395156D02*
X110922662Y-74239266D01*
X198954948Y-40711056D02*
X199000709Y-40648667D01*
X51277774Y-114128171D02*
X47869570Y-115542233D01*
X196886656Y-54452229D02*
X196968250Y-54256276D01*
X82098534Y-72493867D02*
X81189096Y-72665498D01*
X110856667Y-74638083D02*
X110858264Y-74630716D01*
X105052994Y-173649060D02*
X105813907Y-172764710D01*
X147197699Y-151866467D02*
X149514105Y-150776624D01*
X181442623Y-38814875D02*
X181424308Y-38961980D01*
X181455835Y-39532408D02*
X181490220Y-39667785D01*
X31066269Y-72087756D02*
X30826249Y-72892668D01*
X197952991Y-41490117D02*
X197974210Y-41457429D01*
X182598644Y-40780945D02*
X182623643Y-40792325D01*
X79721531Y-61532424D02*
X79722106Y-61540296D01*
X113414613Y-62462000D02*
X113524312Y-61245230D01*
X188147220Y-30013737D02*
X188120079Y-30081098D01*
X68937934Y-141874280D02*
X68948210Y-141863291D01*
X182137266Y-46369589D02*
X182031232Y-46335623D01*
X182764882Y-40880849D02*
X182787004Y-40899257D01*
X144853602Y-152762687D02*
X145462979Y-152564137D01*
X40725018Y-93773914D02*
X40729891Y-93777276D01*
X181865146Y-40324184D02*
X181914615Y-40374417D01*
X196611528Y-34418564D02*
X196446588Y-34212402D01*
X189617886Y-28282081D02*
X189456829Y-28350173D01*
X91520576Y-41749307D02*
X91511401Y-41749868D01*
X76123485Y-168768279D02*
X76591097Y-169874148D01*
X73276807Y-144222821D02*
X73854524Y-144513973D01*
X197879934Y-36787136D02*
X197808708Y-36720873D01*
X199420925Y-38874513D02*
X199413667Y-38792419D01*
X100623217Y-41725484D02*
X100615252Y-41723774D01*
X104215192Y-174462989D02*
X105052994Y-173649060D01*
X46311019Y-97269139D02*
X47919897Y-98240262D01*
X155097878Y-123457043D02*
X154715404Y-123018923D01*
X133010433Y-114474842D02*
X133014520Y-114373568D01*
X198855904Y-40828908D02*
X198906680Y-40771191D01*
X149519030Y-150774252D02*
X149523893Y-150771767D01*
X70250107Y-142548663D02*
X70666048Y-142788740D01*
X33524084Y-86807995D02*
X33526290Y-86811992D01*
X81189096Y-72665498D02*
X80057904Y-72868651D01*
X33555480Y-86852634D02*
X33558561Y-86855998D01*
X197680106Y-36577370D02*
X197623712Y-36501694D01*
X112829041Y-66304916D02*
X113067029Y-64992136D01*
X73854524Y-144513973D02*
X74412189Y-144786329D01*
X40734851Y-93780515D02*
X44654772Y-96243405D01*
X76591097Y-169874148D02*
X77123514Y-170915601D01*
X182696112Y-40832069D02*
X182719440Y-40847285D01*
X181834130Y-37774417D02*
X181750536Y-37921741D01*
X191149879Y-28242394D02*
X191066126Y-28217228D01*
X108899391Y-45804677D02*
X108249819Y-45225833D01*
X108677354Y-81738827D02*
X110847899Y-74666928D01*
X197357477Y-35636806D02*
X197343127Y-35598556D01*
X186415617Y-32174668D02*
X186324020Y-32250143D01*
X68864481Y-141954104D02*
X68937934Y-141874280D01*
X197974210Y-41457429D02*
X197995559Y-41427242D01*
X79724059Y-61555955D02*
X79725437Y-61563729D01*
X192417600Y-29244729D02*
X192364464Y-29161795D01*
X187114938Y-31509647D02*
X186947842Y-31683545D01*
X110959613Y-74054185D02*
X111004088Y-73842669D01*
X73935198Y-74215242D02*
X73373519Y-74387723D01*
X155256360Y-143247812D02*
X155573219Y-142602055D01*
X197085731Y-35096493D02*
X197028741Y-35004879D01*
X185851629Y-32607807D02*
X185661503Y-32758782D01*
X108729658Y-159021383D02*
X108468773Y-157460094D01*
X181656041Y-40047235D02*
X181732005Y-40162880D01*
X184065087Y-35034015D02*
X184052113Y-35078598D01*
X199404305Y-38710704D02*
X199392826Y-38629464D01*
X74568404Y-161913051D02*
X74568266Y-161920666D01*
X80738753Y-65153348D02*
X80958480Y-65912186D01*
X183023076Y-41216388D02*
X183057459Y-41288615D01*
X192308733Y-29082060D02*
X192250510Y-29005526D01*
X54823945Y-58015624D02*
X53881294Y-57729356D01*
X133519541Y-115533439D02*
X133458453Y-115508548D01*
X69017460Y-141859081D02*
X69026029Y-141863426D01*
X198359132Y-37060704D02*
X198285681Y-37032269D01*
X181914615Y-40374417D02*
X181966616Y-40422760D01*
X112870356Y-52708790D02*
X112597930Y-51795835D01*
X34595482Y-123739774D02*
X33849678Y-124512369D01*
X188013322Y-30301471D02*
X187969767Y-30380160D01*
X68973090Y-141837186D02*
X68980879Y-141841129D01*
X199252122Y-40162077D02*
X199278788Y-40086848D01*
X50906253Y-155159579D02*
X52180397Y-154873193D01*
X192985868Y-59217692D02*
X193065388Y-59062095D01*
X112224421Y-69024441D02*
X112548189Y-67649115D01*
X149514105Y-150776624D02*
X149519030Y-150774252D01*
X188564897Y-29089066D02*
X188511335Y-29166623D01*
X33538463Y-86831254D02*
X33541120Y-86834954D01*
X38047698Y-62373905D02*
X37264041Y-63054212D01*
X195043993Y-32755302D02*
X194830926Y-32544121D01*
X198688508Y-37258356D02*
X198627676Y-37211985D01*
X182820792Y-36674870D02*
X182667280Y-36801346D01*
X39163442Y-120075361D02*
X38138689Y-120781016D01*
X57615265Y-59242438D02*
X56691878Y-58772717D01*
X184825891Y-33554130D02*
X184687979Y-33713941D01*
X81078760Y-48684968D02*
X80747885Y-49342446D01*
X197683891Y-42265014D02*
X197717280Y-42114852D01*
X93447897Y-178315643D02*
X94914175Y-178218348D01*
X198498446Y-41115057D02*
X198564319Y-41075360D01*
X113100526Y-53656671D02*
X112870356Y-52708790D01*
X79691542Y-51851149D02*
X79690932Y-51856869D01*
X67747638Y-143265898D02*
X68049021Y-142902318D01*
X82559065Y-70624051D02*
X83252425Y-72235379D01*
X29433863Y-133789966D02*
X29383408Y-134695137D01*
X91918846Y-178324108D02*
X93447897Y-178315643D01*
X192189901Y-28932194D02*
X192127012Y-28862065D01*
X185477863Y-32913856D02*
X185301594Y-33071979D01*
X199192105Y-40308711D02*
X199223232Y-40236063D01*
X79689961Y-51874122D02*
X79689925Y-51879895D01*
X197422385Y-47811566D02*
X197432925Y-46050445D01*
X188249823Y-29692048D02*
X188217196Y-29789494D01*
X149576718Y-150733597D02*
X149580604Y-150729760D01*
X71177707Y-75026441D02*
X71070784Y-75049832D01*
X192061949Y-28795141D02*
X191994815Y-28731422D01*
X74568793Y-161905438D02*
X74568404Y-161913051D01*
X183378868Y-45631950D02*
X183361340Y-45807255D01*
X29460666Y-136530826D02*
X29588743Y-137460546D01*
X186047354Y-32461980D02*
X185851629Y-32607807D01*
X183321229Y-36212196D02*
X183262589Y-36273867D01*
X182931099Y-41061259D02*
X182950200Y-41089497D01*
X105813907Y-172764710D02*
X106496520Y-171811780D01*
X182945483Y-46507861D02*
X182898875Y-46511710D01*
X183591173Y-35896457D02*
X183540617Y-35960125D01*
X32205550Y-84317624D02*
X33521956Y-86803952D01*
X33564925Y-86862546D02*
X37131335Y-90305905D01*
X75623012Y-153268564D02*
X75452065Y-154253863D01*
X112482259Y-145992896D02*
X113634424Y-145578691D01*
X183773123Y-35643247D02*
X183730948Y-35706120D01*
X106827975Y-44185782D02*
X106056092Y-43725351D01*
X184113505Y-34677341D02*
X184099680Y-34748193D01*
X84150257Y-44996605D02*
X83621058Y-45434081D01*
X30826249Y-72892668D02*
X30630275Y-73702313D01*
X29588743Y-137460546D02*
X29776694Y-138397649D01*
X157921368Y-128300899D02*
X157920664Y-128294089D01*
X79707503Y-51790113D02*
X79705360Y-51795470D01*
X140146894Y-153644742D02*
X140154703Y-153645408D01*
X156678107Y-125839047D02*
X156406285Y-125337029D01*
X88678074Y-178067182D02*
X90328435Y-178241901D01*
X192250510Y-29005526D02*
X192189901Y-28932194D01*
M02*
